G04 #@! TF.FileFunction,Soldermask,Bot*
%FSLAX46Y46*%
G04 Gerber Fmt 4.6, Leading zero omitted, Abs format (unit mm)*
G04 Created by KiCad (PCBNEW 4.0.7) date Wed Oct 11 15:04:58 2017*
%MOMM*%
%LPD*%
G01*
G04 APERTURE LIST*
%ADD10C,0.200000*%
%ADD11C,2.200000*%
%ADD12R,1.670000X1.670000*%
%ADD13C,1.670000*%
%ADD14R,2.051000X2.051000*%
%ADD15C,2.051000*%
%ADD16R,2.305000X2.305000*%
%ADD17C,2.305000*%
%ADD18C,1.720800*%
%ADD19O,3.194000X1.797000*%
G04 APERTURE END LIST*
D10*
D11*
X70358000Y-99060000D03*
X93218000Y-99060000D03*
X70358000Y-96520000D03*
X93218000Y-96520000D03*
X70358000Y-93980000D03*
X93218000Y-93980000D03*
X70358000Y-91440000D03*
X93218000Y-91440000D03*
X70358000Y-88900000D03*
X93218000Y-88900000D03*
X70358000Y-86360000D03*
X93218000Y-86360000D03*
X70358000Y-83820000D03*
X93218000Y-83820000D03*
X70358000Y-81280000D03*
X93218000Y-81280000D03*
X38354000Y-99314000D03*
X61214000Y-99314000D03*
X38354000Y-96774000D03*
X61214000Y-96774000D03*
X38354000Y-94234000D03*
X61214000Y-94234000D03*
X38354000Y-91694000D03*
X61214000Y-91694000D03*
X38354000Y-89154000D03*
X61214000Y-89154000D03*
X38354000Y-86614000D03*
X61214000Y-86614000D03*
X38354000Y-84074000D03*
X61214000Y-84074000D03*
X38354000Y-81534000D03*
X61214000Y-81534000D03*
D12*
X41704260Y-62738000D03*
D13*
X43705780Y-62738000D03*
X45702220Y-62738000D03*
X47703740Y-62738000D03*
D14*
X66040000Y-99314000D03*
D15*
X66040000Y-96774000D03*
X66040000Y-94234000D03*
D12*
X84630260Y-62738000D03*
D13*
X86631780Y-62738000D03*
X88628220Y-62738000D03*
X90629740Y-62738000D03*
D16*
X46101000Y-97409000D03*
D17*
X46101000Y-93091000D03*
X53467000Y-93091000D03*
X53467000Y-97409000D03*
D18*
X43688000Y-91567000D03*
X43688000Y-81407000D03*
X54102000Y-74549000D03*
X54102000Y-84709000D03*
X57023000Y-88138000D03*
X46863000Y-88138000D03*
D15*
X93726000Y-67056000D03*
X93726000Y-71120000D03*
D14*
X93726000Y-69088000D03*
D19*
X93726000Y-64922400D03*
X93726000Y-73253600D03*
M02*
