G04 #@! TF.FileFunction,Copper,L2,Bot,Signal*
%FSLAX46Y46*%
G04 Gerber Fmt 4.6, Leading zero omitted, Abs format (unit mm)*
G04 Created by KiCad (PCBNEW 4.0.7) date Wed Oct 11 15:04:58 2017*
%MOMM*%
%LPD*%
G01*
G04 APERTURE LIST*
%ADD10C,0.200000*%
%ADD11C,1.800000*%
%ADD12R,1.270000X1.270000*%
%ADD13C,1.270000*%
%ADD14R,1.651000X1.651000*%
%ADD15C,1.651000*%
%ADD16R,1.905000X1.905000*%
%ADD17C,1.905000*%
%ADD18C,1.320800*%
%ADD19O,2.794000X1.397000*%
%ADD20C,0.400000*%
%ADD21C,0.254000*%
G04 APERTURE END LIST*
D10*
D11*
X70358000Y-99060000D03*
X93218000Y-99060000D03*
X70358000Y-96520000D03*
X93218000Y-96520000D03*
X70358000Y-93980000D03*
X93218000Y-93980000D03*
X70358000Y-91440000D03*
X93218000Y-91440000D03*
X70358000Y-88900000D03*
X93218000Y-88900000D03*
X70358000Y-86360000D03*
X93218000Y-86360000D03*
X70358000Y-83820000D03*
X93218000Y-83820000D03*
X70358000Y-81280000D03*
X93218000Y-81280000D03*
X38354000Y-99314000D03*
X61214000Y-99314000D03*
X38354000Y-96774000D03*
X61214000Y-96774000D03*
X38354000Y-94234000D03*
X61214000Y-94234000D03*
X38354000Y-91694000D03*
X61214000Y-91694000D03*
X38354000Y-89154000D03*
X61214000Y-89154000D03*
X38354000Y-86614000D03*
X61214000Y-86614000D03*
X38354000Y-84074000D03*
X61214000Y-84074000D03*
X38354000Y-81534000D03*
X61214000Y-81534000D03*
D12*
X41704260Y-62738000D03*
D13*
X43705780Y-62738000D03*
X45702220Y-62738000D03*
X47703740Y-62738000D03*
D14*
X66040000Y-99314000D03*
D15*
X66040000Y-96774000D03*
X66040000Y-94234000D03*
D12*
X84630260Y-62738000D03*
D13*
X86631780Y-62738000D03*
X88628220Y-62738000D03*
X90629740Y-62738000D03*
D16*
X46101000Y-97409000D03*
D17*
X46101000Y-93091000D03*
X53467000Y-93091000D03*
X53467000Y-97409000D03*
D18*
X43688000Y-91567000D03*
X43688000Y-81407000D03*
X54102000Y-74549000D03*
X54102000Y-84709000D03*
X57023000Y-88138000D03*
X46863000Y-88138000D03*
D15*
X93726000Y-67056000D03*
X93726000Y-71120000D03*
D14*
X93726000Y-69088000D03*
D19*
X93726000Y-64922400D03*
X93726000Y-73253600D03*
D20*
X66040000Y-99314000D02*
X67056000Y-99314000D01*
X91694000Y-69088000D02*
X93726000Y-69088000D01*
X88138000Y-65532000D02*
X91694000Y-69088000D01*
X70612000Y-65532000D02*
X88138000Y-65532000D01*
X66040000Y-70104000D02*
X70612000Y-65532000D01*
X66040000Y-90932000D02*
X66040000Y-70104000D01*
X67818000Y-92710000D02*
X66040000Y-90932000D01*
X67818000Y-98552000D02*
X67818000Y-92710000D01*
X67056000Y-99314000D02*
X67818000Y-98552000D01*
X61214000Y-99314000D02*
X66040000Y-99314000D01*
X61214000Y-94234000D02*
X66040000Y-94234000D01*
X93980000Y-101092000D02*
X86106000Y-101092000D01*
X95758000Y-99314000D02*
X93980000Y-101092000D01*
X95758000Y-64008000D02*
X95758000Y-99314000D01*
X94488000Y-62738000D02*
X95758000Y-64008000D01*
X90629740Y-62738000D02*
X94488000Y-62738000D01*
X61214000Y-96774000D02*
X60198000Y-96774000D01*
X90678000Y-96520000D02*
X93218000Y-96520000D01*
X86106000Y-101092000D02*
X90678000Y-96520000D01*
X60198000Y-101092000D02*
X86106000Y-101092000D01*
X58928000Y-99822000D02*
X60198000Y-101092000D01*
X58928000Y-98044000D02*
X58928000Y-99822000D01*
X60198000Y-96774000D02*
X58928000Y-98044000D01*
X61214000Y-96774000D02*
X66040000Y-96774000D01*
X46101000Y-97409000D02*
X48006000Y-95504000D01*
X59182000Y-94742000D02*
X61214000Y-96774000D01*
X59182000Y-93472000D02*
X59182000Y-94742000D01*
X57150000Y-91440000D02*
X59182000Y-93472000D01*
X54610000Y-91440000D02*
X57150000Y-91440000D01*
X53340000Y-90170000D02*
X54610000Y-91440000D01*
X48514000Y-90170000D02*
X53340000Y-90170000D01*
X48006000Y-90678000D02*
X48514000Y-90170000D01*
X48006000Y-95504000D02*
X48006000Y-90678000D01*
X46101000Y-97409000D02*
X45339000Y-97409000D01*
X45339000Y-97409000D02*
X43688000Y-95758000D01*
X43688000Y-95758000D02*
X43688000Y-91567000D01*
X47703740Y-62738000D02*
X50546000Y-62738000D01*
X43688000Y-89154000D02*
X43688000Y-91567000D01*
X46228000Y-86614000D02*
X43688000Y-89154000D01*
X49276000Y-86614000D02*
X46228000Y-86614000D01*
X53594000Y-82296000D02*
X49276000Y-86614000D01*
X57658000Y-82296000D02*
X53594000Y-82296000D01*
X62230000Y-77724000D02*
X57658000Y-82296000D01*
X62230000Y-74168000D02*
X62230000Y-77724000D01*
X57150000Y-69088000D02*
X62230000Y-74168000D01*
X52832000Y-69088000D02*
X57150000Y-69088000D01*
X51308000Y-67564000D02*
X52832000Y-69088000D01*
X51308000Y-63500000D02*
X51308000Y-67564000D01*
X50546000Y-62738000D02*
X51308000Y-63500000D01*
X41704260Y-62738000D02*
X41704260Y-60657740D01*
X63754000Y-81534000D02*
X61214000Y-84074000D01*
X63754000Y-73152000D02*
X63754000Y-81534000D01*
X58166000Y-67564000D02*
X63754000Y-73152000D01*
X53848000Y-67564000D02*
X58166000Y-67564000D01*
X52832000Y-66548000D02*
X53848000Y-67564000D01*
X52832000Y-61468000D02*
X52832000Y-66548000D01*
X51562000Y-60198000D02*
X52832000Y-61468000D01*
X42164000Y-60198000D02*
X51562000Y-60198000D01*
X41704260Y-60657740D02*
X42164000Y-60198000D01*
X43705780Y-62738000D02*
X43705780Y-60977780D01*
X62992000Y-79756000D02*
X61214000Y-81534000D01*
X62992000Y-73660000D02*
X62992000Y-79756000D01*
X57658000Y-68326000D02*
X62992000Y-73660000D01*
X53340000Y-68326000D02*
X57658000Y-68326000D01*
X52070000Y-67056000D02*
X53340000Y-68326000D01*
X52070000Y-66548000D02*
X52070000Y-67056000D01*
X52070000Y-61976000D02*
X52070000Y-66548000D01*
X51054000Y-60960000D02*
X52070000Y-61976000D01*
X43723560Y-60960000D02*
X51054000Y-60960000D01*
X43705780Y-60977780D02*
X43723560Y-60960000D01*
X45702220Y-62738000D02*
X45702220Y-63482220D01*
X42164000Y-95504000D02*
X38354000Y-99314000D01*
X42164000Y-89662000D02*
X42164000Y-95504000D01*
X45974000Y-85852000D02*
X42164000Y-89662000D01*
X48768000Y-85852000D02*
X45974000Y-85852000D01*
X53086000Y-81534000D02*
X48768000Y-85852000D01*
X57150000Y-81534000D02*
X53086000Y-81534000D01*
X61468000Y-77216000D02*
X57150000Y-81534000D01*
X61468000Y-74676000D02*
X61468000Y-77216000D01*
X56642000Y-69850000D02*
X61468000Y-74676000D01*
X52578000Y-69850000D02*
X56642000Y-69850000D01*
X50546000Y-67818000D02*
X52578000Y-69850000D01*
X50546000Y-65024000D02*
X50546000Y-67818000D01*
X49784000Y-64262000D02*
X50546000Y-65024000D01*
X46482000Y-64262000D02*
X49784000Y-64262000D01*
X45702220Y-63482220D02*
X46482000Y-64262000D01*
X45702220Y-62738000D02*
X45702220Y-63517780D01*
X45702220Y-63517780D02*
X44958000Y-64262000D01*
X44958000Y-64262000D02*
X40640000Y-64262000D01*
X40640000Y-64262000D02*
X39878000Y-63500000D01*
X39878000Y-63500000D02*
X39878000Y-60198000D01*
X39878000Y-60198000D02*
X40640000Y-59436000D01*
X40640000Y-59436000D02*
X87884000Y-59436000D01*
X87884000Y-59436000D02*
X88628220Y-60180220D01*
X88628220Y-60180220D02*
X88628220Y-62738000D01*
X61214000Y-86614000D02*
X61214000Y-86106000D01*
X61214000Y-86106000D02*
X64516000Y-82804000D01*
X70612000Y-62738000D02*
X84630260Y-62738000D01*
X64516000Y-68834000D02*
X70612000Y-62738000D01*
X64516000Y-82804000D02*
X64516000Y-68834000D01*
X46863000Y-88138000D02*
X54102000Y-88138000D01*
X59690000Y-86614000D02*
X61214000Y-86614000D01*
X59182000Y-87122000D02*
X59690000Y-86614000D01*
X59182000Y-88392000D02*
X59182000Y-87122000D01*
X57912000Y-89662000D02*
X59182000Y-88392000D01*
X55626000Y-89662000D02*
X57912000Y-89662000D01*
X54102000Y-88138000D02*
X55626000Y-89662000D01*
X61214000Y-89154000D02*
X61468000Y-89154000D01*
X61468000Y-89154000D02*
X65278000Y-85344000D01*
X65278000Y-85344000D02*
X65278000Y-69342000D01*
X65278000Y-69342000D02*
X70866000Y-64516000D01*
X70866000Y-64516000D02*
X85615780Y-64516000D01*
X85615780Y-64516000D02*
X86631780Y-62738000D01*
X43688000Y-81407000D02*
X43688000Y-84074000D01*
X38354000Y-84074000D02*
X43688000Y-84074000D01*
X43688000Y-84074000D02*
X44958000Y-84074000D01*
X54102000Y-80772000D02*
X54102000Y-74549000D01*
X52832000Y-80772000D02*
X54102000Y-80772000D01*
X48514000Y-85090000D02*
X52832000Y-80772000D01*
X45974000Y-85090000D02*
X48514000Y-85090000D01*
X44958000Y-84074000D02*
X45974000Y-85090000D01*
X54102000Y-84709000D02*
X55753000Y-84709000D01*
X57023000Y-85979000D02*
X57023000Y-88138000D01*
X55753000Y-84709000D02*
X57023000Y-85979000D01*
X46101000Y-93091000D02*
X46101000Y-91059000D01*
X59182000Y-91694000D02*
X61214000Y-91694000D01*
X57912000Y-90424000D02*
X59182000Y-91694000D01*
X55118000Y-90424000D02*
X57912000Y-90424000D01*
X53848000Y-89154000D02*
X55118000Y-90424000D01*
X48006000Y-89154000D02*
X53848000Y-89154000D01*
X46101000Y-91059000D02*
X48006000Y-89154000D01*
X93218000Y-99060000D02*
X94234000Y-99060000D01*
X91694000Y-71120000D02*
X93726000Y-71120000D01*
X91186000Y-71628000D02*
X91694000Y-71120000D01*
X91186000Y-73914000D02*
X91186000Y-71628000D01*
X94742000Y-77470000D02*
X91186000Y-73914000D01*
X94742000Y-98552000D02*
X94742000Y-77470000D01*
X94234000Y-99060000D02*
X94742000Y-98552000D01*
D21*
G36*
X52877242Y-91301060D02*
X52403739Y-91496708D01*
X51874566Y-92024958D01*
X51587827Y-92715504D01*
X51587174Y-93463216D01*
X51872708Y-94154261D01*
X52400958Y-94683434D01*
X53091504Y-94970173D01*
X53839216Y-94970826D01*
X54530261Y-94685292D01*
X55059434Y-94157042D01*
X55346173Y-93466496D01*
X55346826Y-92718784D01*
X55284110Y-92567000D01*
X56683182Y-92567000D01*
X58055000Y-93938818D01*
X58055000Y-94742000D01*
X58140788Y-95173284D01*
X58385091Y-95538909D01*
X59112182Y-96266000D01*
X58131091Y-97247091D01*
X57886788Y-97612716D01*
X57801000Y-98044000D01*
X57801000Y-99822000D01*
X57886788Y-100253284D01*
X58131091Y-100618909D01*
X58364182Y-100852000D01*
X39399339Y-100852000D01*
X39901952Y-100350264D01*
X40180682Y-99679007D01*
X40181204Y-99080614D01*
X42817318Y-96444501D01*
X42891091Y-96554909D01*
X44203339Y-97867158D01*
X44203339Y-98361500D01*
X44267978Y-98705026D01*
X44471001Y-99020533D01*
X44780779Y-99232196D01*
X45148500Y-99306661D01*
X47053500Y-99306661D01*
X47397026Y-99242022D01*
X47712533Y-99038999D01*
X47924196Y-98729221D01*
X47998661Y-98361500D01*
X47998661Y-97781216D01*
X51587174Y-97781216D01*
X51872708Y-98472261D01*
X52400958Y-99001434D01*
X53091504Y-99288173D01*
X53839216Y-99288826D01*
X54530261Y-99003292D01*
X55059434Y-98475042D01*
X55346173Y-97784496D01*
X55346826Y-97036784D01*
X55061292Y-96345739D01*
X54533042Y-95816566D01*
X53842496Y-95529827D01*
X53094784Y-95529174D01*
X52403739Y-95814708D01*
X51874566Y-96342958D01*
X51587827Y-97033504D01*
X51587174Y-97781216D01*
X47998661Y-97781216D01*
X47998661Y-97105157D01*
X48802909Y-96300909D01*
X49047212Y-95935284D01*
X49133000Y-95504000D01*
X49133000Y-91297000D01*
X52873182Y-91297000D01*
X52877242Y-91301060D01*
X52877242Y-91301060D01*
G37*
X52877242Y-91301060D02*
X52403739Y-91496708D01*
X51874566Y-92024958D01*
X51587827Y-92715504D01*
X51587174Y-93463216D01*
X51872708Y-94154261D01*
X52400958Y-94683434D01*
X53091504Y-94970173D01*
X53839216Y-94970826D01*
X54530261Y-94685292D01*
X55059434Y-94157042D01*
X55346173Y-93466496D01*
X55346826Y-92718784D01*
X55284110Y-92567000D01*
X56683182Y-92567000D01*
X58055000Y-93938818D01*
X58055000Y-94742000D01*
X58140788Y-95173284D01*
X58385091Y-95538909D01*
X59112182Y-96266000D01*
X58131091Y-97247091D01*
X57886788Y-97612716D01*
X57801000Y-98044000D01*
X57801000Y-99822000D01*
X57886788Y-100253284D01*
X58131091Y-100618909D01*
X58364182Y-100852000D01*
X39399339Y-100852000D01*
X39901952Y-100350264D01*
X40180682Y-99679007D01*
X40181204Y-99080614D01*
X42817318Y-96444501D01*
X42891091Y-96554909D01*
X44203339Y-97867158D01*
X44203339Y-98361500D01*
X44267978Y-98705026D01*
X44471001Y-99020533D01*
X44780779Y-99232196D01*
X45148500Y-99306661D01*
X47053500Y-99306661D01*
X47397026Y-99242022D01*
X47712533Y-99038999D01*
X47924196Y-98729221D01*
X47998661Y-98361500D01*
X47998661Y-97781216D01*
X51587174Y-97781216D01*
X51872708Y-98472261D01*
X52400958Y-99001434D01*
X53091504Y-99288173D01*
X53839216Y-99288826D01*
X54530261Y-99003292D01*
X55059434Y-98475042D01*
X55346173Y-97784496D01*
X55346826Y-97036784D01*
X55061292Y-96345739D01*
X54533042Y-95816566D01*
X53842496Y-95529827D01*
X53094784Y-95529174D01*
X52403739Y-95814708D01*
X51874566Y-96342958D01*
X51587827Y-97033504D01*
X51587174Y-97781216D01*
X47998661Y-97781216D01*
X47998661Y-97105157D01*
X48802909Y-96300909D01*
X49047212Y-95935284D01*
X49133000Y-95504000D01*
X49133000Y-91297000D01*
X52873182Y-91297000D01*
X52877242Y-91301060D01*
G36*
X91904231Y-97789962D02*
X91670048Y-98023736D01*
X91391318Y-98694993D01*
X91390684Y-99421818D01*
X91615122Y-99965000D01*
X88826818Y-99965000D01*
X91144819Y-97647000D01*
X91761519Y-97647000D01*
X91904231Y-97789962D01*
X91904231Y-97789962D01*
G37*
X91904231Y-97789962D02*
X91670048Y-98023736D01*
X91391318Y-98694993D01*
X91390684Y-99421818D01*
X91615122Y-99965000D01*
X88826818Y-99965000D01*
X91144819Y-97647000D01*
X91761519Y-97647000D01*
X91904231Y-97789962D01*
G36*
X68755122Y-99965000D02*
X67998818Y-99965000D01*
X68533993Y-99429826D01*
X68755122Y-99965000D01*
X68755122Y-99965000D01*
G37*
X68755122Y-99965000D02*
X67998818Y-99965000D01*
X68533993Y-99429826D01*
X68755122Y-99965000D01*
G36*
X90897090Y-69884909D02*
X91224983Y-70104000D01*
X90897090Y-70323091D01*
X90389091Y-70831091D01*
X90144788Y-71196716D01*
X90059000Y-71628000D01*
X90059000Y-73914000D01*
X90144788Y-74345284D01*
X90389091Y-74710909D01*
X93615000Y-77936819D01*
X93615000Y-79466603D01*
X93583007Y-79453318D01*
X92856182Y-79452684D01*
X92184440Y-79730242D01*
X91670048Y-80243736D01*
X91391318Y-80914993D01*
X91390684Y-81641818D01*
X91668242Y-82313560D01*
X91904231Y-82549962D01*
X91670048Y-82783736D01*
X91391318Y-83454993D01*
X91390684Y-84181818D01*
X91668242Y-84853560D01*
X91904231Y-85089962D01*
X91670048Y-85323736D01*
X91391318Y-85994993D01*
X91390684Y-86721818D01*
X91668242Y-87393560D01*
X91904231Y-87629962D01*
X91670048Y-87863736D01*
X91391318Y-88534993D01*
X91390684Y-89261818D01*
X91668242Y-89933560D01*
X91904231Y-90169962D01*
X91670048Y-90403736D01*
X91391318Y-91074993D01*
X91390684Y-91801818D01*
X91668242Y-92473560D01*
X91904231Y-92709962D01*
X91670048Y-92943736D01*
X91391318Y-93614993D01*
X91390684Y-94341818D01*
X91668242Y-95013560D01*
X91904231Y-95249962D01*
X91760943Y-95393000D01*
X90678000Y-95393000D01*
X90318270Y-95464555D01*
X90246715Y-95478788D01*
X89881090Y-95723091D01*
X85639182Y-99965000D01*
X71960458Y-99965000D01*
X72184682Y-99425007D01*
X72185316Y-98698182D01*
X71907758Y-98026440D01*
X71671769Y-97790038D01*
X71905952Y-97556264D01*
X72184682Y-96885007D01*
X72185316Y-96158182D01*
X71907758Y-95486440D01*
X71671769Y-95250038D01*
X71905952Y-95016264D01*
X72184682Y-94345007D01*
X72185316Y-93618182D01*
X71907758Y-92946440D01*
X71671769Y-92710038D01*
X71905952Y-92476264D01*
X72184682Y-91805007D01*
X72185316Y-91078182D01*
X71907758Y-90406440D01*
X71671769Y-90170038D01*
X71905952Y-89936264D01*
X72184682Y-89265007D01*
X72185316Y-88538182D01*
X71907758Y-87866440D01*
X71671769Y-87630038D01*
X71905952Y-87396264D01*
X72184682Y-86725007D01*
X72185316Y-85998182D01*
X71907758Y-85326440D01*
X71671769Y-85090038D01*
X71905952Y-84856264D01*
X72184682Y-84185007D01*
X72185316Y-83458182D01*
X71907758Y-82786440D01*
X71671769Y-82550038D01*
X71905952Y-82316264D01*
X72184682Y-81645007D01*
X72185316Y-80918182D01*
X71907758Y-80246440D01*
X71394264Y-79732048D01*
X70723007Y-79453318D01*
X69996182Y-79452684D01*
X69324440Y-79730242D01*
X68810048Y-80243736D01*
X68531318Y-80914993D01*
X68530684Y-81641818D01*
X68808242Y-82313560D01*
X69044231Y-82549962D01*
X68810048Y-82783736D01*
X68531318Y-83454993D01*
X68530684Y-84181818D01*
X68808242Y-84853560D01*
X69044231Y-85089962D01*
X68810048Y-85323736D01*
X68531318Y-85994993D01*
X68530684Y-86721818D01*
X68808242Y-87393560D01*
X69044231Y-87629962D01*
X68810048Y-87863736D01*
X68531318Y-88534993D01*
X68530684Y-89261818D01*
X68808242Y-89933560D01*
X69044231Y-90169962D01*
X68810048Y-90403736D01*
X68531318Y-91074993D01*
X68530684Y-91801818D01*
X68549729Y-91847910D01*
X67167000Y-90465182D01*
X67167000Y-70570818D01*
X71078819Y-66659000D01*
X87671182Y-66659000D01*
X90897090Y-69884909D01*
X90897090Y-69884909D01*
G37*
X90897090Y-69884909D02*
X91224983Y-70104000D01*
X90897090Y-70323091D01*
X90389091Y-70831091D01*
X90144788Y-71196716D01*
X90059000Y-71628000D01*
X90059000Y-73914000D01*
X90144788Y-74345284D01*
X90389091Y-74710909D01*
X93615000Y-77936819D01*
X93615000Y-79466603D01*
X93583007Y-79453318D01*
X92856182Y-79452684D01*
X92184440Y-79730242D01*
X91670048Y-80243736D01*
X91391318Y-80914993D01*
X91390684Y-81641818D01*
X91668242Y-82313560D01*
X91904231Y-82549962D01*
X91670048Y-82783736D01*
X91391318Y-83454993D01*
X91390684Y-84181818D01*
X91668242Y-84853560D01*
X91904231Y-85089962D01*
X91670048Y-85323736D01*
X91391318Y-85994993D01*
X91390684Y-86721818D01*
X91668242Y-87393560D01*
X91904231Y-87629962D01*
X91670048Y-87863736D01*
X91391318Y-88534993D01*
X91390684Y-89261818D01*
X91668242Y-89933560D01*
X91904231Y-90169962D01*
X91670048Y-90403736D01*
X91391318Y-91074993D01*
X91390684Y-91801818D01*
X91668242Y-92473560D01*
X91904231Y-92709962D01*
X91670048Y-92943736D01*
X91391318Y-93614993D01*
X91390684Y-94341818D01*
X91668242Y-95013560D01*
X91904231Y-95249962D01*
X91760943Y-95393000D01*
X90678000Y-95393000D01*
X90318270Y-95464555D01*
X90246715Y-95478788D01*
X89881090Y-95723091D01*
X85639182Y-99965000D01*
X71960458Y-99965000D01*
X72184682Y-99425007D01*
X72185316Y-98698182D01*
X71907758Y-98026440D01*
X71671769Y-97790038D01*
X71905952Y-97556264D01*
X72184682Y-96885007D01*
X72185316Y-96158182D01*
X71907758Y-95486440D01*
X71671769Y-95250038D01*
X71905952Y-95016264D01*
X72184682Y-94345007D01*
X72185316Y-93618182D01*
X71907758Y-92946440D01*
X71671769Y-92710038D01*
X71905952Y-92476264D01*
X72184682Y-91805007D01*
X72185316Y-91078182D01*
X71907758Y-90406440D01*
X71671769Y-90170038D01*
X71905952Y-89936264D01*
X72184682Y-89265007D01*
X72185316Y-88538182D01*
X71907758Y-87866440D01*
X71671769Y-87630038D01*
X71905952Y-87396264D01*
X72184682Y-86725007D01*
X72185316Y-85998182D01*
X71907758Y-85326440D01*
X71671769Y-85090038D01*
X71905952Y-84856264D01*
X72184682Y-84185007D01*
X72185316Y-83458182D01*
X71907758Y-82786440D01*
X71671769Y-82550038D01*
X71905952Y-82316264D01*
X72184682Y-81645007D01*
X72185316Y-80918182D01*
X71907758Y-80246440D01*
X71394264Y-79732048D01*
X70723007Y-79453318D01*
X69996182Y-79452684D01*
X69324440Y-79730242D01*
X68810048Y-80243736D01*
X68531318Y-80914993D01*
X68530684Y-81641818D01*
X68808242Y-82313560D01*
X69044231Y-82549962D01*
X68810048Y-82783736D01*
X68531318Y-83454993D01*
X68530684Y-84181818D01*
X68808242Y-84853560D01*
X69044231Y-85089962D01*
X68810048Y-85323736D01*
X68531318Y-85994993D01*
X68530684Y-86721818D01*
X68808242Y-87393560D01*
X69044231Y-87629962D01*
X68810048Y-87863736D01*
X68531318Y-88534993D01*
X68530684Y-89261818D01*
X68808242Y-89933560D01*
X69044231Y-90169962D01*
X68810048Y-90403736D01*
X68531318Y-91074993D01*
X68530684Y-91801818D01*
X68549729Y-91847910D01*
X67167000Y-90465182D01*
X67167000Y-70570818D01*
X71078819Y-66659000D01*
X87671182Y-66659000D01*
X90897090Y-69884909D01*
G36*
X64343804Y-98120779D02*
X64330394Y-98187000D01*
X62670481Y-98187000D01*
X62527769Y-98044038D01*
X62671057Y-97901000D01*
X64493973Y-97901000D01*
X64343804Y-98120779D01*
X64343804Y-98120779D01*
G37*
X64343804Y-98120779D02*
X64330394Y-98187000D01*
X62670481Y-98187000D01*
X62527769Y-98044038D01*
X62671057Y-97901000D01*
X64493973Y-97901000D01*
X64343804Y-98120779D01*
G36*
X69044231Y-97789962D02*
X68945000Y-97889020D01*
X68945000Y-97690557D01*
X69044231Y-97789962D01*
X69044231Y-97789962D01*
G37*
X69044231Y-97789962D02*
X68945000Y-97889020D01*
X68945000Y-97690557D01*
X69044231Y-97789962D01*
G36*
X44761182Y-85471000D02*
X41367091Y-88865091D01*
X41122788Y-89230716D01*
X41037000Y-89662000D01*
X41037000Y-95037181D01*
X40029477Y-96044704D01*
X39903758Y-95740440D01*
X39667769Y-95504038D01*
X39901952Y-95270264D01*
X40180682Y-94599007D01*
X40181316Y-93872182D01*
X39903758Y-93200440D01*
X39667769Y-92964038D01*
X39901952Y-92730264D01*
X40180682Y-92059007D01*
X40181316Y-91332182D01*
X39903758Y-90660440D01*
X39667769Y-90424038D01*
X39901952Y-90190264D01*
X40180682Y-89519007D01*
X40181316Y-88792182D01*
X39903758Y-88120440D01*
X39667769Y-87884038D01*
X39901952Y-87650264D01*
X40180682Y-86979007D01*
X40181316Y-86252182D01*
X39903758Y-85580440D01*
X39667769Y-85344038D01*
X39811057Y-85201000D01*
X44491182Y-85201000D01*
X44761182Y-85471000D01*
X44761182Y-85471000D01*
G37*
X44761182Y-85471000D02*
X41367091Y-88865091D01*
X41122788Y-89230716D01*
X41037000Y-89662000D01*
X41037000Y-95037181D01*
X40029477Y-96044704D01*
X39903758Y-95740440D01*
X39667769Y-95504038D01*
X39901952Y-95270264D01*
X40180682Y-94599007D01*
X40181316Y-93872182D01*
X39903758Y-93200440D01*
X39667769Y-92964038D01*
X39901952Y-92730264D01*
X40180682Y-92059007D01*
X40181316Y-91332182D01*
X39903758Y-90660440D01*
X39667769Y-90424038D01*
X39901952Y-90190264D01*
X40180682Y-89519007D01*
X40181316Y-88792182D01*
X39903758Y-88120440D01*
X39667769Y-87884038D01*
X39901952Y-87650264D01*
X40180682Y-86979007D01*
X40181316Y-86252182D01*
X39903758Y-85580440D01*
X39667769Y-85344038D01*
X39811057Y-85201000D01*
X44491182Y-85201000D01*
X44761182Y-85471000D01*
G36*
X64831589Y-95504054D02*
X64688393Y-95647000D01*
X62670481Y-95647000D01*
X62527769Y-95504038D01*
X62671057Y-95361000D01*
X64688785Y-95361000D01*
X64831589Y-95504054D01*
X64831589Y-95504054D01*
G37*
X64831589Y-95504054D02*
X64688393Y-95647000D01*
X62670481Y-95647000D01*
X62527769Y-95504038D01*
X62671057Y-95361000D01*
X64688785Y-95361000D01*
X64831589Y-95504054D01*
G36*
X45034958Y-94683434D02*
X45725504Y-94970173D01*
X46473216Y-94970826D01*
X46879000Y-94803159D01*
X46879000Y-95037182D01*
X46404843Y-95511339D01*
X45148500Y-95511339D01*
X45053107Y-95529288D01*
X44815000Y-95291182D01*
X44815000Y-94463092D01*
X45034958Y-94683434D01*
X45034958Y-94683434D01*
G37*
X45034958Y-94683434D02*
X45725504Y-94970173D01*
X46473216Y-94970826D01*
X46879000Y-94803159D01*
X46879000Y-95037182D01*
X46404843Y-95511339D01*
X45148500Y-95511339D01*
X45053107Y-95529288D01*
X44815000Y-95291182D01*
X44815000Y-94463092D01*
X45034958Y-94683434D01*
G36*
X69044231Y-95249962D02*
X68945000Y-95349020D01*
X68945000Y-95150557D01*
X69044231Y-95249962D01*
X69044231Y-95249962D01*
G37*
X69044231Y-95249962D02*
X68945000Y-95349020D01*
X68945000Y-95150557D01*
X69044231Y-95249962D01*
G36*
X64913000Y-90932000D02*
X64998788Y-91363284D01*
X65243091Y-91728909D01*
X65995642Y-92481460D01*
X65692935Y-92481196D01*
X65048585Y-92747436D01*
X64688393Y-93107000D01*
X62670481Y-93107000D01*
X62527769Y-92964038D01*
X62761952Y-92730264D01*
X63040682Y-92059007D01*
X63041316Y-91332182D01*
X62763758Y-90660440D01*
X62527769Y-90424038D01*
X62761952Y-90190264D01*
X63040682Y-89519007D01*
X63040982Y-89174836D01*
X64913000Y-87302819D01*
X64913000Y-90932000D01*
X64913000Y-90932000D01*
G37*
X64913000Y-90932000D02*
X64998788Y-91363284D01*
X65243091Y-91728909D01*
X65995642Y-92481460D01*
X65692935Y-92481196D01*
X65048585Y-92747436D01*
X64688393Y-93107000D01*
X62670481Y-93107000D01*
X62527769Y-92964038D01*
X62761952Y-92730264D01*
X63040682Y-92059007D01*
X63041316Y-91332182D01*
X62763758Y-90660440D01*
X62527769Y-90424038D01*
X62761952Y-90190264D01*
X63040682Y-89519007D01*
X63040982Y-89174836D01*
X64913000Y-87302819D01*
X64913000Y-90932000D01*
G36*
X69044231Y-92709962D02*
X68945000Y-92809020D01*
X68945000Y-92710000D01*
X68920297Y-92585811D01*
X69044231Y-92709962D01*
X69044231Y-92709962D01*
G37*
X69044231Y-92709962D02*
X68945000Y-92809020D01*
X68945000Y-92710000D01*
X68920297Y-92585811D01*
X69044231Y-92709962D01*
G36*
X45516483Y-89036015D02*
X45962636Y-89482948D01*
X46047850Y-89518332D01*
X45304091Y-90262091D01*
X45059788Y-90627716D01*
X45046034Y-90696859D01*
X45034517Y-90668985D01*
X44815000Y-90449084D01*
X44815000Y-89620818D01*
X45482368Y-88953450D01*
X45516483Y-89036015D01*
X45516483Y-89036015D01*
G37*
X45516483Y-89036015D02*
X45962636Y-89482948D01*
X46047850Y-89518332D01*
X45304091Y-90262091D01*
X45059788Y-90627716D01*
X45046034Y-90696859D01*
X45034517Y-90668985D01*
X44815000Y-90449084D01*
X44815000Y-89620818D01*
X45482368Y-88953450D01*
X45516483Y-89036015D01*
G36*
X59664242Y-90187560D02*
X59900231Y-90423962D01*
X59756943Y-90567000D01*
X59648819Y-90567000D01*
X59124818Y-90043000D01*
X59464258Y-89703561D01*
X59664242Y-90187560D01*
X59664242Y-90187560D01*
G37*
X59664242Y-90187560D02*
X59900231Y-90423962D01*
X59756943Y-90567000D01*
X59648819Y-90567000D01*
X59124818Y-90043000D01*
X59464258Y-89703561D01*
X59664242Y-90187560D01*
G36*
X52514325Y-85023368D02*
X52755483Y-85607015D01*
X53201636Y-86053948D01*
X53784861Y-86296124D01*
X54416368Y-86296675D01*
X55000015Y-86055517D01*
X55219916Y-85836000D01*
X55286182Y-85836000D01*
X55896000Y-86445819D01*
X55896000Y-87020068D01*
X55678052Y-87237636D01*
X55435876Y-87820861D01*
X55435826Y-87878008D01*
X54898909Y-87341091D01*
X54533284Y-87096788D01*
X54102000Y-87011000D01*
X50472818Y-87011000D01*
X52514372Y-84969446D01*
X52514325Y-85023368D01*
X52514325Y-85023368D01*
G37*
X52514325Y-85023368D02*
X52755483Y-85607015D01*
X53201636Y-86053948D01*
X53784861Y-86296124D01*
X54416368Y-86296675D01*
X55000015Y-86055517D01*
X55219916Y-85836000D01*
X55286182Y-85836000D01*
X55896000Y-86445819D01*
X55896000Y-87020068D01*
X55678052Y-87237636D01*
X55435876Y-87820861D01*
X55435826Y-87878008D01*
X54898909Y-87341091D01*
X54533284Y-87096788D01*
X54102000Y-87011000D01*
X50472818Y-87011000D01*
X52514372Y-84969446D01*
X52514325Y-85023368D01*
G36*
X59664242Y-82567560D02*
X59900231Y-82803962D01*
X59666048Y-83037736D01*
X59387318Y-83708993D01*
X59386684Y-84435818D01*
X59664242Y-85107560D01*
X59900231Y-85343962D01*
X59756943Y-85487000D01*
X59690000Y-85487000D01*
X59330270Y-85558555D01*
X59258715Y-85572788D01*
X58893090Y-85817091D01*
X58385091Y-86325091D01*
X58150000Y-86676929D01*
X58150000Y-85979000D01*
X58064212Y-85547716D01*
X58046551Y-85521284D01*
X57819909Y-85182090D01*
X56549909Y-83912091D01*
X56184284Y-83667788D01*
X55753000Y-83582000D01*
X55219932Y-83582000D01*
X55061209Y-83423000D01*
X57658000Y-83423000D01*
X58089284Y-83337212D01*
X58454909Y-83092909D01*
X59464258Y-82083561D01*
X59664242Y-82567560D01*
X59664242Y-82567560D01*
G37*
X59664242Y-82567560D02*
X59900231Y-82803962D01*
X59666048Y-83037736D01*
X59387318Y-83708993D01*
X59386684Y-84435818D01*
X59664242Y-85107560D01*
X59900231Y-85343962D01*
X59756943Y-85487000D01*
X59690000Y-85487000D01*
X59330270Y-85558555D01*
X59258715Y-85572788D01*
X58893090Y-85817091D01*
X58385091Y-86325091D01*
X58150000Y-86676929D01*
X58150000Y-85979000D01*
X58064212Y-85547716D01*
X58046551Y-85521284D01*
X57819909Y-85182090D01*
X56549909Y-83912091D01*
X56184284Y-83667788D01*
X55753000Y-83582000D01*
X55219932Y-83582000D01*
X55061209Y-83423000D01*
X57658000Y-83423000D01*
X58089284Y-83337212D01*
X58454909Y-83092909D01*
X59464258Y-82083561D01*
X59664242Y-82567560D01*
G36*
X64151000Y-84877181D02*
X62963742Y-86064439D01*
X62930304Y-85983514D01*
X64151000Y-84762818D01*
X64151000Y-84877181D01*
X64151000Y-84877181D01*
G37*
X64151000Y-84877181D02*
X62963742Y-86064439D01*
X62930304Y-85983514D01*
X64151000Y-84762818D01*
X64151000Y-84877181D01*
G36*
X38751000Y-60198000D02*
X38751000Y-63500000D01*
X38836788Y-63931284D01*
X39081091Y-64296909D01*
X39843091Y-65058910D01*
X40208716Y-65303212D01*
X40640000Y-65389000D01*
X44958000Y-65389000D01*
X45389284Y-65303212D01*
X45719999Y-65082235D01*
X46050715Y-65303212D01*
X46099466Y-65312909D01*
X46482000Y-65389000D01*
X49317182Y-65389000D01*
X49419000Y-65490819D01*
X49419000Y-67818000D01*
X49504788Y-68249284D01*
X49749091Y-68614909D01*
X51781091Y-70646909D01*
X52146716Y-70891212D01*
X52578000Y-70977000D01*
X56175182Y-70977000D01*
X60341000Y-75142819D01*
X60341000Y-76749182D01*
X56683182Y-80407000D01*
X55229000Y-80407000D01*
X55229000Y-75666932D01*
X55446948Y-75449364D01*
X55689124Y-74866139D01*
X55689675Y-74234632D01*
X55448517Y-73650985D01*
X55002364Y-73204052D01*
X54419139Y-72961876D01*
X53787632Y-72961325D01*
X53203985Y-73202483D01*
X52757052Y-73648636D01*
X52514876Y-74231861D01*
X52514325Y-74863368D01*
X52755483Y-75447015D01*
X52975000Y-75666916D01*
X52975000Y-79645000D01*
X52832000Y-79645000D01*
X52403461Y-79730242D01*
X52400716Y-79730788D01*
X52035091Y-79975091D01*
X48047182Y-83963000D01*
X46440818Y-83963000D01*
X45754909Y-83277091D01*
X45389284Y-83032788D01*
X44958000Y-82947000D01*
X44815000Y-82947000D01*
X44815000Y-82524932D01*
X45032948Y-82307364D01*
X45275124Y-81724139D01*
X45275675Y-81092632D01*
X45034517Y-80508985D01*
X44588364Y-80062052D01*
X44005139Y-79819876D01*
X43373632Y-79819325D01*
X42789985Y-80060483D01*
X42343052Y-80506636D01*
X42100876Y-81089861D01*
X42100325Y-81721368D01*
X42341483Y-82305015D01*
X42561000Y-82524916D01*
X42561000Y-82947000D01*
X39810481Y-82947000D01*
X39667769Y-82804038D01*
X39901952Y-82570264D01*
X40180682Y-81899007D01*
X40181316Y-81172182D01*
X39903758Y-80500440D01*
X39390264Y-79986048D01*
X38719007Y-79707318D01*
X37992182Y-79706684D01*
X37324000Y-79982771D01*
X37324000Y-59930000D01*
X38804309Y-59930000D01*
X38751000Y-60198000D01*
X38751000Y-60198000D01*
G37*
X38751000Y-60198000D02*
X38751000Y-63500000D01*
X38836788Y-63931284D01*
X39081091Y-64296909D01*
X39843091Y-65058910D01*
X40208716Y-65303212D01*
X40640000Y-65389000D01*
X44958000Y-65389000D01*
X45389284Y-65303212D01*
X45719999Y-65082235D01*
X46050715Y-65303212D01*
X46099466Y-65312909D01*
X46482000Y-65389000D01*
X49317182Y-65389000D01*
X49419000Y-65490819D01*
X49419000Y-67818000D01*
X49504788Y-68249284D01*
X49749091Y-68614909D01*
X51781091Y-70646909D01*
X52146716Y-70891212D01*
X52578000Y-70977000D01*
X56175182Y-70977000D01*
X60341000Y-75142819D01*
X60341000Y-76749182D01*
X56683182Y-80407000D01*
X55229000Y-80407000D01*
X55229000Y-75666932D01*
X55446948Y-75449364D01*
X55689124Y-74866139D01*
X55689675Y-74234632D01*
X55448517Y-73650985D01*
X55002364Y-73204052D01*
X54419139Y-72961876D01*
X53787632Y-72961325D01*
X53203985Y-73202483D01*
X52757052Y-73648636D01*
X52514876Y-74231861D01*
X52514325Y-74863368D01*
X52755483Y-75447015D01*
X52975000Y-75666916D01*
X52975000Y-79645000D01*
X52832000Y-79645000D01*
X52403461Y-79730242D01*
X52400716Y-79730788D01*
X52035091Y-79975091D01*
X48047182Y-83963000D01*
X46440818Y-83963000D01*
X45754909Y-83277091D01*
X45389284Y-83032788D01*
X44958000Y-82947000D01*
X44815000Y-82947000D01*
X44815000Y-82524932D01*
X45032948Y-82307364D01*
X45275124Y-81724139D01*
X45275675Y-81092632D01*
X45034517Y-80508985D01*
X44588364Y-80062052D01*
X44005139Y-79819876D01*
X43373632Y-79819325D01*
X42789985Y-80060483D01*
X42343052Y-80506636D01*
X42100876Y-81089861D01*
X42100325Y-81721368D01*
X42341483Y-82305015D01*
X42561000Y-82524916D01*
X42561000Y-82947000D01*
X39810481Y-82947000D01*
X39667769Y-82804038D01*
X39901952Y-82570264D01*
X40180682Y-81899007D01*
X40181316Y-81172182D01*
X39903758Y-80500440D01*
X39390264Y-79986048D01*
X38719007Y-79707318D01*
X37992182Y-79706684D01*
X37324000Y-79982771D01*
X37324000Y-59930000D01*
X38804309Y-59930000D01*
X38751000Y-60198000D01*
G36*
X94631000Y-75765181D02*
X93744918Y-74879100D01*
X94470030Y-74879100D01*
X94631000Y-74847081D01*
X94631000Y-75765181D01*
X94631000Y-75765181D01*
G37*
X94631000Y-75765181D02*
X93744918Y-74879100D01*
X94470030Y-74879100D01*
X94631000Y-74847081D01*
X94631000Y-75765181D01*
G36*
X87501220Y-60647038D02*
X87501220Y-61407715D01*
X86943844Y-61176272D01*
X86322442Y-61175730D01*
X85841200Y-61374575D01*
X85632981Y-61232304D01*
X85265260Y-61157839D01*
X83995260Y-61157839D01*
X83651734Y-61222478D01*
X83336227Y-61425501D01*
X83209481Y-61611000D01*
X70612000Y-61611000D01*
X70180716Y-61696788D01*
X69815091Y-61941091D01*
X63719091Y-68037091D01*
X63474788Y-68402716D01*
X63389000Y-68834000D01*
X63389000Y-71193181D01*
X58962909Y-66767091D01*
X58597284Y-66522788D01*
X58166000Y-66437000D01*
X54314818Y-66437000D01*
X53959000Y-66081182D01*
X53959000Y-61468000D01*
X53873212Y-61036716D01*
X53628909Y-60671090D01*
X53520819Y-60563000D01*
X87417182Y-60563000D01*
X87501220Y-60647038D01*
X87501220Y-60647038D01*
G37*
X87501220Y-60647038D02*
X87501220Y-61407715D01*
X86943844Y-61176272D01*
X86322442Y-61175730D01*
X85841200Y-61374575D01*
X85632981Y-61232304D01*
X85265260Y-61157839D01*
X83995260Y-61157839D01*
X83651734Y-61222478D01*
X83336227Y-61425501D01*
X83209481Y-61611000D01*
X70612000Y-61611000D01*
X70180716Y-61696788D01*
X69815091Y-61941091D01*
X63719091Y-68037091D01*
X63474788Y-68402716D01*
X63389000Y-68834000D01*
X63389000Y-71193181D01*
X58962909Y-66767091D01*
X58597284Y-66522788D01*
X58166000Y-66437000D01*
X54314818Y-66437000D01*
X53959000Y-66081182D01*
X53959000Y-61468000D01*
X53873212Y-61036716D01*
X53628909Y-60671090D01*
X53520819Y-60563000D01*
X87417182Y-60563000D01*
X87501220Y-60647038D01*
G36*
X91480204Y-64300348D02*
X91356470Y-64922400D01*
X91480204Y-65544452D01*
X91832568Y-66071802D01*
X92149235Y-66283392D01*
X91973804Y-66705877D01*
X91973196Y-67403065D01*
X92121137Y-67761109D01*
X92056105Y-67856286D01*
X88934909Y-64735091D01*
X88569284Y-64490788D01*
X88138000Y-64405000D01*
X86977232Y-64405000D01*
X87066738Y-64248365D01*
X87515426Y-64062971D01*
X87629814Y-63948782D01*
X87742263Y-64061427D01*
X88316156Y-64299728D01*
X88937558Y-64300270D01*
X89511866Y-64062971D01*
X89628799Y-63946242D01*
X89743783Y-64061427D01*
X90317676Y-64299728D01*
X90939078Y-64300270D01*
X91513386Y-64062971D01*
X91711703Y-63865000D01*
X91771094Y-63865000D01*
X91480204Y-64300348D01*
X91480204Y-64300348D01*
G37*
X91480204Y-64300348D02*
X91356470Y-64922400D01*
X91480204Y-65544452D01*
X91832568Y-66071802D01*
X92149235Y-66283392D01*
X91973804Y-66705877D01*
X91973196Y-67403065D01*
X92121137Y-67761109D01*
X92056105Y-67856286D01*
X88934909Y-64735091D01*
X88569284Y-64490788D01*
X88138000Y-64405000D01*
X86977232Y-64405000D01*
X87066738Y-64248365D01*
X87515426Y-64062971D01*
X87629814Y-63948782D01*
X87742263Y-64061427D01*
X88316156Y-64299728D01*
X88937558Y-64300270D01*
X89511866Y-64062971D01*
X89628799Y-63946242D01*
X89743783Y-64061427D01*
X90317676Y-64299728D01*
X90939078Y-64300270D01*
X91513386Y-64062971D01*
X91711703Y-63865000D01*
X91771094Y-63865000D01*
X91480204Y-64300348D01*
G36*
X95010000Y-61757403D02*
X94919284Y-61696788D01*
X94488000Y-61611000D01*
X91711781Y-61611000D01*
X91515697Y-61414573D01*
X90941804Y-61176272D01*
X90320402Y-61175730D01*
X89755220Y-61409258D01*
X89755220Y-60180220D01*
X89705448Y-59930000D01*
X95010000Y-59930000D01*
X95010000Y-61757403D01*
X95010000Y-61757403D01*
G37*
X95010000Y-61757403D02*
X94919284Y-61696788D01*
X94488000Y-61611000D01*
X91711781Y-61611000D01*
X91515697Y-61414573D01*
X90941804Y-61176272D01*
X90320402Y-61175730D01*
X89755220Y-61409258D01*
X89755220Y-60180220D01*
X89705448Y-59930000D01*
X95010000Y-59930000D01*
X95010000Y-61757403D01*
M02*
