M48
;DRILL file {KiCad 4.0.7} date Wed Oct 11 15:05:02 2017
;FORMAT={-:-/ absolute / metric / decimal}
FMAT,2
METRIC,TZ
T1C0.762
T2C0.798
T3C0.813
T4C0.889
T5C1.016
T6C1.143
%
G90
G05
M71
T1
X93.726Y-64.922
X93.726Y-73.254
T2
X41.704Y-62.738
X43.706Y-62.738
X45.702Y-62.738
X47.704Y-62.738
X84.63Y-62.738
X86.632Y-62.738
X88.628Y-62.738
X90.63Y-62.738
T3
X43.688Y-81.407
X43.688Y-91.567
X46.863Y-88.138
X54.102Y-74.549
X54.102Y-84.709
X57.023Y-88.138
T4
X66.04Y-94.234
X66.04Y-96.774
X66.04Y-99.314
X93.726Y-67.056
X93.726Y-69.088
X93.726Y-71.12
T5
X38.354Y-81.534
X38.354Y-84.074
X38.354Y-86.614
X38.354Y-89.154
X38.354Y-91.694
X38.354Y-94.234
X38.354Y-96.774
X38.354Y-99.314
X61.214Y-81.534
X61.214Y-84.074
X61.214Y-86.614
X61.214Y-89.154
X61.214Y-91.694
X61.214Y-94.234
X61.214Y-96.774
X61.214Y-99.314
X70.358Y-81.28
X70.358Y-83.82
X70.358Y-86.36
X70.358Y-88.9
X70.358Y-91.44
X70.358Y-93.98
X70.358Y-96.52
X70.358Y-99.06
X93.218Y-81.28
X93.218Y-83.82
X93.218Y-86.36
X93.218Y-88.9
X93.218Y-91.44
X93.218Y-93.98
X93.218Y-96.52
X93.218Y-99.06
T6
X46.101Y-93.091
X46.101Y-97.409
X53.467Y-93.091
X53.467Y-97.409
T0
M30
