G04 #@! TF.FileFunction,Legend,Top*
%FSLAX46Y46*%
G04 Gerber Fmt 4.6, Leading zero omitted, Abs format (unit mm)*
G04 Created by KiCad (PCBNEW 4.0.7) date Wed Oct 11 15:04:58 2017*
%MOMM*%
%LPD*%
G01*
G04 APERTURE LIST*
%ADD10C,0.200000*%
%ADD11C,0.150000*%
%ADD12C,0.127000*%
%ADD13C,0.254000*%
%ADD14C,0.066040*%
%ADD15C,0.152400*%
%ADD16C,0.010000*%
%ADD17C,0.101600*%
G04 APERTURE END LIST*
D10*
D11*
X95118000Y-108470000D02*
X95118000Y-75390000D01*
X93118000Y-73390000D02*
X70458000Y-73390000D01*
X68458000Y-75390000D02*
X68458000Y-101470000D01*
X70608000Y-108470000D02*
X78468000Y-108470000D01*
X78468000Y-108470000D02*
X78468000Y-107470000D01*
X78468000Y-107470000D02*
X86688000Y-107470000D01*
X86688000Y-107470000D02*
X86688000Y-108470000D01*
X86688000Y-108470000D02*
X95117999Y-108470000D01*
X70458000Y-73390000D02*
G75*
G03X68458000Y-75390000I0J-2000000D01*
G01*
X95118000Y-75390000D02*
G75*
G03X93118000Y-73390000I-2000000J0D01*
G01*
X70608000Y-108470000D02*
X70608000Y-102470000D01*
X70608000Y-102470000D02*
G75*
G03X69608000Y-101470000I-1000000J0D01*
G01*
X69618000Y-101470000D02*
X68458000Y-101470000D01*
X68458000Y-101470000D02*
X68458000Y-101470000D01*
X63114000Y-108724000D02*
X63114000Y-75644000D01*
X61114000Y-73644000D02*
X38454000Y-73644000D01*
X36454000Y-75644000D02*
X36454000Y-101724000D01*
X38604000Y-108724000D02*
X46464000Y-108724000D01*
X46464000Y-108724000D02*
X46464000Y-107724000D01*
X46464000Y-107724000D02*
X54684000Y-107724000D01*
X54684000Y-107724000D02*
X54684000Y-108724000D01*
X54684000Y-108724000D02*
X63113999Y-108724000D01*
X38454000Y-73644000D02*
G75*
G03X36454000Y-75644000I0J-2000000D01*
G01*
X63114000Y-75644000D02*
G75*
G03X61114000Y-73644000I-2000000J0D01*
G01*
X38604000Y-108724000D02*
X38604000Y-102724000D01*
X38604000Y-102724000D02*
G75*
G03X37604000Y-101724000I-1000000J0D01*
G01*
X37614000Y-101724000D02*
X36454000Y-101724000D01*
X36454000Y-101724000D02*
X36454000Y-101724000D01*
D12*
X39705280Y-61739780D02*
X39705280Y-63736220D01*
D13*
X39705280Y-54338220D02*
X39705280Y-61140340D01*
X39705280Y-61140340D02*
X39705280Y-64236600D01*
X49702720Y-61140340D02*
X49702720Y-64236600D01*
X49702720Y-61140340D02*
X49702720Y-54338220D01*
X39705280Y-64236600D02*
X49702720Y-64236600D01*
X39705280Y-54239160D02*
X49702720Y-54239160D01*
X49702720Y-54239160D02*
X49702720Y-64137540D01*
X49702720Y-64137540D02*
X39705280Y-64137540D01*
X39705280Y-64137540D02*
X39705280Y-54239160D01*
X39705280Y-61140340D02*
X49702720Y-61140340D01*
X39705280Y-54338220D02*
X41904920Y-54338220D01*
X41904920Y-54338220D02*
X41904920Y-55338980D01*
X41904920Y-55338980D02*
X47503080Y-55338980D01*
X47503080Y-55338980D02*
X47503080Y-54338220D01*
X47503080Y-54338220D02*
X49702720Y-54338220D01*
D14*
X67310000Y-92964000D02*
X64770000Y-92964000D01*
X64770000Y-92964000D02*
X64770000Y-100584000D01*
X67310000Y-100584000D02*
X64770000Y-100584000D01*
X67310000Y-92964000D02*
X67310000Y-100584000D01*
D12*
X67310000Y-100584000D02*
X64770000Y-100584000D01*
X64770000Y-100584000D02*
X64770000Y-92964000D01*
X64770000Y-92964000D02*
X67310000Y-92964000D01*
X67310000Y-92964000D02*
X67310000Y-100584000D01*
D10*
X67310000Y-100584000D02*
X64770000Y-100584000D01*
X64770000Y-100584000D02*
X64770000Y-92964000D01*
X64770000Y-92964000D02*
X67310000Y-92964000D01*
X67310000Y-92964000D02*
X67310000Y-100584000D01*
D12*
X82631280Y-61739780D02*
X82631280Y-63736220D01*
D13*
X82631280Y-54338220D02*
X82631280Y-61140340D01*
X82631280Y-61140340D02*
X82631280Y-64236600D01*
X92628720Y-61140340D02*
X92628720Y-64236600D01*
X92628720Y-61140340D02*
X92628720Y-54338220D01*
X82631280Y-64236600D02*
X92628720Y-64236600D01*
X82631280Y-54239160D02*
X92628720Y-54239160D01*
X92628720Y-54239160D02*
X92628720Y-64137540D01*
X92628720Y-64137540D02*
X82631280Y-64137540D01*
X82631280Y-64137540D02*
X82631280Y-54239160D01*
X82631280Y-61140340D02*
X92628720Y-61140340D01*
X82631280Y-54338220D02*
X84830920Y-54338220D01*
X84830920Y-54338220D02*
X84830920Y-55338980D01*
X84830920Y-55338980D02*
X90429080Y-55338980D01*
X90429080Y-55338980D02*
X90429080Y-54338220D01*
X90429080Y-54338220D02*
X92628720Y-54338220D01*
D14*
X43992800Y-83312000D02*
X43992800Y-82448400D01*
X43992800Y-82448400D02*
X43383200Y-82448400D01*
X43383200Y-83312000D02*
X43383200Y-82448400D01*
X43992800Y-83312000D02*
X43383200Y-83312000D01*
X43992800Y-90525600D02*
X43992800Y-89662000D01*
X43992800Y-89662000D02*
X43383200Y-89662000D01*
X43383200Y-90525600D02*
X43383200Y-89662000D01*
X43992800Y-90525600D02*
X43383200Y-90525600D01*
D15*
X44577000Y-89662000D02*
X42799000Y-89662000D01*
X42545000Y-89408000D02*
X42545000Y-89027000D01*
X42672000Y-88900000D02*
X42545000Y-89027000D01*
X44831000Y-89408000D02*
X44831000Y-89027000D01*
X44704000Y-88900000D02*
X44831000Y-89027000D01*
X42672000Y-84074000D02*
X42545000Y-83947000D01*
X42672000Y-84074000D02*
X42672000Y-88900000D01*
X44704000Y-84074000D02*
X44831000Y-83947000D01*
X44704000Y-84074000D02*
X44704000Y-88900000D01*
X42545000Y-83566000D02*
X42545000Y-83947000D01*
X44831000Y-83566000D02*
X44831000Y-83947000D01*
X44577000Y-83312000D02*
X42799000Y-83312000D01*
X42545000Y-89408000D02*
G75*
G03X42799000Y-89662000I254000J0D01*
G01*
X44577000Y-89662000D02*
G75*
G03X44831000Y-89408000I0J254000D01*
G01*
X44831000Y-83566000D02*
G75*
G03X44577000Y-83312000I-254000J0D01*
G01*
X42799000Y-83312000D02*
G75*
G03X42545000Y-83566000I0J-254000D01*
G01*
D14*
X53797200Y-82804000D02*
X53797200Y-83667600D01*
X53797200Y-83667600D02*
X54406800Y-83667600D01*
X54406800Y-82804000D02*
X54406800Y-83667600D01*
X53797200Y-82804000D02*
X54406800Y-82804000D01*
X53797200Y-75590400D02*
X53797200Y-76454000D01*
X53797200Y-76454000D02*
X54406800Y-76454000D01*
X54406800Y-75590400D02*
X54406800Y-76454000D01*
X53797200Y-75590400D02*
X54406800Y-75590400D01*
D15*
X53213000Y-76454000D02*
X54991000Y-76454000D01*
X55245000Y-76708000D02*
X55245000Y-77089000D01*
X55118000Y-77216000D02*
X55245000Y-77089000D01*
X52959000Y-76708000D02*
X52959000Y-77089000D01*
X53086000Y-77216000D02*
X52959000Y-77089000D01*
X55118000Y-82042000D02*
X55245000Y-82169000D01*
X55118000Y-82042000D02*
X55118000Y-77216000D01*
X53086000Y-82042000D02*
X52959000Y-82169000D01*
X53086000Y-82042000D02*
X53086000Y-77216000D01*
X55245000Y-82550000D02*
X55245000Y-82169000D01*
X52959000Y-82550000D02*
X52959000Y-82169000D01*
X53213000Y-82804000D02*
X54991000Y-82804000D01*
X55245000Y-76708000D02*
G75*
G03X54991000Y-76454000I-254000J0D01*
G01*
X53213000Y-76454000D02*
G75*
G03X52959000Y-76708000I0J-254000D01*
G01*
X52959000Y-82550000D02*
G75*
G03X53213000Y-82804000I254000J0D01*
G01*
X54991000Y-82804000D02*
G75*
G03X55245000Y-82550000I0J254000D01*
G01*
D14*
X48768000Y-87833200D02*
X47904400Y-87833200D01*
X47904400Y-87833200D02*
X47904400Y-88442800D01*
X48768000Y-88442800D02*
X47904400Y-88442800D01*
X48768000Y-87833200D02*
X48768000Y-88442800D01*
X55981600Y-87833200D02*
X55118000Y-87833200D01*
X55118000Y-87833200D02*
X55118000Y-88442800D01*
X55981600Y-88442800D02*
X55118000Y-88442800D01*
X55981600Y-87833200D02*
X55981600Y-88442800D01*
D15*
X55118000Y-87249000D02*
X55118000Y-89027000D01*
X54864000Y-89281000D02*
X54483000Y-89281000D01*
X54356000Y-89154000D02*
X54483000Y-89281000D01*
X54864000Y-86995000D02*
X54483000Y-86995000D01*
X54356000Y-87122000D02*
X54483000Y-86995000D01*
X49530000Y-89154000D02*
X49403000Y-89281000D01*
X49530000Y-89154000D02*
X54356000Y-89154000D01*
X49530000Y-87122000D02*
X49403000Y-86995000D01*
X49530000Y-87122000D02*
X54356000Y-87122000D01*
X49022000Y-89281000D02*
X49403000Y-89281000D01*
X49022000Y-86995000D02*
X49403000Y-86995000D01*
X48768000Y-87249000D02*
X48768000Y-89027000D01*
X54864000Y-89281000D02*
G75*
G03X55118000Y-89027000I0J254000D01*
G01*
X55118000Y-87249000D02*
G75*
G03X54864000Y-86995000I-254000J0D01*
G01*
X49022000Y-86995000D02*
G75*
G03X48768000Y-87249000I0J-254000D01*
G01*
X48768000Y-89027000D02*
G75*
G03X49022000Y-89281000I254000J0D01*
G01*
D16*
G36*
X95864024Y-102078761D02*
X36215976Y-102078761D01*
X36215976Y-74949832D01*
X73133694Y-74949832D01*
X73133787Y-75170538D01*
X73134295Y-75345662D01*
X73135555Y-75480473D01*
X73137910Y-75580241D01*
X73141698Y-75650234D01*
X73147259Y-75695721D01*
X73154933Y-75721972D01*
X73165061Y-75734256D01*
X73177982Y-75737841D01*
X73184545Y-75738020D01*
X73210454Y-75733552D01*
X73225700Y-75713151D01*
X73233059Y-75666321D01*
X73235304Y-75582567D01*
X73235396Y-75545658D01*
X73239857Y-75415807D01*
X73255231Y-75329124D01*
X73284504Y-75278551D01*
X73330661Y-75257027D01*
X73358332Y-75254937D01*
X73417266Y-75261799D01*
X73455818Y-75287953D01*
X73478019Y-75341749D01*
X73487900Y-75431537D01*
X73489650Y-75526989D01*
X73490198Y-75630135D01*
X73493986Y-75692620D01*
X73504231Y-75724636D01*
X73524147Y-75736372D01*
X73556246Y-75738020D01*
X73622842Y-75738020D01*
X73615421Y-75568337D01*
X73718479Y-75568337D01*
X73737744Y-75658437D01*
X73795132Y-75715042D01*
X73890029Y-75737605D01*
X73908025Y-75738020D01*
X73981799Y-75731060D01*
X74035483Y-75713732D01*
X74043924Y-75707509D01*
X74069118Y-75689820D01*
X74074435Y-75707509D01*
X74095678Y-75732276D01*
X74125286Y-75738020D01*
X74148578Y-75734483D01*
X74163426Y-75717691D01*
X74171712Y-75678370D01*
X74175320Y-75607248D01*
X74176135Y-75495051D01*
X74176136Y-75487706D01*
X74175079Y-75445628D01*
X74354114Y-75445628D01*
X74354654Y-75571257D01*
X74357269Y-75654642D01*
X74363457Y-75704385D01*
X74374713Y-75729090D01*
X74392533Y-75737359D01*
X74404965Y-75738020D01*
X74429836Y-75733946D01*
X74444959Y-75715049D01*
X74452726Y-75671320D01*
X74455526Y-75592746D01*
X74455816Y-75525017D01*
X74457577Y-75443111D01*
X74759438Y-75443111D01*
X74769813Y-75551897D01*
X74795785Y-75640904D01*
X74813617Y-75671028D01*
X74885485Y-75724650D01*
X74976382Y-75738474D01*
X75067698Y-75711700D01*
X75108175Y-75698367D01*
X75116877Y-75711700D01*
X75138630Y-75731483D01*
X75180441Y-75738020D01*
X75244004Y-75738020D01*
X75244004Y-75191688D01*
X75345765Y-75191688D01*
X75356765Y-75243092D01*
X75380966Y-75327225D01*
X75417664Y-75446728D01*
X75457311Y-75571648D01*
X75487108Y-75655169D01*
X75510827Y-75704885D01*
X75532240Y-75728391D01*
X75555117Y-75733281D01*
X75559723Y-75732764D01*
X75589858Y-75717676D01*
X75617653Y-75676120D01*
X75647832Y-75599309D01*
X75671247Y-75525382D01*
X75701007Y-75436710D01*
X75728051Y-75373823D01*
X75747877Y-75346603D01*
X75752348Y-75347404D01*
X75769224Y-75381103D01*
X75794587Y-75449875D01*
X75823360Y-75539787D01*
X75827495Y-75553686D01*
X75859246Y-75652058D01*
X75886025Y-75709419D01*
X75912777Y-75734633D01*
X75930374Y-75738020D01*
X75950406Y-75732090D01*
X75970744Y-75710476D01*
X75993725Y-75667441D01*
X76021685Y-75597249D01*
X76031577Y-75568337D01*
X76210170Y-75568337D01*
X76229436Y-75658437D01*
X76286823Y-75715042D01*
X76381721Y-75737605D01*
X76399717Y-75738020D01*
X76473490Y-75731060D01*
X76527175Y-75713732D01*
X76535616Y-75707509D01*
X76560810Y-75689820D01*
X76566126Y-75707509D01*
X76587370Y-75732276D01*
X76616977Y-75738020D01*
X76640270Y-75734483D01*
X76655117Y-75717691D01*
X76663403Y-75678370D01*
X76667012Y-75607248D01*
X76667827Y-75495051D01*
X76667828Y-75487706D01*
X76664333Y-75348622D01*
X76650433Y-75252462D01*
X76621008Y-75191577D01*
X76570937Y-75158315D01*
X76541943Y-75153235D01*
X76820381Y-75153235D01*
X76820381Y-75738020D01*
X76883944Y-75738020D01*
X76914902Y-75735993D01*
X76933711Y-75723151D01*
X76943397Y-75689355D01*
X76946987Y-75624463D01*
X76947508Y-75525017D01*
X76950046Y-75407017D01*
X76957371Y-75356606D01*
X77256464Y-75356606D01*
X77256498Y-75439990D01*
X77258083Y-75464348D01*
X77279951Y-75591375D01*
X77326786Y-75676437D01*
X77402520Y-75723869D01*
X77506440Y-75738020D01*
X77588855Y-75730550D01*
X77656143Y-75711780D01*
X77672669Y-75702633D01*
X77704897Y-75669262D01*
X77694882Y-75636041D01*
X77689184Y-75628833D01*
X77660410Y-75604958D01*
X77623262Y-75609122D01*
X77584920Y-75626530D01*
X77500546Y-75646970D01*
X77425411Y-75628241D01*
X77372419Y-75577027D01*
X77354315Y-75507112D01*
X77377660Y-75495953D01*
X77439415Y-75487698D01*
X77527157Y-75483868D01*
X77545005Y-75483766D01*
X77735696Y-75483766D01*
X77735696Y-75406227D01*
X77715310Y-75294813D01*
X77658922Y-75207118D01*
X77574535Y-75154590D01*
X77469552Y-75141462D01*
X77376739Y-75176797D01*
X77304319Y-75246682D01*
X77270995Y-75298806D01*
X77256464Y-75356606D01*
X76957371Y-75356606D01*
X76961213Y-75330172D01*
X76986336Y-75284893D01*
X77030743Y-75261590D01*
X77099763Y-75250676D01*
X77099954Y-75250658D01*
X77170145Y-75232437D01*
X77196429Y-75201017D01*
X77183479Y-75163081D01*
X77136955Y-75143894D01*
X77071632Y-75146448D01*
X77018204Y-75164920D01*
X76969772Y-75182668D01*
X76947647Y-75178118D01*
X76947508Y-75176712D01*
X76925738Y-75159060D01*
X76883944Y-75153235D01*
X76820381Y-75153235D01*
X76541943Y-75153235D01*
X76495096Y-75145027D01*
X76437392Y-75143456D01*
X76346638Y-75151584D01*
X76281721Y-75172715D01*
X76249597Y-75201969D01*
X76257223Y-75234465D01*
X76281937Y-75252524D01*
X76332880Y-75266487D01*
X76349968Y-75255006D01*
X76387821Y-75234485D01*
X76449000Y-75230960D01*
X76509141Y-75243773D01*
X76535616Y-75260022D01*
X76560247Y-75308726D01*
X76566126Y-75349011D01*
X76561393Y-75383369D01*
X76538727Y-75400781D01*
X76485432Y-75406895D01*
X76434645Y-75407489D01*
X76320321Y-75420289D01*
X76247546Y-75460008D01*
X76213554Y-75528630D01*
X76210170Y-75568337D01*
X76031577Y-75568337D01*
X76056959Y-75494161D01*
X76101883Y-75352443D01*
X76146047Y-75208363D01*
X76152900Y-75165283D01*
X76127804Y-75155173D01*
X76106088Y-75157512D01*
X76074696Y-75168910D01*
X76049898Y-75199262D01*
X76026305Y-75258729D01*
X75998526Y-75357472D01*
X75997093Y-75362995D01*
X75971591Y-75454651D01*
X75949032Y-75523604D01*
X75933361Y-75558137D01*
X75930739Y-75560042D01*
X75916389Y-75537642D01*
X75891706Y-75478062D01*
X75861290Y-75392732D01*
X75851483Y-75363046D01*
X75809325Y-75245620D01*
X75773094Y-75178122D01*
X75739523Y-75160468D01*
X75705346Y-75192574D01*
X75667297Y-75274354D01*
X75637807Y-75357513D01*
X75604967Y-75447793D01*
X75575857Y-75512938D01*
X75555061Y-75543275D01*
X75549826Y-75543221D01*
X75534703Y-75509585D01*
X75512401Y-75440538D01*
X75487412Y-75350162D01*
X75484198Y-75337570D01*
X75457977Y-75241716D01*
X75435840Y-75185741D01*
X75412228Y-75159598D01*
X75382240Y-75153235D01*
X75359475Y-75154821D01*
X75346993Y-75164951D01*
X75345765Y-75191688D01*
X75244004Y-75191688D01*
X75244004Y-74898981D01*
X75180441Y-74898981D01*
X75145041Y-74902267D01*
X75126027Y-74920136D01*
X75118330Y-74964602D01*
X75116877Y-75047678D01*
X75116877Y-75200189D01*
X75044359Y-75164012D01*
X74955980Y-75143966D01*
X74870385Y-75164106D01*
X74804657Y-75219017D01*
X74789851Y-75244686D01*
X74765752Y-75334166D01*
X74759438Y-75443111D01*
X74457577Y-75443111D01*
X74458354Y-75407017D01*
X74469521Y-75330172D01*
X74494644Y-75284893D01*
X74539052Y-75261590D01*
X74608072Y-75250676D01*
X74608262Y-75250658D01*
X74679509Y-75231910D01*
X74704952Y-75199902D01*
X74692986Y-75159201D01*
X74647145Y-75139614D01*
X74581054Y-75144109D01*
X74531910Y-75162228D01*
X74481231Y-75181508D01*
X74456340Y-75179203D01*
X74455816Y-75176712D01*
X74434504Y-75157632D01*
X74404965Y-75153235D01*
X74383117Y-75156336D01*
X74368615Y-75171374D01*
X74359964Y-75206953D01*
X74355667Y-75271675D01*
X74354229Y-75374143D01*
X74354114Y-75445628D01*
X74175079Y-75445628D01*
X74172641Y-75348622D01*
X74158742Y-75252462D01*
X74129317Y-75191577D01*
X74079245Y-75158315D01*
X74003405Y-75145027D01*
X73945700Y-75143456D01*
X73854946Y-75151584D01*
X73790029Y-75172715D01*
X73757906Y-75201969D01*
X73765531Y-75234465D01*
X73790246Y-75252524D01*
X73841188Y-75266487D01*
X73858276Y-75255006D01*
X73895828Y-75234970D01*
X73959694Y-75230363D01*
X74027343Y-75242472D01*
X74034217Y-75244944D01*
X74065276Y-75281273D01*
X74074435Y-75333933D01*
X74071588Y-75376955D01*
X74054451Y-75398745D01*
X74010131Y-75406517D01*
X73942953Y-75407489D01*
X73828629Y-75420289D01*
X73755855Y-75460008D01*
X73721862Y-75528630D01*
X73718479Y-75568337D01*
X73615421Y-75568337D01*
X73612393Y-75499109D01*
X73603363Y-75366055D01*
X73587334Y-75273990D01*
X73560323Y-75213144D01*
X73518348Y-75173744D01*
X73470410Y-75150753D01*
X73388971Y-75144751D01*
X73323168Y-75164817D01*
X73235396Y-75201491D01*
X73235396Y-74958527D01*
X73236164Y-74846356D01*
X73239597Y-74776530D01*
X73247385Y-74740553D01*
X73261217Y-74729927D01*
X73279890Y-74734870D01*
X73372242Y-74760738D01*
X73460978Y-74762286D01*
X73523959Y-74740229D01*
X73569355Y-74678515D01*
X73596128Y-74585216D01*
X73604371Y-74476026D01*
X73604009Y-74472133D01*
X73718479Y-74472133D01*
X73721661Y-74562617D01*
X73735491Y-74621907D01*
X73766392Y-74669488D01*
X73792799Y-74697533D01*
X73882372Y-74755120D01*
X73986347Y-74773409D01*
X74087539Y-74750625D01*
X74120840Y-74731425D01*
X74159064Y-74695648D01*
X74155471Y-74663981D01*
X74149253Y-74655683D01*
X74108882Y-74633913D01*
X74073436Y-74645261D01*
X73990528Y-74671074D01*
X73911757Y-74665356D01*
X73850751Y-74632515D01*
X73821137Y-74576957D01*
X73820180Y-74563365D01*
X73826172Y-74539813D01*
X73851012Y-74525983D01*
X73904994Y-74519406D01*
X73998414Y-74517611D01*
X74010871Y-74517600D01*
X74107928Y-74516703D01*
X74164829Y-74511778D01*
X74192265Y-74499475D01*
X74200927Y-74476442D01*
X74201257Y-74466749D01*
X74328689Y-74466749D01*
X74329188Y-74595542D01*
X74331621Y-74681914D01*
X74337392Y-74734292D01*
X74347907Y-74761101D01*
X74364569Y-74770770D01*
X74379540Y-74771854D01*
X74404292Y-74767822D01*
X74419399Y-74749091D01*
X74427209Y-74705703D01*
X74430071Y-74627704D01*
X74430391Y-74556324D01*
X74431446Y-74450300D01*
X74436621Y-74382922D01*
X74448930Y-74341996D01*
X74471386Y-74315331D01*
X74493954Y-74299145D01*
X74543717Y-74272244D01*
X74582844Y-74276595D01*
X74621081Y-74299145D01*
X74652146Y-74323078D01*
X74671017Y-74352991D01*
X74680708Y-74401077D01*
X74684232Y-74479529D01*
X74684645Y-74556324D01*
X74685596Y-74661236D01*
X74690015Y-74725265D01*
X74700252Y-74758367D01*
X74718655Y-74770498D01*
X74735496Y-74771854D01*
X74759084Y-74768222D01*
X74773991Y-74751050D01*
X74782190Y-74710930D01*
X74784213Y-74668542D01*
X75167728Y-74668542D01*
X75190518Y-74702957D01*
X75248777Y-74735706D01*
X75327339Y-74760443D01*
X75411038Y-74770822D01*
X75412197Y-74770836D01*
X75526143Y-74751708D01*
X75583819Y-74719158D01*
X75639477Y-74649981D01*
X75650811Y-74596890D01*
X75636951Y-74515631D01*
X75605884Y-74479423D01*
X75752513Y-74479423D01*
X75755521Y-74572672D01*
X75768103Y-74633192D01*
X75795596Y-74678929D01*
X75819543Y-74704823D01*
X75907534Y-74760009D01*
X76008627Y-74772397D01*
X76107884Y-74741609D01*
X76148454Y-74713151D01*
X76199013Y-74640758D01*
X76228571Y-74539260D01*
X76234309Y-74427041D01*
X76230319Y-74407079D01*
X76362723Y-74407079D01*
X76362723Y-74407903D01*
X76363971Y-74525223D01*
X76369160Y-74603676D01*
X76380456Y-74655218D01*
X76400024Y-74691800D01*
X76418006Y-74713008D01*
X76485405Y-74756539D01*
X76566752Y-74772027D01*
X76640793Y-74757154D01*
X76665921Y-74740072D01*
X76696094Y-74721040D01*
X76711263Y-74740072D01*
X76743193Y-74766684D01*
X76771649Y-74771854D01*
X76792246Y-74768384D01*
X76806062Y-74752378D01*
X76814439Y-74715442D01*
X76818716Y-74649183D01*
X76820235Y-74545206D01*
X76820358Y-74478663D01*
X76972933Y-74478663D01*
X76972933Y-74771854D01*
X77036497Y-74771854D01*
X77066634Y-74770021D01*
X77085324Y-74757986D01*
X77095302Y-74725944D01*
X77099302Y-74664092D01*
X77100058Y-74562624D01*
X77100060Y-74543920D01*
X77100722Y-74484738D01*
X77393861Y-74484738D01*
X77398151Y-74571109D01*
X77414147Y-74627223D01*
X77449777Y-74673533D01*
X77476895Y-74698922D01*
X77570535Y-74754981D01*
X77673824Y-74772991D01*
X77770972Y-74751662D01*
X77811766Y-74726283D01*
X77848968Y-74691172D01*
X77847796Y-74666607D01*
X77826218Y-74645999D01*
X77784308Y-74625061D01*
X77754959Y-74640719D01*
X77699430Y-74665931D01*
X77626290Y-74666238D01*
X77561644Y-74642709D01*
X77548899Y-74632275D01*
X77506134Y-74558740D01*
X77496400Y-74498665D01*
X77914543Y-74498665D01*
X77934316Y-74601776D01*
X77987366Y-74693969D01*
X78003192Y-74711131D01*
X78077505Y-74754632D01*
X78174332Y-74772932D01*
X78271073Y-74764300D01*
X78333730Y-74736467D01*
X78366225Y-74704065D01*
X78357118Y-74671682D01*
X78347295Y-74659113D01*
X78309554Y-74632802D01*
X78285963Y-74643649D01*
X78229141Y-74669277D01*
X78154650Y-74667662D01*
X78085691Y-74641820D01*
X78054955Y-74613644D01*
X78025477Y-74564945D01*
X78015376Y-74537368D01*
X78038724Y-74527919D01*
X78100484Y-74520929D01*
X78188233Y-74517686D01*
X78206066Y-74517600D01*
X78396757Y-74517600D01*
X78396757Y-74417316D01*
X78374586Y-74308353D01*
X78312803Y-74225260D01*
X78218501Y-74176572D01*
X78191947Y-74170974D01*
X78097999Y-74177974D01*
X78019774Y-74224290D01*
X77960782Y-74299875D01*
X77924535Y-74394682D01*
X77914543Y-74498665D01*
X77496400Y-74498665D01*
X77490937Y-74464954D01*
X77504600Y-74383723D01*
X77555270Y-74307508D01*
X77629861Y-74275416D01*
X77717093Y-74287339D01*
X77780818Y-74302247D01*
X77821540Y-74289000D01*
X77831436Y-74280204D01*
X77846816Y-74254806D01*
X77828980Y-74231281D01*
X77770986Y-74200134D01*
X77657143Y-74168339D01*
X77556531Y-74182325D01*
X77475190Y-74237534D01*
X77419160Y-74329408D01*
X77394481Y-74453389D01*
X77393861Y-74484738D01*
X77100722Y-74484738D01*
X77101298Y-74433285D01*
X77106445Y-74362576D01*
X77117652Y-74320896D01*
X77137072Y-74297350D01*
X77150389Y-74289050D01*
X77215727Y-74273144D01*
X77258447Y-74276425D01*
X77316763Y-74272121D01*
X77347038Y-74240721D01*
X77362801Y-74204658D01*
X77343830Y-74185339D01*
X77301510Y-74173927D01*
X77208826Y-74175844D01*
X77167258Y-74195063D01*
X77122661Y-74219088D01*
X77097135Y-74210818D01*
X77084035Y-74192773D01*
X77041994Y-74165389D01*
X77015805Y-74169022D01*
X76997067Y-74182698D01*
X76984629Y-74212480D01*
X76977272Y-74267158D01*
X76973780Y-74355523D01*
X76972933Y-74478663D01*
X76820358Y-74478663D01*
X76820381Y-74466749D01*
X76819882Y-74337955D01*
X76817449Y-74251583D01*
X76811677Y-74199206D01*
X76801162Y-74172396D01*
X76784500Y-74162728D01*
X76769530Y-74161644D01*
X76745149Y-74165544D01*
X76730099Y-74183765D01*
X76722158Y-74226089D01*
X76719102Y-74302298D01*
X76718679Y-74385387D01*
X76715529Y-74511426D01*
X76703873Y-74594883D01*
X76680405Y-74643759D01*
X76641818Y-74666057D01*
X76600996Y-74670152D01*
X76540415Y-74659791D01*
X76499835Y-74624011D01*
X76475985Y-74555766D01*
X76465595Y-74448012D01*
X76464425Y-74375944D01*
X76463463Y-74271389D01*
X76458999Y-74207691D01*
X76448665Y-74174865D01*
X76430090Y-74162930D01*
X76413574Y-74161644D01*
X76390125Y-74165230D01*
X76375246Y-74182221D01*
X76367005Y-74221963D01*
X76363474Y-74293800D01*
X76362723Y-74407079D01*
X76230319Y-74407079D01*
X76213406Y-74322487D01*
X76209796Y-74313292D01*
X76152015Y-74232063D01*
X76068412Y-74183760D01*
X75973042Y-74170403D01*
X75879959Y-74194012D01*
X75804465Y-74255007D01*
X75772209Y-74311750D01*
X75756224Y-74387217D01*
X75752513Y-74479423D01*
X75605884Y-74479423D01*
X75590853Y-74461905D01*
X75505741Y-74429857D01*
X75446174Y-74420101D01*
X75364302Y-74407056D01*
X75320570Y-74389369D01*
X75302295Y-74360704D01*
X75299561Y-74346877D01*
X75313819Y-74299590D01*
X75363663Y-74271390D01*
X75436049Y-74266493D01*
X75500654Y-74281892D01*
X75567512Y-74291687D01*
X75613269Y-74269624D01*
X75625386Y-74234807D01*
X75602853Y-74211810D01*
X75546693Y-74190364D01*
X75474064Y-74174601D01*
X75402126Y-74168648D01*
X75364167Y-74171935D01*
X75273259Y-74208231D01*
X75214976Y-74266906D01*
X75190139Y-74336808D01*
X75199568Y-74406787D01*
X75244082Y-74465691D01*
X75324502Y-74502371D01*
X75339659Y-74505258D01*
X75443020Y-74522692D01*
X75505580Y-74537167D01*
X75536842Y-74553134D01*
X75546312Y-74575045D01*
X75544404Y-74601131D01*
X75530350Y-74637993D01*
X75492478Y-74657049D01*
X75426459Y-74665349D01*
X75350039Y-74663734D01*
X75291895Y-74650123D01*
X75280587Y-74643436D01*
X75234499Y-74626461D01*
X75189078Y-74636153D01*
X75167751Y-74667300D01*
X75167728Y-74668542D01*
X74784213Y-74668542D01*
X74785651Y-74638447D01*
X74786347Y-74529157D01*
X74785311Y-74414358D01*
X74780538Y-74338166D01*
X74769525Y-74288350D01*
X74749771Y-74252682D01*
X74723939Y-74224051D01*
X74642224Y-74171375D01*
X74555092Y-74168769D01*
X74486899Y-74201223D01*
X74446087Y-74226590D01*
X74431823Y-74220620D01*
X74430391Y-74201223D01*
X74409134Y-74168584D01*
X74379540Y-74161644D01*
X74358074Y-74164637D01*
X74343679Y-74179235D01*
X74334949Y-74213865D01*
X74330481Y-74276953D01*
X74328870Y-74376926D01*
X74328689Y-74466749D01*
X74201257Y-74466749D01*
X74201562Y-74457830D01*
X74181996Y-74339019D01*
X74128128Y-74246549D01*
X74047202Y-74187427D01*
X73946462Y-74168662D01*
X73907182Y-74173052D01*
X73813681Y-74210952D01*
X73752599Y-74284884D01*
X73722439Y-74397220D01*
X73718479Y-74472133D01*
X73604009Y-74472133D01*
X73594179Y-74366640D01*
X73565648Y-74272753D01*
X73520769Y-74211516D01*
X73449660Y-74170025D01*
X73380338Y-74168142D01*
X73305316Y-74198431D01*
X73256573Y-74220689D01*
X73237822Y-74216308D01*
X73235396Y-74198274D01*
X73214226Y-74168578D01*
X73184545Y-74161644D01*
X73170306Y-74163093D01*
X73159007Y-74170954D01*
X73150310Y-74190497D01*
X73143873Y-74226988D01*
X73139358Y-74285699D01*
X73136423Y-74371898D01*
X73134729Y-74490854D01*
X73133937Y-74647836D01*
X73133705Y-74848112D01*
X73133694Y-74949832D01*
X36215976Y-74949832D01*
X36215976Y-74472133D01*
X72523484Y-74472133D01*
X72526666Y-74562617D01*
X72540496Y-74621907D01*
X72571397Y-74669488D01*
X72597804Y-74697533D01*
X72672319Y-74753520D01*
X72754893Y-74771707D01*
X72765025Y-74771854D01*
X72849831Y-74757031D01*
X72924074Y-74705522D01*
X72932246Y-74697533D01*
X72979414Y-74640979D01*
X73001291Y-74581011D01*
X73006567Y-74495785D01*
X72997510Y-74369152D01*
X72967419Y-74280485D01*
X72911911Y-74219704D01*
X72877443Y-74198749D01*
X72774637Y-74170202D01*
X72673494Y-74184619D01*
X72589217Y-74239167D01*
X72575436Y-74255007D01*
X72542012Y-74315042D01*
X72526235Y-74395718D01*
X72523484Y-74472133D01*
X36215976Y-74472133D01*
X36215976Y-72223860D01*
X54384191Y-72223860D01*
X54387043Y-72375433D01*
X54426233Y-72520617D01*
X54502217Y-72647294D01*
X54610269Y-72745141D01*
X54739291Y-72809949D01*
X54877413Y-72839314D01*
X55012763Y-72830833D01*
X55133471Y-72782105D01*
X55141657Y-72776724D01*
X55198815Y-72739457D01*
X55225710Y-72729977D01*
X55233719Y-72746877D01*
X55234194Y-72765280D01*
X55239169Y-72794047D01*
X55262045Y-72808286D01*
X55314750Y-72811564D01*
X55380391Y-72809009D01*
X55526587Y-72801383D01*
X55526587Y-72293071D01*
X55666427Y-72293071D01*
X55689364Y-72451357D01*
X55753132Y-72589544D01*
X55850164Y-72702568D01*
X55972894Y-72785362D01*
X56113754Y-72832860D01*
X56265179Y-72839997D01*
X56419602Y-72801707D01*
X56423650Y-72800035D01*
X56544341Y-72728884D01*
X56647720Y-72629775D01*
X56699079Y-72553485D01*
X56735600Y-72483566D01*
X56590422Y-72483566D01*
X56441726Y-72499738D01*
X56341195Y-72533935D01*
X56262403Y-72565231D01*
X56197199Y-72569762D01*
X56145091Y-72558887D01*
X56077247Y-72526297D01*
X56015948Y-72474949D01*
X55977315Y-72420021D01*
X55971532Y-72395471D01*
X55995510Y-72390793D01*
X56061663Y-72386809D01*
X56161313Y-72383821D01*
X56285785Y-72382131D01*
X56362906Y-72381864D01*
X56518967Y-72380930D01*
X56630791Y-72377749D01*
X56704964Y-72371751D01*
X56748072Y-72362367D01*
X56766701Y-72349028D01*
X56767713Y-72346857D01*
X56775241Y-72273597D01*
X56758417Y-72174071D01*
X56721221Y-72064239D01*
X56673675Y-71969865D01*
X56574656Y-71844989D01*
X56452912Y-71764283D01*
X56304092Y-71725353D01*
X56220774Y-71720803D01*
X56052652Y-71743410D01*
X55909034Y-71808034D01*
X55794566Y-71909876D01*
X55713897Y-72044139D01*
X55671674Y-72206024D01*
X55666427Y-72293071D01*
X55526587Y-72293071D01*
X55526587Y-71442422D01*
X55972974Y-71442422D01*
X56015100Y-71530761D01*
X56046455Y-71587397D01*
X56071633Y-71617573D01*
X56075799Y-71619101D01*
X56105864Y-71609415D01*
X56170779Y-71583476D01*
X56259054Y-71545963D01*
X56306276Y-71525252D01*
X56400635Y-71483151D01*
X56475823Y-71449021D01*
X56520829Y-71427887D01*
X56528513Y-71423809D01*
X56528359Y-71402985D01*
X56899560Y-71402985D01*
X56899560Y-72801383D01*
X57046064Y-72809018D01*
X57135987Y-72810086D01*
X57186344Y-72800184D01*
X57207062Y-72778880D01*
X57223105Y-72757701D01*
X57254399Y-72763565D01*
X57302100Y-72790220D01*
X57404341Y-72827917D01*
X57529676Y-72838245D01*
X57658041Y-72820724D01*
X57719999Y-72800170D01*
X57857987Y-72717994D01*
X57956940Y-72603409D01*
X58016460Y-72457067D01*
X58036148Y-72282723D01*
X58031731Y-72182137D01*
X58020008Y-72090999D01*
X58006652Y-72038621D01*
X57941567Y-71929794D01*
X57840952Y-71830686D01*
X57745968Y-71769325D01*
X57676860Y-71746228D01*
X58158118Y-71746228D01*
X58158118Y-72263212D01*
X58158916Y-72420454D01*
X58161144Y-72560110D01*
X58164550Y-72674299D01*
X58168885Y-72755139D01*
X58173898Y-72794747D01*
X58175069Y-72797146D01*
X58207860Y-72806298D01*
X58275171Y-72812453D01*
X58340334Y-72814096D01*
X58488649Y-72814096D01*
X58488649Y-72494607D01*
X58490640Y-72368231D01*
X58491785Y-72344808D01*
X58772291Y-72344808D01*
X58807240Y-72486278D01*
X58876004Y-72613506D01*
X58975256Y-72719020D01*
X59101669Y-72795352D01*
X59251916Y-72835030D01*
X59317537Y-72838963D01*
X59413722Y-72833366D01*
X59504522Y-72818601D01*
X59533654Y-72810585D01*
X59681971Y-72737051D01*
X59793162Y-72629600D01*
X59865349Y-72490964D01*
X59896657Y-72323877D01*
X59897879Y-72280162D01*
X59876636Y-72104110D01*
X59815027Y-71957473D01*
X59716228Y-71843406D01*
X59583416Y-71765061D01*
X59505329Y-71746228D01*
X60039600Y-71746228D01*
X60039695Y-72159391D01*
X60041390Y-72338297D01*
X60047952Y-72474470D01*
X60061737Y-72575967D01*
X60085100Y-72650846D01*
X60120395Y-72707163D01*
X60169980Y-72752974D01*
X60223702Y-72788808D01*
X60321911Y-72827364D01*
X60435264Y-72840449D01*
X60544237Y-72828068D01*
X60570191Y-72816523D01*
X61692252Y-72816523D01*
X62010070Y-72801383D01*
X62010070Y-71402985D01*
X61851161Y-71395415D01*
X61743186Y-71390272D01*
X62200761Y-71390272D01*
X62200761Y-72814096D01*
X62505866Y-72814096D01*
X62505866Y-72265383D01*
X62640436Y-72265383D01*
X62654810Y-72413609D01*
X62704912Y-72554006D01*
X62790779Y-72677737D01*
X62912445Y-72775967D01*
X62935564Y-72788900D01*
X63045431Y-72826361D01*
X63171896Y-72838606D01*
X63294328Y-72825575D01*
X63387310Y-72790220D01*
X63442359Y-72760713D01*
X63470389Y-72760092D01*
X63481858Y-72777602D01*
X63509215Y-72800243D01*
X63574108Y-72811776D01*
X63649212Y-72814096D01*
X63802563Y-72814096D01*
X63802563Y-71746228D01*
X63980541Y-71746228D01*
X63980541Y-72816523D01*
X64298359Y-72801383D01*
X64305514Y-72471972D01*
X64310387Y-72319689D01*
X64313663Y-72280162D01*
X64590751Y-72280162D01*
X64610683Y-72458611D01*
X64668579Y-72605786D01*
X64761593Y-72718835D01*
X64886875Y-72794908D01*
X65041578Y-72831155D01*
X65142933Y-72832845D01*
X65244127Y-72822739D01*
X65312183Y-72801868D01*
X65364526Y-72764840D01*
X65365405Y-72764017D01*
X65429790Y-72703530D01*
X65429790Y-72758813D01*
X65434336Y-72789563D01*
X65455841Y-72806174D01*
X65506104Y-72812921D01*
X65582343Y-72814096D01*
X65734895Y-72814096D01*
X65734895Y-72509864D01*
X65848770Y-72509864D01*
X65849200Y-72547102D01*
X65869975Y-72608326D01*
X65880525Y-72630634D01*
X65954065Y-72722843D01*
X66061473Y-72790816D01*
X66190111Y-72830883D01*
X66327340Y-72839377D01*
X66460524Y-72812628D01*
X66480593Y-72804841D01*
X66583964Y-72739702D01*
X66659820Y-72648281D01*
X66698268Y-72543888D01*
X66701061Y-72508237D01*
X66693033Y-72414759D01*
X66664547Y-72340224D01*
X66609004Y-72278375D01*
X66519800Y-72222954D01*
X66390337Y-72167707D01*
X66311902Y-72139393D01*
X66238060Y-72109638D01*
X66203274Y-72081781D01*
X66196930Y-72046821D01*
X66197487Y-72042331D01*
X66224564Y-71995947D01*
X66275100Y-71979524D01*
X66328700Y-71997284D01*
X66344087Y-72011968D01*
X66386067Y-72033952D01*
X66456783Y-72047606D01*
X66537881Y-72052180D01*
X66611007Y-72046921D01*
X66657809Y-72031080D01*
X66663462Y-72025035D01*
X66664639Y-71980322D01*
X66636743Y-71916747D01*
X66589129Y-71848756D01*
X66531150Y-71790793D01*
X66496771Y-71767627D01*
X66378011Y-71727328D01*
X66247330Y-71720559D01*
X66118447Y-71744386D01*
X66005082Y-71795871D01*
X65920952Y-71872081D01*
X65906517Y-71893928D01*
X65862328Y-72009146D01*
X65867605Y-72116208D01*
X65921359Y-72213305D01*
X66022602Y-72298628D01*
X66165844Y-72368661D01*
X66283170Y-72417797D01*
X66355031Y-72459528D01*
X66385601Y-72497493D01*
X66379051Y-72535330D01*
X66370531Y-72547129D01*
X66314147Y-72580591D01*
X66246758Y-72578294D01*
X66191833Y-72541861D01*
X66186652Y-72534416D01*
X66157414Y-72504059D01*
X66108936Y-72488525D01*
X66026709Y-72483638D01*
X66009959Y-72483566D01*
X65928305Y-72487846D01*
X65868833Y-72498897D01*
X65848770Y-72509864D01*
X65734895Y-72509864D01*
X65734895Y-71546748D01*
X73183011Y-71546748D01*
X73190134Y-71855681D01*
X73197257Y-72164613D01*
X73469763Y-72216031D01*
X73582998Y-72239218D01*
X73678016Y-72262075D01*
X73743395Y-72281646D01*
X73766613Y-72292875D01*
X73788107Y-72329314D01*
X73820453Y-72399456D01*
X73857943Y-72488924D01*
X73894870Y-72583344D01*
X73925527Y-72668338D01*
X73944206Y-72729531D01*
X73947308Y-72748034D01*
X73933704Y-72782001D01*
X73896855Y-72847547D01*
X73842705Y-72934614D01*
X73789588Y-73014970D01*
X73631869Y-73247592D01*
X73846234Y-73463076D01*
X73929559Y-73546497D01*
X73998511Y-73614886D01*
X74045984Y-73661241D01*
X74064871Y-73678558D01*
X74064897Y-73678561D01*
X74086260Y-73665138D01*
X74141028Y-73628687D01*
X74220666Y-73574933D01*
X74307180Y-73516060D01*
X74545165Y-73353560D01*
X74787487Y-73476712D01*
X74833548Y-73367876D01*
X74859109Y-73306978D01*
X74899573Y-73209981D01*
X74950408Y-73087778D01*
X75007080Y-72951260D01*
X75040774Y-72869967D01*
X75201939Y-72480894D01*
X75069536Y-72365071D01*
X74943320Y-72232593D01*
X74862539Y-72092371D01*
X74821814Y-71934669D01*
X74819115Y-71911726D01*
X74824863Y-71738476D01*
X74874951Y-71579457D01*
X74963463Y-71441133D01*
X75084483Y-71329972D01*
X75232097Y-71252438D01*
X75400388Y-71214998D01*
X75458756Y-71212543D01*
X75641691Y-71235825D01*
X75801436Y-71303848D01*
X75935294Y-71414813D01*
X76040567Y-71566924D01*
X76064378Y-71616247D01*
X76097865Y-71740680D01*
X76103859Y-71886094D01*
X76083063Y-72031151D01*
X76047380Y-72133075D01*
X75991249Y-72220544D01*
X75907463Y-72317621D01*
X75811593Y-72407130D01*
X75769083Y-72440058D01*
X75753673Y-72454226D01*
X75746280Y-72474212D01*
X75748817Y-72506722D01*
X75763198Y-72558462D01*
X75791336Y-72636137D01*
X75835146Y-72746453D01*
X75896541Y-72896117D01*
X75905282Y-72917284D01*
X75964459Y-73060731D01*
X76018123Y-73191184D01*
X76062768Y-73300090D01*
X76094888Y-73378897D01*
X76110794Y-73418576D01*
X76133112Y-73476410D01*
X76255264Y-73414511D01*
X76377417Y-73352611D01*
X76617022Y-73515999D01*
X76856627Y-73679386D01*
X77067333Y-73469775D01*
X77150099Y-73385703D01*
X77217584Y-73313852D01*
X77262608Y-73262093D01*
X77278038Y-73238704D01*
X77264299Y-73210137D01*
X77227180Y-73149849D01*
X77172831Y-73067521D01*
X77125486Y-72998600D01*
X77062262Y-72905524D01*
X77011795Y-72826543D01*
X76980279Y-72771638D01*
X76972796Y-72752532D01*
X76981915Y-72716170D01*
X77005814Y-72646886D01*
X77039076Y-72558429D01*
X77076285Y-72464543D01*
X77112024Y-72378978D01*
X77140877Y-72315478D01*
X77154874Y-72290425D01*
X77187509Y-72274695D01*
X77258804Y-72254316D01*
X77357147Y-72232297D01*
X77436818Y-72217354D01*
X77548716Y-72196128D01*
X77643227Y-72174807D01*
X77708147Y-72156337D01*
X77729340Y-72146770D01*
X77745606Y-72110994D01*
X77755948Y-72032407D01*
X77760706Y-71907768D01*
X77761121Y-71844019D01*
X77761863Y-71728873D01*
X77759155Y-71647703D01*
X77745596Y-71592922D01*
X77713784Y-71556943D01*
X77656319Y-71532179D01*
X77565801Y-71511043D01*
X77434827Y-71485949D01*
X77406445Y-71480438D01*
X77140757Y-71428410D01*
X77043029Y-71201770D01*
X76945302Y-70975130D01*
X77111670Y-70725255D01*
X77176729Y-70626039D01*
X77229865Y-70542147D01*
X77265492Y-70482597D01*
X77278038Y-70456630D01*
X77261120Y-70432230D01*
X77215138Y-70379989D01*
X77147257Y-70307755D01*
X77070421Y-70229180D01*
X76862804Y-70020479D01*
X76599869Y-70199457D01*
X76336933Y-70378434D01*
X76114643Y-70289630D01*
X75892353Y-70200825D01*
X75828789Y-69886590D01*
X75807946Y-69783548D01*
X86558319Y-69783548D01*
X86558319Y-70195806D01*
X87683394Y-70189185D01*
X88808469Y-70182565D01*
X88815888Y-69985862D01*
X88823308Y-69789159D01*
X87983150Y-69782458D01*
X87142993Y-69775758D01*
X87782052Y-69115314D01*
X87997022Y-68891564D01*
X88178274Y-68698700D01*
X88328817Y-68532434D01*
X88451655Y-68388477D01*
X88549798Y-68262542D01*
X88626250Y-68150341D01*
X88684020Y-68047585D01*
X88726113Y-67949988D01*
X88755537Y-67853261D01*
X88775298Y-67753116D01*
X88784150Y-67686249D01*
X88784816Y-67464951D01*
X88736493Y-67255382D01*
X88640393Y-67061161D01*
X88526032Y-66915081D01*
X88363616Y-66778335D01*
X88166019Y-66676485D01*
X87935963Y-66610523D01*
X87676167Y-66581439D01*
X87607428Y-66580049D01*
X87445475Y-66584339D01*
X87294236Y-66600146D01*
X87138089Y-66630233D01*
X86961415Y-66677365D01*
X86831642Y-66717341D01*
X86583744Y-66796517D01*
X86583744Y-67036655D01*
X86585404Y-67153001D01*
X86590988Y-67225036D01*
X86601402Y-67259210D01*
X86615526Y-67262981D01*
X86652190Y-67246920D01*
X86722545Y-67216006D01*
X86813744Y-67175885D01*
X86850711Y-67159611D01*
X87113335Y-67060212D01*
X87357555Y-67000434D01*
X87580870Y-66979966D01*
X87780780Y-66998491D01*
X87954785Y-67055695D01*
X88100385Y-67151264D01*
X88215080Y-67284884D01*
X88244468Y-67334917D01*
X88277648Y-67414767D01*
X88293746Y-67506609D01*
X88296741Y-67614597D01*
X88292704Y-67700039D01*
X88280781Y-67781349D01*
X88258279Y-67862270D01*
X88222501Y-67946545D01*
X88170752Y-68037919D01*
X88100338Y-68140133D01*
X88008562Y-68256933D01*
X87892729Y-68392060D01*
X87750146Y-68549260D01*
X87578115Y-68732274D01*
X87373942Y-68944847D01*
X87238449Y-69084478D01*
X86558319Y-69783548D01*
X75807946Y-69783548D01*
X75765225Y-69572354D01*
X75155893Y-69572354D01*
X75097467Y-69876968D01*
X75073521Y-69995607D01*
X75051153Y-70095310D01*
X75032822Y-70165815D01*
X75020988Y-70196860D01*
X75020752Y-70197081D01*
X74990250Y-70213073D01*
X74924457Y-70242509D01*
X74835360Y-70280103D01*
X74795329Y-70296466D01*
X74588194Y-70380352D01*
X74325262Y-70199051D01*
X74062330Y-70017751D01*
X73852266Y-70226723D01*
X73769636Y-70310661D01*
X73702297Y-70382369D01*
X73657442Y-70433962D01*
X73642202Y-70457109D01*
X73655960Y-70485371D01*
X73693304Y-70545850D01*
X73748341Y-70629330D01*
X73807468Y-70715561D01*
X73873348Y-70812045D01*
X73926759Y-70894061D01*
X73961793Y-70952282D01*
X73972733Y-70976502D01*
X73963067Y-71008819D01*
X73937948Y-71073730D01*
X73903194Y-71157643D01*
X73864623Y-71246964D01*
X73828055Y-71328100D01*
X73799308Y-71387458D01*
X73788929Y-71405912D01*
X73755887Y-71425071D01*
X73688057Y-71446787D01*
X73611040Y-71464145D01*
X73498079Y-71485516D01*
X73380316Y-71508116D01*
X73317261Y-71520388D01*
X73183011Y-71546748D01*
X65734895Y-71546748D01*
X65734895Y-71387846D01*
X65575986Y-71395415D01*
X65417077Y-71402985D01*
X65409651Y-71600032D01*
X65404021Y-71692705D01*
X65395751Y-71761708D01*
X65386417Y-71794892D01*
X65384226Y-71796178D01*
X65351059Y-71784049D01*
X65302663Y-71758941D01*
X65215094Y-71730502D01*
X65102067Y-71722448D01*
X64984486Y-71734279D01*
X64883258Y-71765493D01*
X64875774Y-71769179D01*
X64744705Y-71860682D01*
X64654349Y-71980827D01*
X64603595Y-72131603D01*
X64590751Y-72280162D01*
X64313663Y-72280162D01*
X64319454Y-72210316D01*
X64335881Y-72135926D01*
X64362835Y-72088588D01*
X64403481Y-72060373D01*
X64460985Y-72043353D01*
X64477999Y-72039986D01*
X64565326Y-72023604D01*
X64565326Y-71872203D01*
X64564219Y-71788154D01*
X64557043Y-71742927D01*
X64538008Y-71724493D01*
X64501327Y-71720824D01*
X64492478Y-71720803D01*
X64420249Y-71736700D01*
X64352638Y-71773499D01*
X64307107Y-71805423D01*
X64288344Y-71804428D01*
X64285646Y-71786212D01*
X64275381Y-71763240D01*
X64237779Y-71750868D01*
X64162630Y-71746419D01*
X64133093Y-71746228D01*
X63980541Y-71746228D01*
X63802563Y-71746228D01*
X63649212Y-71746228D01*
X63552370Y-71750671D01*
X63498385Y-71765061D01*
X63481858Y-71782722D01*
X63465247Y-71802666D01*
X63431805Y-71795083D01*
X63387310Y-71770104D01*
X63283608Y-71731711D01*
X63157414Y-71721097D01*
X63028806Y-71738225D01*
X62939545Y-71770916D01*
X62811346Y-71862094D01*
X62718739Y-71980789D01*
X62661757Y-72118164D01*
X62640436Y-72265383D01*
X62505866Y-72265383D01*
X62505866Y-71390272D01*
X62200761Y-71390272D01*
X61743186Y-71390272D01*
X61692252Y-71387846D01*
X61692252Y-72816523D01*
X60570191Y-72816523D01*
X60629307Y-72790228D01*
X60631322Y-72788671D01*
X60688244Y-72748210D01*
X60717018Y-72742205D01*
X60725945Y-72769651D01*
X60726086Y-72777227D01*
X60735600Y-72799569D01*
X60771230Y-72809832D01*
X60843607Y-72810326D01*
X60872283Y-72809009D01*
X61018479Y-72801383D01*
X61018479Y-72547598D01*
X61187847Y-72547598D01*
X61188975Y-72661285D01*
X61191299Y-72741691D01*
X61194731Y-72780413D01*
X61195090Y-72781565D01*
X61229920Y-72802837D01*
X61312911Y-72813124D01*
X61360924Y-72814096D01*
X61514275Y-72814096D01*
X61514275Y-71743802D01*
X61355366Y-71751371D01*
X61196457Y-71758941D01*
X61189532Y-72253987D01*
X61188003Y-72409031D01*
X61187847Y-72547598D01*
X61018479Y-72547598D01*
X61018479Y-71758941D01*
X60859570Y-71751371D01*
X60700661Y-71743802D01*
X60700286Y-72069189D01*
X60698360Y-72231844D01*
X60691238Y-72350494D01*
X60676257Y-72431921D01*
X60650757Y-72482907D01*
X60612074Y-72510235D01*
X60557548Y-72520686D01*
X60522683Y-72521704D01*
X60458948Y-72517239D01*
X60412462Y-72499318D01*
X60380552Y-72461153D01*
X60360546Y-72395953D01*
X60349773Y-72296930D01*
X60345560Y-72157294D01*
X60345080Y-72070402D01*
X60344705Y-71746228D01*
X60039600Y-71746228D01*
X59505329Y-71746228D01*
X59419770Y-71725593D01*
X59334861Y-71721361D01*
X59162279Y-71743459D01*
X59016826Y-71807968D01*
X58903609Y-71909640D01*
X58817148Y-72049019D01*
X58774485Y-72196564D01*
X58772291Y-72344808D01*
X58491785Y-72344808D01*
X58496069Y-72257228D01*
X58504119Y-72173229D01*
X58513971Y-72127866D01*
X58514489Y-72126834D01*
X58554355Y-72089048D01*
X58621381Y-72055046D01*
X58641616Y-72048205D01*
X58742903Y-72017859D01*
X58742903Y-71869331D01*
X58741244Y-71785969D01*
X58733187Y-71741442D01*
X58714113Y-71723765D01*
X58685696Y-71720898D01*
X58625937Y-71734026D01*
X58554923Y-71766042D01*
X58545856Y-71771375D01*
X58491513Y-71800996D01*
X58467547Y-71801890D01*
X58463223Y-71783993D01*
X58451171Y-71762009D01*
X58408735Y-71750216D01*
X58326499Y-71746284D01*
X58310671Y-71746228D01*
X58158118Y-71746228D01*
X57676860Y-71746228D01*
X57647172Y-71736306D01*
X57530157Y-71722684D01*
X57415836Y-71728966D01*
X57325124Y-71755661D01*
X57319079Y-71758941D01*
X57266742Y-71785693D01*
X57236447Y-71796178D01*
X57227619Y-71773196D01*
X57220959Y-71711300D01*
X57217583Y-71622413D01*
X57217378Y-71592462D01*
X57217378Y-71568215D01*
X61185379Y-71568215D01*
X61202033Y-71615230D01*
X61247804Y-71637724D01*
X61332224Y-71644341D01*
X61360924Y-71644526D01*
X61514275Y-71644526D01*
X61514275Y-71387846D01*
X61355366Y-71395415D01*
X61196457Y-71402985D01*
X61188309Y-71488038D01*
X61185379Y-71568215D01*
X57217378Y-71568215D01*
X57217378Y-71387846D01*
X57058469Y-71395415D01*
X56899560Y-71402985D01*
X56528359Y-71402985D01*
X56528310Y-71396368D01*
X56507752Y-71344527D01*
X56476029Y-71285276D01*
X56442333Y-71235602D01*
X56415855Y-71212491D01*
X56414069Y-71212294D01*
X56371553Y-71224022D01*
X56309161Y-71252898D01*
X56297159Y-71259451D01*
X56223898Y-71300651D01*
X56134256Y-71351211D01*
X56093023Y-71374515D01*
X55972974Y-71442422D01*
X55526587Y-71442422D01*
X55526587Y-71402985D01*
X55367678Y-71395415D01*
X55208769Y-71387846D01*
X55208769Y-71821757D01*
X55126136Y-71771375D01*
X55030064Y-71735377D01*
X54909150Y-71721206D01*
X54784858Y-71729670D01*
X54693087Y-71755054D01*
X54572126Y-71831495D01*
X54478887Y-71941822D01*
X54415524Y-72075967D01*
X54384191Y-72223860D01*
X36215976Y-72223860D01*
X36215976Y-67099812D01*
X43262906Y-67099812D01*
X43266659Y-67176392D01*
X43274498Y-67219052D01*
X43276748Y-67222576D01*
X43305750Y-67223311D01*
X43374205Y-67215417D01*
X43471805Y-67200743D01*
X43588243Y-67181141D01*
X43713213Y-67158461D01*
X43836407Y-67134553D01*
X43947519Y-67111268D01*
X44036241Y-67090456D01*
X44078789Y-67078577D01*
X44088526Y-67077773D01*
X44096732Y-67084649D01*
X44103539Y-67103149D01*
X44109076Y-67137217D01*
X44113473Y-67190794D01*
X44116862Y-67267826D01*
X44119371Y-67372254D01*
X44121130Y-67508023D01*
X44122272Y-67679074D01*
X44122924Y-67889352D01*
X44123218Y-68142799D01*
X44123284Y-68426497D01*
X44123284Y-69788470D01*
X43335095Y-69788470D01*
X43335095Y-70195854D01*
X44358469Y-70189209D01*
X45381842Y-70182565D01*
X45389268Y-69985517D01*
X45396694Y-69788470D01*
X44606367Y-69788470D01*
X44606367Y-69635918D01*
X54344305Y-69635918D01*
X54344305Y-71087594D01*
X54503213Y-71080024D01*
X54662122Y-71072454D01*
X54667314Y-70520217D01*
X54794397Y-70520217D01*
X54805374Y-70659809D01*
X54850107Y-70793198D01*
X54930189Y-70912991D01*
X55047212Y-71011795D01*
X55114939Y-71048652D01*
X55273901Y-71100963D01*
X55426474Y-71104403D01*
X55580550Y-71058906D01*
X55611106Y-71044494D01*
X55682539Y-70999333D01*
X55754258Y-70938607D01*
X55817385Y-70872300D01*
X55863039Y-70810399D01*
X55882341Y-70762888D01*
X55879997Y-70754637D01*
X55990601Y-70754637D01*
X56006794Y-70835601D01*
X56051875Y-70940213D01*
X56135408Y-71022519D01*
X56248568Y-71078942D01*
X56382530Y-71105906D01*
X56528471Y-71099835D01*
X56611795Y-71080777D01*
X56693690Y-71041324D01*
X56771559Y-70981031D01*
X56786366Y-70965478D01*
X56835928Y-70897308D01*
X56857627Y-70826775D01*
X56861422Y-70755703D01*
X56845853Y-70641433D01*
X56795642Y-70552150D01*
X56705528Y-70481847D01*
X56572028Y-70425104D01*
X56453607Y-70382123D01*
X56379156Y-70345208D01*
X56342817Y-70310277D01*
X56338732Y-70273249D01*
X56341537Y-70264526D01*
X56376450Y-70231111D01*
X56430455Y-70221767D01*
X56479431Y-70237381D01*
X56496271Y-70258841D01*
X56519778Y-70281142D01*
X56574899Y-70293201D01*
X56670855Y-70296973D01*
X56676208Y-70296979D01*
X56841509Y-70296979D01*
X56824318Y-70227059D01*
X56772562Y-70109500D01*
X56683924Y-70026753D01*
X56592346Y-69991874D01*
X57446206Y-69991874D01*
X57446206Y-71441123D01*
X57776737Y-71441123D01*
X57776737Y-71225007D01*
X57777534Y-71127337D01*
X57779661Y-71052641D01*
X57782721Y-71012596D01*
X57784074Y-71008891D01*
X57809008Y-71019338D01*
X57863268Y-71045672D01*
X57891151Y-71059742D01*
X58032696Y-71105537D01*
X58177181Y-71105604D01*
X58315697Y-71063669D01*
X58439332Y-70983453D01*
X58539176Y-70868680D01*
X58591136Y-70767237D01*
X58615860Y-70658225D01*
X58620804Y-70525022D01*
X58614951Y-70468513D01*
X58710492Y-70468513D01*
X58712126Y-70621124D01*
X58752800Y-70762086D01*
X58826790Y-70885962D01*
X58928368Y-70987312D01*
X59051811Y-71060699D01*
X59191390Y-71100684D01*
X59341382Y-71101830D01*
X59496060Y-71058697D01*
X59527050Y-71044281D01*
X59616382Y-70987450D01*
X59696541Y-70915020D01*
X59756314Y-70839268D01*
X59784489Y-70772474D01*
X59785346Y-70761447D01*
X59763086Y-70738746D01*
X59705966Y-70727569D01*
X59628475Y-70727172D01*
X59545102Y-70736812D01*
X59470335Y-70755746D01*
X59422452Y-70780062D01*
X59347478Y-70817382D01*
X59269899Y-70830913D01*
X59186999Y-70815081D01*
X59112414Y-70774697D01*
X59061474Y-70720429D01*
X59048008Y-70676515D01*
X59050833Y-70657926D01*
X59064252Y-70644739D01*
X59095678Y-70636030D01*
X59152528Y-70630878D01*
X59242215Y-70628362D01*
X59372155Y-70627558D01*
X59442102Y-70627509D01*
X59836196Y-70627509D01*
X59835638Y-70506739D01*
X59813569Y-70349855D01*
X59753814Y-70217951D01*
X59669370Y-70119001D01*
X59887047Y-70119001D01*
X59888714Y-70194257D01*
X59898960Y-70231785D01*
X59925656Y-70244701D01*
X59963324Y-70246128D01*
X60039600Y-70246128D01*
X60039600Y-70648697D01*
X60040687Y-70787020D01*
X60043689Y-70907161D01*
X60048215Y-71000046D01*
X60053877Y-71056602D01*
X60057659Y-71069326D01*
X60091206Y-71078048D01*
X60158476Y-71081389D01*
X60216568Y-71079920D01*
X60357418Y-71072454D01*
X60371390Y-70246128D01*
X60447036Y-70246128D01*
X60491820Y-70243299D01*
X60514152Y-70226070D01*
X60521836Y-70181324D01*
X60522683Y-70119001D01*
X60521016Y-70043745D01*
X60510770Y-70006217D01*
X60484074Y-69993301D01*
X60446407Y-69991874D01*
X60598959Y-69991874D01*
X60598959Y-70521570D01*
X60599738Y-70680793D01*
X60601915Y-70822494D01*
X60605249Y-70938896D01*
X60609497Y-71022218D01*
X60614420Y-71064684D01*
X60615909Y-71068217D01*
X60648701Y-71077369D01*
X60716012Y-71083524D01*
X60781175Y-71085167D01*
X60929490Y-71085167D01*
X60929490Y-70119001D01*
X61031191Y-70119001D01*
X61032858Y-70194257D01*
X61043104Y-70231785D01*
X61069801Y-70244701D01*
X61107468Y-70246128D01*
X61183744Y-70246128D01*
X61183744Y-70648697D01*
X61184831Y-70787020D01*
X61187833Y-70907161D01*
X61192359Y-71000046D01*
X61198021Y-71056602D01*
X61201804Y-71069326D01*
X61235351Y-71078048D01*
X61302620Y-71081389D01*
X61360712Y-71079920D01*
X61501562Y-71072454D01*
X61506935Y-70754637D01*
X61685896Y-70754637D01*
X61702089Y-70835601D01*
X61727694Y-70909943D01*
X61762474Y-70966319D01*
X61855732Y-71037554D01*
X61979364Y-71085687D01*
X62116982Y-71107586D01*
X62252196Y-71100121D01*
X62336248Y-71075912D01*
X62401713Y-71034316D01*
X63470556Y-71034316D01*
X65048409Y-71034316D01*
X65048409Y-70347830D01*
X65785746Y-70347830D01*
X65785746Y-71059742D01*
X66421382Y-71059742D01*
X66421382Y-70347830D01*
X67158719Y-70347830D01*
X67158719Y-69688165D01*
X66796407Y-69681110D01*
X66434094Y-69674056D01*
X66427020Y-69324456D01*
X66419947Y-68974857D01*
X65785746Y-68974857D01*
X65785746Y-69686769D01*
X65049885Y-69686769D01*
X65042790Y-69349882D01*
X65035696Y-69012995D01*
X63484745Y-69012995D01*
X63484745Y-69674056D01*
X64272933Y-69686769D01*
X65061121Y-69699481D01*
X65061121Y-70335117D01*
X63484745Y-70360543D01*
X63477651Y-70697429D01*
X63470556Y-71034316D01*
X62401713Y-71034316D01*
X62449146Y-71004178D01*
X62524046Y-70902675D01*
X62555933Y-70778714D01*
X62556717Y-70754637D01*
X62540974Y-70640671D01*
X62490296Y-70551474D01*
X62399507Y-70481153D01*
X62267324Y-70425104D01*
X62146244Y-70381350D01*
X62070320Y-70344444D01*
X62034909Y-70310956D01*
X62035365Y-70277455D01*
X62045925Y-70261592D01*
X62096095Y-70227558D01*
X62150700Y-70224616D01*
X62189003Y-70253158D01*
X62191566Y-70258841D01*
X62215073Y-70281142D01*
X62270194Y-70293201D01*
X62366150Y-70296973D01*
X62371503Y-70296979D01*
X62536804Y-70296979D01*
X62519613Y-70227059D01*
X62467857Y-70109500D01*
X62379220Y-70026753D01*
X62254173Y-69979127D01*
X62120642Y-69966488D01*
X61965644Y-69986814D01*
X61840440Y-70047065D01*
X61749966Y-70141830D01*
X61697702Y-70252306D01*
X61694737Y-70354034D01*
X61741333Y-70447482D01*
X61837751Y-70533116D01*
X61984251Y-70611402D01*
X62020644Y-70626647D01*
X62136247Y-70677225D01*
X62206793Y-70719271D01*
X62236453Y-70756976D01*
X62229401Y-70794535D01*
X62210577Y-70817464D01*
X62147340Y-70852681D01*
X62083510Y-70844165D01*
X62042308Y-70805487D01*
X62015626Y-70776775D01*
X61972033Y-70761198D01*
X61897880Y-70755180D01*
X61848224Y-70754637D01*
X61685896Y-70754637D01*
X61506935Y-70754637D01*
X61515534Y-70246128D01*
X61591181Y-70246128D01*
X61635964Y-70243299D01*
X61658296Y-70226070D01*
X61665981Y-70181324D01*
X61666827Y-70119001D01*
X61665161Y-70043745D01*
X61654914Y-70006217D01*
X61628218Y-69993301D01*
X61590551Y-69991874D01*
X61514275Y-69991874D01*
X61514275Y-69635918D01*
X61183744Y-69635918D01*
X61183744Y-69991874D01*
X61107468Y-69991874D01*
X61062314Y-69994651D01*
X61039798Y-70011728D01*
X61032048Y-70056222D01*
X61031191Y-70119001D01*
X60929490Y-70119001D01*
X60929490Y-69991874D01*
X60598959Y-69991874D01*
X60446407Y-69991874D01*
X60370130Y-69991874D01*
X60370130Y-69813861D01*
X60600594Y-69813861D01*
X60617248Y-69860876D01*
X60663019Y-69883370D01*
X60747439Y-69889986D01*
X60776139Y-69890172D01*
X60929490Y-69890172D01*
X60929490Y-69633491D01*
X60611672Y-69648631D01*
X60603524Y-69733684D01*
X60600594Y-69813861D01*
X60370130Y-69813861D01*
X60370130Y-69635918D01*
X60039600Y-69635918D01*
X60039600Y-69991874D01*
X59963324Y-69991874D01*
X59918170Y-69994651D01*
X59895653Y-70011728D01*
X59887904Y-70056222D01*
X59887047Y-70119001D01*
X59669370Y-70119001D01*
X59663705Y-70112363D01*
X59550573Y-70034425D01*
X59421753Y-69985475D01*
X59284575Y-69966845D01*
X59146373Y-69979873D01*
X59014479Y-70025893D01*
X58896225Y-70106241D01*
X58798943Y-70222252D01*
X58753624Y-70309692D01*
X58710492Y-70468513D01*
X58614951Y-70468513D01*
X58606810Y-70389917D01*
X58574721Y-70275201D01*
X58572344Y-70269692D01*
X58503901Y-70157383D01*
X58411147Y-70062416D01*
X58307868Y-69997149D01*
X58246222Y-69977318D01*
X58115402Y-69967152D01*
X57984218Y-69981261D01*
X57872146Y-70016687D01*
X57830836Y-70040412D01*
X57779249Y-70075729D01*
X57756840Y-70082070D01*
X57751438Y-70060055D01*
X57751312Y-70044456D01*
X57746180Y-70015143D01*
X57722978Y-69999305D01*
X57669999Y-69992907D01*
X57598759Y-69991874D01*
X57446206Y-69991874D01*
X56592346Y-69991874D01*
X56558877Y-69979127D01*
X56425347Y-69966488D01*
X56270349Y-69986814D01*
X56145145Y-70047065D01*
X56054671Y-70141830D01*
X56002406Y-70252306D01*
X55999442Y-70354034D01*
X56046038Y-70447482D01*
X56142455Y-70533116D01*
X56288955Y-70611402D01*
X56325348Y-70626647D01*
X56440952Y-70677225D01*
X56511497Y-70719271D01*
X56541157Y-70756976D01*
X56534106Y-70794535D01*
X56515282Y-70817464D01*
X56452045Y-70852681D01*
X56388215Y-70844165D01*
X56347013Y-70805487D01*
X56320330Y-70776775D01*
X56276738Y-70761198D01*
X56202585Y-70755180D01*
X56152928Y-70754637D01*
X55990601Y-70754637D01*
X55879997Y-70754637D01*
X55877302Y-70745158D01*
X55844956Y-70736479D01*
X55778414Y-70730929D01*
X55719396Y-70729777D01*
X55609438Y-70738674D01*
X55533216Y-70766712D01*
X55513874Y-70780062D01*
X55417360Y-70826086D01*
X55313017Y-70826865D01*
X55213988Y-70783479D01*
X55177178Y-70752383D01*
X55130400Y-70700419D01*
X55119038Y-70669392D01*
X55134639Y-70651070D01*
X55171843Y-70642973D01*
X55249861Y-70636089D01*
X55358662Y-70630984D01*
X55488215Y-70628223D01*
X55545656Y-70627899D01*
X55920681Y-70627509D01*
X55920123Y-70506739D01*
X55896244Y-70345225D01*
X55829924Y-70205662D01*
X55726764Y-70093342D01*
X55592366Y-70013556D01*
X55432333Y-69971598D01*
X55348163Y-69966448D01*
X55190070Y-69987992D01*
X55056172Y-70047694D01*
X54948062Y-70138161D01*
X54867334Y-70252000D01*
X54815581Y-70381816D01*
X54794397Y-70520217D01*
X54667314Y-70520217D01*
X54668875Y-70354186D01*
X54675627Y-69635918D01*
X54344305Y-69635918D01*
X44606367Y-69635918D01*
X44606367Y-69025708D01*
X62556717Y-69025708D01*
X62556717Y-69661343D01*
X63217778Y-69661343D01*
X63217778Y-69025708D01*
X62556717Y-69025708D01*
X44606367Y-69025708D01*
X44606367Y-67754436D01*
X61990114Y-67754436D01*
X62709269Y-67754436D01*
X62709309Y-67684516D01*
X62728620Y-67570758D01*
X62780246Y-67478827D01*
X62854936Y-67413777D01*
X62943439Y-67380662D01*
X63036503Y-67384534D01*
X63124878Y-67430448D01*
X63143458Y-67447375D01*
X63198821Y-67519332D01*
X63221898Y-67596401D01*
X63211026Y-67683236D01*
X63164542Y-67784489D01*
X63080781Y-67904816D01*
X62958082Y-68048868D01*
X62909722Y-68101379D01*
X62767579Y-68261321D01*
X62664195Y-68396425D01*
X62596775Y-68511162D01*
X62562523Y-68610003D01*
X62556717Y-68666180D01*
X62556717Y-68746028D01*
X63207563Y-68746028D01*
X63240960Y-68653669D01*
X63276516Y-68592046D01*
X63347170Y-68502601D01*
X63448948Y-68390062D01*
X63546145Y-68290526D01*
X63686464Y-68146080D01*
X63791637Y-68024826D01*
X63866331Y-67918318D01*
X63915210Y-67818110D01*
X63942940Y-67715755D01*
X63954186Y-67602808D01*
X63955115Y-67550102D01*
X63951742Y-67436577D01*
X63938131Y-67350138D01*
X63909047Y-67267268D01*
X63877101Y-67199632D01*
X63780797Y-67054224D01*
X70778134Y-67054224D01*
X70785941Y-67236279D01*
X70808887Y-67396028D01*
X70830140Y-67474757D01*
X70946657Y-67745594D01*
X71098491Y-67984442D01*
X71281803Y-68188615D01*
X71492759Y-68355428D01*
X71727522Y-68482194D01*
X71982255Y-68566228D01*
X72253122Y-68604844D01*
X72443043Y-68603888D01*
X72571100Y-68590301D01*
X72706399Y-68567342D01*
X72820497Y-68539872D01*
X72824424Y-68538684D01*
X73084903Y-68433515D01*
X73318527Y-68287531D01*
X73521263Y-68105117D01*
X73689080Y-67890652D01*
X73817944Y-67648518D01*
X73903825Y-67383098D01*
X73908856Y-67360342D01*
X73926093Y-67285305D01*
X73939884Y-67250042D01*
X73953626Y-67256964D01*
X73970713Y-67308479D01*
X73994542Y-67406997D01*
X73998432Y-67423906D01*
X74076367Y-67654894D01*
X74198451Y-67875757D01*
X74358088Y-68079624D01*
X74548680Y-68259626D01*
X74763631Y-68408894D01*
X74996343Y-68520558D01*
X75078739Y-68548860D01*
X75259994Y-68587989D01*
X75467480Y-68605631D01*
X75681342Y-68601786D01*
X75881721Y-68576453D01*
X75994054Y-68548860D01*
X76239823Y-68448004D01*
X76471646Y-68304679D01*
X76678429Y-68127064D01*
X76849077Y-67923333D01*
X76855578Y-67913903D01*
X76927657Y-67794985D01*
X76993834Y-67661636D01*
X77048365Y-67527934D01*
X77085509Y-67407955D01*
X77099524Y-67315848D01*
X77105403Y-67259119D01*
X77119776Y-67248546D01*
X77139606Y-67280757D01*
X77161857Y-67352379D01*
X77171745Y-67396056D01*
X77240515Y-67614008D01*
X77354636Y-67831435D01*
X77509262Y-68039705D01*
X77571901Y-68108679D01*
X77774772Y-68296031D01*
X77982993Y-68435883D01*
X78204187Y-68531536D01*
X78445976Y-68586291D01*
X78714575Y-68603450D01*
X78992799Y-68584538D01*
X79242578Y-68526526D01*
X79471348Y-68426346D01*
X79686546Y-68280929D01*
X79848111Y-68135773D01*
X80026150Y-67924250D01*
X80161248Y-67689691D01*
X80252542Y-67437614D01*
X80299167Y-67173536D01*
X80300259Y-66902977D01*
X80254954Y-66631455D01*
X80162388Y-66364489D01*
X80134751Y-66305187D01*
X80011321Y-66104255D01*
X79848226Y-65916472D01*
X79655710Y-65750059D01*
X79444021Y-65613235D01*
X79223402Y-65514222D01*
X79106047Y-65479813D01*
X78952381Y-65454818D01*
X78774270Y-65443379D01*
X78591745Y-65445509D01*
X78424838Y-65461223D01*
X78332179Y-65479243D01*
X78082403Y-65567758D01*
X77845412Y-65700070D01*
X77630887Y-65869222D01*
X77448510Y-66068254D01*
X77381666Y-66162391D01*
X77313460Y-66280011D01*
X77250705Y-66411414D01*
X77199032Y-66542381D01*
X77164069Y-66658699D01*
X77151447Y-66743776D01*
X77145917Y-66800725D01*
X77132445Y-66811514D01*
X77113839Y-66779684D01*
X77092908Y-66708775D01*
X77081694Y-66655833D01*
X77013800Y-66428434D01*
X76901699Y-66209420D01*
X76752011Y-66005520D01*
X76571353Y-65823463D01*
X76366345Y-65669978D01*
X76143603Y-65551795D01*
X75924225Y-65478963D01*
X75765820Y-65453823D01*
X75580380Y-65443306D01*
X75389566Y-65447388D01*
X75215038Y-65466045D01*
X75144924Y-65479813D01*
X74918726Y-65556666D01*
X74701434Y-65674891D01*
X74500097Y-65827429D01*
X74321762Y-66007226D01*
X74173474Y-66207225D01*
X74062280Y-66420369D01*
X73997354Y-66628947D01*
X73974158Y-66736667D01*
X73956846Y-66795830D01*
X73942325Y-66807930D01*
X73927502Y-66774464D01*
X73909286Y-66696925D01*
X73904465Y-66673856D01*
X73824989Y-66413635D01*
X73698781Y-66172622D01*
X73527075Y-65953145D01*
X73515620Y-65940992D01*
X73312924Y-65754652D01*
X73101642Y-65615544D01*
X72873851Y-65520056D01*
X72621627Y-65464573D01*
X72434495Y-65447957D01*
X72206779Y-65447624D01*
X72009756Y-65471070D01*
X71827617Y-65521498D01*
X71644550Y-65602114D01*
X71625602Y-65611950D01*
X71407712Y-65753326D01*
X71209894Y-65934254D01*
X71040491Y-66144864D01*
X70907851Y-66375287D01*
X70843265Y-66537176D01*
X70807025Y-66688377D01*
X70785238Y-66866158D01*
X70778134Y-67054224D01*
X63780797Y-67054224D01*
X63767299Y-67033844D01*
X63623688Y-66901106D01*
X63452517Y-66803141D01*
X63260034Y-66741673D01*
X63052488Y-66718426D01*
X62836126Y-66735126D01*
X62617199Y-66793495D01*
X62531554Y-66828337D01*
X62358630Y-66932988D01*
X62215169Y-67075842D01*
X62105068Y-67251144D01*
X62032226Y-67453140D01*
X62005769Y-67604653D01*
X61990114Y-67754436D01*
X44606367Y-67754436D01*
X44606367Y-66635718D01*
X44345756Y-66636928D01*
X44193806Y-66642577D01*
X44031340Y-66659264D01*
X43844650Y-66688710D01*
X43678339Y-66720637D01*
X43271532Y-66803136D01*
X43264035Y-67003051D01*
X43262906Y-67099812D01*
X36215976Y-67099812D01*
X36215976Y-62514385D01*
X51713879Y-62514385D01*
X51720802Y-62726930D01*
X51741165Y-62921280D01*
X51759783Y-63021579D01*
X51857071Y-63342289D01*
X51996420Y-63640457D01*
X52174032Y-63912524D01*
X52386113Y-64154930D01*
X52628866Y-64364115D01*
X52898496Y-64536519D01*
X53191206Y-64668584D01*
X53503201Y-64756748D01*
X53633933Y-64779118D01*
X53803151Y-64792329D01*
X54001174Y-64791327D01*
X54208327Y-64777239D01*
X54404933Y-64751197D01*
X54517796Y-64728382D01*
X54827931Y-64629345D01*
X55111587Y-64487038D01*
X55367754Y-64302205D01*
X55595425Y-64075588D01*
X55793590Y-63807931D01*
X55815673Y-63772545D01*
X55858051Y-63700839D01*
X55886918Y-63647185D01*
X55895255Y-63626349D01*
X55871300Y-63620677D01*
X55805308Y-63615868D01*
X55706091Y-63612297D01*
X55582461Y-63610344D01*
X55515908Y-63610092D01*
X55136561Y-63610092D01*
X54986821Y-63759832D01*
X54792207Y-63919895D01*
X54573298Y-64039394D01*
X54336433Y-64118351D01*
X54087949Y-64156791D01*
X53834185Y-64154736D01*
X53581478Y-64112211D01*
X53336168Y-64029240D01*
X53104592Y-63905845D01*
X52904057Y-63752075D01*
X52726861Y-63564873D01*
X52588986Y-63356446D01*
X52486909Y-63127475D01*
X52479774Y-63101964D01*
X56368787Y-63101964D01*
X56378589Y-63286222D01*
X56400300Y-63447743D01*
X56413990Y-63508390D01*
X56493644Y-63744961D01*
X56602430Y-63955032D01*
X56748316Y-64152255D01*
X56860765Y-64273942D01*
X57076328Y-64463866D01*
X57302543Y-64606581D01*
X57545602Y-64704665D01*
X57811695Y-64760698D01*
X58069129Y-64777264D01*
X58197642Y-64773404D01*
X58330547Y-64761694D01*
X58442776Y-64744483D01*
X58460602Y-64740572D01*
X58628467Y-64686348D01*
X58805920Y-64604517D01*
X58971574Y-64506063D01*
X59083687Y-64420559D01*
X59146160Y-64367667D01*
X59192978Y-64331896D01*
X59210819Y-64322004D01*
X59218069Y-64345354D01*
X59223432Y-64407121D01*
X59225920Y-64494877D01*
X59225986Y-64512695D01*
X59225986Y-64703385D01*
X59810771Y-64703385D01*
X59810771Y-61398080D01*
X60497257Y-61398080D01*
X60497257Y-63580429D01*
X60497459Y-63909172D01*
X60498046Y-64223295D01*
X60498986Y-64519082D01*
X60500250Y-64792821D01*
X60501809Y-65040797D01*
X60503632Y-65259296D01*
X60505689Y-65444604D01*
X60507951Y-65593007D01*
X60510387Y-65700790D01*
X60512968Y-65764241D01*
X60514993Y-65780514D01*
X60546174Y-65787059D01*
X60617061Y-65791177D01*
X60716547Y-65792476D01*
X60813742Y-65791108D01*
X61094755Y-65783966D01*
X61107468Y-65050901D01*
X61120180Y-64317837D01*
X61181580Y-64383229D01*
X61277952Y-64467155D01*
X61407830Y-64554399D01*
X61555442Y-64635743D01*
X61705011Y-64701969D01*
X61761316Y-64721986D01*
X61865382Y-64752769D01*
X61961596Y-64772355D01*
X62067638Y-64783121D01*
X62201189Y-64787440D01*
X62251612Y-64787845D01*
X62516703Y-64776233D01*
X62747449Y-64736150D01*
X62954171Y-64663430D01*
X63147191Y-64553903D01*
X63336831Y-64403404D01*
X63435096Y-64310003D01*
X63544910Y-64196727D01*
X63626272Y-64102114D01*
X63689699Y-64012163D01*
X63745711Y-63912871D01*
X63769879Y-63864346D01*
X63873839Y-63606728D01*
X63934320Y-63346745D01*
X63955054Y-63068002D01*
X63955115Y-63050733D01*
X63931967Y-62750080D01*
X63864087Y-62467149D01*
X63753825Y-62205870D01*
X63603532Y-61970177D01*
X63415557Y-61764001D01*
X63192249Y-61591275D01*
X63027087Y-61497724D01*
X62792532Y-61401896D01*
X62784418Y-61399988D01*
X64234795Y-61399988D01*
X64234795Y-61932014D01*
X64717878Y-61932014D01*
X64717878Y-64703385D01*
X65302663Y-64703385D01*
X65302663Y-63025307D01*
X66029803Y-63025307D01*
X66030550Y-63174425D01*
X66036167Y-63288296D01*
X66048400Y-63382428D01*
X66068997Y-63472330D01*
X66087065Y-63533816D01*
X66192058Y-63805014D01*
X66330692Y-64044814D01*
X66509818Y-64265040D01*
X66512232Y-64267602D01*
X66727746Y-64463435D01*
X66963428Y-64617403D01*
X67213698Y-64726354D01*
X67416247Y-64778200D01*
X67579257Y-64795253D01*
X67766281Y-64795595D01*
X67957945Y-64780590D01*
X68134878Y-64751599D01*
X68252286Y-64719430D01*
X68288258Y-64703385D01*
X69980941Y-64703385D01*
X70673784Y-64702498D01*
X70951360Y-64700592D01*
X71179870Y-64695605D01*
X71361011Y-64687467D01*
X71496477Y-64676111D01*
X71560971Y-64666949D01*
X71801024Y-64603283D01*
X72008678Y-64502573D01*
X72188914Y-64362255D01*
X72227778Y-64323307D01*
X72377291Y-64132378D01*
X72489378Y-63916948D01*
X72562693Y-63685364D01*
X72595891Y-63445970D01*
X72587630Y-63207112D01*
X72550071Y-63037964D01*
X72955174Y-63037964D01*
X72967817Y-63276326D01*
X73005765Y-63492544D01*
X73097341Y-63757279D01*
X73229790Y-64005305D01*
X73397375Y-64229360D01*
X73594358Y-64422183D01*
X73815001Y-64576514D01*
X73896785Y-64620107D01*
X74174550Y-64729860D01*
X74458729Y-64790070D01*
X74746120Y-64800314D01*
X75002463Y-64766965D01*
X75248585Y-64691285D01*
X76489850Y-64691285D01*
X76513686Y-64695820D01*
X76578838Y-64699567D01*
X76675774Y-64702170D01*
X76794962Y-64703279D01*
X76814024Y-64703294D01*
X77138198Y-64703203D01*
X77532293Y-64082591D01*
X77654826Y-63891062D01*
X77753385Y-63740397D01*
X77829993Y-63627756D01*
X77886677Y-63550302D01*
X77925462Y-63505197D01*
X77948373Y-63489603D01*
X77954123Y-63491540D01*
X77974399Y-63520642D01*
X78017026Y-63587160D01*
X78078169Y-63684923D01*
X78153991Y-63807757D01*
X78240657Y-63949491D01*
X78320134Y-64080462D01*
X78413143Y-64233630D01*
X78498703Y-64373340D01*
X78572951Y-64493376D01*
X78632021Y-64587523D01*
X78672048Y-64649566D01*
X78688194Y-64672398D01*
X78717703Y-64686878D01*
X78778465Y-64695712D01*
X78876707Y-64699352D01*
X79018655Y-64698249D01*
X79038748Y-64697823D01*
X79359516Y-64690673D01*
X78863207Y-63877059D01*
X78750090Y-63691321D01*
X78644658Y-63517623D01*
X78550022Y-63361133D01*
X78469290Y-63227017D01*
X78405573Y-63120442D01*
X78361979Y-63046575D01*
X78341620Y-63010583D01*
X78341179Y-63009687D01*
X78337430Y-62990809D01*
X78342867Y-62962821D01*
X78359966Y-62921544D01*
X78391201Y-62862797D01*
X78439045Y-62782403D01*
X78505974Y-62676181D01*
X78594462Y-62539954D01*
X78706982Y-62369542D01*
X78826479Y-62190030D01*
X78943561Y-62014205D01*
X79051202Y-61851887D01*
X79146252Y-61707881D01*
X79225557Y-61586991D01*
X79285968Y-61494021D01*
X79324330Y-61433776D01*
X79337498Y-61411106D01*
X79313626Y-61406320D01*
X79248220Y-61402325D01*
X79150595Y-61399479D01*
X79030066Y-61398138D01*
X78998008Y-61398080D01*
X78658517Y-61398080D01*
X78319661Y-61946052D01*
X78226847Y-62095592D01*
X78142592Y-62230291D01*
X78070635Y-62344258D01*
X78014715Y-62431599D01*
X77978570Y-62486423D01*
X77966252Y-62503019D01*
X77949597Y-62484799D01*
X77910678Y-62428808D01*
X77853295Y-62340934D01*
X77781250Y-62227068D01*
X77698343Y-62093101D01*
X77641122Y-61999176D01*
X77551604Y-61851746D01*
X77469360Y-61717021D01*
X77398532Y-61601729D01*
X77343263Y-61512598D01*
X77307695Y-61456356D01*
X77297687Y-61441404D01*
X77278589Y-61422754D01*
X77247732Y-61410486D01*
X77196163Y-61403653D01*
X77114932Y-61401310D01*
X76995088Y-61402509D01*
X76940523Y-61403631D01*
X76616216Y-61410793D01*
X77089749Y-62172369D01*
X77200248Y-62350410D01*
X77302272Y-62515424D01*
X77392681Y-62662283D01*
X77468333Y-62785859D01*
X77526089Y-62881024D01*
X77562807Y-62942649D01*
X77575201Y-62965008D01*
X77564373Y-62992467D01*
X77528431Y-63057623D01*
X77470287Y-63155741D01*
X77392854Y-63282086D01*
X77299043Y-63431926D01*
X77191766Y-63600524D01*
X77073936Y-63783147D01*
X77038486Y-63837627D01*
X76917986Y-64022759D01*
X76806639Y-64194400D01*
X76707411Y-64347933D01*
X76623272Y-64478740D01*
X76557187Y-64582206D01*
X76512124Y-64653712D01*
X76491051Y-64688641D01*
X76489850Y-64691285D01*
X75248585Y-64691285D01*
X75259659Y-64687880D01*
X75502490Y-64564032D01*
X75725635Y-64400700D01*
X75923774Y-64203163D01*
X76091587Y-63976698D01*
X76223754Y-63726582D01*
X76312674Y-63467119D01*
X76344926Y-63291530D01*
X76360787Y-63093416D01*
X76360025Y-62892214D01*
X76342408Y-62707362D01*
X76322911Y-62609458D01*
X76292571Y-62512293D01*
X76247073Y-62391956D01*
X76194854Y-62270320D01*
X76179523Y-62237645D01*
X76125139Y-62132155D01*
X76068356Y-62042244D01*
X75998861Y-61954196D01*
X75906343Y-61854293D01*
X75844309Y-61791710D01*
X75631514Y-61603646D01*
X75415540Y-61462713D01*
X75188070Y-61365450D01*
X74940792Y-61308398D01*
X74665389Y-61288097D01*
X74633794Y-61287958D01*
X74498497Y-61290333D01*
X74393745Y-61299073D01*
X74299332Y-61317358D01*
X74195051Y-61348370D01*
X74147717Y-61364471D01*
X73882598Y-61481913D01*
X73640985Y-61639522D01*
X73427953Y-61831884D01*
X73248572Y-62053585D01*
X73107916Y-62299212D01*
X73011056Y-62563351D01*
X73005855Y-62583146D01*
X72967855Y-62799561D01*
X72955174Y-63037964D01*
X72550071Y-63037964D01*
X72536563Y-62977134D01*
X72470395Y-62817517D01*
X72384155Y-62685673D01*
X72268018Y-62558996D01*
X72138365Y-62453639D01*
X72048285Y-62401202D01*
X71909902Y-62335736D01*
X72010670Y-62262740D01*
X72144450Y-62140890D01*
X72253438Y-61984338D01*
X72299868Y-61892476D01*
X72337435Y-61770355D01*
X72357787Y-61616002D01*
X72360910Y-61445037D01*
X72346792Y-61273079D01*
X72315421Y-61115749D01*
X72300541Y-61067550D01*
X72204339Y-60860786D01*
X72069485Y-60686781D01*
X71895850Y-60545441D01*
X71683303Y-60436674D01*
X71431716Y-60360389D01*
X71264925Y-60330580D01*
X71185057Y-60323058D01*
X71065123Y-60316404D01*
X70915907Y-60310992D01*
X70748192Y-60307194D01*
X70572761Y-60305385D01*
X70533944Y-60305290D01*
X69980941Y-60304787D01*
X69980941Y-64703385D01*
X68288258Y-64703385D01*
X68516941Y-64601384D01*
X68755058Y-64443154D01*
X68963316Y-64249796D01*
X69138396Y-64026366D01*
X69276978Y-63777919D01*
X69375740Y-63509514D01*
X69431362Y-63226205D01*
X69440525Y-62933050D01*
X69439309Y-62911786D01*
X69396539Y-62625618D01*
X69307483Y-62352568D01*
X69175892Y-62098414D01*
X69005516Y-61868934D01*
X68800106Y-61669906D01*
X68563411Y-61507107D01*
X68508067Y-61477015D01*
X68285375Y-61378095D01*
X68065035Y-61317406D01*
X67827487Y-61290102D01*
X67743504Y-61287611D01*
X67547874Y-61293132D01*
X67377646Y-61318029D01*
X67212036Y-61366960D01*
X67030255Y-61444585D01*
X67018879Y-61450018D01*
X66761883Y-61600853D01*
X66536561Y-61790074D01*
X66346283Y-62013824D01*
X66194417Y-62268245D01*
X66098587Y-62504086D01*
X66068701Y-62602777D01*
X66048958Y-62692098D01*
X66037261Y-62787943D01*
X66031513Y-62906202D01*
X66029803Y-63025307D01*
X65302663Y-63025307D01*
X65302663Y-61932014D01*
X65785746Y-61932014D01*
X65785746Y-61399988D01*
X65550561Y-61392678D01*
X65315376Y-61385367D01*
X65301652Y-60304787D01*
X64718889Y-60304787D01*
X64705165Y-61385367D01*
X64469980Y-61392678D01*
X64234795Y-61399988D01*
X62784418Y-61399988D01*
X62549425Y-61344733D01*
X62283301Y-61323020D01*
X62238899Y-61322621D01*
X61961695Y-61342245D01*
X61710581Y-61402900D01*
X61478557Y-61507007D01*
X61258621Y-61656986D01*
X61248728Y-61664989D01*
X61107468Y-61780047D01*
X61107468Y-61398080D01*
X60497257Y-61398080D01*
X59810771Y-61398080D01*
X59225986Y-61398080D01*
X59225986Y-61782255D01*
X59081199Y-61664313D01*
X58845233Y-61503886D01*
X58589203Y-61389412D01*
X58316495Y-61321722D01*
X58030494Y-61301647D01*
X57734585Y-61330019D01*
X57725886Y-61331573D01*
X57460046Y-61404854D01*
X57212309Y-61522844D01*
X56987131Y-61681265D01*
X56788969Y-61875842D01*
X56622279Y-62102296D01*
X56491519Y-62356351D01*
X56411352Y-62593075D01*
X56385117Y-62737360D01*
X56370945Y-62912999D01*
X56368787Y-63101964D01*
X52479774Y-63101964D01*
X52405370Y-62835939D01*
X52372884Y-62546683D01*
X52388641Y-62263633D01*
X52451832Y-61990720D01*
X52561648Y-61731871D01*
X52717280Y-61491014D01*
X52856917Y-61331281D01*
X53062047Y-61148939D01*
X53274336Y-61014375D01*
X53500618Y-60924931D01*
X53747729Y-60877950D01*
X54022502Y-60870773D01*
X54039199Y-60871511D01*
X54309550Y-60902994D01*
X54549030Y-60971834D01*
X54764037Y-61080793D01*
X54960967Y-61232632D01*
X55029029Y-61298691D01*
X55175584Y-61448931D01*
X55535420Y-61448931D01*
X55664092Y-61448019D01*
X55772416Y-61445512D01*
X55851345Y-61441756D01*
X55891831Y-61437095D01*
X55895255Y-61435205D01*
X55882068Y-61395418D01*
X55846981Y-61325419D01*
X55796713Y-61237033D01*
X55737978Y-61142086D01*
X55679221Y-61054837D01*
X55490881Y-60831729D01*
X55264362Y-60636381D01*
X55006891Y-60473657D01*
X54725693Y-60348422D01*
X54547708Y-60293068D01*
X54414301Y-60267116D01*
X54247306Y-60247926D01*
X54063626Y-60236230D01*
X53880167Y-60232762D01*
X53713831Y-60238253D01*
X53591766Y-60251627D01*
X53264755Y-60331452D01*
X52961275Y-60456354D01*
X52681194Y-60626396D01*
X52437483Y-60829033D01*
X52202023Y-61083978D01*
X52013075Y-61355817D01*
X51867762Y-61649336D01*
X51771864Y-61936168D01*
X51739597Y-62102144D01*
X51720206Y-62300503D01*
X51713879Y-62514385D01*
X36215976Y-62514385D01*
X36215976Y-58957239D01*
X95864024Y-58957239D01*
X95864024Y-102078761D01*
X95864024Y-102078761D01*
G37*
X95864024Y-102078761D02*
X36215976Y-102078761D01*
X36215976Y-74949832D01*
X73133694Y-74949832D01*
X73133787Y-75170538D01*
X73134295Y-75345662D01*
X73135555Y-75480473D01*
X73137910Y-75580241D01*
X73141698Y-75650234D01*
X73147259Y-75695721D01*
X73154933Y-75721972D01*
X73165061Y-75734256D01*
X73177982Y-75737841D01*
X73184545Y-75738020D01*
X73210454Y-75733552D01*
X73225700Y-75713151D01*
X73233059Y-75666321D01*
X73235304Y-75582567D01*
X73235396Y-75545658D01*
X73239857Y-75415807D01*
X73255231Y-75329124D01*
X73284504Y-75278551D01*
X73330661Y-75257027D01*
X73358332Y-75254937D01*
X73417266Y-75261799D01*
X73455818Y-75287953D01*
X73478019Y-75341749D01*
X73487900Y-75431537D01*
X73489650Y-75526989D01*
X73490198Y-75630135D01*
X73493986Y-75692620D01*
X73504231Y-75724636D01*
X73524147Y-75736372D01*
X73556246Y-75738020D01*
X73622842Y-75738020D01*
X73615421Y-75568337D01*
X73718479Y-75568337D01*
X73737744Y-75658437D01*
X73795132Y-75715042D01*
X73890029Y-75737605D01*
X73908025Y-75738020D01*
X73981799Y-75731060D01*
X74035483Y-75713732D01*
X74043924Y-75707509D01*
X74069118Y-75689820D01*
X74074435Y-75707509D01*
X74095678Y-75732276D01*
X74125286Y-75738020D01*
X74148578Y-75734483D01*
X74163426Y-75717691D01*
X74171712Y-75678370D01*
X74175320Y-75607248D01*
X74176135Y-75495051D01*
X74176136Y-75487706D01*
X74175079Y-75445628D01*
X74354114Y-75445628D01*
X74354654Y-75571257D01*
X74357269Y-75654642D01*
X74363457Y-75704385D01*
X74374713Y-75729090D01*
X74392533Y-75737359D01*
X74404965Y-75738020D01*
X74429836Y-75733946D01*
X74444959Y-75715049D01*
X74452726Y-75671320D01*
X74455526Y-75592746D01*
X74455816Y-75525017D01*
X74457577Y-75443111D01*
X74759438Y-75443111D01*
X74769813Y-75551897D01*
X74795785Y-75640904D01*
X74813617Y-75671028D01*
X74885485Y-75724650D01*
X74976382Y-75738474D01*
X75067698Y-75711700D01*
X75108175Y-75698367D01*
X75116877Y-75711700D01*
X75138630Y-75731483D01*
X75180441Y-75738020D01*
X75244004Y-75738020D01*
X75244004Y-75191688D01*
X75345765Y-75191688D01*
X75356765Y-75243092D01*
X75380966Y-75327225D01*
X75417664Y-75446728D01*
X75457311Y-75571648D01*
X75487108Y-75655169D01*
X75510827Y-75704885D01*
X75532240Y-75728391D01*
X75555117Y-75733281D01*
X75559723Y-75732764D01*
X75589858Y-75717676D01*
X75617653Y-75676120D01*
X75647832Y-75599309D01*
X75671247Y-75525382D01*
X75701007Y-75436710D01*
X75728051Y-75373823D01*
X75747877Y-75346603D01*
X75752348Y-75347404D01*
X75769224Y-75381103D01*
X75794587Y-75449875D01*
X75823360Y-75539787D01*
X75827495Y-75553686D01*
X75859246Y-75652058D01*
X75886025Y-75709419D01*
X75912777Y-75734633D01*
X75930374Y-75738020D01*
X75950406Y-75732090D01*
X75970744Y-75710476D01*
X75993725Y-75667441D01*
X76021685Y-75597249D01*
X76031577Y-75568337D01*
X76210170Y-75568337D01*
X76229436Y-75658437D01*
X76286823Y-75715042D01*
X76381721Y-75737605D01*
X76399717Y-75738020D01*
X76473490Y-75731060D01*
X76527175Y-75713732D01*
X76535616Y-75707509D01*
X76560810Y-75689820D01*
X76566126Y-75707509D01*
X76587370Y-75732276D01*
X76616977Y-75738020D01*
X76640270Y-75734483D01*
X76655117Y-75717691D01*
X76663403Y-75678370D01*
X76667012Y-75607248D01*
X76667827Y-75495051D01*
X76667828Y-75487706D01*
X76664333Y-75348622D01*
X76650433Y-75252462D01*
X76621008Y-75191577D01*
X76570937Y-75158315D01*
X76541943Y-75153235D01*
X76820381Y-75153235D01*
X76820381Y-75738020D01*
X76883944Y-75738020D01*
X76914902Y-75735993D01*
X76933711Y-75723151D01*
X76943397Y-75689355D01*
X76946987Y-75624463D01*
X76947508Y-75525017D01*
X76950046Y-75407017D01*
X76957371Y-75356606D01*
X77256464Y-75356606D01*
X77256498Y-75439990D01*
X77258083Y-75464348D01*
X77279951Y-75591375D01*
X77326786Y-75676437D01*
X77402520Y-75723869D01*
X77506440Y-75738020D01*
X77588855Y-75730550D01*
X77656143Y-75711780D01*
X77672669Y-75702633D01*
X77704897Y-75669262D01*
X77694882Y-75636041D01*
X77689184Y-75628833D01*
X77660410Y-75604958D01*
X77623262Y-75609122D01*
X77584920Y-75626530D01*
X77500546Y-75646970D01*
X77425411Y-75628241D01*
X77372419Y-75577027D01*
X77354315Y-75507112D01*
X77377660Y-75495953D01*
X77439415Y-75487698D01*
X77527157Y-75483868D01*
X77545005Y-75483766D01*
X77735696Y-75483766D01*
X77735696Y-75406227D01*
X77715310Y-75294813D01*
X77658922Y-75207118D01*
X77574535Y-75154590D01*
X77469552Y-75141462D01*
X77376739Y-75176797D01*
X77304319Y-75246682D01*
X77270995Y-75298806D01*
X77256464Y-75356606D01*
X76957371Y-75356606D01*
X76961213Y-75330172D01*
X76986336Y-75284893D01*
X77030743Y-75261590D01*
X77099763Y-75250676D01*
X77099954Y-75250658D01*
X77170145Y-75232437D01*
X77196429Y-75201017D01*
X77183479Y-75163081D01*
X77136955Y-75143894D01*
X77071632Y-75146448D01*
X77018204Y-75164920D01*
X76969772Y-75182668D01*
X76947647Y-75178118D01*
X76947508Y-75176712D01*
X76925738Y-75159060D01*
X76883944Y-75153235D01*
X76820381Y-75153235D01*
X76541943Y-75153235D01*
X76495096Y-75145027D01*
X76437392Y-75143456D01*
X76346638Y-75151584D01*
X76281721Y-75172715D01*
X76249597Y-75201969D01*
X76257223Y-75234465D01*
X76281937Y-75252524D01*
X76332880Y-75266487D01*
X76349968Y-75255006D01*
X76387821Y-75234485D01*
X76449000Y-75230960D01*
X76509141Y-75243773D01*
X76535616Y-75260022D01*
X76560247Y-75308726D01*
X76566126Y-75349011D01*
X76561393Y-75383369D01*
X76538727Y-75400781D01*
X76485432Y-75406895D01*
X76434645Y-75407489D01*
X76320321Y-75420289D01*
X76247546Y-75460008D01*
X76213554Y-75528630D01*
X76210170Y-75568337D01*
X76031577Y-75568337D01*
X76056959Y-75494161D01*
X76101883Y-75352443D01*
X76146047Y-75208363D01*
X76152900Y-75165283D01*
X76127804Y-75155173D01*
X76106088Y-75157512D01*
X76074696Y-75168910D01*
X76049898Y-75199262D01*
X76026305Y-75258729D01*
X75998526Y-75357472D01*
X75997093Y-75362995D01*
X75971591Y-75454651D01*
X75949032Y-75523604D01*
X75933361Y-75558137D01*
X75930739Y-75560042D01*
X75916389Y-75537642D01*
X75891706Y-75478062D01*
X75861290Y-75392732D01*
X75851483Y-75363046D01*
X75809325Y-75245620D01*
X75773094Y-75178122D01*
X75739523Y-75160468D01*
X75705346Y-75192574D01*
X75667297Y-75274354D01*
X75637807Y-75357513D01*
X75604967Y-75447793D01*
X75575857Y-75512938D01*
X75555061Y-75543275D01*
X75549826Y-75543221D01*
X75534703Y-75509585D01*
X75512401Y-75440538D01*
X75487412Y-75350162D01*
X75484198Y-75337570D01*
X75457977Y-75241716D01*
X75435840Y-75185741D01*
X75412228Y-75159598D01*
X75382240Y-75153235D01*
X75359475Y-75154821D01*
X75346993Y-75164951D01*
X75345765Y-75191688D01*
X75244004Y-75191688D01*
X75244004Y-74898981D01*
X75180441Y-74898981D01*
X75145041Y-74902267D01*
X75126027Y-74920136D01*
X75118330Y-74964602D01*
X75116877Y-75047678D01*
X75116877Y-75200189D01*
X75044359Y-75164012D01*
X74955980Y-75143966D01*
X74870385Y-75164106D01*
X74804657Y-75219017D01*
X74789851Y-75244686D01*
X74765752Y-75334166D01*
X74759438Y-75443111D01*
X74457577Y-75443111D01*
X74458354Y-75407017D01*
X74469521Y-75330172D01*
X74494644Y-75284893D01*
X74539052Y-75261590D01*
X74608072Y-75250676D01*
X74608262Y-75250658D01*
X74679509Y-75231910D01*
X74704952Y-75199902D01*
X74692986Y-75159201D01*
X74647145Y-75139614D01*
X74581054Y-75144109D01*
X74531910Y-75162228D01*
X74481231Y-75181508D01*
X74456340Y-75179203D01*
X74455816Y-75176712D01*
X74434504Y-75157632D01*
X74404965Y-75153235D01*
X74383117Y-75156336D01*
X74368615Y-75171374D01*
X74359964Y-75206953D01*
X74355667Y-75271675D01*
X74354229Y-75374143D01*
X74354114Y-75445628D01*
X74175079Y-75445628D01*
X74172641Y-75348622D01*
X74158742Y-75252462D01*
X74129317Y-75191577D01*
X74079245Y-75158315D01*
X74003405Y-75145027D01*
X73945700Y-75143456D01*
X73854946Y-75151584D01*
X73790029Y-75172715D01*
X73757906Y-75201969D01*
X73765531Y-75234465D01*
X73790246Y-75252524D01*
X73841188Y-75266487D01*
X73858276Y-75255006D01*
X73895828Y-75234970D01*
X73959694Y-75230363D01*
X74027343Y-75242472D01*
X74034217Y-75244944D01*
X74065276Y-75281273D01*
X74074435Y-75333933D01*
X74071588Y-75376955D01*
X74054451Y-75398745D01*
X74010131Y-75406517D01*
X73942953Y-75407489D01*
X73828629Y-75420289D01*
X73755855Y-75460008D01*
X73721862Y-75528630D01*
X73718479Y-75568337D01*
X73615421Y-75568337D01*
X73612393Y-75499109D01*
X73603363Y-75366055D01*
X73587334Y-75273990D01*
X73560323Y-75213144D01*
X73518348Y-75173744D01*
X73470410Y-75150753D01*
X73388971Y-75144751D01*
X73323168Y-75164817D01*
X73235396Y-75201491D01*
X73235396Y-74958527D01*
X73236164Y-74846356D01*
X73239597Y-74776530D01*
X73247385Y-74740553D01*
X73261217Y-74729927D01*
X73279890Y-74734870D01*
X73372242Y-74760738D01*
X73460978Y-74762286D01*
X73523959Y-74740229D01*
X73569355Y-74678515D01*
X73596128Y-74585216D01*
X73604371Y-74476026D01*
X73604009Y-74472133D01*
X73718479Y-74472133D01*
X73721661Y-74562617D01*
X73735491Y-74621907D01*
X73766392Y-74669488D01*
X73792799Y-74697533D01*
X73882372Y-74755120D01*
X73986347Y-74773409D01*
X74087539Y-74750625D01*
X74120840Y-74731425D01*
X74159064Y-74695648D01*
X74155471Y-74663981D01*
X74149253Y-74655683D01*
X74108882Y-74633913D01*
X74073436Y-74645261D01*
X73990528Y-74671074D01*
X73911757Y-74665356D01*
X73850751Y-74632515D01*
X73821137Y-74576957D01*
X73820180Y-74563365D01*
X73826172Y-74539813D01*
X73851012Y-74525983D01*
X73904994Y-74519406D01*
X73998414Y-74517611D01*
X74010871Y-74517600D01*
X74107928Y-74516703D01*
X74164829Y-74511778D01*
X74192265Y-74499475D01*
X74200927Y-74476442D01*
X74201257Y-74466749D01*
X74328689Y-74466749D01*
X74329188Y-74595542D01*
X74331621Y-74681914D01*
X74337392Y-74734292D01*
X74347907Y-74761101D01*
X74364569Y-74770770D01*
X74379540Y-74771854D01*
X74404292Y-74767822D01*
X74419399Y-74749091D01*
X74427209Y-74705703D01*
X74430071Y-74627704D01*
X74430391Y-74556324D01*
X74431446Y-74450300D01*
X74436621Y-74382922D01*
X74448930Y-74341996D01*
X74471386Y-74315331D01*
X74493954Y-74299145D01*
X74543717Y-74272244D01*
X74582844Y-74276595D01*
X74621081Y-74299145D01*
X74652146Y-74323078D01*
X74671017Y-74352991D01*
X74680708Y-74401077D01*
X74684232Y-74479529D01*
X74684645Y-74556324D01*
X74685596Y-74661236D01*
X74690015Y-74725265D01*
X74700252Y-74758367D01*
X74718655Y-74770498D01*
X74735496Y-74771854D01*
X74759084Y-74768222D01*
X74773991Y-74751050D01*
X74782190Y-74710930D01*
X74784213Y-74668542D01*
X75167728Y-74668542D01*
X75190518Y-74702957D01*
X75248777Y-74735706D01*
X75327339Y-74760443D01*
X75411038Y-74770822D01*
X75412197Y-74770836D01*
X75526143Y-74751708D01*
X75583819Y-74719158D01*
X75639477Y-74649981D01*
X75650811Y-74596890D01*
X75636951Y-74515631D01*
X75605884Y-74479423D01*
X75752513Y-74479423D01*
X75755521Y-74572672D01*
X75768103Y-74633192D01*
X75795596Y-74678929D01*
X75819543Y-74704823D01*
X75907534Y-74760009D01*
X76008627Y-74772397D01*
X76107884Y-74741609D01*
X76148454Y-74713151D01*
X76199013Y-74640758D01*
X76228571Y-74539260D01*
X76234309Y-74427041D01*
X76230319Y-74407079D01*
X76362723Y-74407079D01*
X76362723Y-74407903D01*
X76363971Y-74525223D01*
X76369160Y-74603676D01*
X76380456Y-74655218D01*
X76400024Y-74691800D01*
X76418006Y-74713008D01*
X76485405Y-74756539D01*
X76566752Y-74772027D01*
X76640793Y-74757154D01*
X76665921Y-74740072D01*
X76696094Y-74721040D01*
X76711263Y-74740072D01*
X76743193Y-74766684D01*
X76771649Y-74771854D01*
X76792246Y-74768384D01*
X76806062Y-74752378D01*
X76814439Y-74715442D01*
X76818716Y-74649183D01*
X76820235Y-74545206D01*
X76820358Y-74478663D01*
X76972933Y-74478663D01*
X76972933Y-74771854D01*
X77036497Y-74771854D01*
X77066634Y-74770021D01*
X77085324Y-74757986D01*
X77095302Y-74725944D01*
X77099302Y-74664092D01*
X77100058Y-74562624D01*
X77100060Y-74543920D01*
X77100722Y-74484738D01*
X77393861Y-74484738D01*
X77398151Y-74571109D01*
X77414147Y-74627223D01*
X77449777Y-74673533D01*
X77476895Y-74698922D01*
X77570535Y-74754981D01*
X77673824Y-74772991D01*
X77770972Y-74751662D01*
X77811766Y-74726283D01*
X77848968Y-74691172D01*
X77847796Y-74666607D01*
X77826218Y-74645999D01*
X77784308Y-74625061D01*
X77754959Y-74640719D01*
X77699430Y-74665931D01*
X77626290Y-74666238D01*
X77561644Y-74642709D01*
X77548899Y-74632275D01*
X77506134Y-74558740D01*
X77496400Y-74498665D01*
X77914543Y-74498665D01*
X77934316Y-74601776D01*
X77987366Y-74693969D01*
X78003192Y-74711131D01*
X78077505Y-74754632D01*
X78174332Y-74772932D01*
X78271073Y-74764300D01*
X78333730Y-74736467D01*
X78366225Y-74704065D01*
X78357118Y-74671682D01*
X78347295Y-74659113D01*
X78309554Y-74632802D01*
X78285963Y-74643649D01*
X78229141Y-74669277D01*
X78154650Y-74667662D01*
X78085691Y-74641820D01*
X78054955Y-74613644D01*
X78025477Y-74564945D01*
X78015376Y-74537368D01*
X78038724Y-74527919D01*
X78100484Y-74520929D01*
X78188233Y-74517686D01*
X78206066Y-74517600D01*
X78396757Y-74517600D01*
X78396757Y-74417316D01*
X78374586Y-74308353D01*
X78312803Y-74225260D01*
X78218501Y-74176572D01*
X78191947Y-74170974D01*
X78097999Y-74177974D01*
X78019774Y-74224290D01*
X77960782Y-74299875D01*
X77924535Y-74394682D01*
X77914543Y-74498665D01*
X77496400Y-74498665D01*
X77490937Y-74464954D01*
X77504600Y-74383723D01*
X77555270Y-74307508D01*
X77629861Y-74275416D01*
X77717093Y-74287339D01*
X77780818Y-74302247D01*
X77821540Y-74289000D01*
X77831436Y-74280204D01*
X77846816Y-74254806D01*
X77828980Y-74231281D01*
X77770986Y-74200134D01*
X77657143Y-74168339D01*
X77556531Y-74182325D01*
X77475190Y-74237534D01*
X77419160Y-74329408D01*
X77394481Y-74453389D01*
X77393861Y-74484738D01*
X77100722Y-74484738D01*
X77101298Y-74433285D01*
X77106445Y-74362576D01*
X77117652Y-74320896D01*
X77137072Y-74297350D01*
X77150389Y-74289050D01*
X77215727Y-74273144D01*
X77258447Y-74276425D01*
X77316763Y-74272121D01*
X77347038Y-74240721D01*
X77362801Y-74204658D01*
X77343830Y-74185339D01*
X77301510Y-74173927D01*
X77208826Y-74175844D01*
X77167258Y-74195063D01*
X77122661Y-74219088D01*
X77097135Y-74210818D01*
X77084035Y-74192773D01*
X77041994Y-74165389D01*
X77015805Y-74169022D01*
X76997067Y-74182698D01*
X76984629Y-74212480D01*
X76977272Y-74267158D01*
X76973780Y-74355523D01*
X76972933Y-74478663D01*
X76820358Y-74478663D01*
X76820381Y-74466749D01*
X76819882Y-74337955D01*
X76817449Y-74251583D01*
X76811677Y-74199206D01*
X76801162Y-74172396D01*
X76784500Y-74162728D01*
X76769530Y-74161644D01*
X76745149Y-74165544D01*
X76730099Y-74183765D01*
X76722158Y-74226089D01*
X76719102Y-74302298D01*
X76718679Y-74385387D01*
X76715529Y-74511426D01*
X76703873Y-74594883D01*
X76680405Y-74643759D01*
X76641818Y-74666057D01*
X76600996Y-74670152D01*
X76540415Y-74659791D01*
X76499835Y-74624011D01*
X76475985Y-74555766D01*
X76465595Y-74448012D01*
X76464425Y-74375944D01*
X76463463Y-74271389D01*
X76458999Y-74207691D01*
X76448665Y-74174865D01*
X76430090Y-74162930D01*
X76413574Y-74161644D01*
X76390125Y-74165230D01*
X76375246Y-74182221D01*
X76367005Y-74221963D01*
X76363474Y-74293800D01*
X76362723Y-74407079D01*
X76230319Y-74407079D01*
X76213406Y-74322487D01*
X76209796Y-74313292D01*
X76152015Y-74232063D01*
X76068412Y-74183760D01*
X75973042Y-74170403D01*
X75879959Y-74194012D01*
X75804465Y-74255007D01*
X75772209Y-74311750D01*
X75756224Y-74387217D01*
X75752513Y-74479423D01*
X75605884Y-74479423D01*
X75590853Y-74461905D01*
X75505741Y-74429857D01*
X75446174Y-74420101D01*
X75364302Y-74407056D01*
X75320570Y-74389369D01*
X75302295Y-74360704D01*
X75299561Y-74346877D01*
X75313819Y-74299590D01*
X75363663Y-74271390D01*
X75436049Y-74266493D01*
X75500654Y-74281892D01*
X75567512Y-74291687D01*
X75613269Y-74269624D01*
X75625386Y-74234807D01*
X75602853Y-74211810D01*
X75546693Y-74190364D01*
X75474064Y-74174601D01*
X75402126Y-74168648D01*
X75364167Y-74171935D01*
X75273259Y-74208231D01*
X75214976Y-74266906D01*
X75190139Y-74336808D01*
X75199568Y-74406787D01*
X75244082Y-74465691D01*
X75324502Y-74502371D01*
X75339659Y-74505258D01*
X75443020Y-74522692D01*
X75505580Y-74537167D01*
X75536842Y-74553134D01*
X75546312Y-74575045D01*
X75544404Y-74601131D01*
X75530350Y-74637993D01*
X75492478Y-74657049D01*
X75426459Y-74665349D01*
X75350039Y-74663734D01*
X75291895Y-74650123D01*
X75280587Y-74643436D01*
X75234499Y-74626461D01*
X75189078Y-74636153D01*
X75167751Y-74667300D01*
X75167728Y-74668542D01*
X74784213Y-74668542D01*
X74785651Y-74638447D01*
X74786347Y-74529157D01*
X74785311Y-74414358D01*
X74780538Y-74338166D01*
X74769525Y-74288350D01*
X74749771Y-74252682D01*
X74723939Y-74224051D01*
X74642224Y-74171375D01*
X74555092Y-74168769D01*
X74486899Y-74201223D01*
X74446087Y-74226590D01*
X74431823Y-74220620D01*
X74430391Y-74201223D01*
X74409134Y-74168584D01*
X74379540Y-74161644D01*
X74358074Y-74164637D01*
X74343679Y-74179235D01*
X74334949Y-74213865D01*
X74330481Y-74276953D01*
X74328870Y-74376926D01*
X74328689Y-74466749D01*
X74201257Y-74466749D01*
X74201562Y-74457830D01*
X74181996Y-74339019D01*
X74128128Y-74246549D01*
X74047202Y-74187427D01*
X73946462Y-74168662D01*
X73907182Y-74173052D01*
X73813681Y-74210952D01*
X73752599Y-74284884D01*
X73722439Y-74397220D01*
X73718479Y-74472133D01*
X73604009Y-74472133D01*
X73594179Y-74366640D01*
X73565648Y-74272753D01*
X73520769Y-74211516D01*
X73449660Y-74170025D01*
X73380338Y-74168142D01*
X73305316Y-74198431D01*
X73256573Y-74220689D01*
X73237822Y-74216308D01*
X73235396Y-74198274D01*
X73214226Y-74168578D01*
X73184545Y-74161644D01*
X73170306Y-74163093D01*
X73159007Y-74170954D01*
X73150310Y-74190497D01*
X73143873Y-74226988D01*
X73139358Y-74285699D01*
X73136423Y-74371898D01*
X73134729Y-74490854D01*
X73133937Y-74647836D01*
X73133705Y-74848112D01*
X73133694Y-74949832D01*
X36215976Y-74949832D01*
X36215976Y-74472133D01*
X72523484Y-74472133D01*
X72526666Y-74562617D01*
X72540496Y-74621907D01*
X72571397Y-74669488D01*
X72597804Y-74697533D01*
X72672319Y-74753520D01*
X72754893Y-74771707D01*
X72765025Y-74771854D01*
X72849831Y-74757031D01*
X72924074Y-74705522D01*
X72932246Y-74697533D01*
X72979414Y-74640979D01*
X73001291Y-74581011D01*
X73006567Y-74495785D01*
X72997510Y-74369152D01*
X72967419Y-74280485D01*
X72911911Y-74219704D01*
X72877443Y-74198749D01*
X72774637Y-74170202D01*
X72673494Y-74184619D01*
X72589217Y-74239167D01*
X72575436Y-74255007D01*
X72542012Y-74315042D01*
X72526235Y-74395718D01*
X72523484Y-74472133D01*
X36215976Y-74472133D01*
X36215976Y-72223860D01*
X54384191Y-72223860D01*
X54387043Y-72375433D01*
X54426233Y-72520617D01*
X54502217Y-72647294D01*
X54610269Y-72745141D01*
X54739291Y-72809949D01*
X54877413Y-72839314D01*
X55012763Y-72830833D01*
X55133471Y-72782105D01*
X55141657Y-72776724D01*
X55198815Y-72739457D01*
X55225710Y-72729977D01*
X55233719Y-72746877D01*
X55234194Y-72765280D01*
X55239169Y-72794047D01*
X55262045Y-72808286D01*
X55314750Y-72811564D01*
X55380391Y-72809009D01*
X55526587Y-72801383D01*
X55526587Y-72293071D01*
X55666427Y-72293071D01*
X55689364Y-72451357D01*
X55753132Y-72589544D01*
X55850164Y-72702568D01*
X55972894Y-72785362D01*
X56113754Y-72832860D01*
X56265179Y-72839997D01*
X56419602Y-72801707D01*
X56423650Y-72800035D01*
X56544341Y-72728884D01*
X56647720Y-72629775D01*
X56699079Y-72553485D01*
X56735600Y-72483566D01*
X56590422Y-72483566D01*
X56441726Y-72499738D01*
X56341195Y-72533935D01*
X56262403Y-72565231D01*
X56197199Y-72569762D01*
X56145091Y-72558887D01*
X56077247Y-72526297D01*
X56015948Y-72474949D01*
X55977315Y-72420021D01*
X55971532Y-72395471D01*
X55995510Y-72390793D01*
X56061663Y-72386809D01*
X56161313Y-72383821D01*
X56285785Y-72382131D01*
X56362906Y-72381864D01*
X56518967Y-72380930D01*
X56630791Y-72377749D01*
X56704964Y-72371751D01*
X56748072Y-72362367D01*
X56766701Y-72349028D01*
X56767713Y-72346857D01*
X56775241Y-72273597D01*
X56758417Y-72174071D01*
X56721221Y-72064239D01*
X56673675Y-71969865D01*
X56574656Y-71844989D01*
X56452912Y-71764283D01*
X56304092Y-71725353D01*
X56220774Y-71720803D01*
X56052652Y-71743410D01*
X55909034Y-71808034D01*
X55794566Y-71909876D01*
X55713897Y-72044139D01*
X55671674Y-72206024D01*
X55666427Y-72293071D01*
X55526587Y-72293071D01*
X55526587Y-71442422D01*
X55972974Y-71442422D01*
X56015100Y-71530761D01*
X56046455Y-71587397D01*
X56071633Y-71617573D01*
X56075799Y-71619101D01*
X56105864Y-71609415D01*
X56170779Y-71583476D01*
X56259054Y-71545963D01*
X56306276Y-71525252D01*
X56400635Y-71483151D01*
X56475823Y-71449021D01*
X56520829Y-71427887D01*
X56528513Y-71423809D01*
X56528359Y-71402985D01*
X56899560Y-71402985D01*
X56899560Y-72801383D01*
X57046064Y-72809018D01*
X57135987Y-72810086D01*
X57186344Y-72800184D01*
X57207062Y-72778880D01*
X57223105Y-72757701D01*
X57254399Y-72763565D01*
X57302100Y-72790220D01*
X57404341Y-72827917D01*
X57529676Y-72838245D01*
X57658041Y-72820724D01*
X57719999Y-72800170D01*
X57857987Y-72717994D01*
X57956940Y-72603409D01*
X58016460Y-72457067D01*
X58036148Y-72282723D01*
X58031731Y-72182137D01*
X58020008Y-72090999D01*
X58006652Y-72038621D01*
X57941567Y-71929794D01*
X57840952Y-71830686D01*
X57745968Y-71769325D01*
X57676860Y-71746228D01*
X58158118Y-71746228D01*
X58158118Y-72263212D01*
X58158916Y-72420454D01*
X58161144Y-72560110D01*
X58164550Y-72674299D01*
X58168885Y-72755139D01*
X58173898Y-72794747D01*
X58175069Y-72797146D01*
X58207860Y-72806298D01*
X58275171Y-72812453D01*
X58340334Y-72814096D01*
X58488649Y-72814096D01*
X58488649Y-72494607D01*
X58490640Y-72368231D01*
X58491785Y-72344808D01*
X58772291Y-72344808D01*
X58807240Y-72486278D01*
X58876004Y-72613506D01*
X58975256Y-72719020D01*
X59101669Y-72795352D01*
X59251916Y-72835030D01*
X59317537Y-72838963D01*
X59413722Y-72833366D01*
X59504522Y-72818601D01*
X59533654Y-72810585D01*
X59681971Y-72737051D01*
X59793162Y-72629600D01*
X59865349Y-72490964D01*
X59896657Y-72323877D01*
X59897879Y-72280162D01*
X59876636Y-72104110D01*
X59815027Y-71957473D01*
X59716228Y-71843406D01*
X59583416Y-71765061D01*
X59505329Y-71746228D01*
X60039600Y-71746228D01*
X60039695Y-72159391D01*
X60041390Y-72338297D01*
X60047952Y-72474470D01*
X60061737Y-72575967D01*
X60085100Y-72650846D01*
X60120395Y-72707163D01*
X60169980Y-72752974D01*
X60223702Y-72788808D01*
X60321911Y-72827364D01*
X60435264Y-72840449D01*
X60544237Y-72828068D01*
X60570191Y-72816523D01*
X61692252Y-72816523D01*
X62010070Y-72801383D01*
X62010070Y-71402985D01*
X61851161Y-71395415D01*
X61743186Y-71390272D01*
X62200761Y-71390272D01*
X62200761Y-72814096D01*
X62505866Y-72814096D01*
X62505866Y-72265383D01*
X62640436Y-72265383D01*
X62654810Y-72413609D01*
X62704912Y-72554006D01*
X62790779Y-72677737D01*
X62912445Y-72775967D01*
X62935564Y-72788900D01*
X63045431Y-72826361D01*
X63171896Y-72838606D01*
X63294328Y-72825575D01*
X63387310Y-72790220D01*
X63442359Y-72760713D01*
X63470389Y-72760092D01*
X63481858Y-72777602D01*
X63509215Y-72800243D01*
X63574108Y-72811776D01*
X63649212Y-72814096D01*
X63802563Y-72814096D01*
X63802563Y-71746228D01*
X63980541Y-71746228D01*
X63980541Y-72816523D01*
X64298359Y-72801383D01*
X64305514Y-72471972D01*
X64310387Y-72319689D01*
X64313663Y-72280162D01*
X64590751Y-72280162D01*
X64610683Y-72458611D01*
X64668579Y-72605786D01*
X64761593Y-72718835D01*
X64886875Y-72794908D01*
X65041578Y-72831155D01*
X65142933Y-72832845D01*
X65244127Y-72822739D01*
X65312183Y-72801868D01*
X65364526Y-72764840D01*
X65365405Y-72764017D01*
X65429790Y-72703530D01*
X65429790Y-72758813D01*
X65434336Y-72789563D01*
X65455841Y-72806174D01*
X65506104Y-72812921D01*
X65582343Y-72814096D01*
X65734895Y-72814096D01*
X65734895Y-72509864D01*
X65848770Y-72509864D01*
X65849200Y-72547102D01*
X65869975Y-72608326D01*
X65880525Y-72630634D01*
X65954065Y-72722843D01*
X66061473Y-72790816D01*
X66190111Y-72830883D01*
X66327340Y-72839377D01*
X66460524Y-72812628D01*
X66480593Y-72804841D01*
X66583964Y-72739702D01*
X66659820Y-72648281D01*
X66698268Y-72543888D01*
X66701061Y-72508237D01*
X66693033Y-72414759D01*
X66664547Y-72340224D01*
X66609004Y-72278375D01*
X66519800Y-72222954D01*
X66390337Y-72167707D01*
X66311902Y-72139393D01*
X66238060Y-72109638D01*
X66203274Y-72081781D01*
X66196930Y-72046821D01*
X66197487Y-72042331D01*
X66224564Y-71995947D01*
X66275100Y-71979524D01*
X66328700Y-71997284D01*
X66344087Y-72011968D01*
X66386067Y-72033952D01*
X66456783Y-72047606D01*
X66537881Y-72052180D01*
X66611007Y-72046921D01*
X66657809Y-72031080D01*
X66663462Y-72025035D01*
X66664639Y-71980322D01*
X66636743Y-71916747D01*
X66589129Y-71848756D01*
X66531150Y-71790793D01*
X66496771Y-71767627D01*
X66378011Y-71727328D01*
X66247330Y-71720559D01*
X66118447Y-71744386D01*
X66005082Y-71795871D01*
X65920952Y-71872081D01*
X65906517Y-71893928D01*
X65862328Y-72009146D01*
X65867605Y-72116208D01*
X65921359Y-72213305D01*
X66022602Y-72298628D01*
X66165844Y-72368661D01*
X66283170Y-72417797D01*
X66355031Y-72459528D01*
X66385601Y-72497493D01*
X66379051Y-72535330D01*
X66370531Y-72547129D01*
X66314147Y-72580591D01*
X66246758Y-72578294D01*
X66191833Y-72541861D01*
X66186652Y-72534416D01*
X66157414Y-72504059D01*
X66108936Y-72488525D01*
X66026709Y-72483638D01*
X66009959Y-72483566D01*
X65928305Y-72487846D01*
X65868833Y-72498897D01*
X65848770Y-72509864D01*
X65734895Y-72509864D01*
X65734895Y-71546748D01*
X73183011Y-71546748D01*
X73190134Y-71855681D01*
X73197257Y-72164613D01*
X73469763Y-72216031D01*
X73582998Y-72239218D01*
X73678016Y-72262075D01*
X73743395Y-72281646D01*
X73766613Y-72292875D01*
X73788107Y-72329314D01*
X73820453Y-72399456D01*
X73857943Y-72488924D01*
X73894870Y-72583344D01*
X73925527Y-72668338D01*
X73944206Y-72729531D01*
X73947308Y-72748034D01*
X73933704Y-72782001D01*
X73896855Y-72847547D01*
X73842705Y-72934614D01*
X73789588Y-73014970D01*
X73631869Y-73247592D01*
X73846234Y-73463076D01*
X73929559Y-73546497D01*
X73998511Y-73614886D01*
X74045984Y-73661241D01*
X74064871Y-73678558D01*
X74064897Y-73678561D01*
X74086260Y-73665138D01*
X74141028Y-73628687D01*
X74220666Y-73574933D01*
X74307180Y-73516060D01*
X74545165Y-73353560D01*
X74787487Y-73476712D01*
X74833548Y-73367876D01*
X74859109Y-73306978D01*
X74899573Y-73209981D01*
X74950408Y-73087778D01*
X75007080Y-72951260D01*
X75040774Y-72869967D01*
X75201939Y-72480894D01*
X75069536Y-72365071D01*
X74943320Y-72232593D01*
X74862539Y-72092371D01*
X74821814Y-71934669D01*
X74819115Y-71911726D01*
X74824863Y-71738476D01*
X74874951Y-71579457D01*
X74963463Y-71441133D01*
X75084483Y-71329972D01*
X75232097Y-71252438D01*
X75400388Y-71214998D01*
X75458756Y-71212543D01*
X75641691Y-71235825D01*
X75801436Y-71303848D01*
X75935294Y-71414813D01*
X76040567Y-71566924D01*
X76064378Y-71616247D01*
X76097865Y-71740680D01*
X76103859Y-71886094D01*
X76083063Y-72031151D01*
X76047380Y-72133075D01*
X75991249Y-72220544D01*
X75907463Y-72317621D01*
X75811593Y-72407130D01*
X75769083Y-72440058D01*
X75753673Y-72454226D01*
X75746280Y-72474212D01*
X75748817Y-72506722D01*
X75763198Y-72558462D01*
X75791336Y-72636137D01*
X75835146Y-72746453D01*
X75896541Y-72896117D01*
X75905282Y-72917284D01*
X75964459Y-73060731D01*
X76018123Y-73191184D01*
X76062768Y-73300090D01*
X76094888Y-73378897D01*
X76110794Y-73418576D01*
X76133112Y-73476410D01*
X76255264Y-73414511D01*
X76377417Y-73352611D01*
X76617022Y-73515999D01*
X76856627Y-73679386D01*
X77067333Y-73469775D01*
X77150099Y-73385703D01*
X77217584Y-73313852D01*
X77262608Y-73262093D01*
X77278038Y-73238704D01*
X77264299Y-73210137D01*
X77227180Y-73149849D01*
X77172831Y-73067521D01*
X77125486Y-72998600D01*
X77062262Y-72905524D01*
X77011795Y-72826543D01*
X76980279Y-72771638D01*
X76972796Y-72752532D01*
X76981915Y-72716170D01*
X77005814Y-72646886D01*
X77039076Y-72558429D01*
X77076285Y-72464543D01*
X77112024Y-72378978D01*
X77140877Y-72315478D01*
X77154874Y-72290425D01*
X77187509Y-72274695D01*
X77258804Y-72254316D01*
X77357147Y-72232297D01*
X77436818Y-72217354D01*
X77548716Y-72196128D01*
X77643227Y-72174807D01*
X77708147Y-72156337D01*
X77729340Y-72146770D01*
X77745606Y-72110994D01*
X77755948Y-72032407D01*
X77760706Y-71907768D01*
X77761121Y-71844019D01*
X77761863Y-71728873D01*
X77759155Y-71647703D01*
X77745596Y-71592922D01*
X77713784Y-71556943D01*
X77656319Y-71532179D01*
X77565801Y-71511043D01*
X77434827Y-71485949D01*
X77406445Y-71480438D01*
X77140757Y-71428410D01*
X77043029Y-71201770D01*
X76945302Y-70975130D01*
X77111670Y-70725255D01*
X77176729Y-70626039D01*
X77229865Y-70542147D01*
X77265492Y-70482597D01*
X77278038Y-70456630D01*
X77261120Y-70432230D01*
X77215138Y-70379989D01*
X77147257Y-70307755D01*
X77070421Y-70229180D01*
X76862804Y-70020479D01*
X76599869Y-70199457D01*
X76336933Y-70378434D01*
X76114643Y-70289630D01*
X75892353Y-70200825D01*
X75828789Y-69886590D01*
X75807946Y-69783548D01*
X86558319Y-69783548D01*
X86558319Y-70195806D01*
X87683394Y-70189185D01*
X88808469Y-70182565D01*
X88815888Y-69985862D01*
X88823308Y-69789159D01*
X87983150Y-69782458D01*
X87142993Y-69775758D01*
X87782052Y-69115314D01*
X87997022Y-68891564D01*
X88178274Y-68698700D01*
X88328817Y-68532434D01*
X88451655Y-68388477D01*
X88549798Y-68262542D01*
X88626250Y-68150341D01*
X88684020Y-68047585D01*
X88726113Y-67949988D01*
X88755537Y-67853261D01*
X88775298Y-67753116D01*
X88784150Y-67686249D01*
X88784816Y-67464951D01*
X88736493Y-67255382D01*
X88640393Y-67061161D01*
X88526032Y-66915081D01*
X88363616Y-66778335D01*
X88166019Y-66676485D01*
X87935963Y-66610523D01*
X87676167Y-66581439D01*
X87607428Y-66580049D01*
X87445475Y-66584339D01*
X87294236Y-66600146D01*
X87138089Y-66630233D01*
X86961415Y-66677365D01*
X86831642Y-66717341D01*
X86583744Y-66796517D01*
X86583744Y-67036655D01*
X86585404Y-67153001D01*
X86590988Y-67225036D01*
X86601402Y-67259210D01*
X86615526Y-67262981D01*
X86652190Y-67246920D01*
X86722545Y-67216006D01*
X86813744Y-67175885D01*
X86850711Y-67159611D01*
X87113335Y-67060212D01*
X87357555Y-67000434D01*
X87580870Y-66979966D01*
X87780780Y-66998491D01*
X87954785Y-67055695D01*
X88100385Y-67151264D01*
X88215080Y-67284884D01*
X88244468Y-67334917D01*
X88277648Y-67414767D01*
X88293746Y-67506609D01*
X88296741Y-67614597D01*
X88292704Y-67700039D01*
X88280781Y-67781349D01*
X88258279Y-67862270D01*
X88222501Y-67946545D01*
X88170752Y-68037919D01*
X88100338Y-68140133D01*
X88008562Y-68256933D01*
X87892729Y-68392060D01*
X87750146Y-68549260D01*
X87578115Y-68732274D01*
X87373942Y-68944847D01*
X87238449Y-69084478D01*
X86558319Y-69783548D01*
X75807946Y-69783548D01*
X75765225Y-69572354D01*
X75155893Y-69572354D01*
X75097467Y-69876968D01*
X75073521Y-69995607D01*
X75051153Y-70095310D01*
X75032822Y-70165815D01*
X75020988Y-70196860D01*
X75020752Y-70197081D01*
X74990250Y-70213073D01*
X74924457Y-70242509D01*
X74835360Y-70280103D01*
X74795329Y-70296466D01*
X74588194Y-70380352D01*
X74325262Y-70199051D01*
X74062330Y-70017751D01*
X73852266Y-70226723D01*
X73769636Y-70310661D01*
X73702297Y-70382369D01*
X73657442Y-70433962D01*
X73642202Y-70457109D01*
X73655960Y-70485371D01*
X73693304Y-70545850D01*
X73748341Y-70629330D01*
X73807468Y-70715561D01*
X73873348Y-70812045D01*
X73926759Y-70894061D01*
X73961793Y-70952282D01*
X73972733Y-70976502D01*
X73963067Y-71008819D01*
X73937948Y-71073730D01*
X73903194Y-71157643D01*
X73864623Y-71246964D01*
X73828055Y-71328100D01*
X73799308Y-71387458D01*
X73788929Y-71405912D01*
X73755887Y-71425071D01*
X73688057Y-71446787D01*
X73611040Y-71464145D01*
X73498079Y-71485516D01*
X73380316Y-71508116D01*
X73317261Y-71520388D01*
X73183011Y-71546748D01*
X65734895Y-71546748D01*
X65734895Y-71387846D01*
X65575986Y-71395415D01*
X65417077Y-71402985D01*
X65409651Y-71600032D01*
X65404021Y-71692705D01*
X65395751Y-71761708D01*
X65386417Y-71794892D01*
X65384226Y-71796178D01*
X65351059Y-71784049D01*
X65302663Y-71758941D01*
X65215094Y-71730502D01*
X65102067Y-71722448D01*
X64984486Y-71734279D01*
X64883258Y-71765493D01*
X64875774Y-71769179D01*
X64744705Y-71860682D01*
X64654349Y-71980827D01*
X64603595Y-72131603D01*
X64590751Y-72280162D01*
X64313663Y-72280162D01*
X64319454Y-72210316D01*
X64335881Y-72135926D01*
X64362835Y-72088588D01*
X64403481Y-72060373D01*
X64460985Y-72043353D01*
X64477999Y-72039986D01*
X64565326Y-72023604D01*
X64565326Y-71872203D01*
X64564219Y-71788154D01*
X64557043Y-71742927D01*
X64538008Y-71724493D01*
X64501327Y-71720824D01*
X64492478Y-71720803D01*
X64420249Y-71736700D01*
X64352638Y-71773499D01*
X64307107Y-71805423D01*
X64288344Y-71804428D01*
X64285646Y-71786212D01*
X64275381Y-71763240D01*
X64237779Y-71750868D01*
X64162630Y-71746419D01*
X64133093Y-71746228D01*
X63980541Y-71746228D01*
X63802563Y-71746228D01*
X63649212Y-71746228D01*
X63552370Y-71750671D01*
X63498385Y-71765061D01*
X63481858Y-71782722D01*
X63465247Y-71802666D01*
X63431805Y-71795083D01*
X63387310Y-71770104D01*
X63283608Y-71731711D01*
X63157414Y-71721097D01*
X63028806Y-71738225D01*
X62939545Y-71770916D01*
X62811346Y-71862094D01*
X62718739Y-71980789D01*
X62661757Y-72118164D01*
X62640436Y-72265383D01*
X62505866Y-72265383D01*
X62505866Y-71390272D01*
X62200761Y-71390272D01*
X61743186Y-71390272D01*
X61692252Y-71387846D01*
X61692252Y-72816523D01*
X60570191Y-72816523D01*
X60629307Y-72790228D01*
X60631322Y-72788671D01*
X60688244Y-72748210D01*
X60717018Y-72742205D01*
X60725945Y-72769651D01*
X60726086Y-72777227D01*
X60735600Y-72799569D01*
X60771230Y-72809832D01*
X60843607Y-72810326D01*
X60872283Y-72809009D01*
X61018479Y-72801383D01*
X61018479Y-72547598D01*
X61187847Y-72547598D01*
X61188975Y-72661285D01*
X61191299Y-72741691D01*
X61194731Y-72780413D01*
X61195090Y-72781565D01*
X61229920Y-72802837D01*
X61312911Y-72813124D01*
X61360924Y-72814096D01*
X61514275Y-72814096D01*
X61514275Y-71743802D01*
X61355366Y-71751371D01*
X61196457Y-71758941D01*
X61189532Y-72253987D01*
X61188003Y-72409031D01*
X61187847Y-72547598D01*
X61018479Y-72547598D01*
X61018479Y-71758941D01*
X60859570Y-71751371D01*
X60700661Y-71743802D01*
X60700286Y-72069189D01*
X60698360Y-72231844D01*
X60691238Y-72350494D01*
X60676257Y-72431921D01*
X60650757Y-72482907D01*
X60612074Y-72510235D01*
X60557548Y-72520686D01*
X60522683Y-72521704D01*
X60458948Y-72517239D01*
X60412462Y-72499318D01*
X60380552Y-72461153D01*
X60360546Y-72395953D01*
X60349773Y-72296930D01*
X60345560Y-72157294D01*
X60345080Y-72070402D01*
X60344705Y-71746228D01*
X60039600Y-71746228D01*
X59505329Y-71746228D01*
X59419770Y-71725593D01*
X59334861Y-71721361D01*
X59162279Y-71743459D01*
X59016826Y-71807968D01*
X58903609Y-71909640D01*
X58817148Y-72049019D01*
X58774485Y-72196564D01*
X58772291Y-72344808D01*
X58491785Y-72344808D01*
X58496069Y-72257228D01*
X58504119Y-72173229D01*
X58513971Y-72127866D01*
X58514489Y-72126834D01*
X58554355Y-72089048D01*
X58621381Y-72055046D01*
X58641616Y-72048205D01*
X58742903Y-72017859D01*
X58742903Y-71869331D01*
X58741244Y-71785969D01*
X58733187Y-71741442D01*
X58714113Y-71723765D01*
X58685696Y-71720898D01*
X58625937Y-71734026D01*
X58554923Y-71766042D01*
X58545856Y-71771375D01*
X58491513Y-71800996D01*
X58467547Y-71801890D01*
X58463223Y-71783993D01*
X58451171Y-71762009D01*
X58408735Y-71750216D01*
X58326499Y-71746284D01*
X58310671Y-71746228D01*
X58158118Y-71746228D01*
X57676860Y-71746228D01*
X57647172Y-71736306D01*
X57530157Y-71722684D01*
X57415836Y-71728966D01*
X57325124Y-71755661D01*
X57319079Y-71758941D01*
X57266742Y-71785693D01*
X57236447Y-71796178D01*
X57227619Y-71773196D01*
X57220959Y-71711300D01*
X57217583Y-71622413D01*
X57217378Y-71592462D01*
X57217378Y-71568215D01*
X61185379Y-71568215D01*
X61202033Y-71615230D01*
X61247804Y-71637724D01*
X61332224Y-71644341D01*
X61360924Y-71644526D01*
X61514275Y-71644526D01*
X61514275Y-71387846D01*
X61355366Y-71395415D01*
X61196457Y-71402985D01*
X61188309Y-71488038D01*
X61185379Y-71568215D01*
X57217378Y-71568215D01*
X57217378Y-71387846D01*
X57058469Y-71395415D01*
X56899560Y-71402985D01*
X56528359Y-71402985D01*
X56528310Y-71396368D01*
X56507752Y-71344527D01*
X56476029Y-71285276D01*
X56442333Y-71235602D01*
X56415855Y-71212491D01*
X56414069Y-71212294D01*
X56371553Y-71224022D01*
X56309161Y-71252898D01*
X56297159Y-71259451D01*
X56223898Y-71300651D01*
X56134256Y-71351211D01*
X56093023Y-71374515D01*
X55972974Y-71442422D01*
X55526587Y-71442422D01*
X55526587Y-71402985D01*
X55367678Y-71395415D01*
X55208769Y-71387846D01*
X55208769Y-71821757D01*
X55126136Y-71771375D01*
X55030064Y-71735377D01*
X54909150Y-71721206D01*
X54784858Y-71729670D01*
X54693087Y-71755054D01*
X54572126Y-71831495D01*
X54478887Y-71941822D01*
X54415524Y-72075967D01*
X54384191Y-72223860D01*
X36215976Y-72223860D01*
X36215976Y-67099812D01*
X43262906Y-67099812D01*
X43266659Y-67176392D01*
X43274498Y-67219052D01*
X43276748Y-67222576D01*
X43305750Y-67223311D01*
X43374205Y-67215417D01*
X43471805Y-67200743D01*
X43588243Y-67181141D01*
X43713213Y-67158461D01*
X43836407Y-67134553D01*
X43947519Y-67111268D01*
X44036241Y-67090456D01*
X44078789Y-67078577D01*
X44088526Y-67077773D01*
X44096732Y-67084649D01*
X44103539Y-67103149D01*
X44109076Y-67137217D01*
X44113473Y-67190794D01*
X44116862Y-67267826D01*
X44119371Y-67372254D01*
X44121130Y-67508023D01*
X44122272Y-67679074D01*
X44122924Y-67889352D01*
X44123218Y-68142799D01*
X44123284Y-68426497D01*
X44123284Y-69788470D01*
X43335095Y-69788470D01*
X43335095Y-70195854D01*
X44358469Y-70189209D01*
X45381842Y-70182565D01*
X45389268Y-69985517D01*
X45396694Y-69788470D01*
X44606367Y-69788470D01*
X44606367Y-69635918D01*
X54344305Y-69635918D01*
X54344305Y-71087594D01*
X54503213Y-71080024D01*
X54662122Y-71072454D01*
X54667314Y-70520217D01*
X54794397Y-70520217D01*
X54805374Y-70659809D01*
X54850107Y-70793198D01*
X54930189Y-70912991D01*
X55047212Y-71011795D01*
X55114939Y-71048652D01*
X55273901Y-71100963D01*
X55426474Y-71104403D01*
X55580550Y-71058906D01*
X55611106Y-71044494D01*
X55682539Y-70999333D01*
X55754258Y-70938607D01*
X55817385Y-70872300D01*
X55863039Y-70810399D01*
X55882341Y-70762888D01*
X55879997Y-70754637D01*
X55990601Y-70754637D01*
X56006794Y-70835601D01*
X56051875Y-70940213D01*
X56135408Y-71022519D01*
X56248568Y-71078942D01*
X56382530Y-71105906D01*
X56528471Y-71099835D01*
X56611795Y-71080777D01*
X56693690Y-71041324D01*
X56771559Y-70981031D01*
X56786366Y-70965478D01*
X56835928Y-70897308D01*
X56857627Y-70826775D01*
X56861422Y-70755703D01*
X56845853Y-70641433D01*
X56795642Y-70552150D01*
X56705528Y-70481847D01*
X56572028Y-70425104D01*
X56453607Y-70382123D01*
X56379156Y-70345208D01*
X56342817Y-70310277D01*
X56338732Y-70273249D01*
X56341537Y-70264526D01*
X56376450Y-70231111D01*
X56430455Y-70221767D01*
X56479431Y-70237381D01*
X56496271Y-70258841D01*
X56519778Y-70281142D01*
X56574899Y-70293201D01*
X56670855Y-70296973D01*
X56676208Y-70296979D01*
X56841509Y-70296979D01*
X56824318Y-70227059D01*
X56772562Y-70109500D01*
X56683924Y-70026753D01*
X56592346Y-69991874D01*
X57446206Y-69991874D01*
X57446206Y-71441123D01*
X57776737Y-71441123D01*
X57776737Y-71225007D01*
X57777534Y-71127337D01*
X57779661Y-71052641D01*
X57782721Y-71012596D01*
X57784074Y-71008891D01*
X57809008Y-71019338D01*
X57863268Y-71045672D01*
X57891151Y-71059742D01*
X58032696Y-71105537D01*
X58177181Y-71105604D01*
X58315697Y-71063669D01*
X58439332Y-70983453D01*
X58539176Y-70868680D01*
X58591136Y-70767237D01*
X58615860Y-70658225D01*
X58620804Y-70525022D01*
X58614951Y-70468513D01*
X58710492Y-70468513D01*
X58712126Y-70621124D01*
X58752800Y-70762086D01*
X58826790Y-70885962D01*
X58928368Y-70987312D01*
X59051811Y-71060699D01*
X59191390Y-71100684D01*
X59341382Y-71101830D01*
X59496060Y-71058697D01*
X59527050Y-71044281D01*
X59616382Y-70987450D01*
X59696541Y-70915020D01*
X59756314Y-70839268D01*
X59784489Y-70772474D01*
X59785346Y-70761447D01*
X59763086Y-70738746D01*
X59705966Y-70727569D01*
X59628475Y-70727172D01*
X59545102Y-70736812D01*
X59470335Y-70755746D01*
X59422452Y-70780062D01*
X59347478Y-70817382D01*
X59269899Y-70830913D01*
X59186999Y-70815081D01*
X59112414Y-70774697D01*
X59061474Y-70720429D01*
X59048008Y-70676515D01*
X59050833Y-70657926D01*
X59064252Y-70644739D01*
X59095678Y-70636030D01*
X59152528Y-70630878D01*
X59242215Y-70628362D01*
X59372155Y-70627558D01*
X59442102Y-70627509D01*
X59836196Y-70627509D01*
X59835638Y-70506739D01*
X59813569Y-70349855D01*
X59753814Y-70217951D01*
X59669370Y-70119001D01*
X59887047Y-70119001D01*
X59888714Y-70194257D01*
X59898960Y-70231785D01*
X59925656Y-70244701D01*
X59963324Y-70246128D01*
X60039600Y-70246128D01*
X60039600Y-70648697D01*
X60040687Y-70787020D01*
X60043689Y-70907161D01*
X60048215Y-71000046D01*
X60053877Y-71056602D01*
X60057659Y-71069326D01*
X60091206Y-71078048D01*
X60158476Y-71081389D01*
X60216568Y-71079920D01*
X60357418Y-71072454D01*
X60371390Y-70246128D01*
X60447036Y-70246128D01*
X60491820Y-70243299D01*
X60514152Y-70226070D01*
X60521836Y-70181324D01*
X60522683Y-70119001D01*
X60521016Y-70043745D01*
X60510770Y-70006217D01*
X60484074Y-69993301D01*
X60446407Y-69991874D01*
X60598959Y-69991874D01*
X60598959Y-70521570D01*
X60599738Y-70680793D01*
X60601915Y-70822494D01*
X60605249Y-70938896D01*
X60609497Y-71022218D01*
X60614420Y-71064684D01*
X60615909Y-71068217D01*
X60648701Y-71077369D01*
X60716012Y-71083524D01*
X60781175Y-71085167D01*
X60929490Y-71085167D01*
X60929490Y-70119001D01*
X61031191Y-70119001D01*
X61032858Y-70194257D01*
X61043104Y-70231785D01*
X61069801Y-70244701D01*
X61107468Y-70246128D01*
X61183744Y-70246128D01*
X61183744Y-70648697D01*
X61184831Y-70787020D01*
X61187833Y-70907161D01*
X61192359Y-71000046D01*
X61198021Y-71056602D01*
X61201804Y-71069326D01*
X61235351Y-71078048D01*
X61302620Y-71081389D01*
X61360712Y-71079920D01*
X61501562Y-71072454D01*
X61506935Y-70754637D01*
X61685896Y-70754637D01*
X61702089Y-70835601D01*
X61727694Y-70909943D01*
X61762474Y-70966319D01*
X61855732Y-71037554D01*
X61979364Y-71085687D01*
X62116982Y-71107586D01*
X62252196Y-71100121D01*
X62336248Y-71075912D01*
X62401713Y-71034316D01*
X63470556Y-71034316D01*
X65048409Y-71034316D01*
X65048409Y-70347830D01*
X65785746Y-70347830D01*
X65785746Y-71059742D01*
X66421382Y-71059742D01*
X66421382Y-70347830D01*
X67158719Y-70347830D01*
X67158719Y-69688165D01*
X66796407Y-69681110D01*
X66434094Y-69674056D01*
X66427020Y-69324456D01*
X66419947Y-68974857D01*
X65785746Y-68974857D01*
X65785746Y-69686769D01*
X65049885Y-69686769D01*
X65042790Y-69349882D01*
X65035696Y-69012995D01*
X63484745Y-69012995D01*
X63484745Y-69674056D01*
X64272933Y-69686769D01*
X65061121Y-69699481D01*
X65061121Y-70335117D01*
X63484745Y-70360543D01*
X63477651Y-70697429D01*
X63470556Y-71034316D01*
X62401713Y-71034316D01*
X62449146Y-71004178D01*
X62524046Y-70902675D01*
X62555933Y-70778714D01*
X62556717Y-70754637D01*
X62540974Y-70640671D01*
X62490296Y-70551474D01*
X62399507Y-70481153D01*
X62267324Y-70425104D01*
X62146244Y-70381350D01*
X62070320Y-70344444D01*
X62034909Y-70310956D01*
X62035365Y-70277455D01*
X62045925Y-70261592D01*
X62096095Y-70227558D01*
X62150700Y-70224616D01*
X62189003Y-70253158D01*
X62191566Y-70258841D01*
X62215073Y-70281142D01*
X62270194Y-70293201D01*
X62366150Y-70296973D01*
X62371503Y-70296979D01*
X62536804Y-70296979D01*
X62519613Y-70227059D01*
X62467857Y-70109500D01*
X62379220Y-70026753D01*
X62254173Y-69979127D01*
X62120642Y-69966488D01*
X61965644Y-69986814D01*
X61840440Y-70047065D01*
X61749966Y-70141830D01*
X61697702Y-70252306D01*
X61694737Y-70354034D01*
X61741333Y-70447482D01*
X61837751Y-70533116D01*
X61984251Y-70611402D01*
X62020644Y-70626647D01*
X62136247Y-70677225D01*
X62206793Y-70719271D01*
X62236453Y-70756976D01*
X62229401Y-70794535D01*
X62210577Y-70817464D01*
X62147340Y-70852681D01*
X62083510Y-70844165D01*
X62042308Y-70805487D01*
X62015626Y-70776775D01*
X61972033Y-70761198D01*
X61897880Y-70755180D01*
X61848224Y-70754637D01*
X61685896Y-70754637D01*
X61506935Y-70754637D01*
X61515534Y-70246128D01*
X61591181Y-70246128D01*
X61635964Y-70243299D01*
X61658296Y-70226070D01*
X61665981Y-70181324D01*
X61666827Y-70119001D01*
X61665161Y-70043745D01*
X61654914Y-70006217D01*
X61628218Y-69993301D01*
X61590551Y-69991874D01*
X61514275Y-69991874D01*
X61514275Y-69635918D01*
X61183744Y-69635918D01*
X61183744Y-69991874D01*
X61107468Y-69991874D01*
X61062314Y-69994651D01*
X61039798Y-70011728D01*
X61032048Y-70056222D01*
X61031191Y-70119001D01*
X60929490Y-70119001D01*
X60929490Y-69991874D01*
X60598959Y-69991874D01*
X60446407Y-69991874D01*
X60370130Y-69991874D01*
X60370130Y-69813861D01*
X60600594Y-69813861D01*
X60617248Y-69860876D01*
X60663019Y-69883370D01*
X60747439Y-69889986D01*
X60776139Y-69890172D01*
X60929490Y-69890172D01*
X60929490Y-69633491D01*
X60611672Y-69648631D01*
X60603524Y-69733684D01*
X60600594Y-69813861D01*
X60370130Y-69813861D01*
X60370130Y-69635918D01*
X60039600Y-69635918D01*
X60039600Y-69991874D01*
X59963324Y-69991874D01*
X59918170Y-69994651D01*
X59895653Y-70011728D01*
X59887904Y-70056222D01*
X59887047Y-70119001D01*
X59669370Y-70119001D01*
X59663705Y-70112363D01*
X59550573Y-70034425D01*
X59421753Y-69985475D01*
X59284575Y-69966845D01*
X59146373Y-69979873D01*
X59014479Y-70025893D01*
X58896225Y-70106241D01*
X58798943Y-70222252D01*
X58753624Y-70309692D01*
X58710492Y-70468513D01*
X58614951Y-70468513D01*
X58606810Y-70389917D01*
X58574721Y-70275201D01*
X58572344Y-70269692D01*
X58503901Y-70157383D01*
X58411147Y-70062416D01*
X58307868Y-69997149D01*
X58246222Y-69977318D01*
X58115402Y-69967152D01*
X57984218Y-69981261D01*
X57872146Y-70016687D01*
X57830836Y-70040412D01*
X57779249Y-70075729D01*
X57756840Y-70082070D01*
X57751438Y-70060055D01*
X57751312Y-70044456D01*
X57746180Y-70015143D01*
X57722978Y-69999305D01*
X57669999Y-69992907D01*
X57598759Y-69991874D01*
X57446206Y-69991874D01*
X56592346Y-69991874D01*
X56558877Y-69979127D01*
X56425347Y-69966488D01*
X56270349Y-69986814D01*
X56145145Y-70047065D01*
X56054671Y-70141830D01*
X56002406Y-70252306D01*
X55999442Y-70354034D01*
X56046038Y-70447482D01*
X56142455Y-70533116D01*
X56288955Y-70611402D01*
X56325348Y-70626647D01*
X56440952Y-70677225D01*
X56511497Y-70719271D01*
X56541157Y-70756976D01*
X56534106Y-70794535D01*
X56515282Y-70817464D01*
X56452045Y-70852681D01*
X56388215Y-70844165D01*
X56347013Y-70805487D01*
X56320330Y-70776775D01*
X56276738Y-70761198D01*
X56202585Y-70755180D01*
X56152928Y-70754637D01*
X55990601Y-70754637D01*
X55879997Y-70754637D01*
X55877302Y-70745158D01*
X55844956Y-70736479D01*
X55778414Y-70730929D01*
X55719396Y-70729777D01*
X55609438Y-70738674D01*
X55533216Y-70766712D01*
X55513874Y-70780062D01*
X55417360Y-70826086D01*
X55313017Y-70826865D01*
X55213988Y-70783479D01*
X55177178Y-70752383D01*
X55130400Y-70700419D01*
X55119038Y-70669392D01*
X55134639Y-70651070D01*
X55171843Y-70642973D01*
X55249861Y-70636089D01*
X55358662Y-70630984D01*
X55488215Y-70628223D01*
X55545656Y-70627899D01*
X55920681Y-70627509D01*
X55920123Y-70506739D01*
X55896244Y-70345225D01*
X55829924Y-70205662D01*
X55726764Y-70093342D01*
X55592366Y-70013556D01*
X55432333Y-69971598D01*
X55348163Y-69966448D01*
X55190070Y-69987992D01*
X55056172Y-70047694D01*
X54948062Y-70138161D01*
X54867334Y-70252000D01*
X54815581Y-70381816D01*
X54794397Y-70520217D01*
X54667314Y-70520217D01*
X54668875Y-70354186D01*
X54675627Y-69635918D01*
X54344305Y-69635918D01*
X44606367Y-69635918D01*
X44606367Y-69025708D01*
X62556717Y-69025708D01*
X62556717Y-69661343D01*
X63217778Y-69661343D01*
X63217778Y-69025708D01*
X62556717Y-69025708D01*
X44606367Y-69025708D01*
X44606367Y-67754436D01*
X61990114Y-67754436D01*
X62709269Y-67754436D01*
X62709309Y-67684516D01*
X62728620Y-67570758D01*
X62780246Y-67478827D01*
X62854936Y-67413777D01*
X62943439Y-67380662D01*
X63036503Y-67384534D01*
X63124878Y-67430448D01*
X63143458Y-67447375D01*
X63198821Y-67519332D01*
X63221898Y-67596401D01*
X63211026Y-67683236D01*
X63164542Y-67784489D01*
X63080781Y-67904816D01*
X62958082Y-68048868D01*
X62909722Y-68101379D01*
X62767579Y-68261321D01*
X62664195Y-68396425D01*
X62596775Y-68511162D01*
X62562523Y-68610003D01*
X62556717Y-68666180D01*
X62556717Y-68746028D01*
X63207563Y-68746028D01*
X63240960Y-68653669D01*
X63276516Y-68592046D01*
X63347170Y-68502601D01*
X63448948Y-68390062D01*
X63546145Y-68290526D01*
X63686464Y-68146080D01*
X63791637Y-68024826D01*
X63866331Y-67918318D01*
X63915210Y-67818110D01*
X63942940Y-67715755D01*
X63954186Y-67602808D01*
X63955115Y-67550102D01*
X63951742Y-67436577D01*
X63938131Y-67350138D01*
X63909047Y-67267268D01*
X63877101Y-67199632D01*
X63780797Y-67054224D01*
X70778134Y-67054224D01*
X70785941Y-67236279D01*
X70808887Y-67396028D01*
X70830140Y-67474757D01*
X70946657Y-67745594D01*
X71098491Y-67984442D01*
X71281803Y-68188615D01*
X71492759Y-68355428D01*
X71727522Y-68482194D01*
X71982255Y-68566228D01*
X72253122Y-68604844D01*
X72443043Y-68603888D01*
X72571100Y-68590301D01*
X72706399Y-68567342D01*
X72820497Y-68539872D01*
X72824424Y-68538684D01*
X73084903Y-68433515D01*
X73318527Y-68287531D01*
X73521263Y-68105117D01*
X73689080Y-67890652D01*
X73817944Y-67648518D01*
X73903825Y-67383098D01*
X73908856Y-67360342D01*
X73926093Y-67285305D01*
X73939884Y-67250042D01*
X73953626Y-67256964D01*
X73970713Y-67308479D01*
X73994542Y-67406997D01*
X73998432Y-67423906D01*
X74076367Y-67654894D01*
X74198451Y-67875757D01*
X74358088Y-68079624D01*
X74548680Y-68259626D01*
X74763631Y-68408894D01*
X74996343Y-68520558D01*
X75078739Y-68548860D01*
X75259994Y-68587989D01*
X75467480Y-68605631D01*
X75681342Y-68601786D01*
X75881721Y-68576453D01*
X75994054Y-68548860D01*
X76239823Y-68448004D01*
X76471646Y-68304679D01*
X76678429Y-68127064D01*
X76849077Y-67923333D01*
X76855578Y-67913903D01*
X76927657Y-67794985D01*
X76993834Y-67661636D01*
X77048365Y-67527934D01*
X77085509Y-67407955D01*
X77099524Y-67315848D01*
X77105403Y-67259119D01*
X77119776Y-67248546D01*
X77139606Y-67280757D01*
X77161857Y-67352379D01*
X77171745Y-67396056D01*
X77240515Y-67614008D01*
X77354636Y-67831435D01*
X77509262Y-68039705D01*
X77571901Y-68108679D01*
X77774772Y-68296031D01*
X77982993Y-68435883D01*
X78204187Y-68531536D01*
X78445976Y-68586291D01*
X78714575Y-68603450D01*
X78992799Y-68584538D01*
X79242578Y-68526526D01*
X79471348Y-68426346D01*
X79686546Y-68280929D01*
X79848111Y-68135773D01*
X80026150Y-67924250D01*
X80161248Y-67689691D01*
X80252542Y-67437614D01*
X80299167Y-67173536D01*
X80300259Y-66902977D01*
X80254954Y-66631455D01*
X80162388Y-66364489D01*
X80134751Y-66305187D01*
X80011321Y-66104255D01*
X79848226Y-65916472D01*
X79655710Y-65750059D01*
X79444021Y-65613235D01*
X79223402Y-65514222D01*
X79106047Y-65479813D01*
X78952381Y-65454818D01*
X78774270Y-65443379D01*
X78591745Y-65445509D01*
X78424838Y-65461223D01*
X78332179Y-65479243D01*
X78082403Y-65567758D01*
X77845412Y-65700070D01*
X77630887Y-65869222D01*
X77448510Y-66068254D01*
X77381666Y-66162391D01*
X77313460Y-66280011D01*
X77250705Y-66411414D01*
X77199032Y-66542381D01*
X77164069Y-66658699D01*
X77151447Y-66743776D01*
X77145917Y-66800725D01*
X77132445Y-66811514D01*
X77113839Y-66779684D01*
X77092908Y-66708775D01*
X77081694Y-66655833D01*
X77013800Y-66428434D01*
X76901699Y-66209420D01*
X76752011Y-66005520D01*
X76571353Y-65823463D01*
X76366345Y-65669978D01*
X76143603Y-65551795D01*
X75924225Y-65478963D01*
X75765820Y-65453823D01*
X75580380Y-65443306D01*
X75389566Y-65447388D01*
X75215038Y-65466045D01*
X75144924Y-65479813D01*
X74918726Y-65556666D01*
X74701434Y-65674891D01*
X74500097Y-65827429D01*
X74321762Y-66007226D01*
X74173474Y-66207225D01*
X74062280Y-66420369D01*
X73997354Y-66628947D01*
X73974158Y-66736667D01*
X73956846Y-66795830D01*
X73942325Y-66807930D01*
X73927502Y-66774464D01*
X73909286Y-66696925D01*
X73904465Y-66673856D01*
X73824989Y-66413635D01*
X73698781Y-66172622D01*
X73527075Y-65953145D01*
X73515620Y-65940992D01*
X73312924Y-65754652D01*
X73101642Y-65615544D01*
X72873851Y-65520056D01*
X72621627Y-65464573D01*
X72434495Y-65447957D01*
X72206779Y-65447624D01*
X72009756Y-65471070D01*
X71827617Y-65521498D01*
X71644550Y-65602114D01*
X71625602Y-65611950D01*
X71407712Y-65753326D01*
X71209894Y-65934254D01*
X71040491Y-66144864D01*
X70907851Y-66375287D01*
X70843265Y-66537176D01*
X70807025Y-66688377D01*
X70785238Y-66866158D01*
X70778134Y-67054224D01*
X63780797Y-67054224D01*
X63767299Y-67033844D01*
X63623688Y-66901106D01*
X63452517Y-66803141D01*
X63260034Y-66741673D01*
X63052488Y-66718426D01*
X62836126Y-66735126D01*
X62617199Y-66793495D01*
X62531554Y-66828337D01*
X62358630Y-66932988D01*
X62215169Y-67075842D01*
X62105068Y-67251144D01*
X62032226Y-67453140D01*
X62005769Y-67604653D01*
X61990114Y-67754436D01*
X44606367Y-67754436D01*
X44606367Y-66635718D01*
X44345756Y-66636928D01*
X44193806Y-66642577D01*
X44031340Y-66659264D01*
X43844650Y-66688710D01*
X43678339Y-66720637D01*
X43271532Y-66803136D01*
X43264035Y-67003051D01*
X43262906Y-67099812D01*
X36215976Y-67099812D01*
X36215976Y-62514385D01*
X51713879Y-62514385D01*
X51720802Y-62726930D01*
X51741165Y-62921280D01*
X51759783Y-63021579D01*
X51857071Y-63342289D01*
X51996420Y-63640457D01*
X52174032Y-63912524D01*
X52386113Y-64154930D01*
X52628866Y-64364115D01*
X52898496Y-64536519D01*
X53191206Y-64668584D01*
X53503201Y-64756748D01*
X53633933Y-64779118D01*
X53803151Y-64792329D01*
X54001174Y-64791327D01*
X54208327Y-64777239D01*
X54404933Y-64751197D01*
X54517796Y-64728382D01*
X54827931Y-64629345D01*
X55111587Y-64487038D01*
X55367754Y-64302205D01*
X55595425Y-64075588D01*
X55793590Y-63807931D01*
X55815673Y-63772545D01*
X55858051Y-63700839D01*
X55886918Y-63647185D01*
X55895255Y-63626349D01*
X55871300Y-63620677D01*
X55805308Y-63615868D01*
X55706091Y-63612297D01*
X55582461Y-63610344D01*
X55515908Y-63610092D01*
X55136561Y-63610092D01*
X54986821Y-63759832D01*
X54792207Y-63919895D01*
X54573298Y-64039394D01*
X54336433Y-64118351D01*
X54087949Y-64156791D01*
X53834185Y-64154736D01*
X53581478Y-64112211D01*
X53336168Y-64029240D01*
X53104592Y-63905845D01*
X52904057Y-63752075D01*
X52726861Y-63564873D01*
X52588986Y-63356446D01*
X52486909Y-63127475D01*
X52479774Y-63101964D01*
X56368787Y-63101964D01*
X56378589Y-63286222D01*
X56400300Y-63447743D01*
X56413990Y-63508390D01*
X56493644Y-63744961D01*
X56602430Y-63955032D01*
X56748316Y-64152255D01*
X56860765Y-64273942D01*
X57076328Y-64463866D01*
X57302543Y-64606581D01*
X57545602Y-64704665D01*
X57811695Y-64760698D01*
X58069129Y-64777264D01*
X58197642Y-64773404D01*
X58330547Y-64761694D01*
X58442776Y-64744483D01*
X58460602Y-64740572D01*
X58628467Y-64686348D01*
X58805920Y-64604517D01*
X58971574Y-64506063D01*
X59083687Y-64420559D01*
X59146160Y-64367667D01*
X59192978Y-64331896D01*
X59210819Y-64322004D01*
X59218069Y-64345354D01*
X59223432Y-64407121D01*
X59225920Y-64494877D01*
X59225986Y-64512695D01*
X59225986Y-64703385D01*
X59810771Y-64703385D01*
X59810771Y-61398080D01*
X60497257Y-61398080D01*
X60497257Y-63580429D01*
X60497459Y-63909172D01*
X60498046Y-64223295D01*
X60498986Y-64519082D01*
X60500250Y-64792821D01*
X60501809Y-65040797D01*
X60503632Y-65259296D01*
X60505689Y-65444604D01*
X60507951Y-65593007D01*
X60510387Y-65700790D01*
X60512968Y-65764241D01*
X60514993Y-65780514D01*
X60546174Y-65787059D01*
X60617061Y-65791177D01*
X60716547Y-65792476D01*
X60813742Y-65791108D01*
X61094755Y-65783966D01*
X61107468Y-65050901D01*
X61120180Y-64317837D01*
X61181580Y-64383229D01*
X61277952Y-64467155D01*
X61407830Y-64554399D01*
X61555442Y-64635743D01*
X61705011Y-64701969D01*
X61761316Y-64721986D01*
X61865382Y-64752769D01*
X61961596Y-64772355D01*
X62067638Y-64783121D01*
X62201189Y-64787440D01*
X62251612Y-64787845D01*
X62516703Y-64776233D01*
X62747449Y-64736150D01*
X62954171Y-64663430D01*
X63147191Y-64553903D01*
X63336831Y-64403404D01*
X63435096Y-64310003D01*
X63544910Y-64196727D01*
X63626272Y-64102114D01*
X63689699Y-64012163D01*
X63745711Y-63912871D01*
X63769879Y-63864346D01*
X63873839Y-63606728D01*
X63934320Y-63346745D01*
X63955054Y-63068002D01*
X63955115Y-63050733D01*
X63931967Y-62750080D01*
X63864087Y-62467149D01*
X63753825Y-62205870D01*
X63603532Y-61970177D01*
X63415557Y-61764001D01*
X63192249Y-61591275D01*
X63027087Y-61497724D01*
X62792532Y-61401896D01*
X62784418Y-61399988D01*
X64234795Y-61399988D01*
X64234795Y-61932014D01*
X64717878Y-61932014D01*
X64717878Y-64703385D01*
X65302663Y-64703385D01*
X65302663Y-63025307D01*
X66029803Y-63025307D01*
X66030550Y-63174425D01*
X66036167Y-63288296D01*
X66048400Y-63382428D01*
X66068997Y-63472330D01*
X66087065Y-63533816D01*
X66192058Y-63805014D01*
X66330692Y-64044814D01*
X66509818Y-64265040D01*
X66512232Y-64267602D01*
X66727746Y-64463435D01*
X66963428Y-64617403D01*
X67213698Y-64726354D01*
X67416247Y-64778200D01*
X67579257Y-64795253D01*
X67766281Y-64795595D01*
X67957945Y-64780590D01*
X68134878Y-64751599D01*
X68252286Y-64719430D01*
X68288258Y-64703385D01*
X69980941Y-64703385D01*
X70673784Y-64702498D01*
X70951360Y-64700592D01*
X71179870Y-64695605D01*
X71361011Y-64687467D01*
X71496477Y-64676111D01*
X71560971Y-64666949D01*
X71801024Y-64603283D01*
X72008678Y-64502573D01*
X72188914Y-64362255D01*
X72227778Y-64323307D01*
X72377291Y-64132378D01*
X72489378Y-63916948D01*
X72562693Y-63685364D01*
X72595891Y-63445970D01*
X72587630Y-63207112D01*
X72550071Y-63037964D01*
X72955174Y-63037964D01*
X72967817Y-63276326D01*
X73005765Y-63492544D01*
X73097341Y-63757279D01*
X73229790Y-64005305D01*
X73397375Y-64229360D01*
X73594358Y-64422183D01*
X73815001Y-64576514D01*
X73896785Y-64620107D01*
X74174550Y-64729860D01*
X74458729Y-64790070D01*
X74746120Y-64800314D01*
X75002463Y-64766965D01*
X75248585Y-64691285D01*
X76489850Y-64691285D01*
X76513686Y-64695820D01*
X76578838Y-64699567D01*
X76675774Y-64702170D01*
X76794962Y-64703279D01*
X76814024Y-64703294D01*
X77138198Y-64703203D01*
X77532293Y-64082591D01*
X77654826Y-63891062D01*
X77753385Y-63740397D01*
X77829993Y-63627756D01*
X77886677Y-63550302D01*
X77925462Y-63505197D01*
X77948373Y-63489603D01*
X77954123Y-63491540D01*
X77974399Y-63520642D01*
X78017026Y-63587160D01*
X78078169Y-63684923D01*
X78153991Y-63807757D01*
X78240657Y-63949491D01*
X78320134Y-64080462D01*
X78413143Y-64233630D01*
X78498703Y-64373340D01*
X78572951Y-64493376D01*
X78632021Y-64587523D01*
X78672048Y-64649566D01*
X78688194Y-64672398D01*
X78717703Y-64686878D01*
X78778465Y-64695712D01*
X78876707Y-64699352D01*
X79018655Y-64698249D01*
X79038748Y-64697823D01*
X79359516Y-64690673D01*
X78863207Y-63877059D01*
X78750090Y-63691321D01*
X78644658Y-63517623D01*
X78550022Y-63361133D01*
X78469290Y-63227017D01*
X78405573Y-63120442D01*
X78361979Y-63046575D01*
X78341620Y-63010583D01*
X78341179Y-63009687D01*
X78337430Y-62990809D01*
X78342867Y-62962821D01*
X78359966Y-62921544D01*
X78391201Y-62862797D01*
X78439045Y-62782403D01*
X78505974Y-62676181D01*
X78594462Y-62539954D01*
X78706982Y-62369542D01*
X78826479Y-62190030D01*
X78943561Y-62014205D01*
X79051202Y-61851887D01*
X79146252Y-61707881D01*
X79225557Y-61586991D01*
X79285968Y-61494021D01*
X79324330Y-61433776D01*
X79337498Y-61411106D01*
X79313626Y-61406320D01*
X79248220Y-61402325D01*
X79150595Y-61399479D01*
X79030066Y-61398138D01*
X78998008Y-61398080D01*
X78658517Y-61398080D01*
X78319661Y-61946052D01*
X78226847Y-62095592D01*
X78142592Y-62230291D01*
X78070635Y-62344258D01*
X78014715Y-62431599D01*
X77978570Y-62486423D01*
X77966252Y-62503019D01*
X77949597Y-62484799D01*
X77910678Y-62428808D01*
X77853295Y-62340934D01*
X77781250Y-62227068D01*
X77698343Y-62093101D01*
X77641122Y-61999176D01*
X77551604Y-61851746D01*
X77469360Y-61717021D01*
X77398532Y-61601729D01*
X77343263Y-61512598D01*
X77307695Y-61456356D01*
X77297687Y-61441404D01*
X77278589Y-61422754D01*
X77247732Y-61410486D01*
X77196163Y-61403653D01*
X77114932Y-61401310D01*
X76995088Y-61402509D01*
X76940523Y-61403631D01*
X76616216Y-61410793D01*
X77089749Y-62172369D01*
X77200248Y-62350410D01*
X77302272Y-62515424D01*
X77392681Y-62662283D01*
X77468333Y-62785859D01*
X77526089Y-62881024D01*
X77562807Y-62942649D01*
X77575201Y-62965008D01*
X77564373Y-62992467D01*
X77528431Y-63057623D01*
X77470287Y-63155741D01*
X77392854Y-63282086D01*
X77299043Y-63431926D01*
X77191766Y-63600524D01*
X77073936Y-63783147D01*
X77038486Y-63837627D01*
X76917986Y-64022759D01*
X76806639Y-64194400D01*
X76707411Y-64347933D01*
X76623272Y-64478740D01*
X76557187Y-64582206D01*
X76512124Y-64653712D01*
X76491051Y-64688641D01*
X76489850Y-64691285D01*
X75248585Y-64691285D01*
X75259659Y-64687880D01*
X75502490Y-64564032D01*
X75725635Y-64400700D01*
X75923774Y-64203163D01*
X76091587Y-63976698D01*
X76223754Y-63726582D01*
X76312674Y-63467119D01*
X76344926Y-63291530D01*
X76360787Y-63093416D01*
X76360025Y-62892214D01*
X76342408Y-62707362D01*
X76322911Y-62609458D01*
X76292571Y-62512293D01*
X76247073Y-62391956D01*
X76194854Y-62270320D01*
X76179523Y-62237645D01*
X76125139Y-62132155D01*
X76068356Y-62042244D01*
X75998861Y-61954196D01*
X75906343Y-61854293D01*
X75844309Y-61791710D01*
X75631514Y-61603646D01*
X75415540Y-61462713D01*
X75188070Y-61365450D01*
X74940792Y-61308398D01*
X74665389Y-61288097D01*
X74633794Y-61287958D01*
X74498497Y-61290333D01*
X74393745Y-61299073D01*
X74299332Y-61317358D01*
X74195051Y-61348370D01*
X74147717Y-61364471D01*
X73882598Y-61481913D01*
X73640985Y-61639522D01*
X73427953Y-61831884D01*
X73248572Y-62053585D01*
X73107916Y-62299212D01*
X73011056Y-62563351D01*
X73005855Y-62583146D01*
X72967855Y-62799561D01*
X72955174Y-63037964D01*
X72550071Y-63037964D01*
X72536563Y-62977134D01*
X72470395Y-62817517D01*
X72384155Y-62685673D01*
X72268018Y-62558996D01*
X72138365Y-62453639D01*
X72048285Y-62401202D01*
X71909902Y-62335736D01*
X72010670Y-62262740D01*
X72144450Y-62140890D01*
X72253438Y-61984338D01*
X72299868Y-61892476D01*
X72337435Y-61770355D01*
X72357787Y-61616002D01*
X72360910Y-61445037D01*
X72346792Y-61273079D01*
X72315421Y-61115749D01*
X72300541Y-61067550D01*
X72204339Y-60860786D01*
X72069485Y-60686781D01*
X71895850Y-60545441D01*
X71683303Y-60436674D01*
X71431716Y-60360389D01*
X71264925Y-60330580D01*
X71185057Y-60323058D01*
X71065123Y-60316404D01*
X70915907Y-60310992D01*
X70748192Y-60307194D01*
X70572761Y-60305385D01*
X70533944Y-60305290D01*
X69980941Y-60304787D01*
X69980941Y-64703385D01*
X68288258Y-64703385D01*
X68516941Y-64601384D01*
X68755058Y-64443154D01*
X68963316Y-64249796D01*
X69138396Y-64026366D01*
X69276978Y-63777919D01*
X69375740Y-63509514D01*
X69431362Y-63226205D01*
X69440525Y-62933050D01*
X69439309Y-62911786D01*
X69396539Y-62625618D01*
X69307483Y-62352568D01*
X69175892Y-62098414D01*
X69005516Y-61868934D01*
X68800106Y-61669906D01*
X68563411Y-61507107D01*
X68508067Y-61477015D01*
X68285375Y-61378095D01*
X68065035Y-61317406D01*
X67827487Y-61290102D01*
X67743504Y-61287611D01*
X67547874Y-61293132D01*
X67377646Y-61318029D01*
X67212036Y-61366960D01*
X67030255Y-61444585D01*
X67018879Y-61450018D01*
X66761883Y-61600853D01*
X66536561Y-61790074D01*
X66346283Y-62013824D01*
X66194417Y-62268245D01*
X66098587Y-62504086D01*
X66068701Y-62602777D01*
X66048958Y-62692098D01*
X66037261Y-62787943D01*
X66031513Y-62906202D01*
X66029803Y-63025307D01*
X65302663Y-63025307D01*
X65302663Y-61932014D01*
X65785746Y-61932014D01*
X65785746Y-61399988D01*
X65550561Y-61392678D01*
X65315376Y-61385367D01*
X65301652Y-60304787D01*
X64718889Y-60304787D01*
X64705165Y-61385367D01*
X64469980Y-61392678D01*
X64234795Y-61399988D01*
X62784418Y-61399988D01*
X62549425Y-61344733D01*
X62283301Y-61323020D01*
X62238899Y-61322621D01*
X61961695Y-61342245D01*
X61710581Y-61402900D01*
X61478557Y-61507007D01*
X61258621Y-61656986D01*
X61248728Y-61664989D01*
X61107468Y-61780047D01*
X61107468Y-61398080D01*
X60497257Y-61398080D01*
X59810771Y-61398080D01*
X59225986Y-61398080D01*
X59225986Y-61782255D01*
X59081199Y-61664313D01*
X58845233Y-61503886D01*
X58589203Y-61389412D01*
X58316495Y-61321722D01*
X58030494Y-61301647D01*
X57734585Y-61330019D01*
X57725886Y-61331573D01*
X57460046Y-61404854D01*
X57212309Y-61522844D01*
X56987131Y-61681265D01*
X56788969Y-61875842D01*
X56622279Y-62102296D01*
X56491519Y-62356351D01*
X56411352Y-62593075D01*
X56385117Y-62737360D01*
X56370945Y-62912999D01*
X56368787Y-63101964D01*
X52479774Y-63101964D01*
X52405370Y-62835939D01*
X52372884Y-62546683D01*
X52388641Y-62263633D01*
X52451832Y-61990720D01*
X52561648Y-61731871D01*
X52717280Y-61491014D01*
X52856917Y-61331281D01*
X53062047Y-61148939D01*
X53274336Y-61014375D01*
X53500618Y-60924931D01*
X53747729Y-60877950D01*
X54022502Y-60870773D01*
X54039199Y-60871511D01*
X54309550Y-60902994D01*
X54549030Y-60971834D01*
X54764037Y-61080793D01*
X54960967Y-61232632D01*
X55029029Y-61298691D01*
X55175584Y-61448931D01*
X55535420Y-61448931D01*
X55664092Y-61448019D01*
X55772416Y-61445512D01*
X55851345Y-61441756D01*
X55891831Y-61437095D01*
X55895255Y-61435205D01*
X55882068Y-61395418D01*
X55846981Y-61325419D01*
X55796713Y-61237033D01*
X55737978Y-61142086D01*
X55679221Y-61054837D01*
X55490881Y-60831729D01*
X55264362Y-60636381D01*
X55006891Y-60473657D01*
X54725693Y-60348422D01*
X54547708Y-60293068D01*
X54414301Y-60267116D01*
X54247306Y-60247926D01*
X54063626Y-60236230D01*
X53880167Y-60232762D01*
X53713831Y-60238253D01*
X53591766Y-60251627D01*
X53264755Y-60331452D01*
X52961275Y-60456354D01*
X52681194Y-60626396D01*
X52437483Y-60829033D01*
X52202023Y-61083978D01*
X52013075Y-61355817D01*
X51867762Y-61649336D01*
X51771864Y-61936168D01*
X51739597Y-62102144D01*
X51720206Y-62300503D01*
X51713879Y-62514385D01*
X36215976Y-62514385D01*
X36215976Y-58957239D01*
X95864024Y-58957239D01*
X95864024Y-102078761D01*
G36*
X73412038Y-74270420D02*
X73457117Y-74315232D01*
X73484068Y-74399534D01*
X73489650Y-74476192D01*
X73484124Y-74557785D01*
X73470006Y-74620011D01*
X73459139Y-74639642D01*
X73399918Y-74667256D01*
X73328303Y-74661374D01*
X73275350Y-74630198D01*
X73243995Y-74568470D01*
X73234449Y-74482558D01*
X73245972Y-74393860D01*
X73277828Y-74323771D01*
X73286246Y-74314196D01*
X73353519Y-74268830D01*
X73412038Y-74270420D01*
X73412038Y-74270420D01*
G37*
X73412038Y-74270420D02*
X73457117Y-74315232D01*
X73484068Y-74399534D01*
X73489650Y-74476192D01*
X73484124Y-74557785D01*
X73470006Y-74620011D01*
X73459139Y-74639642D01*
X73399918Y-74667256D01*
X73328303Y-74661374D01*
X73275350Y-74630198D01*
X73243995Y-74568470D01*
X73234449Y-74482558D01*
X73245972Y-74393860D01*
X73277828Y-74323771D01*
X73286246Y-74314196D01*
X73353519Y-74268830D01*
X73412038Y-74270420D01*
G36*
X74062031Y-75494453D02*
X74073501Y-75520446D01*
X74074435Y-75546566D01*
X74056901Y-75605922D01*
X74009216Y-75636948D01*
X73946848Y-75657518D01*
X73906860Y-75656228D01*
X73865074Y-75631671D01*
X73860413Y-75628281D01*
X73827445Y-75581413D01*
X73824001Y-75545649D01*
X73841144Y-75513727D01*
X73885449Y-75496301D01*
X73953893Y-75488729D01*
X74026607Y-75486014D01*
X74062031Y-75494453D01*
X74062031Y-75494453D01*
G37*
X74062031Y-75494453D02*
X74073501Y-75520446D01*
X74074435Y-75546566D01*
X74056901Y-75605922D01*
X74009216Y-75636948D01*
X73946848Y-75657518D01*
X73906860Y-75656228D01*
X73865074Y-75631671D01*
X73860413Y-75628281D01*
X73827445Y-75581413D01*
X73824001Y-75545649D01*
X73841144Y-75513727D01*
X73885449Y-75496301D01*
X73953893Y-75488729D01*
X74026607Y-75486014D01*
X74062031Y-75494453D01*
G36*
X75054902Y-75266619D02*
X75096066Y-75306923D01*
X75114479Y-75383731D01*
X75116877Y-75445628D01*
X75111213Y-75526317D01*
X75096779Y-75587572D01*
X75086367Y-75605808D01*
X75030026Y-75633255D01*
X74961363Y-75632591D01*
X74904162Y-75606064D01*
X74888943Y-75587139D01*
X74870924Y-75528288D01*
X74862677Y-75451661D01*
X74862623Y-75445628D01*
X74875236Y-75340271D01*
X74913901Y-75277379D01*
X74979856Y-75255032D01*
X74985559Y-75254937D01*
X75054902Y-75266619D01*
X75054902Y-75266619D01*
G37*
X75054902Y-75266619D02*
X75096066Y-75306923D01*
X75114479Y-75383731D01*
X75116877Y-75445628D01*
X75111213Y-75526317D01*
X75096779Y-75587572D01*
X75086367Y-75605808D01*
X75030026Y-75633255D01*
X74961363Y-75632591D01*
X74904162Y-75606064D01*
X74888943Y-75587139D01*
X74870924Y-75528288D01*
X74862677Y-75451661D01*
X74862623Y-75445628D01*
X74875236Y-75340271D01*
X74913901Y-75277379D01*
X74979856Y-75255032D01*
X74985559Y-75254937D01*
X75054902Y-75266619D01*
G36*
X76524185Y-75486550D02*
X76556579Y-75500208D01*
X76565810Y-75532702D01*
X76566126Y-75547959D01*
X76547852Y-75606747D01*
X76500908Y-75636948D01*
X76436674Y-75657616D01*
X76393357Y-75653992D01*
X76345447Y-75622527D01*
X76334583Y-75613807D01*
X76296651Y-75565362D01*
X76305224Y-75524484D01*
X76356044Y-75495781D01*
X76444849Y-75483858D01*
X76454825Y-75483766D01*
X76524185Y-75486550D01*
X76524185Y-75486550D01*
G37*
X76524185Y-75486550D02*
X76556579Y-75500208D01*
X76565810Y-75532702D01*
X76566126Y-75547959D01*
X76547852Y-75606747D01*
X76500908Y-75636948D01*
X76436674Y-75657616D01*
X76393357Y-75653992D01*
X76345447Y-75622527D01*
X76334583Y-75613807D01*
X76296651Y-75565362D01*
X76305224Y-75524484D01*
X76356044Y-75495781D01*
X76444849Y-75483858D01*
X76454825Y-75483766D01*
X76524185Y-75486550D01*
G36*
X77539271Y-75246343D02*
X77583143Y-75280362D01*
X77629728Y-75338866D01*
X77631242Y-75378289D01*
X77586353Y-75400530D01*
X77494154Y-75407489D01*
X77409823Y-75404065D01*
X77366405Y-75392051D01*
X77354315Y-75369351D01*
X77371146Y-75324235D01*
X77405165Y-75280362D01*
X77455502Y-75242649D01*
X77494154Y-75229511D01*
X77539271Y-75246343D01*
X77539271Y-75246343D01*
G37*
X77539271Y-75246343D02*
X77583143Y-75280362D01*
X77629728Y-75338866D01*
X77631242Y-75378289D01*
X77586353Y-75400530D01*
X77494154Y-75407489D01*
X77409823Y-75404065D01*
X77366405Y-75392051D01*
X77354315Y-75369351D01*
X77371146Y-75324235D01*
X77405165Y-75280362D01*
X77455502Y-75242649D01*
X77494154Y-75229511D01*
X77539271Y-75246343D01*
G36*
X72805909Y-74275919D02*
X72854014Y-74314196D01*
X72892637Y-74384179D01*
X72904379Y-74475988D01*
X72888416Y-74567783D01*
X72865285Y-74613644D01*
X72805871Y-74659876D01*
X72732782Y-74666141D01*
X72665755Y-74630809D01*
X72665140Y-74630198D01*
X72636257Y-74570751D01*
X72625224Y-74473329D01*
X72625185Y-74466374D01*
X72630435Y-74383130D01*
X72650221Y-74332501D01*
X72681694Y-74302925D01*
X72749817Y-74268025D01*
X72805909Y-74275919D01*
X72805909Y-74275919D01*
G37*
X72805909Y-74275919D02*
X72854014Y-74314196D01*
X72892637Y-74384179D01*
X72904379Y-74475988D01*
X72888416Y-74567783D01*
X72865285Y-74613644D01*
X72805871Y-74659876D01*
X72732782Y-74666141D01*
X72665755Y-74630809D01*
X72665140Y-74630198D01*
X72636257Y-74570751D01*
X72625224Y-74473329D01*
X72625185Y-74466374D01*
X72630435Y-74383130D01*
X72650221Y-74332501D01*
X72681694Y-74302925D01*
X72749817Y-74268025D01*
X72805909Y-74275919D01*
G36*
X74012736Y-74285637D02*
X74068261Y-74341388D01*
X74082797Y-74371403D01*
X74085507Y-74397030D01*
X74063779Y-74410453D01*
X74007215Y-74415417D01*
X73959222Y-74415898D01*
X73873884Y-74412098D01*
X73830461Y-74399222D01*
X73820180Y-74379576D01*
X73841456Y-74325849D01*
X73891225Y-74280568D01*
X73944264Y-74263345D01*
X74012736Y-74285637D01*
X74012736Y-74285637D01*
G37*
X74012736Y-74285637D02*
X74068261Y-74341388D01*
X74082797Y-74371403D01*
X74085507Y-74397030D01*
X74063779Y-74410453D01*
X74007215Y-74415417D01*
X73959222Y-74415898D01*
X73873884Y-74412098D01*
X73830461Y-74399222D01*
X73820180Y-74379576D01*
X73841456Y-74325849D01*
X73891225Y-74280568D01*
X73944264Y-74263345D01*
X74012736Y-74285637D01*
G36*
X76057443Y-74290566D02*
X76105818Y-74348722D01*
X76131399Y-74441790D01*
X76133894Y-74488172D01*
X76116080Y-74574233D01*
X76070175Y-74636167D01*
X76007488Y-74667273D01*
X75939328Y-74660854D01*
X75894169Y-74630198D01*
X75865251Y-74570570D01*
X75854252Y-74472467D01*
X75854214Y-74465519D01*
X75858681Y-74384476D01*
X75876634Y-74335698D01*
X75914906Y-74301034D01*
X75916533Y-74299961D01*
X75992330Y-74272565D01*
X76057443Y-74290566D01*
X76057443Y-74290566D01*
G37*
X76057443Y-74290566D02*
X76105818Y-74348722D01*
X76131399Y-74441790D01*
X76133894Y-74488172D01*
X76116080Y-74574233D01*
X76070175Y-74636167D01*
X76007488Y-74667273D01*
X75939328Y-74660854D01*
X75894169Y-74630198D01*
X75865251Y-74570570D01*
X75854252Y-74472467D01*
X75854214Y-74465519D01*
X75858681Y-74384476D01*
X75876634Y-74335698D01*
X75914906Y-74301034D01*
X75916533Y-74299961D01*
X75992330Y-74272565D01*
X76057443Y-74290566D01*
G36*
X78222356Y-74281800D02*
X78275277Y-74326858D01*
X78295055Y-74379576D01*
X78280575Y-74401811D01*
X78231476Y-74413162D01*
X78155215Y-74415898D01*
X78078624Y-74412647D01*
X78027830Y-74404262D01*
X78015376Y-74396130D01*
X78036035Y-74343638D01*
X78084622Y-74293522D01*
X78141052Y-74264905D01*
X78154841Y-74263345D01*
X78222356Y-74281800D01*
X78222356Y-74281800D01*
G37*
X78222356Y-74281800D02*
X78275277Y-74326858D01*
X78295055Y-74379576D01*
X78280575Y-74401811D01*
X78231476Y-74413162D01*
X78155215Y-74415898D01*
X78078624Y-74412647D01*
X78027830Y-74404262D01*
X78015376Y-74396130D01*
X78036035Y-74343638D01*
X78084622Y-74293522D01*
X78141052Y-74264905D01*
X78154841Y-74263345D01*
X78222356Y-74281800D01*
G36*
X55063567Y-72037358D02*
X55139005Y-72076539D01*
X55194788Y-72150695D01*
X55198043Y-72156877D01*
X55225400Y-72261280D01*
X55209411Y-72369708D01*
X55152965Y-72465013D01*
X55144676Y-72473694D01*
X55063071Y-72522646D01*
X54962802Y-72537912D01*
X54863264Y-72519527D01*
X54789128Y-72473042D01*
X54725979Y-72380824D01*
X54704301Y-72281596D01*
X54720172Y-72185923D01*
X54769673Y-72104374D01*
X54848881Y-72047514D01*
X54953878Y-72025910D01*
X54955031Y-72025908D01*
X55063567Y-72037358D01*
X55063567Y-72037358D01*
G37*
X55063567Y-72037358D02*
X55139005Y-72076539D01*
X55194788Y-72150695D01*
X55198043Y-72156877D01*
X55225400Y-72261280D01*
X55209411Y-72369708D01*
X55152965Y-72465013D01*
X55144676Y-72473694D01*
X55063071Y-72522646D01*
X54962802Y-72537912D01*
X54863264Y-72519527D01*
X54789128Y-72473042D01*
X54725979Y-72380824D01*
X54704301Y-72281596D01*
X54720172Y-72185923D01*
X54769673Y-72104374D01*
X54848881Y-72047514D01*
X54953878Y-72025910D01*
X54955031Y-72025908D01*
X55063567Y-72037358D01*
G36*
X56259828Y-71989497D02*
X56345923Y-72023725D01*
X56413963Y-72079614D01*
X56429330Y-72102447D01*
X56439517Y-72126333D01*
X56433236Y-72141203D01*
X56401947Y-72149189D01*
X56337114Y-72152422D01*
X56230199Y-72153035D01*
X56226681Y-72153035D01*
X56114469Y-72151510D01*
X56044490Y-72146003D01*
X56008192Y-72135116D01*
X55997022Y-72117452D01*
X55996957Y-72115483D01*
X56019617Y-72071261D01*
X56078401Y-72027065D01*
X56159517Y-71992619D01*
X56178553Y-71987423D01*
X56259828Y-71989497D01*
X56259828Y-71989497D01*
G37*
X56259828Y-71989497D02*
X56345923Y-72023725D01*
X56413963Y-72079614D01*
X56429330Y-72102447D01*
X56439517Y-72126333D01*
X56433236Y-72141203D01*
X56401947Y-72149189D01*
X56337114Y-72152422D01*
X56230199Y-72153035D01*
X56226681Y-72153035D01*
X56114469Y-72151510D01*
X56044490Y-72146003D01*
X56008192Y-72135116D01*
X55997022Y-72117452D01*
X55996957Y-72115483D01*
X56019617Y-72071261D01*
X56078401Y-72027065D01*
X56159517Y-71992619D01*
X56178553Y-71987423D01*
X56259828Y-71989497D01*
G36*
X57569193Y-72043119D02*
X57649180Y-72096861D01*
X57700171Y-72190299D01*
X57700487Y-72191252D01*
X57713334Y-72287289D01*
X57696941Y-72385517D01*
X57655873Y-72464630D01*
X57638061Y-72482600D01*
X57569370Y-72518786D01*
X57483503Y-72539085D01*
X57409400Y-72536732D01*
X57408068Y-72536359D01*
X57308141Y-72484707D01*
X57242672Y-72404150D01*
X57214911Y-72305927D01*
X57228102Y-72201277D01*
X57283201Y-72104135D01*
X57339023Y-72050676D01*
X57400840Y-72028844D01*
X57455522Y-72025908D01*
X57569193Y-72043119D01*
X57569193Y-72043119D01*
G37*
X57569193Y-72043119D02*
X57649180Y-72096861D01*
X57700171Y-72190299D01*
X57700487Y-72191252D01*
X57713334Y-72287289D01*
X57696941Y-72385517D01*
X57655873Y-72464630D01*
X57638061Y-72482600D01*
X57569370Y-72518786D01*
X57483503Y-72539085D01*
X57409400Y-72536732D01*
X57408068Y-72536359D01*
X57308141Y-72484707D01*
X57242672Y-72404150D01*
X57214911Y-72305927D01*
X57228102Y-72201277D01*
X57283201Y-72104135D01*
X57339023Y-72050676D01*
X57400840Y-72028844D01*
X57455522Y-72025908D01*
X57569193Y-72043119D01*
G36*
X59437214Y-72047170D02*
X59513995Y-72103621D01*
X59565755Y-72187740D01*
X59581942Y-72280162D01*
X59560080Y-72387439D01*
X59501287Y-72469452D01*
X59415757Y-72520053D01*
X59313679Y-72533091D01*
X59209830Y-72504684D01*
X59139837Y-72445179D01*
X59100169Y-72358398D01*
X59092391Y-72259005D01*
X59118067Y-72161659D01*
X59165890Y-72092939D01*
X59252247Y-72036918D01*
X59346327Y-72023298D01*
X59437214Y-72047170D01*
X59437214Y-72047170D01*
G37*
X59437214Y-72047170D02*
X59513995Y-72103621D01*
X59565755Y-72187740D01*
X59581942Y-72280162D01*
X59560080Y-72387439D01*
X59501287Y-72469452D01*
X59415757Y-72520053D01*
X59313679Y-72533091D01*
X59209830Y-72504684D01*
X59139837Y-72445179D01*
X59100169Y-72358398D01*
X59092391Y-72259005D01*
X59118067Y-72161659D01*
X59165890Y-72092939D01*
X59252247Y-72036918D01*
X59346327Y-72023298D01*
X59437214Y-72047170D01*
G36*
X63340476Y-72042541D02*
X63382805Y-72077359D01*
X63405186Y-72102920D01*
X63462101Y-72204409D01*
X63472156Y-72310991D01*
X63435442Y-72412397D01*
X63402112Y-72455288D01*
X63311945Y-72524946D01*
X63216854Y-72544957D01*
X63124078Y-72522011D01*
X63044391Y-72463393D01*
X62986624Y-72374603D01*
X62963547Y-72275490D01*
X62963524Y-72272472D01*
X62977527Y-72211976D01*
X63012144Y-72139879D01*
X63021588Y-72125013D01*
X63063079Y-72072138D01*
X63108161Y-72044931D01*
X63177058Y-72033254D01*
X63208997Y-72031049D01*
X63289502Y-72029655D01*
X63340476Y-72042541D01*
X63340476Y-72042541D01*
G37*
X63340476Y-72042541D02*
X63382805Y-72077359D01*
X63405186Y-72102920D01*
X63462101Y-72204409D01*
X63472156Y-72310991D01*
X63435442Y-72412397D01*
X63402112Y-72455288D01*
X63311945Y-72524946D01*
X63216854Y-72544957D01*
X63124078Y-72522011D01*
X63044391Y-72463393D01*
X62986624Y-72374603D01*
X62963547Y-72275490D01*
X62963524Y-72272472D01*
X62977527Y-72211976D01*
X63012144Y-72139879D01*
X63021588Y-72125013D01*
X63063079Y-72072138D01*
X63108161Y-72044931D01*
X63177058Y-72033254D01*
X63208997Y-72031049D01*
X63289502Y-72029655D01*
X63340476Y-72042541D01*
G36*
X65275489Y-72045590D02*
X65362011Y-72102134D01*
X65412710Y-72191785D01*
X65419041Y-72218124D01*
X65418590Y-72325238D01*
X65382698Y-72424891D01*
X65318927Y-72497291D01*
X65234544Y-72530307D01*
X65134007Y-72533744D01*
X65039207Y-72509188D01*
X64984723Y-72473042D01*
X64920397Y-72379492D01*
X64898742Y-72279747D01*
X64915739Y-72184161D01*
X64967370Y-72103090D01*
X65049617Y-72046887D01*
X65158239Y-72025908D01*
X65275489Y-72045590D01*
X65275489Y-72045590D01*
G37*
X65275489Y-72045590D02*
X65362011Y-72102134D01*
X65412710Y-72191785D01*
X65419041Y-72218124D01*
X65418590Y-72325238D01*
X65382698Y-72424891D01*
X65318927Y-72497291D01*
X65234544Y-72530307D01*
X65134007Y-72533744D01*
X65039207Y-72509188D01*
X64984723Y-72473042D01*
X64920397Y-72379492D01*
X64898742Y-72279747D01*
X64915739Y-72184161D01*
X64967370Y-72103090D01*
X65049617Y-72046887D01*
X65158239Y-72025908D01*
X65275489Y-72045590D01*
G36*
X58146621Y-70292993D02*
X58224474Y-70350025D01*
X58275181Y-70431722D01*
X58295436Y-70527156D01*
X58281932Y-70625397D01*
X58231361Y-70715517D01*
X58190987Y-70754239D01*
X58099387Y-70796808D01*
X57993975Y-70802269D01*
X57895652Y-70770673D01*
X57870031Y-70753480D01*
X57801756Y-70669843D01*
X57770326Y-70564963D01*
X57780453Y-70457012D01*
X57787862Y-70436697D01*
X57851274Y-70340598D01*
X57944180Y-70285841D01*
X58044929Y-70271554D01*
X58146621Y-70292993D01*
X58146621Y-70292993D01*
G37*
X58146621Y-70292993D02*
X58224474Y-70350025D01*
X58275181Y-70431722D01*
X58295436Y-70527156D01*
X58281932Y-70625397D01*
X58231361Y-70715517D01*
X58190987Y-70754239D01*
X58099387Y-70796808D01*
X57993975Y-70802269D01*
X57895652Y-70770673D01*
X57870031Y-70753480D01*
X57801756Y-70669843D01*
X57770326Y-70564963D01*
X57780453Y-70457012D01*
X57787862Y-70436697D01*
X57851274Y-70340598D01*
X57944180Y-70285841D01*
X58044929Y-70271554D01*
X58146621Y-70292993D01*
G36*
X55481624Y-70265067D02*
X55527871Y-70298185D01*
X55570362Y-70343783D01*
X55589994Y-70376049D01*
X55590150Y-70377687D01*
X55566621Y-70386932D01*
X55503594Y-70394100D01*
X55412413Y-70398150D01*
X55361322Y-70398681D01*
X55260553Y-70396522D01*
X55182425Y-70390740D01*
X55138281Y-70382374D01*
X55132493Y-70377687D01*
X55149369Y-70347769D01*
X55190689Y-70302140D01*
X55197603Y-70295526D01*
X55283830Y-70246489D01*
X55384527Y-70236385D01*
X55481624Y-70265067D01*
X55481624Y-70265067D01*
G37*
X55481624Y-70265067D02*
X55527871Y-70298185D01*
X55570362Y-70343783D01*
X55589994Y-70376049D01*
X55590150Y-70377687D01*
X55566621Y-70386932D01*
X55503594Y-70394100D01*
X55412413Y-70398150D01*
X55361322Y-70398681D01*
X55260553Y-70396522D01*
X55182425Y-70390740D01*
X55138281Y-70382374D01*
X55132493Y-70377687D01*
X55149369Y-70347769D01*
X55190689Y-70302140D01*
X55197603Y-70295526D01*
X55283830Y-70246489D01*
X55384527Y-70236385D01*
X55481624Y-70265067D01*
G36*
X59355199Y-70252812D02*
X59430033Y-70287259D01*
X59485458Y-70332921D01*
X59505666Y-70377687D01*
X59482136Y-70386932D01*
X59419109Y-70394100D01*
X59327928Y-70398150D01*
X59276837Y-70398681D01*
X59176068Y-70396522D01*
X59097940Y-70390740D01*
X59053796Y-70382374D01*
X59048008Y-70377687D01*
X59070510Y-70330261D01*
X59127426Y-70284969D01*
X59202872Y-70251424D01*
X59276837Y-70239194D01*
X59355199Y-70252812D01*
X59355199Y-70252812D01*
G37*
X59355199Y-70252812D02*
X59430033Y-70287259D01*
X59485458Y-70332921D01*
X59505666Y-70377687D01*
X59482136Y-70386932D01*
X59419109Y-70394100D01*
X59327928Y-70398150D01*
X59276837Y-70398681D01*
X59176068Y-70396522D01*
X59097940Y-70390740D01*
X59053796Y-70382374D01*
X59048008Y-70377687D01*
X59070510Y-70330261D01*
X59127426Y-70284969D01*
X59202872Y-70251424D01*
X59276837Y-70239194D01*
X59355199Y-70252812D01*
G36*
X72522451Y-65730789D02*
X72763056Y-65785920D01*
X72989100Y-65888508D01*
X73196747Y-66037524D01*
X73267185Y-66103263D01*
X73430725Y-66298910D01*
X73549306Y-66510149D01*
X73624315Y-66731645D01*
X73657138Y-66958063D01*
X73649163Y-67184067D01*
X73601776Y-67404323D01*
X73516363Y-67613496D01*
X73394311Y-67806251D01*
X73237007Y-67977252D01*
X73045837Y-68121164D01*
X72822187Y-68232653D01*
X72703203Y-68273233D01*
X72560936Y-68300795D01*
X72392760Y-68311750D01*
X72219562Y-68306315D01*
X72062228Y-68284705D01*
X71989550Y-68265850D01*
X71815556Y-68199686D01*
X71669658Y-68118841D01*
X71529331Y-68010119D01*
X71485226Y-67970347D01*
X71309124Y-67778389D01*
X71180488Y-67570965D01*
X71097162Y-67343710D01*
X71058056Y-67106088D01*
X71059821Y-67032284D01*
X71455616Y-67032284D01*
X71474765Y-67196210D01*
X71532515Y-67327211D01*
X71629319Y-67425981D01*
X71751954Y-67488521D01*
X71852129Y-67517355D01*
X71938141Y-67521204D01*
X72038708Y-67501053D01*
X72047452Y-67498653D01*
X72119341Y-67468318D01*
X72195967Y-67420474D01*
X72263727Y-67365725D01*
X72309019Y-67314674D01*
X72320080Y-67286141D01*
X72299237Y-67255937D01*
X72247913Y-67221232D01*
X72236232Y-67215362D01*
X72178554Y-67191236D01*
X72142926Y-67194027D01*
X72106278Y-67227200D01*
X72098316Y-67236078D01*
X72025412Y-67284108D01*
X71936215Y-67297347D01*
X71850880Y-67275000D01*
X71812990Y-67247346D01*
X71762040Y-67165208D01*
X71739515Y-67060804D01*
X71740761Y-67035112D01*
X72373736Y-67035112D01*
X72391441Y-67181453D01*
X72418750Y-67258641D01*
X72486515Y-67370925D01*
X72575731Y-67446709D01*
X72667997Y-67488771D01*
X72804826Y-67520574D01*
X72930337Y-67509838D01*
X73019280Y-67477404D01*
X73104088Y-67427298D01*
X73182331Y-67364361D01*
X73193764Y-67352813D01*
X73266546Y-67275308D01*
X73068626Y-67174336D01*
X73014095Y-67235558D01*
X72943344Y-67285313D01*
X72868651Y-67296779D01*
X72771081Y-67275469D01*
X72701838Y-67212246D01*
X72662062Y-67108174D01*
X72661193Y-67103675D01*
X72655324Y-66985004D01*
X72680305Y-66884097D01*
X72729306Y-66806703D01*
X72795499Y-66758566D01*
X72872056Y-66745435D01*
X72952147Y-66773055D01*
X73003162Y-66815898D01*
X73052015Y-66868336D01*
X73159281Y-66813613D01*
X73266546Y-66758891D01*
X73193764Y-66681460D01*
X73079805Y-66593736D01*
X72945953Y-66543764D01*
X72804286Y-66532225D01*
X72666879Y-66559803D01*
X72545811Y-66627178D01*
X72526486Y-66643768D01*
X72443834Y-66751569D01*
X72392059Y-66886917D01*
X72373736Y-67035112D01*
X71740761Y-67035112D01*
X71744837Y-66951082D01*
X71777426Y-66852986D01*
X71828659Y-66789372D01*
X71903713Y-66745919D01*
X71972540Y-66746182D01*
X72048820Y-66790875D01*
X72061849Y-66801538D01*
X72113475Y-66841555D01*
X72151820Y-66851748D01*
X72201552Y-66835173D01*
X72229065Y-66822254D01*
X72295414Y-66783079D01*
X72315212Y-66744483D01*
X72289776Y-66696020D01*
X72250160Y-66654805D01*
X72132117Y-66575081D01*
X71995859Y-66535852D01*
X71853396Y-66536720D01*
X71716739Y-66577287D01*
X71597897Y-66657156D01*
X71578004Y-66677081D01*
X71507880Y-66771462D01*
X71469017Y-66878087D01*
X71455756Y-67013381D01*
X71455616Y-67032284D01*
X71059821Y-67032284D01*
X71063641Y-66872627D01*
X71115261Y-66643831D01*
X71208139Y-66426398D01*
X71337499Y-66227026D01*
X71498566Y-66052411D01*
X71686564Y-65909253D01*
X71896717Y-65804248D01*
X72012911Y-65767014D01*
X72271124Y-65724144D01*
X72522451Y-65730789D01*
X72522451Y-65730789D01*
G37*
X72522451Y-65730789D02*
X72763056Y-65785920D01*
X72989100Y-65888508D01*
X73196747Y-66037524D01*
X73267185Y-66103263D01*
X73430725Y-66298910D01*
X73549306Y-66510149D01*
X73624315Y-66731645D01*
X73657138Y-66958063D01*
X73649163Y-67184067D01*
X73601776Y-67404323D01*
X73516363Y-67613496D01*
X73394311Y-67806251D01*
X73237007Y-67977252D01*
X73045837Y-68121164D01*
X72822187Y-68232653D01*
X72703203Y-68273233D01*
X72560936Y-68300795D01*
X72392760Y-68311750D01*
X72219562Y-68306315D01*
X72062228Y-68284705D01*
X71989550Y-68265850D01*
X71815556Y-68199686D01*
X71669658Y-68118841D01*
X71529331Y-68010119D01*
X71485226Y-67970347D01*
X71309124Y-67778389D01*
X71180488Y-67570965D01*
X71097162Y-67343710D01*
X71058056Y-67106088D01*
X71059821Y-67032284D01*
X71455616Y-67032284D01*
X71474765Y-67196210D01*
X71532515Y-67327211D01*
X71629319Y-67425981D01*
X71751954Y-67488521D01*
X71852129Y-67517355D01*
X71938141Y-67521204D01*
X72038708Y-67501053D01*
X72047452Y-67498653D01*
X72119341Y-67468318D01*
X72195967Y-67420474D01*
X72263727Y-67365725D01*
X72309019Y-67314674D01*
X72320080Y-67286141D01*
X72299237Y-67255937D01*
X72247913Y-67221232D01*
X72236232Y-67215362D01*
X72178554Y-67191236D01*
X72142926Y-67194027D01*
X72106278Y-67227200D01*
X72098316Y-67236078D01*
X72025412Y-67284108D01*
X71936215Y-67297347D01*
X71850880Y-67275000D01*
X71812990Y-67247346D01*
X71762040Y-67165208D01*
X71739515Y-67060804D01*
X71740761Y-67035112D01*
X72373736Y-67035112D01*
X72391441Y-67181453D01*
X72418750Y-67258641D01*
X72486515Y-67370925D01*
X72575731Y-67446709D01*
X72667997Y-67488771D01*
X72804826Y-67520574D01*
X72930337Y-67509838D01*
X73019280Y-67477404D01*
X73104088Y-67427298D01*
X73182331Y-67364361D01*
X73193764Y-67352813D01*
X73266546Y-67275308D01*
X73068626Y-67174336D01*
X73014095Y-67235558D01*
X72943344Y-67285313D01*
X72868651Y-67296779D01*
X72771081Y-67275469D01*
X72701838Y-67212246D01*
X72662062Y-67108174D01*
X72661193Y-67103675D01*
X72655324Y-66985004D01*
X72680305Y-66884097D01*
X72729306Y-66806703D01*
X72795499Y-66758566D01*
X72872056Y-66745435D01*
X72952147Y-66773055D01*
X73003162Y-66815898D01*
X73052015Y-66868336D01*
X73159281Y-66813613D01*
X73266546Y-66758891D01*
X73193764Y-66681460D01*
X73079805Y-66593736D01*
X72945953Y-66543764D01*
X72804286Y-66532225D01*
X72666879Y-66559803D01*
X72545811Y-66627178D01*
X72526486Y-66643768D01*
X72443834Y-66751569D01*
X72392059Y-66886917D01*
X72373736Y-67035112D01*
X71740761Y-67035112D01*
X71744837Y-66951082D01*
X71777426Y-66852986D01*
X71828659Y-66789372D01*
X71903713Y-66745919D01*
X71972540Y-66746182D01*
X72048820Y-66790875D01*
X72061849Y-66801538D01*
X72113475Y-66841555D01*
X72151820Y-66851748D01*
X72201552Y-66835173D01*
X72229065Y-66822254D01*
X72295414Y-66783079D01*
X72315212Y-66744483D01*
X72289776Y-66696020D01*
X72250160Y-66654805D01*
X72132117Y-66575081D01*
X71995859Y-66535852D01*
X71853396Y-66536720D01*
X71716739Y-66577287D01*
X71597897Y-66657156D01*
X71578004Y-66677081D01*
X71507880Y-66771462D01*
X71469017Y-66878087D01*
X71455756Y-67013381D01*
X71455616Y-67032284D01*
X71059821Y-67032284D01*
X71063641Y-66872627D01*
X71115261Y-66643831D01*
X71208139Y-66426398D01*
X71337499Y-66227026D01*
X71498566Y-66052411D01*
X71686564Y-65909253D01*
X71896717Y-65804248D01*
X72012911Y-65767014D01*
X72271124Y-65724144D01*
X72522451Y-65730789D01*
G36*
X75807240Y-65748736D02*
X76043029Y-65823880D01*
X76261835Y-65946284D01*
X76461412Y-66114929D01*
X76489443Y-66144037D01*
X76642356Y-66341016D01*
X76750485Y-66553630D01*
X76815283Y-66776341D01*
X76838199Y-67003614D01*
X76820685Y-67229909D01*
X76764191Y-67449689D01*
X76670167Y-67657416D01*
X76540065Y-67847553D01*
X76375334Y-68014562D01*
X76177426Y-68152906D01*
X75947790Y-68257047D01*
X75934765Y-68261505D01*
X75810597Y-68290422D01*
X75655867Y-68307675D01*
X75489653Y-68312630D01*
X75331032Y-68304655D01*
X75209109Y-68285567D01*
X75033577Y-68222620D01*
X74854895Y-68119832D01*
X74683858Y-67986265D01*
X74531260Y-67830977D01*
X74407892Y-67663032D01*
X74357338Y-67570501D01*
X74273443Y-67340278D01*
X74262019Y-67268029D01*
X75115501Y-67268029D01*
X75198822Y-67276047D01*
X75282142Y-67284066D01*
X75296180Y-68059542D01*
X75777938Y-68059542D01*
X75777938Y-67271353D01*
X75957312Y-67271353D01*
X75950258Y-66909041D01*
X75943203Y-66546729D01*
X75129590Y-66546729D01*
X75122546Y-66907379D01*
X75115501Y-67268029D01*
X74262019Y-67268029D01*
X74236663Y-67107678D01*
X74243792Y-66877640D01*
X74291623Y-66655108D01*
X74376950Y-66445024D01*
X74496567Y-66252328D01*
X74524606Y-66220630D01*
X75320281Y-66220630D01*
X75335775Y-66325991D01*
X75384434Y-66393831D01*
X75469519Y-66427345D01*
X75536397Y-66432314D01*
X75634573Y-66420682D01*
X75700014Y-66383088D01*
X75701662Y-66381463D01*
X75743789Y-66304367D01*
X75752513Y-66227755D01*
X75731679Y-66121127D01*
X75673112Y-66044715D01*
X75582715Y-66004635D01*
X75532835Y-66000082D01*
X75429117Y-66019867D01*
X75358646Y-66077605D01*
X75323760Y-66170870D01*
X75320281Y-66220630D01*
X74524606Y-66220630D01*
X74647268Y-66081963D01*
X74825846Y-65938871D01*
X75029096Y-65827994D01*
X75253810Y-65754273D01*
X75496783Y-65722651D01*
X75556717Y-65721868D01*
X75807240Y-65748736D01*
X75807240Y-65748736D01*
G37*
X75807240Y-65748736D02*
X76043029Y-65823880D01*
X76261835Y-65946284D01*
X76461412Y-66114929D01*
X76489443Y-66144037D01*
X76642356Y-66341016D01*
X76750485Y-66553630D01*
X76815283Y-66776341D01*
X76838199Y-67003614D01*
X76820685Y-67229909D01*
X76764191Y-67449689D01*
X76670167Y-67657416D01*
X76540065Y-67847553D01*
X76375334Y-68014562D01*
X76177426Y-68152906D01*
X75947790Y-68257047D01*
X75934765Y-68261505D01*
X75810597Y-68290422D01*
X75655867Y-68307675D01*
X75489653Y-68312630D01*
X75331032Y-68304655D01*
X75209109Y-68285567D01*
X75033577Y-68222620D01*
X74854895Y-68119832D01*
X74683858Y-67986265D01*
X74531260Y-67830977D01*
X74407892Y-67663032D01*
X74357338Y-67570501D01*
X74273443Y-67340278D01*
X74262019Y-67268029D01*
X75115501Y-67268029D01*
X75198822Y-67276047D01*
X75282142Y-67284066D01*
X75296180Y-68059542D01*
X75777938Y-68059542D01*
X75777938Y-67271353D01*
X75957312Y-67271353D01*
X75950258Y-66909041D01*
X75943203Y-66546729D01*
X75129590Y-66546729D01*
X75122546Y-66907379D01*
X75115501Y-67268029D01*
X74262019Y-67268029D01*
X74236663Y-67107678D01*
X74243792Y-66877640D01*
X74291623Y-66655108D01*
X74376950Y-66445024D01*
X74496567Y-66252328D01*
X74524606Y-66220630D01*
X75320281Y-66220630D01*
X75335775Y-66325991D01*
X75384434Y-66393831D01*
X75469519Y-66427345D01*
X75536397Y-66432314D01*
X75634573Y-66420682D01*
X75700014Y-66383088D01*
X75701662Y-66381463D01*
X75743789Y-66304367D01*
X75752513Y-66227755D01*
X75731679Y-66121127D01*
X75673112Y-66044715D01*
X75582715Y-66004635D01*
X75532835Y-66000082D01*
X75429117Y-66019867D01*
X75358646Y-66077605D01*
X75323760Y-66170870D01*
X75320281Y-66220630D01*
X74524606Y-66220630D01*
X74647268Y-66081963D01*
X74825846Y-65938871D01*
X75029096Y-65827994D01*
X75253810Y-65754273D01*
X75496783Y-65722651D01*
X75556717Y-65721868D01*
X75807240Y-65748736D01*
G36*
X78961241Y-65744865D02*
X79194659Y-65815196D01*
X79410970Y-65926812D01*
X79603728Y-66075129D01*
X79766484Y-66255563D01*
X79892791Y-66463531D01*
X79946647Y-66594496D01*
X80005244Y-66838626D01*
X80016020Y-67082249D01*
X79981738Y-67319699D01*
X79905167Y-67545309D01*
X79789071Y-67753412D01*
X79636217Y-67938343D01*
X79449372Y-68094436D01*
X79231300Y-68216024D01*
X79136804Y-68253426D01*
X79032850Y-68285155D01*
X78931306Y-68303172D01*
X78811605Y-68310356D01*
X78727288Y-68310705D01*
X78608933Y-68307408D01*
X78498656Y-68300317D01*
X78414123Y-68290717D01*
X78390506Y-68286236D01*
X78195515Y-68216492D01*
X78005167Y-68104465D01*
X77828464Y-67958531D01*
X77674406Y-67787072D01*
X77551996Y-67598465D01*
X77483161Y-67441615D01*
X77426129Y-67202957D01*
X77416234Y-66965832D01*
X77438846Y-66810886D01*
X77919262Y-66810886D01*
X77941264Y-66847451D01*
X77995964Y-66908227D01*
X78060637Y-66973430D01*
X78207600Y-67118859D01*
X78353029Y-66971897D01*
X78420502Y-66901607D01*
X78471339Y-66844636D01*
X78496966Y-66810731D01*
X78498459Y-66806602D01*
X78477107Y-66791693D01*
X78447608Y-66788270D01*
X78408984Y-66782562D01*
X78400748Y-66759264D01*
X78422801Y-66709112D01*
X78446342Y-66669122D01*
X78509341Y-66590804D01*
X78589000Y-66545443D01*
X78698719Y-66526488D01*
X78741132Y-66524945D01*
X78872474Y-66541001D01*
X78973595Y-66594474D01*
X79045650Y-66686953D01*
X79089792Y-66820029D01*
X79107175Y-66995290D01*
X79107552Y-67029812D01*
X79092061Y-67212350D01*
X79047177Y-67359984D01*
X78975280Y-67470133D01*
X78878753Y-67540216D01*
X78759977Y-67567653D01*
X78626372Y-67551245D01*
X78508547Y-67500010D01*
X78433323Y-67421373D01*
X78405497Y-67346835D01*
X78390401Y-67271353D01*
X77988981Y-67271353D01*
X78005562Y-67341273D01*
X78065922Y-67514854D01*
X78160722Y-67657654D01*
X78297709Y-67781166D01*
X78306212Y-67787334D01*
X78444509Y-67857118D01*
X78609948Y-67891668D01*
X78792294Y-67890231D01*
X78981315Y-67852054D01*
X79019464Y-67839792D01*
X79151270Y-67771988D01*
X79276899Y-67666720D01*
X79383624Y-67536952D01*
X79458715Y-67395646D01*
X79460715Y-67390382D01*
X79504570Y-67214599D01*
X79516818Y-67020199D01*
X79497455Y-66828267D01*
X79460901Y-66695165D01*
X79369673Y-66518367D01*
X79243548Y-66377059D01*
X79086529Y-66273977D01*
X78902617Y-66211859D01*
X78727054Y-66193297D01*
X78615269Y-66195408D01*
X78530572Y-66208045D01*
X78449498Y-66236265D01*
X78383813Y-66267260D01*
X78233782Y-66366892D01*
X78119180Y-66495377D01*
X78046329Y-66645248D01*
X78037586Y-66676090D01*
X78012116Y-66751086D01*
X77981370Y-66784391D01*
X77961506Y-66788270D01*
X77926996Y-66793002D01*
X77919262Y-66810886D01*
X77438846Y-66810886D01*
X77449885Y-66735251D01*
X77523486Y-66516228D01*
X77633445Y-66313774D01*
X77776168Y-66132901D01*
X77948062Y-65978623D01*
X78145533Y-65855951D01*
X78364987Y-65769898D01*
X78602831Y-65725477D01*
X78717164Y-65720402D01*
X78961241Y-65744865D01*
X78961241Y-65744865D01*
G37*
X78961241Y-65744865D02*
X79194659Y-65815196D01*
X79410970Y-65926812D01*
X79603728Y-66075129D01*
X79766484Y-66255563D01*
X79892791Y-66463531D01*
X79946647Y-66594496D01*
X80005244Y-66838626D01*
X80016020Y-67082249D01*
X79981738Y-67319699D01*
X79905167Y-67545309D01*
X79789071Y-67753412D01*
X79636217Y-67938343D01*
X79449372Y-68094436D01*
X79231300Y-68216024D01*
X79136804Y-68253426D01*
X79032850Y-68285155D01*
X78931306Y-68303172D01*
X78811605Y-68310356D01*
X78727288Y-68310705D01*
X78608933Y-68307408D01*
X78498656Y-68300317D01*
X78414123Y-68290717D01*
X78390506Y-68286236D01*
X78195515Y-68216492D01*
X78005167Y-68104465D01*
X77828464Y-67958531D01*
X77674406Y-67787072D01*
X77551996Y-67598465D01*
X77483161Y-67441615D01*
X77426129Y-67202957D01*
X77416234Y-66965832D01*
X77438846Y-66810886D01*
X77919262Y-66810886D01*
X77941264Y-66847451D01*
X77995964Y-66908227D01*
X78060637Y-66973430D01*
X78207600Y-67118859D01*
X78353029Y-66971897D01*
X78420502Y-66901607D01*
X78471339Y-66844636D01*
X78496966Y-66810731D01*
X78498459Y-66806602D01*
X78477107Y-66791693D01*
X78447608Y-66788270D01*
X78408984Y-66782562D01*
X78400748Y-66759264D01*
X78422801Y-66709112D01*
X78446342Y-66669122D01*
X78509341Y-66590804D01*
X78589000Y-66545443D01*
X78698719Y-66526488D01*
X78741132Y-66524945D01*
X78872474Y-66541001D01*
X78973595Y-66594474D01*
X79045650Y-66686953D01*
X79089792Y-66820029D01*
X79107175Y-66995290D01*
X79107552Y-67029812D01*
X79092061Y-67212350D01*
X79047177Y-67359984D01*
X78975280Y-67470133D01*
X78878753Y-67540216D01*
X78759977Y-67567653D01*
X78626372Y-67551245D01*
X78508547Y-67500010D01*
X78433323Y-67421373D01*
X78405497Y-67346835D01*
X78390401Y-67271353D01*
X77988981Y-67271353D01*
X78005562Y-67341273D01*
X78065922Y-67514854D01*
X78160722Y-67657654D01*
X78297709Y-67781166D01*
X78306212Y-67787334D01*
X78444509Y-67857118D01*
X78609948Y-67891668D01*
X78792294Y-67890231D01*
X78981315Y-67852054D01*
X79019464Y-67839792D01*
X79151270Y-67771988D01*
X79276899Y-67666720D01*
X79383624Y-67536952D01*
X79458715Y-67395646D01*
X79460715Y-67390382D01*
X79504570Y-67214599D01*
X79516818Y-67020199D01*
X79497455Y-66828267D01*
X79460901Y-66695165D01*
X79369673Y-66518367D01*
X79243548Y-66377059D01*
X79086529Y-66273977D01*
X78902617Y-66211859D01*
X78727054Y-66193297D01*
X78615269Y-66195408D01*
X78530572Y-66208045D01*
X78449498Y-66236265D01*
X78383813Y-66267260D01*
X78233782Y-66366892D01*
X78119180Y-66495377D01*
X78046329Y-66645248D01*
X78037586Y-66676090D01*
X78012116Y-66751086D01*
X77981370Y-66784391D01*
X77961506Y-66788270D01*
X77926996Y-66793002D01*
X77919262Y-66810886D01*
X77438846Y-66810886D01*
X77449885Y-66735251D01*
X77523486Y-66516228D01*
X77633445Y-66313774D01*
X77776168Y-66132901D01*
X77948062Y-65978623D01*
X78145533Y-65855951D01*
X78364987Y-65769898D01*
X78602831Y-65725477D01*
X78717164Y-65720402D01*
X78961241Y-65744865D01*
G36*
X62428356Y-61908088D02*
X62624472Y-61967968D01*
X62807494Y-62063353D01*
X62972014Y-62192324D01*
X63112624Y-62352960D01*
X63223914Y-62543343D01*
X63300477Y-62761553D01*
X63323458Y-62876620D01*
X63335937Y-63114665D01*
X63302034Y-63344650D01*
X63224970Y-63560257D01*
X63107964Y-63755164D01*
X62954238Y-63923053D01*
X62767010Y-64057604D01*
X62704963Y-64090439D01*
X62481587Y-64176864D01*
X62263368Y-64213951D01*
X62045741Y-64202276D01*
X61959219Y-64184426D01*
X61741314Y-64105507D01*
X61548546Y-63986552D01*
X61384366Y-63833522D01*
X61252226Y-63652377D01*
X61155577Y-63449076D01*
X61097869Y-63229579D01*
X61082554Y-62999846D01*
X61113083Y-62765836D01*
X61120456Y-62735957D01*
X61186763Y-62551369D01*
X61288233Y-62382353D01*
X61432129Y-62216946D01*
X61440681Y-62208443D01*
X61621133Y-62062007D01*
X61815535Y-61960672D01*
X62018479Y-61902521D01*
X62224555Y-61885633D01*
X62428356Y-61908088D01*
X62428356Y-61908088D01*
G37*
X62428356Y-61908088D02*
X62624472Y-61967968D01*
X62807494Y-62063353D01*
X62972014Y-62192324D01*
X63112624Y-62352960D01*
X63223914Y-62543343D01*
X63300477Y-62761553D01*
X63323458Y-62876620D01*
X63335937Y-63114665D01*
X63302034Y-63344650D01*
X63224970Y-63560257D01*
X63107964Y-63755164D01*
X62954238Y-63923053D01*
X62767010Y-64057604D01*
X62704963Y-64090439D01*
X62481587Y-64176864D01*
X62263368Y-64213951D01*
X62045741Y-64202276D01*
X61959219Y-64184426D01*
X61741314Y-64105507D01*
X61548546Y-63986552D01*
X61384366Y-63833522D01*
X61252226Y-63652377D01*
X61155577Y-63449076D01*
X61097869Y-63229579D01*
X61082554Y-62999846D01*
X61113083Y-62765836D01*
X61120456Y-62735957D01*
X61186763Y-62551369D01*
X61288233Y-62382353D01*
X61432129Y-62216946D01*
X61440681Y-62208443D01*
X61621133Y-62062007D01*
X61815535Y-61960672D01*
X62018479Y-61902521D01*
X62224555Y-61885633D01*
X62428356Y-61908088D01*
G36*
X67908594Y-61892812D02*
X68120175Y-61946233D01*
X68309615Y-62038687D01*
X68483709Y-62178107D01*
X68622900Y-62348235D01*
X68726454Y-62542119D01*
X68793639Y-62752808D01*
X68823723Y-62973353D01*
X68815972Y-63196802D01*
X68769656Y-63416206D01*
X68684040Y-63624612D01*
X68558393Y-63815070D01*
X68503419Y-63877692D01*
X68330668Y-64024935D01*
X68133663Y-64127958D01*
X67914415Y-64186084D01*
X67674936Y-64198635D01*
X67574071Y-64190758D01*
X67367913Y-64142259D01*
X67172338Y-64046327D01*
X66993794Y-63906211D01*
X66977343Y-63890112D01*
X66839990Y-63730114D01*
X66742225Y-63559841D01*
X66680509Y-63369991D01*
X66651306Y-63151260D01*
X66647794Y-63023520D01*
X66670647Y-62773168D01*
X66737196Y-62545778D01*
X66845667Y-62344312D01*
X66994284Y-62171733D01*
X67181276Y-62031001D01*
X67271809Y-61981620D01*
X67472646Y-61909859D01*
X67688829Y-61880472D01*
X67908594Y-61892812D01*
X67908594Y-61892812D01*
G37*
X67908594Y-61892812D02*
X68120175Y-61946233D01*
X68309615Y-62038687D01*
X68483709Y-62178107D01*
X68622900Y-62348235D01*
X68726454Y-62542119D01*
X68793639Y-62752808D01*
X68823723Y-62973353D01*
X68815972Y-63196802D01*
X68769656Y-63416206D01*
X68684040Y-63624612D01*
X68558393Y-63815070D01*
X68503419Y-63877692D01*
X68330668Y-64024935D01*
X68133663Y-64127958D01*
X67914415Y-64186084D01*
X67674936Y-64198635D01*
X67574071Y-64190758D01*
X67367913Y-64142259D01*
X67172338Y-64046327D01*
X66993794Y-63906211D01*
X66977343Y-63890112D01*
X66839990Y-63730114D01*
X66742225Y-63559841D01*
X66680509Y-63369991D01*
X66651306Y-63151260D01*
X66647794Y-63023520D01*
X66670647Y-62773168D01*
X66737196Y-62545778D01*
X66845667Y-62344312D01*
X66994284Y-62171733D01*
X67181276Y-62031001D01*
X67271809Y-61981620D01*
X67472646Y-61909859D01*
X67688829Y-61880472D01*
X67908594Y-61892812D01*
G36*
X74801107Y-61895584D02*
X74894097Y-61900780D01*
X74965535Y-61912451D01*
X75030055Y-61932944D01*
X75098602Y-61962872D01*
X75247840Y-62052451D01*
X75394155Y-62175151D01*
X75522592Y-62316398D01*
X75618200Y-62461618D01*
X75625840Y-62476736D01*
X75709153Y-62700459D01*
X75748743Y-62934471D01*
X75745782Y-63170553D01*
X75701445Y-63400490D01*
X75616904Y-63616066D01*
X75493333Y-63809065D01*
X75424397Y-63887293D01*
X75249616Y-64031652D01*
X75050598Y-64131991D01*
X74830058Y-64187409D01*
X74590714Y-64197006D01*
X74510636Y-64190257D01*
X74296704Y-64141675D01*
X74101841Y-64049655D01*
X73930442Y-63919451D01*
X73786904Y-63756311D01*
X73675620Y-63565488D01*
X73600985Y-63352232D01*
X73567395Y-63121795D01*
X73565926Y-63061574D01*
X73582919Y-62820446D01*
X73636348Y-62609101D01*
X73729889Y-62418428D01*
X73867216Y-62239319D01*
X73920026Y-62183943D01*
X74044365Y-62070009D01*
X74162489Y-61989146D01*
X74287333Y-61936374D01*
X74431832Y-61906716D01*
X74608923Y-61895190D01*
X74671932Y-61894521D01*
X74801107Y-61895584D01*
X74801107Y-61895584D01*
G37*
X74801107Y-61895584D02*
X74894097Y-61900780D01*
X74965535Y-61912451D01*
X75030055Y-61932944D01*
X75098602Y-61962872D01*
X75247840Y-62052451D01*
X75394155Y-62175151D01*
X75522592Y-62316398D01*
X75618200Y-62461618D01*
X75625840Y-62476736D01*
X75709153Y-62700459D01*
X75748743Y-62934471D01*
X75745782Y-63170553D01*
X75701445Y-63400490D01*
X75616904Y-63616066D01*
X75493333Y-63809065D01*
X75424397Y-63887293D01*
X75249616Y-64031652D01*
X75050598Y-64131991D01*
X74830058Y-64187409D01*
X74590714Y-64197006D01*
X74510636Y-64190257D01*
X74296704Y-64141675D01*
X74101841Y-64049655D01*
X73930442Y-63919451D01*
X73786904Y-63756311D01*
X73675620Y-63565488D01*
X73600985Y-63352232D01*
X73567395Y-63121795D01*
X73565926Y-63061574D01*
X73582919Y-62820446D01*
X73636348Y-62609101D01*
X73729889Y-62418428D01*
X73867216Y-62239319D01*
X73920026Y-62183943D01*
X74044365Y-62070009D01*
X74162489Y-61989146D01*
X74287333Y-61936374D01*
X74431832Y-61906716D01*
X74608923Y-61895190D01*
X74671932Y-61894521D01*
X74801107Y-61895584D01*
G36*
X58344537Y-61912399D02*
X58551560Y-61982477D01*
X58741241Y-62091780D01*
X58908287Y-62236443D01*
X59047409Y-62412595D01*
X59153314Y-62616371D01*
X59220712Y-62843902D01*
X59226409Y-62875261D01*
X59242964Y-63113919D01*
X59210188Y-63340375D01*
X59128209Y-63554251D01*
X58997152Y-63755168D01*
X58893287Y-63871076D01*
X58704577Y-64030721D01*
X58505546Y-64140667D01*
X58295346Y-64201175D01*
X58073132Y-64212508D01*
X57878439Y-64184637D01*
X57651874Y-64109263D01*
X57452792Y-63993523D01*
X57284646Y-63841864D01*
X57150890Y-63658735D01*
X57054978Y-63448583D01*
X57000363Y-63215858D01*
X56988549Y-63038433D01*
X57011542Y-62792517D01*
X57078326Y-62567338D01*
X57185604Y-62366995D01*
X57330082Y-62195586D01*
X57508464Y-62057208D01*
X57717454Y-61955961D01*
X57899626Y-61905394D01*
X58125461Y-61885416D01*
X58344537Y-61912399D01*
X58344537Y-61912399D01*
G37*
X58344537Y-61912399D02*
X58551560Y-61982477D01*
X58741241Y-62091780D01*
X58908287Y-62236443D01*
X59047409Y-62412595D01*
X59153314Y-62616371D01*
X59220712Y-62843902D01*
X59226409Y-62875261D01*
X59242964Y-63113919D01*
X59210188Y-63340375D01*
X59128209Y-63554251D01*
X58997152Y-63755168D01*
X58893287Y-63871076D01*
X58704577Y-64030721D01*
X58505546Y-64140667D01*
X58295346Y-64201175D01*
X58073132Y-64212508D01*
X57878439Y-64184637D01*
X57651874Y-64109263D01*
X57452792Y-63993523D01*
X57284646Y-63841864D01*
X57150890Y-63658735D01*
X57054978Y-63448583D01*
X57000363Y-63215858D01*
X56988549Y-63038433D01*
X57011542Y-62792517D01*
X57078326Y-62567338D01*
X57185604Y-62366995D01*
X57330082Y-62195586D01*
X57508464Y-62057208D01*
X57717454Y-61955961D01*
X57899626Y-61905394D01*
X58125461Y-61885416D01*
X58344537Y-61912399D01*
G36*
X70991602Y-62676210D02*
X71192051Y-62686712D01*
X71350680Y-62703236D01*
X71476377Y-62728019D01*
X71578031Y-62763296D01*
X71664530Y-62811304D01*
X71730927Y-62862201D01*
X71834798Y-62968926D01*
X71903771Y-63086716D01*
X71943661Y-63228505D01*
X71958577Y-63368551D01*
X71959561Y-63541046D01*
X71939110Y-63677352D01*
X71893935Y-63788778D01*
X71820747Y-63886636D01*
X71802445Y-63905590D01*
X71729677Y-63969519D01*
X71650089Y-64018580D01*
X71555511Y-64054920D01*
X71437778Y-64080686D01*
X71288721Y-64098025D01*
X71100174Y-64109084D01*
X71017027Y-64112069D01*
X70616577Y-64124676D01*
X70616577Y-62662442D01*
X70991602Y-62676210D01*
X70991602Y-62676210D01*
G37*
X70991602Y-62676210D02*
X71192051Y-62686712D01*
X71350680Y-62703236D01*
X71476377Y-62728019D01*
X71578031Y-62763296D01*
X71664530Y-62811304D01*
X71730927Y-62862201D01*
X71834798Y-62968926D01*
X71903771Y-63086716D01*
X71943661Y-63228505D01*
X71958577Y-63368551D01*
X71959561Y-63541046D01*
X71939110Y-63677352D01*
X71893935Y-63788778D01*
X71820747Y-63886636D01*
X71802445Y-63905590D01*
X71729677Y-63969519D01*
X71650089Y-64018580D01*
X71555511Y-64054920D01*
X71437778Y-64080686D01*
X71288721Y-64098025D01*
X71100174Y-64109084D01*
X71017027Y-64112069D01*
X70616577Y-64124676D01*
X70616577Y-62662442D01*
X70991602Y-62676210D01*
G36*
X71128492Y-60926165D02*
X71322868Y-60960744D01*
X71476381Y-61020343D01*
X71591571Y-61106573D01*
X71670977Y-61221043D01*
X71717139Y-61365364D01*
X71728265Y-61446066D01*
X71724285Y-61628085D01*
X71679870Y-61789584D01*
X71598087Y-61924702D01*
X71482000Y-62027580D01*
X71402286Y-62069286D01*
X71321685Y-62093588D01*
X71205340Y-62116953D01*
X71068342Y-62137261D01*
X70925784Y-62152390D01*
X70792759Y-62160219D01*
X70750727Y-62160843D01*
X70616577Y-62160843D01*
X70616577Y-60914997D01*
X70890716Y-60914997D01*
X71128492Y-60926165D01*
X71128492Y-60926165D01*
G37*
X71128492Y-60926165D02*
X71322868Y-60960744D01*
X71476381Y-61020343D01*
X71591571Y-61106573D01*
X71670977Y-61221043D01*
X71717139Y-61365364D01*
X71728265Y-61446066D01*
X71724285Y-61628085D01*
X71679870Y-61789584D01*
X71598087Y-61924702D01*
X71482000Y-62027580D01*
X71402286Y-62069286D01*
X71321685Y-62093588D01*
X71205340Y-62116953D01*
X71068342Y-62137261D01*
X70925784Y-62152390D01*
X70792759Y-62160219D01*
X70750727Y-62160843D01*
X70616577Y-62160843D01*
X70616577Y-60914997D01*
X70890716Y-60914997D01*
X71128492Y-60926165D01*
D14*
X95885000Y-70104000D02*
X99822000Y-70104000D01*
X99822000Y-70104000D02*
X99822000Y-68072000D01*
X95885000Y-68072000D02*
X99822000Y-68072000D01*
X95885000Y-70104000D02*
X95885000Y-68072000D01*
X91567000Y-73228200D02*
X95885000Y-73228200D01*
X95885000Y-73228200D02*
X95885000Y-64947800D01*
X91567000Y-64947800D02*
X95885000Y-64947800D01*
X91567000Y-73228200D02*
X91567000Y-64947800D01*
D12*
X95885000Y-64922400D02*
X95885000Y-73253600D01*
X91567000Y-73253600D02*
X91567000Y-64922400D01*
X91567000Y-73286620D02*
X92227400Y-73286620D01*
X95885000Y-73286620D02*
X95224600Y-73286620D01*
X91567000Y-64988440D02*
X92227400Y-64988440D01*
X95885000Y-64988440D02*
X95224600Y-64988440D01*
D11*
X81026095Y-108922381D02*
X81026095Y-109731905D01*
X81073714Y-109827143D01*
X81121333Y-109874762D01*
X81216571Y-109922381D01*
X81407048Y-109922381D01*
X81502286Y-109874762D01*
X81549905Y-109827143D01*
X81597524Y-109731905D01*
X81597524Y-108922381D01*
X82026095Y-109017619D02*
X82073714Y-108970000D01*
X82168952Y-108922381D01*
X82407048Y-108922381D01*
X82502286Y-108970000D01*
X82549905Y-109017619D01*
X82597524Y-109112857D01*
X82597524Y-109208095D01*
X82549905Y-109350952D01*
X81978476Y-109922381D01*
X82597524Y-109922381D01*
X49022095Y-109176381D02*
X49022095Y-109985905D01*
X49069714Y-110081143D01*
X49117333Y-110128762D01*
X49212571Y-110176381D01*
X49403048Y-110176381D01*
X49498286Y-110128762D01*
X49545905Y-110081143D01*
X49593524Y-109985905D01*
X49593524Y-109176381D01*
X50593524Y-110176381D02*
X50022095Y-110176381D01*
X50307809Y-110176381D02*
X50307809Y-109176381D01*
X50212571Y-109319238D01*
X50117333Y-109414476D01*
X50022095Y-109462095D01*
D17*
X44725167Y-64981667D02*
X44725167Y-65616667D01*
X44682833Y-65743667D01*
X44598167Y-65828333D01*
X44471167Y-65870667D01*
X44386500Y-65870667D01*
X45614166Y-65870667D02*
X45106166Y-65870667D01*
X45360166Y-65870667D02*
X45360166Y-64981667D01*
X45275500Y-65108667D01*
X45190833Y-65193333D01*
X45106166Y-65235667D01*
X68707000Y-97705333D02*
X68749333Y-97747667D01*
X68791667Y-97874667D01*
X68791667Y-97959333D01*
X68749333Y-98086333D01*
X68664667Y-98171000D01*
X68580000Y-98213333D01*
X68410667Y-98255667D01*
X68283667Y-98255667D01*
X68114333Y-98213333D01*
X68029667Y-98171000D01*
X67945000Y-98086333D01*
X67902667Y-97959333D01*
X67902667Y-97874667D01*
X67945000Y-97747667D01*
X67987333Y-97705333D01*
X68791667Y-97324333D02*
X67902667Y-97324333D01*
X68791667Y-96816333D01*
X67902667Y-96816333D01*
X68791667Y-95927334D02*
X68791667Y-96435334D01*
X68791667Y-96181334D02*
X67902667Y-96181334D01*
X68029667Y-96266000D01*
X68114333Y-96350667D01*
X68156667Y-96435334D01*
X87651167Y-64981667D02*
X87651167Y-65616667D01*
X87608833Y-65743667D01*
X87524167Y-65828333D01*
X87397167Y-65870667D01*
X87312500Y-65870667D01*
X88032166Y-65066333D02*
X88074500Y-65024000D01*
X88159166Y-64981667D01*
X88370833Y-64981667D01*
X88455500Y-65024000D01*
X88497833Y-65066333D01*
X88540166Y-65151000D01*
X88540166Y-65235667D01*
X88497833Y-65362667D01*
X87989833Y-65870667D01*
X88540166Y-65870667D01*
X42248667Y-86952666D02*
X41825333Y-87249000D01*
X42248667Y-87460666D02*
X41359667Y-87460666D01*
X41359667Y-87122000D01*
X41402000Y-87037333D01*
X41444333Y-86995000D01*
X41529000Y-86952666D01*
X41656000Y-86952666D01*
X41740667Y-86995000D01*
X41783000Y-87037333D01*
X41825333Y-87122000D01*
X41825333Y-87460666D01*
X42248667Y-86106000D02*
X42248667Y-86614000D01*
X42248667Y-86360000D02*
X41359667Y-86360000D01*
X41486667Y-86444666D01*
X41571333Y-86529333D01*
X41613667Y-86614000D01*
X46566667Y-87397167D02*
X46566667Y-87905167D01*
X46566667Y-87651167D02*
X45677667Y-87651167D01*
X45804667Y-87735833D01*
X45889333Y-87820500D01*
X45931667Y-87905167D01*
X45677667Y-86846833D02*
X45677667Y-86762166D01*
X45720000Y-86677500D01*
X45762333Y-86635166D01*
X45847000Y-86592833D01*
X46016333Y-86550500D01*
X46228000Y-86550500D01*
X46397333Y-86592833D01*
X46482000Y-86635166D01*
X46524333Y-86677500D01*
X46566667Y-86762166D01*
X46566667Y-86846833D01*
X46524333Y-86931500D01*
X46482000Y-86973833D01*
X46397333Y-87016166D01*
X46228000Y-87058500D01*
X46016333Y-87058500D01*
X45847000Y-87016166D01*
X45762333Y-86973833D01*
X45720000Y-86931500D01*
X45677667Y-86846833D01*
X45677667Y-86000166D02*
X45677667Y-85915499D01*
X45720000Y-85830833D01*
X45762333Y-85788499D01*
X45847000Y-85746166D01*
X46016333Y-85703833D01*
X46228000Y-85703833D01*
X46397333Y-85746166D01*
X46482000Y-85788499D01*
X46524333Y-85830833D01*
X46566667Y-85915499D01*
X46566667Y-86000166D01*
X46524333Y-86084833D01*
X46482000Y-86127166D01*
X46397333Y-86169499D01*
X46228000Y-86211833D01*
X46016333Y-86211833D01*
X45847000Y-86169499D01*
X45762333Y-86127166D01*
X45720000Y-86084833D01*
X45677667Y-86000166D01*
X46566667Y-85322832D02*
X45677667Y-85322832D01*
X46566667Y-84814832D02*
X46058667Y-85195832D01*
X45677667Y-84814832D02*
X46185667Y-85322832D01*
X56345667Y-79459666D02*
X55922333Y-79756000D01*
X56345667Y-79967666D02*
X55456667Y-79967666D01*
X55456667Y-79629000D01*
X55499000Y-79544333D01*
X55541333Y-79502000D01*
X55626000Y-79459666D01*
X55753000Y-79459666D01*
X55837667Y-79502000D01*
X55880000Y-79544333D01*
X55922333Y-79629000D01*
X55922333Y-79967666D01*
X55541333Y-79121000D02*
X55499000Y-79078666D01*
X55456667Y-78994000D01*
X55456667Y-78782333D01*
X55499000Y-78697666D01*
X55541333Y-78655333D01*
X55626000Y-78613000D01*
X55710667Y-78613000D01*
X55837667Y-78655333D01*
X56345667Y-79163333D01*
X56345667Y-78613000D01*
X52027667Y-80793167D02*
X52027667Y-81301167D01*
X52027667Y-81047167D02*
X51138667Y-81047167D01*
X51265667Y-81131833D01*
X51350333Y-81216500D01*
X51392667Y-81301167D01*
X51138667Y-80242833D02*
X51138667Y-80158166D01*
X51181000Y-80073500D01*
X51223333Y-80031166D01*
X51308000Y-79988833D01*
X51477333Y-79946500D01*
X51689000Y-79946500D01*
X51858333Y-79988833D01*
X51943000Y-80031166D01*
X51985333Y-80073500D01*
X52027667Y-80158166D01*
X52027667Y-80242833D01*
X51985333Y-80327500D01*
X51943000Y-80369833D01*
X51858333Y-80412166D01*
X51689000Y-80454500D01*
X51477333Y-80454500D01*
X51308000Y-80412166D01*
X51223333Y-80369833D01*
X51181000Y-80327500D01*
X51138667Y-80242833D01*
X51138667Y-79396166D02*
X51138667Y-79311499D01*
X51181000Y-79226833D01*
X51223333Y-79184499D01*
X51308000Y-79142166D01*
X51477333Y-79099833D01*
X51689000Y-79099833D01*
X51858333Y-79142166D01*
X51943000Y-79184499D01*
X51985333Y-79226833D01*
X52027667Y-79311499D01*
X52027667Y-79396166D01*
X51985333Y-79480833D01*
X51943000Y-79523166D01*
X51858333Y-79565499D01*
X51689000Y-79607833D01*
X51477333Y-79607833D01*
X51308000Y-79565499D01*
X51223333Y-79523166D01*
X51181000Y-79480833D01*
X51138667Y-79396166D01*
X52027667Y-78718832D02*
X51138667Y-78718832D01*
X52027667Y-78210832D02*
X51519667Y-78591832D01*
X51138667Y-78210832D02*
X51646667Y-78718832D01*
X52112334Y-90381667D02*
X51816000Y-89958333D01*
X51604334Y-90381667D02*
X51604334Y-89492667D01*
X51943000Y-89492667D01*
X52027667Y-89535000D01*
X52070000Y-89577333D01*
X52112334Y-89662000D01*
X52112334Y-89789000D01*
X52070000Y-89873667D01*
X52027667Y-89916000D01*
X51943000Y-89958333D01*
X51604334Y-89958333D01*
X52408667Y-89492667D02*
X52959000Y-89492667D01*
X52662667Y-89831333D01*
X52789667Y-89831333D01*
X52874334Y-89873667D01*
X52916667Y-89916000D01*
X52959000Y-90000667D01*
X52959000Y-90212333D01*
X52916667Y-90297000D01*
X52874334Y-90339333D01*
X52789667Y-90381667D01*
X52535667Y-90381667D01*
X52451000Y-90339333D01*
X52408667Y-90297000D01*
X50778833Y-86063667D02*
X50270833Y-86063667D01*
X50524833Y-86063667D02*
X50524833Y-85174667D01*
X50440167Y-85301667D01*
X50355500Y-85386333D01*
X50270833Y-85428667D01*
X51329167Y-85174667D02*
X51413834Y-85174667D01*
X51498500Y-85217000D01*
X51540834Y-85259333D01*
X51583167Y-85344000D01*
X51625500Y-85513333D01*
X51625500Y-85725000D01*
X51583167Y-85894333D01*
X51540834Y-85979000D01*
X51498500Y-86021333D01*
X51413834Y-86063667D01*
X51329167Y-86063667D01*
X51244500Y-86021333D01*
X51202167Y-85979000D01*
X51159834Y-85894333D01*
X51117500Y-85725000D01*
X51117500Y-85513333D01*
X51159834Y-85344000D01*
X51202167Y-85259333D01*
X51244500Y-85217000D01*
X51329167Y-85174667D01*
X52175834Y-85174667D02*
X52260501Y-85174667D01*
X52345167Y-85217000D01*
X52387501Y-85259333D01*
X52429834Y-85344000D01*
X52472167Y-85513333D01*
X52472167Y-85725000D01*
X52429834Y-85894333D01*
X52387501Y-85979000D01*
X52345167Y-86021333D01*
X52260501Y-86063667D01*
X52175834Y-86063667D01*
X52091167Y-86021333D01*
X52048834Y-85979000D01*
X52006501Y-85894333D01*
X51964167Y-85725000D01*
X51964167Y-85513333D01*
X52006501Y-85344000D01*
X52048834Y-85259333D01*
X52091167Y-85217000D01*
X52175834Y-85174667D01*
X52853168Y-86063667D02*
X52853168Y-85174667D01*
X53361168Y-86063667D02*
X52980168Y-85555667D01*
X53361168Y-85174667D02*
X52853168Y-85682667D01*
X92223166Y-63923333D02*
X92350166Y-63965667D01*
X92561833Y-63965667D01*
X92646500Y-63923333D01*
X92688833Y-63881000D01*
X92731166Y-63796333D01*
X92731166Y-63711667D01*
X92688833Y-63627000D01*
X92646500Y-63584667D01*
X92561833Y-63542333D01*
X92392500Y-63500000D01*
X92307833Y-63457667D01*
X92265500Y-63415333D01*
X92223166Y-63330667D01*
X92223166Y-63246000D01*
X92265500Y-63161333D01*
X92307833Y-63119000D01*
X92392500Y-63076667D01*
X92604166Y-63076667D01*
X92731166Y-63119000D01*
X93027500Y-63076667D02*
X93239167Y-63965667D01*
X93408500Y-63330667D01*
X93577833Y-63965667D01*
X93789500Y-63076667D01*
X94593833Y-63965667D02*
X94085833Y-63965667D01*
X94339833Y-63965667D02*
X94339833Y-63076667D01*
X94255167Y-63203667D01*
X94170500Y-63288333D01*
X94085833Y-63330667D01*
M02*
