  0
SECTION
  2
HEADER
  9
$ACADVER
  1
AC1014
  9
$HANDSEED
  5
FFFF
  9
$MEASUREMENT
 70
     1
  0
ENDSEC
  0
SECTION
  2
TABLES
  0
TABLE
  2
VPORT
  5
8
330
0
100
AcDbSymbolTable
 70
     4
  0
VPORT
  5
2E
330
8
100
AcDbSymbolTableRecord
100
AcDbViewportTableRecord
  2
*ACTIVE
 70
     0
 10
0.0
 20
0.0
 11
1.0
 21
1.0
 12
210.0
 22
148.5
 13
0.0
 23
0.0
 14
10.0
 24
10.0
 15
10.0
 25
10.0
 16
0.0
 26
0.0
 36
1.0
 17
0.0
 27
0.0
 37
0.0
 40
341.0
 41
1.24
 42
50.0
 43
0.0
 44
0.0
 50
0.0
 51
0.0
 71
     0
 72
   100
 73
     1
 74
     3
 75
     0
 76
     0
 77
     0
 78
     0
  0
ENDTAB
  0
TABLE
  2
LTYPE
  5
5
330
0
100
AcDbSymbolTable
 70
     1
  0
LTYPE
  5
14
330
5
100
AcDbSymbolTableRecord
100
AcDbLinetypeTableRecord
  2
BYBLOCK
 70
     0
  3

 72
    65
 73
     0
 40
0.0
  0
LTYPE
  5
15
330
5
100
AcDbSymbolTableRecord
100
AcDbLinetypeTableRecord
  2
BYLAYER
 70
     0
  3

 72
    65
 73
     0
 40
0.0
  0
LTYPE
  5
16
330
5
100
AcDbSymbolTableRecord
100
AcDbLinetypeTableRecord
  2
CONTINUOUS
 70
     0
  3
Solid line
 72
    65
 73
     0
 40
0.0
  0
ENDTAB
  0
TABLE
  2
LAYER
  5
2
100
AcDbSymbolTable
 70
2
  0
LAYER
  5
50
100
AcDbSymbolTableRecord
100
AcDbLayerTableRecord
  2
0
 70
0
  6
CONTINUOUS
  0
LAYER
  5
51
100
AcDbSymbolTableRecord
100
AcDbLayerTableRecord
  2
Calque_1
 70
0
  6
CONTINUOUS
  0
ENDTAB
  0
TABLE
  2
STYLE
  5
3
330
0
100
AcDbSymbolTable
 70
     1
  0
STYLE
  5
11
330
3
100
AcDbSymbolTableRecord
100
AcDbTextStyleTableRecord
  2
STANDARD
 70
     0
 40
0.0
 41
1.0
 50
0.0
 71
     0
 42
2.5
  3
txt
  4

  0
ENDTAB
  0
TABLE
  2
VIEW
  5
6
330
0
100
AcDbSymbolTable
 70
     0
  0
ENDTAB
  0
TABLE
  2
UCS
  5
7
330
0
100
AcDbSymbolTable
 70
     0
  0
ENDTAB
  0
TABLE
  2
APPID
  5
9
330
0
100
AcDbSymbolTable
 70
     2
  0
APPID
  5
12
330
9
100
AcDbSymbolTableRecord
100
AcDbRegAppTableRecord
  2
ACAD
 70
     0
  0
ENDTAB
  0
TABLE
  2
DIMSTYLE
  5
A
330
0
100
AcDbSymbolTable
 70
     1
  0
DIMSTYLE
105
27
330
A
100
AcDbSymbolTableRecord
100
AcDbDimStyleTableRecord
  2
ISO-25
 70
     0
  3

  4

  5

  6

  7

 40
1.0
 41
2.5
 42
0.625
 43
3.75
 44
1.25
 45
0.0
 46
0.0
 47
0.0
 48
0.0
140
2.5
141
2.5
142
0.0
143
0.03937007874016
144
1.0
145
0.0
146
1.0
147
0.625
 71
     0
 72
     0
 73
     0
 74
     0
 75
     0
 76
     0
 77
     1
 78
     8
170
     0
171
     3
172
     1
173
     0
174
     0
175
     0
176
     0
177
     0
178
     0
270
     2
271
     2
272
     2
273
     2
274
     3
340
11
275
     0
280
     0
281
     0
282
     0
283
     0
284
     8
285
     0
286
     0
287
     3
288
     0
  0
ENDTAB
  0
TABLE
  2
BLOCK_RECORD
  5
1
330
0
100
AcDbSymbolTable
 70
     1
  0
BLOCK_RECORD
  5
1F
330
1
100
AcDbSymbolTableRecord
100
AcDbBlockTableRecord
  2
*MODEL_SPACE
  0
BLOCK_RECORD
  5
1B
330
1
100
AcDbSymbolTableRecord
100
AcDbBlockTableRecord
  2
*PAPER_SPACE
  0
ENDTAB
  0
ENDSEC
  0
SECTION
  2
BLOCKS
  0
BLOCK
  5
20
330
1F
100
AcDbEntity
  8
0
100
AcDbBlockBegin
  2
*MODEL_SPACE
 70
     0
 10
0.0
 20
0.0
 30
0.0
  3
*MODEL_SPACE
  1

  0
ENDBLK
  5
21
330
1F
100
AcDbEntity
  8
0
100
AcDbBlockEnd
  0
BLOCK
  5
1C
330
1B
100
AcDbEntity
 67
     1
  8
0
100
AcDbBlockBegin
  2
*PAPER_SPACE
  1

  0
ENDBLK
  5
1D
330
1B
100
AcDbEntity
 67
     1
  8
0
100
AcDbBlockEnd
  0
ENDSEC
  0
SECTION
  2
ENTITIES
  0
SPLINE
  5
100
100
AcDbEntity
  8
Calque_1
 62
7
100
AcDbSpline
 70
8
 71
3
 72
8
 73
4
 74
0
 40
0
 40
0
 40
0
 40
0
 40
1
 40
1
 40
1
 40
1
 10
60.132288
 20
0.132289
 30
0.0
 10
61.458374
 20
0.132288
 30
0.0
 10
62.730146
 20
0.659075
 30
0.0
 10
63.667828
 20
1.596760
 30
0.0
  0
SPLINE
  5
101
100
AcDbEntity
  8
Calque_1
 62
7
100
AcDbSpline
 70
8
 71
3
 72
8
 73
4
 74
0
 40
0
 40
0
 40
0
 40
0
 40
1
 40
1
 40
1
 40
1
 10
63.667828
 20
1.596760
 30
0.0
 10
64.605511
 20
2.534446
 30
0.0
 10
65.132293
 20
3.806220
 30
0.0
 10
65.132289
 20
5.132305
 30
0.0
  0
SPLINE
  5
102
100
AcDbEntity
  8
Calque_1
 62
7
100
AcDbSpline
 70
8
 71
3
 72
8
 73
4
 74
0
 40
0
 40
0
 40
0
 40
0
 40
1
 40
1
 40
1
 40
1
 10
65.132289
 20
5.132305
 30
0.0
 10
65.132289
 20
5.132305
 30
0.0
 10
65.132289
 20
44.132293
 30
0.0
 10
65.132289
 20
44.132293
 30
0.0
  0
SPLINE
  5
103
100
AcDbEntity
  8
Calque_1
 62
7
100
AcDbSpline
 70
8
 71
3
 72
8
 73
4
 74
0
 40
0
 40
0
 40
0
 40
0
 40
1
 40
1
 40
1
 40
1
 10
65.132289
 20
44.132293
 30
0.0
 10
65.132288
 20
46.893716
 30
0.0
 10
62.893711
 20
49.132291
 30
0.0
 10
60.132288
 20
49.132291
 30
0.0
  0
LWPOLYLINE
  5
104
100
AcDbEntity
  8
Calque_1
 62
7
100
AcDbPolyline
 90
2
 70
0
 10
5.132290
 20
0.132289
 30
0.0
 10
60.132288
 20
0.132289
 30
0.0
  0
SPLINE
  5
105
100
AcDbEntity
  8
Calque_1
 62
7
100
AcDbSpline
 70
8
 71
3
 72
8
 73
4
 74
0
 40
0
 40
0
 40
0
 40
0
 40
1
 40
1
 40
1
 40
1
 10
5.132290
 20
49.132291
 30
0.0
 10
2.370867
 20
49.132291
 30
0.0
 10
0.132291
 20
46.893716
 30
0.0
 10
0.132290
 20
44.132293
 30
0.0
  0
SPLINE
  5
106
100
AcDbEntity
  8
Calque_1
 62
7
100
AcDbSpline
 70
8
 71
3
 72
8
 73
4
 74
0
 40
0
 40
0
 40
0
 40
0
 40
1
 40
1
 40
1
 40
1
 10
0.132290
 20
44.132293
 30
0.0
 10
0.132290
 20
44.132293
 30
0.0
 10
0.132290
 20
5.132305
 30
0.0
 10
0.132290
 20
5.132305
 30
0.0
  0
SPLINE
  5
107
100
AcDbEntity
  8
Calque_1
 62
7
100
AcDbSpline
 70
8
 71
3
 72
8
 73
4
 74
0
 40
0
 40
0
 40
0
 40
0
 40
1
 40
1
 40
1
 40
1
 10
0.132290
 20
5.132305
 30
0.0
 10
0.132286
 20
3.806220
 30
0.0
 10
0.659068
 20
2.534446
 30
0.0
 10
1.596750
 20
1.596760
 30
0.0
  0
SPLINE
  5
108
100
AcDbEntity
  8
Calque_1
 62
7
100
AcDbSpline
 70
8
 71
3
 72
8
 73
4
 74
0
 40
0
 40
0
 40
0
 40
0
 40
1
 40
1
 40
1
 40
1
 10
1.596750
 20
1.596760
 30
0.0
 10
2.534433
 20
0.659075
 30
0.0
 10
3.806205
 20
0.132289
 30
0.0
 10
5.132290
 20
0.132289
 30
0.0
  0
LWPOLYLINE
  5
109
100
AcDbEntity
  8
Calque_1
 62
7
100
AcDbPolyline
 90
2
 70
0
 10
60.132288
 20
49.132291
 30
0.0
 10
5.132290
 20
49.132291
 30
0.0
  0
SPLINE
  5
10a
100
AcDbEntity
  8
Calque_1
 62
7
100
AcDbSpline
 70
8
 71
3
 72
8
 73
4
 74
0
 40
0
 40
0
 40
0
 40
0
 40
1
 40
1
 40
1
 40
1
 10
5.332221
 20
24.632282
 30
0.0
 10
5.332221
 20
25.168180
 30
0.0
 10
5.046323
 20
25.663370
 30
0.0
 10
4.582221
 20
25.931320
 30
0.0
  0
SPLINE
  5
10b
100
AcDbEntity
  8
Calque_1
 62
7
100
AcDbSpline
 70
8
 71
3
 72
8
 73
4
 74
0
 40
0
 40
0
 40
0
 40
0
 40
1
 40
1
 40
1
 40
1
 10
4.582221
 20
25.931320
 30
0.0
 10
4.118120
 20
26.199269
 30
0.0
 10
3.546323
 20
26.199269
 30
0.0
 10
3.082221
 20
25.931320
 30
0.0
  0
SPLINE
  5
10c
100
AcDbEntity
  8
Calque_1
 62
7
100
AcDbSpline
 70
8
 71
3
 72
8
 73
4
 74
0
 40
0
 40
0
 40
0
 40
0
 40
1
 40
1
 40
1
 40
1
 10
3.082221
 20
25.931320
 30
0.0
 10
2.618120
 20
25.663370
 30
0.0
 10
2.332222
 20
25.168180
 30
0.0
 10
2.332222
 20
24.632282
 30
0.0
  0
SPLINE
  5
10d
100
AcDbEntity
  8
Calque_1
 62
7
100
AcDbSpline
 70
8
 71
3
 72
8
 73
4
 74
0
 40
0
 40
0
 40
0
 40
0
 40
1
 40
1
 40
1
 40
1
 10
2.332222
 20
24.632282
 30
0.0
 10
2.332222
 20
24.096383
 30
0.0
 10
2.618120
 20
23.601193
 30
0.0
 10
3.082221
 20
23.333244
 30
0.0
  0
SPLINE
  5
10e
100
AcDbEntity
  8
Calque_1
 62
7
100
AcDbSpline
 70
8
 71
3
 72
8
 73
4
 74
0
 40
0
 40
0
 40
0
 40
0
 40
1
 40
1
 40
1
 40
1
 10
3.082221
 20
23.333244
 30
0.0
 10
3.546323
 20
23.065294
 30
0.0
 10
4.118120
 20
23.065294
 30
0.0
 10
4.582221
 20
23.333244
 30
0.0
  0
SPLINE
  5
10f
100
AcDbEntity
  8
Calque_1
 62
7
100
AcDbSpline
 70
8
 71
3
 72
8
 73
4
 74
0
 40
0
 40
0
 40
0
 40
0
 40
1
 40
1
 40
1
 40
1
 10
4.582221
 20
23.333244
 30
0.0
 10
5.046323
 20
23.601193
 30
0.0
 10
5.332221
 20
24.096383
 30
0.0
 10
5.332221
 20
24.632282
 30
0.0
  0
LWPOLYLINE
  5
110
100
AcDbEntity
  8
Calque_1
 62
7
100
AcDbPolyline
 90
1
 70
1
 10
5.132290
 20
0.132289
 30
0.0
  0
SPLINE
  5
111
100
AcDbEntity
  8
Calque_1
 62
7
100
AcDbSpline
 70
8
 71
3
 72
8
 73
4
 74
0
 40
0
 40
0
 40
0
 40
0
 40
1
 40
1
 40
1
 40
1
 10
62.932358
 20
24.632282
 30
0.0
 10
62.932748
 20
25.168440
 30
0.0
 10
62.646935
 20
25.664037
 30
0.0
 10
62.182673
 20
25.932229
 30
0.0
  0
SPLINE
  5
112
100
AcDbEntity
  8
Calque_1
 62
7
100
AcDbSpline
 70
8
 71
3
 72
8
 73
4
 74
0
 40
0
 40
0
 40
0
 40
0
 40
1
 40
1
 40
1
 40
1
 10
62.182673
 20
25.932229
 30
0.0
 10
61.718411
 20
26.200421
 30
0.0
 10
61.146305
 20
26.200421
 30
0.0
 10
60.682043
 20
25.932229
 30
0.0
  0
SPLINE
  5
113
100
AcDbEntity
  8
Calque_1
 62
7
100
AcDbSpline
 70
8
 71
3
 72
8
 73
4
 74
0
 40
0
 40
0
 40
0
 40
0
 40
1
 40
1
 40
1
 40
1
 10
60.682043
 20
25.932229
 30
0.0
 10
60.217782
 20
25.664037
 30
0.0
 10
59.931969
 20
25.168440
 30
0.0
 10
59.932359
 20
24.632282
 30
0.0
  0
SPLINE
  5
114
100
AcDbEntity
  8
Calque_1
 62
7
100
AcDbSpline
 70
8
 71
3
 72
8
 73
4
 74
0
 40
0
 40
0
 40
0
 40
0
 40
1
 40
1
 40
1
 40
1
 10
59.932359
 20
24.632282
 30
0.0
 10
59.931969
 20
24.096123
 30
0.0
 10
60.217782
 20
23.600526
 30
0.0
 10
60.682043
 20
23.332334
 30
0.0
  0
SPLINE
  5
115
100
AcDbEntity
  8
Calque_1
 62
7
100
AcDbSpline
 70
8
 71
3
 72
8
 73
4
 74
0
 40
0
 40
0
 40
0
 40
0
 40
1
 40
1
 40
1
 40
1
 10
60.682043
 20
23.332334
 30
0.0
 10
61.146305
 20
23.064142
 30
0.0
 10
61.718411
 20
23.064142
 30
0.0
 10
62.182673
 20
23.332334
 30
0.0
  0
SPLINE
  5
116
100
AcDbEntity
  8
Calque_1
 62
7
100
AcDbSpline
 70
8
 71
3
 72
8
 73
4
 74
0
 40
0
 40
0
 40
0
 40
0
 40
1
 40
1
 40
1
 40
1
 10
62.182673
 20
23.332334
 30
0.0
 10
62.646935
 20
23.600526
 30
0.0
 10
62.932748
 20
24.096123
 30
0.0
 10
62.932358
 20
24.632282
 30
0.0
  0
LWPOLYLINE
  5
117
100
AcDbEntity
  8
Calque_1
 62
7
100
AcDbPolyline
 90
1
 70
1
 10
5.332221
 20
24.632282
 30
0.0
  0
LWPOLYLINE
  5
118
100
AcDbEntity
  8
Calque_1
 62
7
100
AcDbPolyline
 90
1
 70
1
 10
62.932358
 20
24.632282
 30
0.0
  0
SPLINE
  5
119
100
AcDbEntity
  8
Calque_1
 62
7
100
AcDbSpline
 70
8
 71
3
 72
8
 73
4
 74
0
 40
0
 40
0
 40
0
 40
0
 40
1
 40
1
 40
1
 40
1
 10
17.629596
 20
39.893245
 30
0.0
 10
17.348467
 20
40.155077
 30
0.0
 10
17.048050
 20
40.350762
 30
0.0
 10
16.728346
 20
40.480302
 30
0.0
  0
SPLINE
  5
11a
100
AcDbEntity
  8
Calque_1
 62
7
100
AcDbSpline
 70
8
 71
3
 72
8
 73
4
 74
0
 40
0
 40
0
 40
0
 40
0
 40
1
 40
1
 40
1
 40
1
 10
16.728346
 20
40.480302
 30
0.0
 10
16.411410
 20
40.609842
 30
0.0
 10
16.073793
 20
40.674612
 30
0.0
 10
15.715494
 20
40.674612
 30
0.0
  0
SPLINE
  5
11b
100
AcDbEntity
  8
Calque_1
 62
7
100
AcDbSpline
 70
8
 71
3
 72
8
 73
4
 74
0
 40
0
 40
0
 40
0
 40
0
 40
1
 40
1
 40
1
 40
1
 10
15.715494
 20
40.674612
 30
0.0
 10
15.009939
 20
40.674612
 30
0.0
 10
14.469748
 20
40.458254
 30
0.0
 10
14.094921
 20
40.025537
 30
0.0
  0
SPLINE
  5
11c
100
AcDbEntity
  8
Calque_1
 62
7
100
AcDbSpline
 70
8
 71
3
 72
8
 73
4
 74
0
 40
0
 40
0
 40
0
 40
0
 40
1
 40
1
 40
1
 40
1
 10
14.094921
 20
40.025537
 30
0.0
 10
13.720095
 20
39.595589
 30
0.0
 10
13.532682
 20
38.972715
 30
0.0
 10
13.532682
 20
38.156917
 30
0.0
  0
SPLINE
  5
11d
100
AcDbEntity
  8
Calque_1
 62
7
100
AcDbSpline
 70
8
 71
3
 72
8
 73
4
 74
0
 40
0
 40
0
 40
0
 40
0
 40
1
 40
1
 40
1
 40
1
 10
13.532682
 20
38.156917
 30
0.0
 10
13.532682
 20
37.343887
 30
0.0
 10
13.720095
 20
36.721014
 30
0.0
 10
14.094921
 20
36.288297
 30
0.0
  0
SPLINE
  5
11e
100
AcDbEntity
  8
Calque_1
 62
7
100
AcDbSpline
 70
8
 71
3
 72
8
 73
4
 74
0
 40
0
 40
0
 40
0
 40
0
 40
1
 40
1
 40
1
 40
1
 10
14.094921
 20
36.288297
 30
0.0
 10
14.469748
 20
35.858349
 30
0.0
 10
15.009939
 20
35.643375
 30
0.0
 10
15.715494
 20
35.643375
 30
0.0
  0
SPLINE
  5
11f
100
AcDbEntity
  8
Calque_1
 62
7
100
AcDbSpline
 70
8
 71
3
 72
8
 73
4
 74
0
 40
0
 40
0
 40
0
 40
0
 40
1
 40
1
 40
1
 40
1
 10
15.715494
 20
35.643375
 30
0.0
 10
16.073793
 20
35.643375
 30
0.0
 10
16.411410
 20
35.708145
 30
0.0
 10
16.728346
 20
35.837685
 30
0.0
  0
SPLINE
  5
120
100
AcDbEntity
  8
Calque_1
 62
7
100
AcDbSpline
 70
8
 71
3
 72
8
 73
4
 74
0
 40
0
 40
0
 40
0
 40
0
 40
1
 40
1
 40
1
 40
1
 10
16.728346
 20
35.837685
 30
0.0
 10
17.048050
 20
35.967225
 30
0.0
 10
17.348467
 20
36.162911
 30
0.0
 10
17.629596
 20
36.424743
 30
0.0
  0
LWPOLYLINE
  5
121
100
AcDbEntity
  8
Calque_1
 62
7
100
AcDbPolyline
 90
2
 70
0
 10
17.629596
 20
40.773831
 30
0.0
 10
17.629596
 20
39.893245
 30
0.0
  0
SPLINE
  5
122
100
AcDbEntity
  8
Calque_1
 62
7
100
AcDbSpline
 70
8
 71
3
 72
8
 73
4
 74
0
 40
0
 40
0
 40
0
 40
0
 40
1
 40
1
 40
1
 40
1
 10
17.629596
 20
35.552438
 30
0.0
 10
17.337443
 20
35.354000
 30
0.0
 10
17.027386
 20
35.205172
 30
0.0
 10
16.699427
 20
35.105953
 30
0.0
  0
SPLINE
  5
123
100
AcDbEntity
  8
Calque_1
 62
7
100
AcDbSpline
 70
8
 71
3
 72
8
 73
4
 74
0
 40
0
 40
0
 40
0
 40
0
 40
1
 40
1
 40
1
 40
1
 10
16.699427
 20
35.105953
 30
0.0
 10
16.374201
 20
35.006735
 30
0.0
 10
16.029687
 20
34.957125
 30
0.0
 10
15.665885
 20
34.957125
 30
0.0
  0
SPLINE
  5
124
100
AcDbEntity
  8
Calque_1
 62
7
100
AcDbSpline
 70
8
 71
3
 72
8
 73
4
 74
0
 40
0
 40
0
 40
0
 40
0
 40
1
 40
1
 40
1
 40
1
 10
15.665885
 20
34.957125
 30
0.0
 10
14.731570
 20
34.957125
 30
0.0
 10
13.995702
 20
35.242381
 30
0.0
 10
13.458281
 20
35.812894
 30
0.0
  0
SPLINE
  5
125
100
AcDbEntity
  8
Calque_1
 62
7
100
AcDbSpline
 70
8
 71
3
 72
8
 73
4
 74
0
 40
0
 40
0
 40
0
 40
0
 40
1
 40
1
 40
1
 40
1
 10
13.458281
 20
35.812894
 30
0.0
 10
12.920841
 20
36.386158
 30
0.0
 10
12.652122
 20
37.167499
 30
0.0
 10
12.652122
 20
38.156917
 30
0.0
  0
SPLINE
  5
126
100
AcDbEntity
  8
Calque_1
 62
7
100
AcDbSpline
 70
8
 71
3
 72
8
 73
4
 74
0
 40
0
 40
0
 40
0
 40
0
 40
1
 40
1
 40
1
 40
1
 10
12.652122
 20
38.156917
 30
0.0
 10
12.652122
 20
39.149104
 30
0.0
 10
12.920841
 20
39.930454
 30
0.0
 10
13.458281
 20
40.500966
 30
0.0
  0
SPLINE
  5
127
100
AcDbEntity
  8
Calque_1
 62
7
100
AcDbSpline
 70
8
 71
3
 72
8
 73
4
 74
0
 40
0
 40
0
 40
0
 40
0
 40
1
 40
1
 40
1
 40
1
 10
13.458281
 20
40.500966
 30
0.0
 10
13.995702
 20
41.074230
 30
0.0
 10
14.731570
 20
41.360862
 30
0.0
 10
15.665885
 20
41.360862
 30
0.0
  0
SPLINE
  5
128
100
AcDbEntity
  8
Calque_1
 62
7
100
AcDbSpline
 70
8
 71
3
 72
8
 73
4
 74
0
 40
0
 40
0
 40
0
 40
0
 40
1
 40
1
 40
1
 40
1
 10
15.665885
 20
41.360862
 30
0.0
 10
16.035208
 20
41.360862
 30
0.0
 10
16.382473
 20
41.311253
 30
0.0
 10
16.707682
 20
41.212034
 30
0.0
  0
SPLINE
  5
129
100
AcDbEntity
  8
Calque_1
 62
7
100
AcDbSpline
 70
8
 71
3
 72
8
 73
4
 74
0
 40
0
 40
0
 40
0
 40
0
 40
1
 40
1
 40
1
 40
1
 10
16.707682
 20
41.212034
 30
0.0
 10
17.035659
 20
41.115572
 30
0.0
 10
17.342964
 20
40.969505
 30
0.0
 10
17.629596
 20
40.773831
 30
0.0
  0
LWPOLYLINE
  5
12a
100
AcDbEntity
  8
Calque_1
 62
7
100
AcDbPolyline
 90
2
 70
0
 10
17.629596
 20
36.424743
 30
0.0
 10
17.629596
 20
35.552438
 30
0.0
  0
SPLINE
  5
12b
100
AcDbEntity
  8
Calque_1
 62
7
100
AcDbSpline
 70
8
 71
3
 72
8
 73
4
 74
0
 40
0
 40
0
 40
0
 40
0
 40
1
 40
1
 40
1
 40
1
 10
20.990624
 20
37.404521
 30
0.0
 10
20.376015
 20
37.404521
 30
0.0
 10
19.950203
 20
37.334239
 30
0.0
 10
19.713189
 20
37.193675
 30
0.0
  0
SPLINE
  5
12c
100
AcDbEntity
  8
Calque_1
 62
7
100
AcDbSpline
 70
8
 71
3
 72
8
 73
4
 74
0
 40
0
 40
0
 40
0
 40
0
 40
1
 40
1
 40
1
 40
1
 10
19.713189
 20
37.193675
 30
0.0
 10
19.476158
 20
37.053110
 30
0.0
 10
19.357642
 20
36.813336
 30
0.0
 10
19.357642
 20
36.474352
 30
0.0
  0
SPLINE
  5
12d
100
AcDbEntity
  8
Calque_1
 62
7
100
AcDbSpline
 70
8
 71
3
 72
8
 73
4
 74
0
 40
0
 40
0
 40
0
 40
0
 40
1
 40
1
 40
1
 40
1
 10
19.357642
 20
36.474352
 30
0.0
 10
19.357642
 20
36.204248
 30
0.0
 10
19.445837
 20
35.989274
 30
0.0
 10
19.622226
 20
35.829430
 30
0.0
  0
SPLINE
  5
12e
100
AcDbEntity
  8
Calque_1
 62
7
100
AcDbSpline
 70
8
 71
3
 72
8
 73
4
 74
0
 40
0
 40
0
 40
0
 40
0
 40
1
 40
1
 40
1
 40
1
 10
19.622226
 20
35.829430
 30
0.0
 10
19.801384
 20
35.672321
 30
0.0
 10
20.043919
 20
35.593766
 30
0.0
 10
20.349830
 20
35.593766
 30
0.0
  0
SPLINE
  5
12f
100
AcDbEntity
  8
Calque_1
 62
7
100
AcDbSpline
 70
8
 71
3
 72
8
 73
4
 74
0
 40
0
 40
0
 40
0
 40
0
 40
1
 40
1
 40
1
 40
1
 10
20.349830
 20
35.593766
 30
0.0
 10
20.771523
 20
35.593766
 30
0.0
 10
21.109149
 20
35.742594
 30
0.0
 10
21.362708
 20
36.040250
 30
0.0
  0
SPLINE
  5
130
100
AcDbEntity
  8
Calque_1
 62
7
100
AcDbSpline
 70
8
 71
3
 72
8
 73
4
 74
0
 40
0
 40
0
 40
0
 40
0
 40
1
 40
1
 40
1
 40
1
 10
21.362708
 20
36.040250
 30
0.0
 10
21.619018
 20
36.340676
 30
0.0
 10
21.747174
 20
36.738935
 30
0.0
 10
21.747174
 20
37.235029
 30
0.0
  0
LWPOLYLINE
  5
131
100
AcDbEntity
  8
Calque_1
 62
7
100
AcDbPolyline
 90
1
 70
1
 10
17.629596
 20
40.773831
 30
0.0
  0
LWPOLYLINE
  5
132
100
AcDbEntity
  8
Calque_1
 62
7
100
AcDbPolyline
 90
3
 70
0
 10
21.747174
 20
37.235029
 30
0.0
 10
21.747174
 20
37.404521
 30
0.0
 10
20.990624
 20
37.404521
 30
0.0
  0
SPLINE
  5
133
100
AcDbEntity
  8
Calque_1
 62
7
100
AcDbSpline
 70
8
 71
3
 72
8
 73
4
 74
0
 40
0
 40
0
 40
0
 40
0
 40
1
 40
1
 40
1
 40
1
 10
21.747174
 20
35.779821
 30
0.0
 10
21.573537
 20
35.498692
 30
0.0
 10
21.357187
 20
35.290606
 30
0.0
 10
21.098124
 20
35.155563
 30
0.0
  0
SPLINE
  5
134
100
AcDbEntity
  8
Calque_1
 62
7
100
AcDbSpline
 70
8
 71
3
 72
8
 73
4
 74
0
 40
0
 40
0
 40
0
 40
0
 40
1
 40
1
 40
1
 40
1
 10
21.098124
 20
35.155563
 30
0.0
 10
20.839044
 20
35.023271
 30
0.0
 10
20.522091
 20
34.957125
 30
0.0
 10
20.147265
 20
34.957125
 30
0.0
  0
SPLINE
  5
135
100
AcDbEntity
  8
Calque_1
 62
7
100
AcDbSpline
 70
8
 71
3
 72
8
 73
4
 74
0
 40
0
 40
0
 40
0
 40
0
 40
1
 40
1
 40
1
 40
1
 10
20.147265
 20
34.957125
 30
0.0
 10
19.673220
 20
34.957125
 30
0.0
 10
19.295642
 20
35.089417
 30
0.0
 10
19.014531
 20
35.354000
 30
0.0
  0
SPLINE
  5
136
100
AcDbEntity
  8
Calque_1
 62
7
100
AcDbSpline
 70
8
 71
3
 72
8
 73
4
 74
0
 40
0
 40
0
 40
0
 40
0
 40
1
 40
1
 40
1
 40
1
 10
19.014531
 20
35.354000
 30
0.0
 10
18.736154
 20
35.621335
 30
0.0
 10
18.596965
 20
35.978249
 30
0.0
 10
18.596965
 20
36.424743
 30
0.0
  0
SPLINE
  5
137
100
AcDbEntity
  8
Calque_1
 62
7
100
AcDbSpline
 70
8
 71
3
 72
8
 73
4
 74
0
 40
0
 40
0
 40
0
 40
0
 40
1
 40
1
 40
1
 40
1
 10
18.596965
 20
36.424743
 30
0.0
 10
18.596965
 20
36.945637
 30
0.0
 10
18.770603
 20
37.338375
 30
0.0
 10
19.117877
 20
37.602959
 30
0.0
  0
SPLINE
  5
138
100
AcDbEntity
  8
Calque_1
 62
7
100
AcDbSpline
 70
8
 71
3
 72
8
 73
4
 74
0
 40
0
 40
0
 40
0
 40
0
 40
1
 40
1
 40
1
 40
1
 10
19.117877
 20
37.602959
 30
0.0
 10
19.467903
 20
37.867542
 30
0.0
 10
19.988797
 20
37.999834
 30
0.0
 10
20.680559
 20
37.999834
 30
0.0
  0
LWPOLYLINE
  5
139
100
AcDbEntity
  8
Calque_1
 62
7
100
AcDbPolyline
 90
4
 70
0
 10
22.507851
 20
37.718714
 30
0.0
 10
22.507851
 20
35.077008
 30
0.0
 10
21.747174
 20
35.077008
 30
0.0
 10
21.747174
 20
35.779821
 30
0.0
  0
SPLINE
  5
13a
100
AcDbEntity
  8
Calque_1
 62
7
100
AcDbSpline
 70
8
 71
3
 72
8
 73
4
 74
0
 40
0
 40
0
 40
0
 40
0
 40
1
 40
1
 40
1
 40
1
 10
21.747174
 20
38.074234
 30
0.0
 10
21.747174
 20
38.424261
 30
0.0
 10
21.631419
 20
38.694356
 30
0.0
 10
21.399908
 20
38.884521
 30
0.0
  0
SPLINE
  5
13b
100
AcDbEntity
  8
Calque_1
 62
7
100
AcDbSpline
 70
8
 71
3
 72
8
 73
4
 74
0
 40
0
 40
0
 40
0
 40
0
 40
1
 40
1
 40
1
 40
1
 10
21.399908
 20
38.884521
 30
0.0
 10
21.171149
 20
39.077455
 30
0.0
 10
20.848684
 20
39.173922
 30
0.0
 10
20.432512
 20
39.173922
 30
0.0
  0
SPLINE
  5
13c
100
AcDbEntity
  8
Calque_1
 62
7
100
AcDbSpline
 70
8
 71
3
 72
8
 73
4
 74
0
 40
0
 40
0
 40
0
 40
0
 40
1
 40
1
 40
1
 40
1
 10
20.432512
 20
39.173922
 30
0.0
 10
20.167929
 20
39.173922
 30
0.0
 10
19.910242
 20
39.142225
 30
0.0
 10
19.659453
 20
39.078831
 30
0.0
  0
SPLINE
  5
13d
100
AcDbEntity
  8
Calque_1
 62
7
100
AcDbSpline
 70
8
 71
3
 72
8
 73
4
 74
0
 40
0
 40
0
 40
0
 40
0
 40
1
 40
1
 40
1
 40
1
 10
19.659453
 20
39.078831
 30
0.0
 10
19.408645
 20
39.015437
 30
0.0
 10
19.167486
 20
38.920354
 30
0.0
 10
18.935976
 20
38.793584
 30
0.0
  0
LWPOLYLINE
  5
13e
100
AcDbEntity
  8
Calque_1
 62
7
100
AcDbPolyline
 90
3
 70
0
 10
20.680559
 20
37.999834
 30
0.0
 10
21.747174
 20
37.999834
 30
0.0
 10
21.747174
 20
38.074234
 30
0.0
  0
SPLINE
  5
13f
100
AcDbEntity
  8
Calque_1
 62
7
100
AcDbSpline
 70
8
 71
3
 72
8
 73
4
 74
0
 40
0
 40
0
 40
0
 40
0
 40
1
 40
1
 40
1
 40
1
 10
18.935976
 20
39.496370
 30
0.0
 10
19.214335
 20
39.603861
 30
0.0
 10
19.484431
 20
39.683792
 30
0.0
 10
19.746262
 20
39.736162
 30
0.0
  0
SPLINE
  5
140
100
AcDbEntity
  8
Calque_1
 62
7
100
AcDbSpline
 70
8
 71
3
 72
8
 73
4
 74
0
 40
0
 40
0
 40
0
 40
0
 40
1
 40
1
 40
1
 40
1
 10
19.746262
 20
39.736162
 30
0.0
 10
20.008094
 20
39.791283
 30
0.0
 10
20.263029
 20
39.818844
 30
0.0
 10
20.511067
 20
39.818844
 30
0.0
  0
SPLINE
  5
141
100
AcDbEntity
  8
Calque_1
 62
7
100
AcDbSpline
 70
8
 71
3
 72
8
 73
4
 74
0
 40
0
 40
0
 40
0
 40
0
 40
1
 40
1
 40
1
 40
1
 10
20.511067
 20
39.818844
 30
0.0
 10
21.180798
 20
39.818844
 30
0.0
 10
21.681028
 20
39.645207
 30
0.0
 10
22.011757
 20
39.297932
 30
0.0
  0
SPLINE
  5
142
100
AcDbEntity
  8
Calque_1
 62
7
100
AcDbSpline
 70
8
 71
3
 72
8
 73
4
 74
0
 40
0
 40
0
 40
0
 40
0
 40
1
 40
1
 40
1
 40
1
 10
22.011757
 20
39.297932
 30
0.0
 10
22.342486
 20
38.950676
 30
0.0
 10
22.507851
 20
38.424269
 30
0.0
 10
22.507851
 20
37.718714
 30
0.0
  0
LWPOLYLINE
  5
143
100
AcDbEntity
  8
Calque_1
 62
7
100
AcDbPolyline
 90
2
 70
0
 10
18.935976
 20
38.793584
 30
0.0
 10
18.935976
 20
39.496370
 30
0.0
  0
LWPOLYLINE
  5
144
100
AcDbEntity
  8
Calque_1
 62
7
100
AcDbPolyline
 90
1
 70
1
 10
22.507851
 20
37.718714
 30
0.0
  0
SPLINE
  5
145
100
AcDbEntity
  8
Calque_1
 62
7
100
AcDbSpline
 70
8
 71
3
 72
8
 73
4
 74
0
 40
0
 40
0
 40
0
 40
0
 40
1
 40
1
 40
1
 40
1
 10
24.810546
 20
39.004430
 30
0.0
 10
24.970407
 20
39.280038
 30
0.0
 10
25.171605
 20
39.483987
 30
0.0
 10
25.414140
 20
39.616279
 30
0.0
  0
SPLINE
  5
146
100
AcDbEntity
  8
Calque_1
 62
7
100
AcDbSpline
 70
8
 71
3
 72
8
 73
4
 74
0
 40
0
 40
0
 40
0
 40
0
 40
1
 40
1
 40
1
 40
1
 10
25.414140
 20
39.616279
 30
0.0
 10
25.659426
 20
39.751322
 30
0.0
 10
25.951570
 20
39.818844
 30
0.0
 10
26.290572
 20
39.818844
 30
0.0
  0
SPLINE
  5
147
100
AcDbEntity
  8
Calque_1
 62
7
100
AcDbSpline
 70
8
 71
3
 72
8
 73
4
 74
0
 40
0
 40
0
 40
0
 40
0
 40
1
 40
1
 40
1
 40
1
 10
26.290572
 20
39.818844
 30
0.0
 10
26.852812
 20
39.818844
 30
0.0
 10
27.308936
 20
39.595597
 30
0.0
 10
27.658944
 20
39.149104
 30
0.0
  0
SPLINE
  5
148
100
AcDbEntity
  8
Calque_1
 62
7
100
AcDbSpline
 70
8
 71
3
 72
8
 73
4
 74
0
 40
0
 40
0
 40
0
 40
0
 40
1
 40
1
 40
1
 40
1
 10
27.658944
 20
39.149104
 30
0.0
 10
28.011722
 20
38.702629
 30
0.0
 10
28.188111
 20
38.115589
 30
0.0
 10
28.188111
 20
37.387985
 30
0.0
  0
SPLINE
  5
149
100
AcDbEntity
  8
Calque_1
 62
7
100
AcDbSpline
 70
8
 71
3
 72
8
 73
4
 74
0
 40
0
 40
0
 40
0
 40
0
 40
1
 40
1
 40
1
 40
1
 10
28.188111
 20
37.387985
 30
0.0
 10
28.188111
 20
36.660381
 30
0.0
 10
28.011722
 20
36.073332
 30
0.0
 10
27.658944
 20
35.626839
 30
0.0
  0
SPLINE
  5
14a
100
AcDbEntity
  8
Calque_1
 62
7
100
AcDbSpline
 70
8
 71
3
 72
8
 73
4
 74
0
 40
0
 40
0
 40
0
 40
0
 40
1
 40
1
 40
1
 40
1
 10
27.658944
 20
35.626839
 30
0.0
 10
27.308936
 20
35.180363
 30
0.0
 10
26.852812
 20
34.957125
 30
0.0
 10
26.290572
 20
34.957125
 30
0.0
  0
SPLINE
  5
14b
100
AcDbEntity
  8
Calque_1
 62
7
100
AcDbSpline
 70
8
 71
3
 72
8
 73
4
 74
0
 40
0
 40
0
 40
0
 40
0
 40
1
 40
1
 40
1
 40
1
 10
26.290572
 20
34.957125
 30
0.0
 10
25.951570
 20
34.957125
 30
0.0
 10
25.659426
 20
35.023271
 30
0.0
 10
25.414140
 20
35.155563
 30
0.0
  0
SPLINE
  5
14c
100
AcDbEntity
  8
Calque_1
 62
7
100
AcDbSpline
 70
8
 71
3
 72
8
 73
4
 74
0
 40
0
 40
0
 40
0
 40
0
 40
1
 40
1
 40
1
 40
1
 10
25.414140
 20
35.155563
 30
0.0
 10
25.171605
 20
35.290606
 30
0.0
 10
24.970407
 20
35.495932
 30
0.0
 10
24.810546
 20
35.771539
 30
0.0
  0
LWPOLYLINE
  5
14d
100
AcDbEntity
  8
Calque_1
 62
7
100
AcDbPolyline
 90
6
 70
0
 10
24.810546
 20
35.771539
 30
0.0
 10
24.810546
 20
33.315889
 30
0.0
 10
24.045741
 20
33.315889
 30
0.0
 10
24.045741
 20
39.707216
 30
0.0
 10
24.810546
 20
39.707216
 30
0.0
 10
24.810546
 20
39.004430
 30
0.0
  0
SPLINE
  5
14e
100
AcDbEntity
  8
Calque_1
 62
7
100
AcDbSpline
 70
8
 71
3
 72
8
 73
4
 74
0
 40
0
 40
0
 40
0
 40
0
 40
1
 40
1
 40
1
 40
1
 10
27.398515
 20
37.387985
 30
0.0
 10
27.398515
 20
37.947473
 30
0.0
 10
27.282760
 20
38.385684
 30
0.0
 10
27.051249
 20
38.702620
 30
0.0
  0
SPLINE
  5
14f
100
AcDbEntity
  8
Calque_1
 62
7
100
AcDbSpline
 70
8
 71
3
 72
8
 73
4
 74
0
 40
0
 40
0
 40
0
 40
0
 40
1
 40
1
 40
1
 40
1
 10
27.051249
 20
38.702620
 30
0.0
 10
26.822491
 20
39.022325
 30
0.0
 10
26.506913
 20
39.182177
 30
0.0
 10
26.104517
 20
39.182177
 30
0.0
  0
SPLINE
  5
150
100
AcDbEntity
  8
Calque_1
 62
7
100
AcDbSpline
 70
8
 71
3
 72
8
 73
4
 74
0
 40
0
 40
0
 40
0
 40
0
 40
1
 40
1
 40
1
 40
1
 10
26.104517
 20
39.182177
 30
0.0
 10
25.702139
 20
39.182177
 30
0.0
 10
25.385195
 20
39.022325
 30
0.0
 10
25.153684
 20
38.702620
 30
0.0
  0
SPLINE
  5
151
100
AcDbEntity
  8
Calque_1
 62
7
100
AcDbSpline
 70
8
 71
3
 72
8
 73
4
 74
0
 40
0
 40
0
 40
0
 40
0
 40
1
 40
1
 40
1
 40
1
 10
25.153684
 20
38.702620
 30
0.0
 10
24.924925
 20
38.385684
 30
0.0
 10
24.810546
 20
37.947473
 30
0.0
 10
24.810546
 20
37.387985
 30
0.0
  0
SPLINE
  5
152
100
AcDbEntity
  8
Calque_1
 62
7
100
AcDbSpline
 70
8
 71
3
 72
8
 73
4
 74
0
 40
0
 40
0
 40
0
 40
0
 40
1
 40
1
 40
1
 40
1
 10
24.810546
 20
37.387985
 30
0.0
 10
24.810546
 20
36.828497
 30
0.0
 10
24.924925
 20
36.388900
 30
0.0
 10
25.153684
 20
36.069196
 30
0.0
  0
SPLINE
  5
153
100
AcDbEntity
  8
Calque_1
 62
7
100
AcDbSpline
 70
8
 71
3
 72
8
 73
4
 74
0
 40
0
 40
0
 40
0
 40
0
 40
1
 40
1
 40
1
 40
1
 10
25.153684
 20
36.069196
 30
0.0
 10
25.385195
 20
35.752242
 30
0.0
 10
25.702139
 20
35.593766
 30
0.0
 10
26.104517
 20
35.593766
 30
0.0
  0
SPLINE
  5
154
100
AcDbEntity
  8
Calque_1
 62
7
100
AcDbSpline
 70
8
 71
3
 72
8
 73
4
 74
0
 40
0
 40
0
 40
0
 40
0
 40
1
 40
1
 40
1
 40
1
 10
26.104517
 20
35.593766
 30
0.0
 10
26.506913
 20
35.593766
 30
0.0
 10
26.822491
 20
35.752242
 30
0.0
 10
27.051249
 20
36.069196
 30
0.0
  0
SPLINE
  5
155
100
AcDbEntity
  8
Calque_1
 62
7
100
AcDbSpline
 70
8
 71
3
 72
8
 73
4
 74
0
 40
0
 40
0
 40
0
 40
0
 40
1
 40
1
 40
1
 40
1
 10
27.051249
 20
36.069196
 30
0.0
 10
27.282760
 20
36.388900
 30
0.0
 10
27.398515
 20
36.828497
 30
0.0
 10
27.398515
 20
37.387985
 30
0.0
  0
LWPOLYLINE
  5
156
100
AcDbEntity
  8
Calque_1
 62
7
100
AcDbPolyline
 90
1
 70
1
 10
24.810546
 20
35.771539
 30
0.0
  0
LWPOLYLINE
  5
157
100
AcDbEntity
  8
Calque_1
 62
7
100
AcDbPolyline
 90
1
 70
1
 10
27.398515
 20
37.387985
 30
0.0
  0
SPLINE
  5
158
100
AcDbEntity
  8
Calque_1
 62
7
100
AcDbSpline
 70
8
 71
3
 72
8
 73
4
 74
0
 40
0
 40
0
 40
0
 40
0
 40
1
 40
1
 40
1
 40
1
 10
30.201431
 20
36.602490
 30
0.0
 10
30.201431
 20
36.224912
 30
0.0
 10
30.252417
 20
35.982377
 30
0.0
 10
30.354387
 20
35.874886
 30
0.0
  0
SPLINE
  5
159
100
AcDbEntity
  8
Calque_1
 62
7
100
AcDbSpline
 70
8
 71
3
 72
8
 73
4
 74
0
 40
0
 40
0
 40
0
 40
0
 40
1
 40
1
 40
1
 40
1
 10
30.354387
 20
35.874886
 30
0.0
 10
30.459127
 20
35.767412
 30
0.0
 10
30.669973
 20
35.713675
 30
0.0
 10
30.986926
 20
35.713675
 30
0.0
  0
LWPOLYLINE
  5
15a
100
AcDbEntity
  8
Calque_1
 62
7
100
AcDbPolyline
 90
6
 70
0
 10
30.201431
 20
41.021865
 30
0.0
 10
30.201431
 20
39.707216
 30
0.0
 10
31.768267
 20
39.707216
 30
0.0
 10
31.768267
 20
39.116031
 30
0.0
 10
30.201431
 20
39.116031
 30
0.0
 10
30.201431
 20
36.602490
 30
0.0
  0
SPLINE
  5
15b
100
AcDbEntity
  8
Calque_1
 62
7
100
AcDbSpline
 70
8
 71
3
 72
8
 73
4
 74
0
 40
0
 40
0
 40
0
 40
0
 40
1
 40
1
 40
1
 40
1
 10
30.986926
 20
35.077008
 30
0.0
 10
30.399869
 20
35.077008
 30
0.0
 10
29.994721
 20
35.185875
 30
0.0
 10
29.771483
 20
35.403610
 30
0.0
  0
SPLINE
  5
15c
100
AcDbEntity
  8
Calque_1
 62
7
100
AcDbSpline
 70
8
 71
3
 72
8
 73
4
 74
0
 40
0
 40
0
 40
0
 40
0
 40
1
 40
1
 40
1
 40
1
 10
29.771483
 20
35.403610
 30
0.0
 10
29.548246
 20
35.624096
 30
0.0
 10
29.436627
 20
36.023723
 30
0.0
 10
29.436627
 20
36.602490
 30
0.0
  0
LWPOLYLINE
  5
15d
100
AcDbEntity
  8
Calque_1
 62
7
100
AcDbPolyline
 90
4
 70
0
 10
30.986926
 20
35.713675
 30
0.0
 10
31.768267
 20
35.713675
 30
0.0
 10
31.768267
 20
35.077008
 30
0.0
 10
30.986926
 20
35.077008
 30
0.0
  0
SPLINE
  5
15e
100
AcDbEntity
  8
Calque_1
 62
7
100
AcDbSpline
 70
8
 71
3
 72
8
 73
4
 74
0
 40
0
 40
0
 40
0
 40
0
 40
1
 40
1
 40
1
 40
1
 10
34.562929
 20
39.173922
 30
0.0
 10
34.155030
 20
39.173922
 30
0.0
 10
33.832564
 20
39.014070
 30
0.0
 10
33.595533
 20
38.694365
 30
0.0
  0
SPLINE
  5
15f
100
AcDbEntity
  8
Calque_1
 62
7
100
AcDbSpline
 70
8
 71
3
 72
8
 73
4
 74
0
 40
0
 40
0
 40
0
 40
0
 40
1
 40
1
 40
1
 40
1
 10
33.595533
 20
38.694365
 30
0.0
 10
33.358519
 20
38.377412
 30
0.0
 10
33.240012
 20
37.941952
 30
0.0
 10
33.240012
 20
37.387985
 30
0.0
  0
SPLINE
  5
160
100
AcDbEntity
  8
Calque_1
 62
7
100
AcDbSpline
 70
8
 71
3
 72
8
 73
4
 74
0
 40
0
 40
0
 40
0
 40
0
 40
1
 40
1
 40
1
 40
1
 10
33.240012
 20
37.387985
 30
0.0
 10
33.240012
 20
36.834018
 30
0.0
 10
33.357143
 20
36.397182
 30
0.0
 10
33.591405
 20
36.077477
 30
0.0
  0
SPLINE
  5
161
100
AcDbEntity
  8
Calque_1
 62
7
100
AcDbSpline
 70
8
 71
3
 72
8
 73
4
 74
0
 40
0
 40
0
 40
0
 40
0
 40
1
 40
1
 40
1
 40
1
 10
33.591405
 20
36.077477
 30
0.0
 10
33.828437
 20
35.760524
 30
0.0
 10
34.152278
 20
35.602047
 30
0.0
 10
34.562929
 20
35.602047
 30
0.0
  0
SPLINE
  5
162
100
AcDbEntity
  8
Calque_1
 62
7
100
AcDbSpline
 70
8
 71
3
 72
8
 73
4
 74
0
 40
0
 40
0
 40
0
 40
0
 40
1
 40
1
 40
1
 40
1
 10
34.562929
 20
35.602047
 30
0.0
 10
34.968076
 20
35.602047
 30
0.0
 10
35.289157
 20
35.761900
 30
0.0
 10
35.526171
 20
36.081605
 30
0.0
  0
SPLINE
  5
163
100
AcDbEntity
  8
Calque_1
 62
7
100
AcDbSpline
 70
8
 71
3
 72
8
 73
4
 74
0
 40
0
 40
0
 40
0
 40
0
 40
1
 40
1
 40
1
 40
1
 10
35.526171
 20
36.081605
 30
0.0
 10
35.763202
 20
36.401309
 30
0.0
 10
35.881718
 20
36.836769
 30
0.0
 10
35.881718
 20
37.387985
 30
0.0
  0
SPLINE
  5
164
100
AcDbEntity
  8
Calque_1
 62
7
100
AcDbSpline
 70
8
 71
3
 72
8
 73
4
 74
0
 40
0
 40
0
 40
0
 40
0
 40
1
 40
1
 40
1
 40
1
 10
35.881718
 20
37.387985
 30
0.0
 10
35.881718
 20
37.936448
 30
0.0
 10
35.763202
 20
38.370533
 30
0.0
 10
35.526171
 20
38.690237
 30
0.0
  0
SPLINE
  5
165
100
AcDbEntity
  8
Calque_1
 62
7
100
AcDbSpline
 70
8
 71
3
 72
8
 73
4
 74
0
 40
0
 40
0
 40
0
 40
0
 40
1
 40
1
 40
1
 40
1
 10
35.526171
 20
38.690237
 30
0.0
 10
35.289157
 20
39.012694
 30
0.0
 10
34.968076
 20
39.173922
 30
0.0
 10
34.562929
 20
39.173922
 30
0.0
  0
LWPOLYLINE
  5
166
100
AcDbEntity
  8
Calque_1
 62
7
100
AcDbPolyline
 90
7
 70
0
 10
29.436627
 20
36.602490
 30
0.0
 10
29.436627
 20
39.116031
 30
0.0
 10
28.878515
 20
39.116031
 30
0.0
 10
28.878515
 20
39.707216
 30
0.0
 10
29.436627
 20
39.707216
 30
0.0
 10
29.436627
 20
41.021865
 30
0.0
 10
30.201431
 20
41.021865
 30
0.0
  0
SPLINE
  5
167
100
AcDbEntity
  8
Calque_1
 62
7
100
AcDbSpline
 70
8
 71
3
 72
8
 73
4
 74
0
 40
0
 40
0
 40
0
 40
0
 40
1
 40
1
 40
1
 40
1
 10
34.562929
 20
39.818844
 30
0.0
 10
35.224387
 20
39.818844
 30
0.0
 10
35.743905
 20
39.603870
 30
0.0
 10
36.121483
 20
39.173922
 30
0.0
  0
SPLINE
  5
168
100
AcDbEntity
  8
Calque_1
 62
7
100
AcDbSpline
 70
8
 71
3
 72
8
 73
4
 74
0
 40
0
 40
0
 40
0
 40
0
 40
1
 40
1
 40
1
 40
1
 10
36.121483
 20
39.173922
 30
0.0
 10
36.499061
 20
38.743974
 30
0.0
 10
36.687850
 20
38.148662
 30
0.0
 10
36.687850
 20
37.387985
 30
0.0
  0
SPLINE
  5
169
100
AcDbEntity
  8
Calque_1
 62
7
100
AcDbSpline
 70
8
 71
3
 72
8
 73
4
 74
0
 40
0
 40
0
 40
0
 40
0
 40
1
 40
1
 40
1
 40
1
 10
36.687850
 20
37.387985
 30
0.0
 10
36.687850
 20
36.630059
 30
0.0
 10
36.499061
 20
36.034747
 30
0.0
 10
36.121483
 20
35.602047
 30
0.0
  0
SPLINE
  5
16a
100
AcDbEntity
  8
Calque_1
 62
7
100
AcDbSpline
 70
8
 71
3
 72
8
 73
4
 74
0
 40
0
 40
0
 40
0
 40
0
 40
1
 40
1
 40
1
 40
1
 10
36.121483
 20
35.602047
 30
0.0
 10
35.743905
 20
35.172099
 30
0.0
 10
35.224387
 20
34.957125
 30
0.0
 10
34.562929
 20
34.957125
 30
0.0
  0
SPLINE
  5
16b
100
AcDbEntity
  8
Calque_1
 62
7
100
AcDbSpline
 70
8
 71
3
 72
8
 73
4
 74
0
 40
0
 40
0
 40
0
 40
0
 40
1
 40
1
 40
1
 40
1
 10
34.562929
 20
34.957125
 30
0.0
 10
33.898719
 20
34.957125
 30
0.0
 10
33.377816
 20
35.172099
 30
0.0
 10
33.000220
 20
35.602047
 30
0.0
  0
SPLINE
  5
16c
100
AcDbEntity
  8
Calque_1
 62
7
100
AcDbSpline
 70
8
 71
3
 72
8
 73
4
 74
0
 40
0
 40
0
 40
0
 40
0
 40
1
 40
1
 40
1
 40
1
 10
33.000220
 20
35.602047
 30
0.0
 10
32.625394
 20
36.034747
 30
0.0
 10
32.437981
 20
36.630059
 30
0.0
 10
32.437981
 20
37.387985
 30
0.0
  0
SPLINE
  5
16d
100
AcDbEntity
  8
Calque_1
 62
7
100
AcDbSpline
 70
8
 71
3
 72
8
 73
4
 74
0
 40
0
 40
0
 40
0
 40
0
 40
1
 40
1
 40
1
 40
1
 10
32.437981
 20
37.387985
 30
0.0
 10
32.437981
 20
38.148662
 30
0.0
 10
32.625394
 20
38.743974
 30
0.0
 10
33.000220
 20
39.173922
 30
0.0
  0
SPLINE
  5
16e
100
AcDbEntity
  8
Calque_1
 62
7
100
AcDbSpline
 70
8
 71
3
 72
8
 73
4
 74
0
 40
0
 40
0
 40
0
 40
0
 40
1
 40
1
 40
1
 40
1
 10
33.000220
 20
39.173922
 30
0.0
 10
33.377816
 20
39.603870
 30
0.0
 10
33.898719
 20
39.818844
 30
0.0
 10
34.562929
 20
39.818844
 30
0.0
  0
LWPOLYLINE
  5
16f
100
AcDbEntity
  8
Calque_1
 62
7
100
AcDbPolyline
 90
1
 70
1
 10
34.562929
 20
39.173922
 30
0.0
  0
LWPOLYLINE
  5
170
100
AcDbEntity
  8
Calque_1
 62
7
100
AcDbPolyline
 90
1
 70
1
 10
34.562929
 20
39.818844
 30
0.0
  0
SPLINE
  5
171
100
AcDbEntity
  8
Calque_1
 62
7
100
AcDbSpline
 70
8
 71
3
 72
8
 73
4
 74
0
 40
0
 40
0
 40
0
 40
0
 40
1
 40
1
 40
1
 40
1
 10
40.156379
 20
35.763284
 30
0.0
 10
40.605624
 20
35.763284
 30
0.0
 10
40.937729
 20
35.855606
 30
0.0
 10
41.152694
 20
36.040250
 30
0.0
  0
SPLINE
  5
172
100
AcDbEntity
  8
Calque_1
 62
7
100
AcDbSpline
 70
8
 71
3
 72
8
 73
4
 74
0
 40
0
 40
0
 40
0
 40
0
 40
1
 40
1
 40
1
 40
1
 10
41.152694
 20
36.040250
 30
0.0
 10
41.370429
 20
36.227663
 30
0.0
 10
41.479296
 20
36.512919
 30
0.0
 10
41.479296
 20
36.896018
 30
0.0
  0
SPLINE
  5
173
100
AcDbEntity
  8
Calque_1
 62
7
100
AcDbSpline
 70
8
 71
3
 72
8
 73
4
 74
0
 40
0
 40
0
 40
0
 40
0
 40
1
 40
1
 40
1
 40
1
 10
41.479296
 20
36.896018
 30
0.0
 10
41.479296
 20
37.281869
 30
0.0
 10
41.370429
 20
37.565749
 30
0.0
 10
41.152694
 20
37.747659
 30
0.0
  0
SPLINE
  5
174
100
AcDbEntity
  8
Calque_1
 62
7
100
AcDbSpline
 70
8
 71
3
 72
8
 73
4
 74
0
 40
0
 40
0
 40
0
 40
0
 40
1
 40
1
 40
1
 40
1
 10
41.152694
 20
37.747659
 30
0.0
 10
40.937729
 20
37.932303
 30
0.0
 10
40.605624
 20
38.024625
 30
0.0
 10
40.156379
 20
38.024625
 30
0.0
  0
LWPOLYLINE
  5
175
100
AcDbEntity
  8
Calque_1
 62
7
100
AcDbPolyline
 90
3
 70
0
 10
38.816926
 20
38.024625
 30
0.0
 10
38.816926
 20
35.763284
 30
0.0
 10
40.156379
 20
35.763284
 30
0.0
  0
LWPOLYLINE
  5
176
100
AcDbEntity
  8
Calque_1
 62
7
100
AcDbPolyline
 90
2
 70
0
 10
40.156379
 20
38.024625
 30
0.0
 10
38.816926
 20
38.024625
 30
0.0
  0
SPLINE
  5
177
100
AcDbEntity
  8
Calque_1
 62
7
100
AcDbSpline
 70
8
 71
3
 72
8
 73
4
 74
0
 40
0
 40
0
 40
0
 40
0
 40
1
 40
1
 40
1
 40
1
 10
40.053033
 20
38.702620
 30
0.0
 10
40.460932
 20
38.702620
 30
0.0
 10
40.764101
 20
38.778414
 30
0.0
 10
40.962538
 20
38.930003
 30
0.0
  0
SPLINE
  5
178
100
AcDbEntity
  8
Calque_1
 62
7
100
AcDbSpline
 70
8
 71
3
 72
8
 73
4
 74
0
 40
0
 40
0
 40
0
 40
0
 40
1
 40
1
 40
1
 40
1
 10
40.962538
 20
38.930003
 30
0.0
 10
41.163727
 20
39.084343
 30
0.0
 10
41.264322
 20
39.318614
 30
0.0
 10
41.264322
 20
39.632816
 30
0.0
  0
SPLINE
  5
179
100
AcDbEntity
  8
Calque_1
 62
7
100
AcDbSpline
 70
8
 71
3
 72
8
 73
4
 74
0
 40
0
 40
0
 40
0
 40
0
 40
1
 40
1
 40
1
 40
1
 10
41.264322
 20
39.632816
 30
0.0
 10
41.264322
 20
39.944248
 30
0.0
 10
41.163727
 20
40.177134
 30
0.0
 10
40.962538
 20
40.331474
 30
0.0
  0
SPLINE
  5
17a
100
AcDbEntity
  8
Calque_1
 62
7
100
AcDbSpline
 70
8
 71
3
 72
8
 73
4
 74
0
 40
0
 40
0
 40
0
 40
0
 40
1
 40
1
 40
1
 40
1
 10
40.962538
 20
40.331474
 30
0.0
 10
40.764101
 20
40.485815
 30
0.0
 10
40.460932
 20
40.562985
 30
0.0
 10
40.053033
 20
40.562985
 30
0.0
  0
LWPOLYLINE
  5
17b
100
AcDbEntity
  8
Calque_1
 62
7
100
AcDbPolyline
 90
3
 70
0
 10
38.816926
 20
40.562985
 30
0.0
 10
38.816926
 20
38.702620
 30
0.0
 10
40.053033
 20
38.702620
 30
0.0
  0
LWPOLYLINE
  5
17c
100
AcDbEntity
  8
Calque_1
 62
7
100
AcDbPolyline
 90
2
 70
0
 10
40.053033
 20
40.562985
 30
0.0
 10
38.816926
 20
40.562985
 30
0.0
  0
SPLINE
  5
17d
100
AcDbEntity
  8
Calque_1
 62
7
100
AcDbSpline
 70
8
 71
3
 72
8
 73
4
 74
0
 40
0
 40
0
 40
0
 40
0
 40
1
 40
1
 40
1
 40
1
 10
40.115051
 20
41.249242
 30
0.0
 10
40.751692
 20
41.249242
 30
0.0
 10
41.242273
 20
41.116948
 30
0.0
 10
41.586796
 20
40.852359
 30
0.0
  0
SPLINE
  5
17e
100
AcDbEntity
  8
Calque_1
 62
7
100
AcDbSpline
 70
8
 71
3
 72
8
 73
4
 74
0
 40
0
 40
0
 40
0
 40
0
 40
1
 40
1
 40
1
 40
1
 10
41.586796
 20
40.852359
 30
0.0
 10
41.931301
 20
40.587776
 30
0.0
 10
42.103554
 20
40.211574
 30
0.0
 10
42.103554
 20
39.723753
 30
0.0
  0
SPLINE
  5
17f
100
AcDbEntity
  8
Calque_1
 62
7
100
AcDbSpline
 70
8
 71
3
 72
8
 73
4
 74
0
 40
0
 40
0
 40
0
 40
0
 40
1
 40
1
 40
1
 40
1
 10
42.103554
 20
39.723753
 30
0.0
 10
42.103554
 20
39.346175
 30
0.0
 10
42.015359
 20
39.045767
 30
0.0
 10
41.838970
 20
38.822529
 30
0.0
  0
SPLINE
  5
180
100
AcDbEntity
  8
Calque_1
 62
7
100
AcDbSpline
 70
8
 71
3
 72
8
 73
4
 74
0
 40
0
 40
0
 40
0
 40
0
 40
1
 40
1
 40
1
 40
1
 10
41.838970
 20
38.822529
 30
0.0
 10
41.662582
 20
38.599274
 30
0.0
 10
41.403510
 20
38.460085
 30
0.0
 10
41.061757
 20
38.404964
 30
0.0
  0
SPLINE
  5
181
100
AcDbEntity
  8
Calque_1
 62
7
100
AcDbSpline
 70
8
 71
3
 72
8
 73
4
 74
0
 40
0
 40
0
 40
0
 40
0
 40
1
 40
1
 40
1
 40
1
 10
41.061757
 20
38.404964
 30
0.0
 10
41.472408
 20
38.316769
 30
0.0
 10
41.790737
 20
38.132117
 30
0.0
 10
42.016744
 20
37.851006
 30
0.0
  0
SPLINE
  5
182
100
AcDbEntity
  8
Calque_1
 62
7
100
AcDbSpline
 70
8
 71
3
 72
8
 73
4
 74
0
 40
0
 40
0
 40
0
 40
0
 40
1
 40
1
 40
1
 40
1
 10
42.016744
 20
37.851006
 30
0.0
 10
42.245485
 20
37.572646
 30
0.0
 10
42.359856
 20
37.224005
 30
0.0
 10
42.359856
 20
36.805081
 30
0.0
  0
SPLINE
  5
183
100
AcDbEntity
  8
Calque_1
 62
7
100
AcDbSpline
 70
8
 71
3
 72
8
 73
4
 74
0
 40
0
 40
0
 40
0
 40
0
 40
1
 40
1
 40
1
 40
1
 10
42.359856
 20
36.805081
 30
0.0
 10
42.359856
 20
36.253866
 30
0.0
 10
42.172442
 20
35.828045
 30
0.0
 10
41.797616
 20
35.527620
 30
0.0
  0
SPLINE
  5
184
100
AcDbEntity
  8
Calque_1
 62
7
100
AcDbSpline
 70
8
 71
3
 72
8
 73
4
 74
0
 40
0
 40
0
 40
0
 40
0
 40
1
 40
1
 40
1
 40
1
 10
41.797616
 20
35.527620
 30
0.0
 10
41.422790
 20
35.227212
 30
0.0
 10
40.889495
 20
35.077008
 30
0.0
 10
40.197734
 20
35.077008
 30
0.0
  0
LWPOLYLINE
  5
185
100
AcDbEntity
  8
Calque_1
 62
7
100
AcDbPolyline
 90
2
 70
0
 10
37.981848
 20
41.249242
 30
0.0
 10
40.115051
 20
41.249242
 30
0.0
  0
SPLINE
  5
186
100
AcDbEntity
  8
Calque_1
 62
7
100
AcDbSpline
 70
8
 71
3
 72
8
 73
4
 74
0
 40
0
 40
0
 40
0
 40
0
 40
1
 40
1
 40
1
 40
1
 10
45.551392
 20
39.173922
 30
0.0
 10
45.143493
 20
39.173922
 30
0.0
 10
44.821036
 20
39.014070
 30
0.0
 10
44.584022
 20
38.694365
 30
0.0
  0
SPLINE
  5
187
100
AcDbEntity
  8
Calque_1
 62
7
100
AcDbSpline
 70
8
 71
3
 72
8
 73
4
 74
0
 40
0
 40
0
 40
0
 40
0
 40
1
 40
1
 40
1
 40
1
 10
44.584022
 20
38.694365
 30
0.0
 10
44.346991
 20
38.377412
 30
0.0
 10
44.228475
 20
37.941952
 30
0.0
 10
44.228475
 20
37.387985
 30
0.0
  0
SPLINE
  5
188
100
AcDbEntity
  8
Calque_1
 62
7
100
AcDbSpline
 70
8
 71
3
 72
8
 73
4
 74
0
 40
0
 40
0
 40
0
 40
0
 40
1
 40
1
 40
1
 40
1
 10
44.228475
 20
37.387985
 30
0.0
 10
44.228475
 20
36.834018
 30
0.0
 10
44.345615
 20
36.397182
 30
0.0
 10
44.579895
 20
36.077477
 30
0.0
  0
SPLINE
  5
189
100
AcDbEntity
  8
Calque_1
 62
7
100
AcDbSpline
 70
8
 71
3
 72
8
 73
4
 74
0
 40
0
 40
0
 40
0
 40
0
 40
1
 40
1
 40
1
 40
1
 10
44.579895
 20
36.077477
 30
0.0
 10
44.816909
 20
35.760524
 30
0.0
 10
45.140741
 20
35.602047
 30
0.0
 10
45.551392
 20
35.602047
 30
0.0
  0
SPLINE
  5
18a
100
AcDbEntity
  8
Calque_1
 62
7
100
AcDbSpline
 70
8
 71
3
 72
8
 73
4
 74
0
 40
0
 40
0
 40
0
 40
0
 40
1
 40
1
 40
1
 40
1
 10
45.551392
 20
35.602047
 30
0.0
 10
45.956540
 20
35.602047
 30
0.0
 10
46.277629
 20
35.761900
 30
0.0
 10
46.514661
 20
36.081605
 30
0.0
  0
SPLINE
  5
18b
100
AcDbEntity
  8
Calque_1
 62
7
100
AcDbSpline
 70
8
 71
3
 72
8
 73
4
 74
0
 40
0
 40
0
 40
0
 40
0
 40
1
 40
1
 40
1
 40
1
 10
46.514661
 20
36.081605
 30
0.0
 10
46.751674
 20
36.401309
 30
0.0
 10
46.870181
 20
36.836769
 30
0.0
 10
46.870181
 20
37.387985
 30
0.0
  0
SPLINE
  5
18c
100
AcDbEntity
  8
Calque_1
 62
7
100
AcDbSpline
 70
8
 71
3
 72
8
 73
4
 74
0
 40
0
 40
0
 40
0
 40
0
 40
1
 40
1
 40
1
 40
1
 10
46.870181
 20
37.387985
 30
0.0
 10
46.870181
 20
37.936448
 30
0.0
 10
46.751674
 20
38.370533
 30
0.0
 10
46.514661
 20
38.690237
 30
0.0
  0
SPLINE
  5
18d
100
AcDbEntity
  8
Calque_1
 62
7
100
AcDbSpline
 70
8
 71
3
 72
8
 73
4
 74
0
 40
0
 40
0
 40
0
 40
0
 40
1
 40
1
 40
1
 40
1
 10
46.514661
 20
38.690237
 30
0.0
 10
46.277629
 20
39.012694
 30
0.0
 10
45.956540
 20
39.173922
 30
0.0
 10
45.551392
 20
39.173922
 30
0.0
  0
LWPOLYLINE
  5
18e
100
AcDbEntity
  8
Calque_1
 62
7
100
AcDbPolyline
 90
3
 70
0
 10
40.197734
 20
35.077008
 30
0.0
 10
37.981848
 20
35.077008
 30
0.0
 10
37.981848
 20
41.249242
 30
0.0
  0
SPLINE
  5
18f
100
AcDbEntity
  8
Calque_1
 62
7
100
AcDbSpline
 70
8
 71
3
 72
8
 73
4
 74
0
 40
0
 40
0
 40
0
 40
0
 40
1
 40
1
 40
1
 40
1
 10
45.551392
 20
39.818844
 30
0.0
 10
46.212850
 20
39.818844
 30
0.0
 10
46.732377
 20
39.603870
 30
0.0
 10
47.109973
 20
39.173922
 30
0.0
  0
SPLINE
  5
190
100
AcDbEntity
  8
Calque_1
 62
7
100
AcDbSpline
 70
8
 71
3
 72
8
 73
4
 74
0
 40
0
 40
0
 40
0
 40
0
 40
1
 40
1
 40
1
 40
1
 10
47.109973
 20
39.173922
 30
0.0
 10
47.487551
 20
38.743974
 30
0.0
 10
47.676340
 20
38.148662
 30
0.0
 10
47.676340
 20
37.387985
 30
0.0
  0
SPLINE
  5
191
100
AcDbEntity
  8
Calque_1
 62
7
100
AcDbSpline
 70
8
 71
3
 72
8
 73
4
 74
0
 40
0
 40
0
 40
0
 40
0
 40
1
 40
1
 40
1
 40
1
 10
47.676340
 20
37.387985
 30
0.0
 10
47.676340
 20
36.630059
 30
0.0
 10
47.487551
 20
36.034747
 30
0.0
 10
47.109973
 20
35.602047
 30
0.0
  0
SPLINE
  5
192
100
AcDbEntity
  8
Calque_1
 62
7
100
AcDbSpline
 70
8
 71
3
 72
8
 73
4
 74
0
 40
0
 40
0
 40
0
 40
0
 40
1
 40
1
 40
1
 40
1
 10
47.109973
 20
35.602047
 30
0.0
 10
46.732377
 20
35.172099
 30
0.0
 10
46.212850
 20
34.957125
 30
0.0
 10
45.551392
 20
34.957125
 30
0.0
  0
SPLINE
  5
193
100
AcDbEntity
  8
Calque_1
 62
7
100
AcDbSpline
 70
8
 71
3
 72
8
 73
4
 74
0
 40
0
 40
0
 40
0
 40
0
 40
1
 40
1
 40
1
 40
1
 10
45.551392
 20
34.957125
 30
0.0
 10
44.887182
 20
34.957125
 30
0.0
 10
44.366288
 20
35.172099
 30
0.0
 10
43.988710
 20
35.602047
 30
0.0
  0
SPLINE
  5
194
100
AcDbEntity
  8
Calque_1
 62
7
100
AcDbSpline
 70
8
 71
3
 72
8
 73
4
 74
0
 40
0
 40
0
 40
0
 40
0
 40
1
 40
1
 40
1
 40
1
 10
43.988710
 20
35.602047
 30
0.0
 10
43.613884
 20
36.034747
 30
0.0
 10
43.426470
 20
36.630059
 30
0.0
 10
43.426470
 20
37.387985
 30
0.0
  0
SPLINE
  5
195
100
AcDbEntity
  8
Calque_1
 62
7
100
AcDbSpline
 70
8
 71
3
 72
8
 73
4
 74
0
 40
0
 40
0
 40
0
 40
0
 40
1
 40
1
 40
1
 40
1
 10
43.426470
 20
37.387985
 30
0.0
 10
43.426470
 20
38.148662
 30
0.0
 10
43.613884
 20
38.743974
 30
0.0
 10
43.988710
 20
39.173922
 30
0.0
  0
SPLINE
  5
196
100
AcDbEntity
  8
Calque_1
 62
7
100
AcDbSpline
 70
8
 71
3
 72
8
 73
4
 74
0
 40
0
 40
0
 40
0
 40
0
 40
1
 40
1
 40
1
 40
1
 10
43.988710
 20
39.173922
 30
0.0
 10
44.366288
 20
39.603870
 30
0.0
 10
44.887182
 20
39.818844
 30
0.0
 10
45.551392
 20
39.818844
 30
0.0
  0
LWPOLYLINE
  5
197
100
AcDbEntity
  8
Calque_1
 62
7
100
AcDbPolyline
 90
1
 70
1
 10
45.551392
 20
39.173922
 30
0.0
  0
LWPOLYLINE
  5
198
100
AcDbEntity
  8
Calque_1
 62
7
100
AcDbPolyline
 90
1
 70
1
 10
45.551392
 20
39.818844
 30
0.0
  0
LWPOLYLINE
  5
199
100
AcDbEntity
  8
Calque_1
 62
7
100
AcDbPolyline
 90
12
 70
1
 10
52.525650
 20
39.707216
 30
0.0
 10
50.851340
 20
37.454131
 30
0.0
 10
52.612460
 20
35.077008
 30
0.0
 10
51.715363
 20
35.077008
 30
0.0
 10
50.367655
 20
36.896018
 30
0.0
 10
49.019921
 20
35.077008
 30
0.0
 10
48.122825
 20
35.077008
 30
0.0
 10
49.921171
 20
37.499612
 30
0.0
 10
48.275780
 20
39.707216
 30
0.0
 10
49.172876
 20
39.707216
 30
0.0
 10
50.400728
 20
38.057698
 30
0.0
 10
51.628554
 20
39.707216
 30
0.0
  0
ENDSEC
  0
SECTION
  2
OBJECTS
  0
DICTIONARY
  5
C
330
0
100
AcDbDictionary
  3
ACAD_GROUP
350
D
  3
ACAD_MLINESTYLE
350
17
  0
DICTIONARY
  5
D
330
C
100
AcDbDictionary
  0
DICTIONARY
  5
1A
330
C
100
AcDbDictionary
  0
DICTIONARY
  5
17
330
C
100
AcDbDictionary
  3
STANDARD
350
18
  0
DICTIONARY
  5
19
330
C
100
AcDbDictionary
  0
ENDSEC
  0
EOF
