M48
; DRILL file {KiCad 5.1.5} date Wed Mar  4 16:52:46 2020
; FORMAT={-:-/ absolute / inch / decimal}
; #@! TF.CreationDate,2020-03-04T16:52:46+01:00
; #@! TF.GenerationSoftware,Kicad,Pcbnew,5.1.5
; #@! TF.FileFunction,Plated,1,2,PTH
FMAT,2
INCH
T1C0.0157
T2C0.0300
T3C0.0314
T4C0.0350
T5C0.0394
T6C0.0450
%
G90
G05
T1
X6.4567Y-3.7402
X6.6929Y-3.1496
T3
X5.4331Y-3.0158
X5.5119Y-3.0157
X5.5905Y-3.0157
X5.6693Y-3.0157
X7.002Y-3.0158
X7.0808Y-3.0157
X7.1594Y-3.0157
X7.2382Y-3.0157
T4
X7.5394Y-3.168
X7.5394Y-3.248
X7.5394Y-3.328
X6.2465Y-3.4567
X6.3465Y-3.4567
X6.4465Y-3.4567
T5
X5.3037Y-3.937
X5.3037Y-4.037
X5.3037Y-4.137
X5.3037Y-4.237
X5.3037Y-4.337
X5.3037Y-4.437
X5.3037Y-4.537
X5.3037Y-4.637
X6.2037Y-3.937
X6.2037Y-4.037
X6.2037Y-4.137
X6.2037Y-4.237
X6.2037Y-4.337
X6.2037Y-4.437
X6.2037Y-4.537
X6.2037Y-4.637
X6.4848Y-3.937
X6.4848Y-4.037
X6.4848Y-4.137
X6.4848Y-4.237
X6.4848Y-4.337
X6.4848Y-4.437
X6.4848Y-4.537
X6.4848Y-4.637
X7.3848Y-3.937
X7.3848Y-4.037
X7.3848Y-4.137
X7.3848Y-4.237
X7.3848Y-4.337
X7.3848Y-4.437
X7.3848Y-4.537
X7.3848Y-4.637
T6
X5.6057Y-4.2296
X5.6057Y-4.3996
X5.8957Y-4.2296
X5.8957Y-4.3996
T2
G00X7.515Y-3.084
M15
G01X7.5637Y-3.084
M16
G05
G00X7.515Y-3.412
M15
G01X7.5637Y-3.412
M16
G05
T0
M30
