G04 #@! TF.GenerationSoftware,KiCad,Pcbnew,5.1.5*
G04 #@! TF.CreationDate,2020-03-04T16:52:44+01:00*
G04 #@! TF.ProjectId,captobox,63617074-6f62-46f7-982e-6b696361645f,rev?*
G04 #@! TF.SameCoordinates,Original*
G04 #@! TF.FileFunction,Copper,L1,Top*
G04 #@! TF.FilePolarity,Positive*
%FSLAX46Y46*%
G04 Gerber Fmt 4.6, Leading zero omitted, Abs format (unit mm)*
G04 Created by KiCad (PCBNEW 5.1.5) date 2020-03-04 16:52:44*
%MOMM*%
%LPD*%
G04 APERTURE LIST*
%ADD10O,2.000000X1.600000*%
%ADD11R,2.000000X2.000000*%
%ADD12C,1.270000*%
%ADD13R,1.270000X1.270000*%
%ADD14C,1.651000*%
%ADD15R,1.651000X1.651000*%
%ADD16O,2.794000X1.397000*%
%ADD17C,1.905000*%
%ADD18R,1.905000X1.905000*%
%ADD19C,0.600000*%
%ADD20C,0.400000*%
G04 APERTURE END LIST*
D10*
X187575001Y-100000000D03*
X187575001Y-102540000D03*
X187575001Y-105080000D03*
X187575001Y-107620000D03*
X187575001Y-110160000D03*
X187575001Y-112700000D03*
X187575001Y-115240000D03*
X187575001Y-117780000D03*
X164715001Y-117780000D03*
X164715001Y-115240000D03*
X164715001Y-112700000D03*
X164715001Y-110160000D03*
X164715001Y-107620000D03*
X164715001Y-105080000D03*
D11*
X164715001Y-100000000D03*
D10*
X164715001Y-102540000D03*
X134715001Y-102540000D03*
D11*
X134715001Y-100000000D03*
D10*
X134715001Y-105080000D03*
X134715001Y-107620000D03*
X134715001Y-110160000D03*
X134715001Y-112700000D03*
X134715001Y-115240000D03*
X134715001Y-117780000D03*
X157575001Y-117780000D03*
X157575001Y-115240000D03*
X157575001Y-112700000D03*
X157575001Y-110160000D03*
X157575001Y-107620000D03*
X157575001Y-105080000D03*
X157575001Y-102540000D03*
X157575001Y-100000000D03*
D12*
X143999740Y-76600000D03*
X141998220Y-76600000D03*
X140001780Y-76600000D03*
D13*
X138000260Y-76600120D03*
D14*
X163740000Y-87800000D03*
X161200000Y-87800000D03*
D15*
X158660000Y-87800000D03*
D13*
X177850520Y-76600120D03*
D12*
X179852040Y-76600000D03*
X181848480Y-76600000D03*
X183850000Y-76600000D03*
D14*
X191500000Y-80468000D03*
X191500000Y-84532000D03*
D15*
X191500000Y-82500000D03*
D16*
X191500000Y-78334400D03*
X191500000Y-86665600D03*
D17*
X149750000Y-107432000D03*
X149750000Y-111750000D03*
X142384000Y-111750000D03*
D18*
X142384000Y-107432000D03*
D19*
X170000000Y-80000000D03*
X164000000Y-95000000D03*
D20*
X158660000Y-87800000D02*
X143200000Y-87800000D01*
X143200000Y-87800000D02*
X139000000Y-92000000D01*
X139000000Y-92000000D02*
X139000000Y-99000000D01*
X138000000Y-100000000D02*
X134715001Y-100000000D01*
X139000000Y-99000000D02*
X138000000Y-100000000D01*
X143999740Y-76600000D02*
X154600000Y-76600000D01*
X161200000Y-83200000D02*
X161200000Y-87800000D01*
X154600000Y-76600000D02*
X161200000Y-83200000D01*
X184000000Y-78000000D02*
X183850000Y-77850000D01*
X180000000Y-81000000D02*
X183000000Y-78000000D01*
X173600000Y-76600000D02*
X174000000Y-77000000D01*
X183000000Y-78000000D02*
X184000000Y-78000000D01*
X154600000Y-76600000D02*
X173600000Y-76600000D01*
X174000000Y-78000000D02*
X177000000Y-81000000D01*
X183850000Y-77850000D02*
X183850000Y-76600000D01*
X174000000Y-77000000D02*
X174000000Y-78000000D01*
X177000000Y-81000000D02*
X180000000Y-81000000D01*
X161200000Y-88967433D02*
X161200000Y-87800000D01*
X161200000Y-100424999D02*
X161200000Y-88967433D01*
X163315001Y-102540000D02*
X161200000Y-100424999D01*
X164715001Y-102540000D02*
X163315001Y-102540000D01*
X134715001Y-102540000D02*
X140540000Y-102540000D01*
X142384000Y-104384000D02*
X142384000Y-107432000D01*
X161200000Y-100424999D02*
X161200000Y-96200000D01*
X161200000Y-96200000D02*
X160400000Y-97000000D01*
X160400000Y-97000000D02*
X149000000Y-97000000D01*
X149000000Y-97000000D02*
X142000000Y-104000000D01*
X140540000Y-102540000D02*
X142000000Y-104000000D01*
X142000000Y-104000000D02*
X142384000Y-104384000D01*
X181848480Y-77498025D02*
X181848480Y-76600000D01*
X179346505Y-80000000D02*
X181848480Y-77498025D01*
X177000000Y-80000000D02*
X179346505Y-80000000D01*
X175000000Y-78000000D02*
X177000000Y-80000000D01*
X141998220Y-76600000D02*
X141998220Y-75001780D01*
X175000000Y-75000000D02*
X175000000Y-78000000D01*
X141998220Y-75001780D02*
X143000000Y-74000000D01*
X143000000Y-74000000D02*
X174000000Y-74000000D01*
X174000000Y-74000000D02*
X175000000Y-75000000D01*
X170000000Y-80000000D02*
X170000000Y-89000000D01*
X170000000Y-89000000D02*
X164000000Y-95000000D01*
X138000260Y-75565120D02*
X141565380Y-72000000D01*
X138000260Y-76600120D02*
X138000260Y-75565120D01*
X177850520Y-75565120D02*
X177850520Y-76600120D01*
X174285400Y-72000000D02*
X177850520Y-75565120D01*
X141565380Y-72000000D02*
X174285400Y-72000000D01*
X138000260Y-77635120D02*
X130000000Y-85635380D01*
X138000260Y-76600120D02*
X138000260Y-77635120D01*
X130000000Y-85635380D02*
X130000000Y-110000000D01*
X132700000Y-112700000D02*
X134715001Y-112700000D01*
X130000000Y-110000000D02*
X132700000Y-112700000D01*
X140001780Y-76600000D02*
X140001780Y-74998220D01*
X140001780Y-74998220D02*
X142000000Y-73000000D01*
X142000000Y-73000000D02*
X174000000Y-73000000D01*
X174000000Y-73000000D02*
X176000000Y-75000000D01*
X176000000Y-75000000D02*
X176000000Y-78000000D01*
X176000000Y-78000000D02*
X177000000Y-79000000D01*
X177000000Y-79000000D02*
X179000000Y-79000000D01*
X179852040Y-78147960D02*
X179852040Y-76600000D01*
X179000000Y-79000000D02*
X179852040Y-78147960D01*
X140001780Y-79998220D02*
X140001780Y-76600000D01*
X137000000Y-83000000D02*
X140001780Y-79998220D01*
X133315001Y-110160000D02*
X131155001Y-108000000D01*
X131155001Y-108000000D02*
X131155001Y-99844999D01*
X131155001Y-99844999D02*
X137000000Y-94000000D01*
X134715001Y-110160000D02*
X133315001Y-110160000D01*
X137000000Y-94000000D02*
X137000000Y-83000000D01*
X136906962Y-107620000D02*
X134715001Y-107620000D01*
X142384000Y-111750000D02*
X141036962Y-111750000D01*
X141036962Y-111750000D02*
X136906962Y-107620000D01*
X190332567Y-84532000D02*
X191500000Y-84532000D01*
X164715001Y-98600000D02*
X178783001Y-84532000D01*
X178783001Y-84532000D02*
X190332567Y-84532000D01*
X164715001Y-100000000D02*
X164715001Y-98600000D01*
M02*
