G04 #@! TF.GenerationSoftware,KiCad,Pcbnew,5.1.5*
G04 #@! TF.CreationDate,2020-03-04T16:52:44+01:00*
G04 #@! TF.ProjectId,captobox,63617074-6f62-46f7-982e-6b696361645f,rev?*
G04 #@! TF.SameCoordinates,Original*
G04 #@! TF.FileFunction,Soldermask,Bot*
G04 #@! TF.FilePolarity,Negative*
%FSLAX46Y46*%
G04 Gerber Fmt 4.6, Leading zero omitted, Abs format (unit mm)*
G04 Created by KiCad (PCBNEW 5.1.5) date 2020-03-04 16:52:44*
%MOMM*%
%LPD*%
G04 APERTURE LIST*
%ADD10O,2.400000X2.000000*%
%ADD11R,2.400000X2.400000*%
%ADD12C,1.670000*%
%ADD13R,1.670000X1.670000*%
%ADD14C,2.051000*%
%ADD15R,2.051000X2.051000*%
%ADD16O,3.194000X1.797000*%
%ADD17C,2.305000*%
%ADD18R,2.305000X2.305000*%
G04 APERTURE END LIST*
D10*
X187575001Y-100000000D03*
X187575001Y-102540000D03*
X187575001Y-105080000D03*
X187575001Y-107620000D03*
X187575001Y-110160000D03*
X187575001Y-112700000D03*
X187575001Y-115240000D03*
X187575001Y-117780000D03*
X164715001Y-117780000D03*
X164715001Y-115240000D03*
X164715001Y-112700000D03*
X164715001Y-110160000D03*
X164715001Y-107620000D03*
X164715001Y-105080000D03*
D11*
X164715001Y-100000000D03*
D10*
X164715001Y-102540000D03*
X134715001Y-102540000D03*
D11*
X134715001Y-100000000D03*
D10*
X134715001Y-105080000D03*
X134715001Y-107620000D03*
X134715001Y-110160000D03*
X134715001Y-112700000D03*
X134715001Y-115240000D03*
X134715001Y-117780000D03*
X157575001Y-117780000D03*
X157575001Y-115240000D03*
X157575001Y-112700000D03*
X157575001Y-110160000D03*
X157575001Y-107620000D03*
X157575001Y-105080000D03*
X157575001Y-102540000D03*
X157575001Y-100000000D03*
D12*
X143999740Y-76600000D03*
X141998220Y-76600000D03*
X140001780Y-76600000D03*
D13*
X138000260Y-76600120D03*
D14*
X163740000Y-87800000D03*
X161200000Y-87800000D03*
D15*
X158660000Y-87800000D03*
D13*
X177850520Y-76600120D03*
D12*
X179852040Y-76600000D03*
X181848480Y-76600000D03*
X183850000Y-76600000D03*
D14*
X191500000Y-80468000D03*
X191500000Y-84532000D03*
D15*
X191500000Y-82500000D03*
D16*
X191500000Y-78334400D03*
X191500000Y-86665600D03*
D17*
X149750000Y-107432000D03*
X149750000Y-111750000D03*
X142384000Y-111750000D03*
D18*
X142384000Y-107432000D03*
M02*
