G04 #@! TF.GenerationSoftware,KiCad,Pcbnew,5.1.5*
G04 #@! TF.CreationDate,2020-03-04T16:52:44+01:00*
G04 #@! TF.ProjectId,captobox,63617074-6f62-46f7-982e-6b696361645f,rev?*
G04 #@! TF.SameCoordinates,Original*
G04 #@! TF.FileFunction,Legend,Top*
G04 #@! TF.FilePolarity,Positive*
%FSLAX46Y46*%
G04 Gerber Fmt 4.6, Leading zero omitted, Abs format (unit mm)*
G04 Created by KiCad (PCBNEW 5.1.5) date 2020-03-04 16:52:44*
%MOMM*%
%LPD*%
G04 APERTURE LIST*
%ADD10C,0.150000*%
%ADD11C,0.200000*%
%ADD12C,0.120000*%
%ADD13C,0.127000*%
%ADD14C,0.066040*%
%ADD15C,0.101600*%
%ADD16C,0.076200*%
G04 APERTURE END LIST*
D10*
X192452380Y-114404761D02*
X192452380Y-114880952D01*
X191452380Y-114880952D01*
X192404761Y-113690476D02*
X192452380Y-113785714D01*
X192452380Y-113976190D01*
X192404761Y-114071428D01*
X192309523Y-114119047D01*
X191928571Y-114119047D01*
X191833333Y-114071428D01*
X191785714Y-113976190D01*
X191785714Y-113785714D01*
X191833333Y-113690476D01*
X191928571Y-113642857D01*
X192023809Y-113642857D01*
X192119047Y-114119047D01*
X192404761Y-113261904D02*
X192452380Y-113166666D01*
X192452380Y-112976190D01*
X192404761Y-112880952D01*
X192309523Y-112833333D01*
X192261904Y-112833333D01*
X192166666Y-112880952D01*
X192119047Y-112976190D01*
X192119047Y-113119047D01*
X192071428Y-113214285D01*
X191976190Y-113261904D01*
X191928571Y-113261904D01*
X191833333Y-113214285D01*
X191785714Y-113119047D01*
X191785714Y-112976190D01*
X191833333Y-112880952D01*
X192452380Y-111642857D02*
X191452380Y-111642857D01*
X191452380Y-111261904D01*
X191500000Y-111166666D01*
X191547619Y-111119047D01*
X191642857Y-111071428D01*
X191785714Y-111071428D01*
X191880952Y-111119047D01*
X191928571Y-111166666D01*
X191976190Y-111261904D01*
X191976190Y-111642857D01*
X192404761Y-110261904D02*
X192452380Y-110357142D01*
X192452380Y-110547619D01*
X192404761Y-110642857D01*
X192309523Y-110690476D01*
X191928571Y-110690476D01*
X191833333Y-110642857D01*
X191785714Y-110547619D01*
X191785714Y-110357142D01*
X191833333Y-110261904D01*
X191928571Y-110214285D01*
X192023809Y-110214285D01*
X192119047Y-110690476D01*
X191785714Y-109928571D02*
X191785714Y-109547619D01*
X191452380Y-109785714D02*
X192309523Y-109785714D01*
X192404761Y-109738095D01*
X192452380Y-109642857D01*
X192452380Y-109547619D01*
X192452380Y-109214285D02*
X191785714Y-109214285D01*
X191452380Y-109214285D02*
X191500000Y-109261904D01*
X191547619Y-109214285D01*
X191500000Y-109166666D01*
X191452380Y-109214285D01*
X191547619Y-109214285D01*
X191785714Y-108880952D02*
X191785714Y-108500000D01*
X191452380Y-108738095D02*
X192309523Y-108738095D01*
X192404761Y-108690476D01*
X192452380Y-108595238D01*
X192452380Y-108500000D01*
X192404761Y-108214285D02*
X192452380Y-108119047D01*
X192452380Y-107928571D01*
X192404761Y-107833333D01*
X192309523Y-107785714D01*
X192261904Y-107785714D01*
X192166666Y-107833333D01*
X192119047Y-107928571D01*
X192119047Y-108071428D01*
X192071428Y-108166666D01*
X191976190Y-108214285D01*
X191928571Y-108214285D01*
X191833333Y-108166666D01*
X191785714Y-108071428D01*
X191785714Y-107928571D01*
X191833333Y-107833333D01*
X192452380Y-106595238D02*
X191452380Y-106595238D01*
X191452380Y-106357142D01*
X191500000Y-106214285D01*
X191595238Y-106119047D01*
X191690476Y-106071428D01*
X191880952Y-106023809D01*
X192023809Y-106023809D01*
X192214285Y-106071428D01*
X192309523Y-106119047D01*
X192404761Y-106214285D01*
X192452380Y-106357142D01*
X192452380Y-106595238D01*
X192404761Y-105214285D02*
X192452380Y-105309523D01*
X192452380Y-105500000D01*
X192404761Y-105595238D01*
X192309523Y-105642857D01*
X191928571Y-105642857D01*
X191833333Y-105595238D01*
X191785714Y-105500000D01*
X191785714Y-105309523D01*
X191833333Y-105214285D01*
X191928571Y-105166666D01*
X192023809Y-105166666D01*
X192119047Y-105642857D01*
X191404761Y-105309523D02*
X191547619Y-105452380D01*
X192452380Y-104738095D02*
X191452380Y-104738095D01*
X191833333Y-104738095D02*
X191785714Y-104642857D01*
X191785714Y-104452380D01*
X191833333Y-104357142D01*
X191880952Y-104309523D01*
X191976190Y-104261904D01*
X192261904Y-104261904D01*
X192357142Y-104309523D01*
X192404761Y-104357142D01*
X192452380Y-104452380D01*
X192452380Y-104642857D01*
X192404761Y-104738095D01*
X192452380Y-103833333D02*
X191785714Y-103833333D01*
X191976190Y-103833333D02*
X191880952Y-103785714D01*
X191833333Y-103738095D01*
X191785714Y-103642857D01*
X191785714Y-103547619D01*
X192452380Y-103071428D02*
X192404761Y-103166666D01*
X192357142Y-103214285D01*
X192261904Y-103261904D01*
X191976190Y-103261904D01*
X191880952Y-103214285D01*
X191833333Y-103166666D01*
X191785714Y-103071428D01*
X191785714Y-102928571D01*
X191833333Y-102833333D01*
X191880952Y-102785714D01*
X191976190Y-102738095D01*
X192261904Y-102738095D01*
X192357142Y-102785714D01*
X192404761Y-102833333D01*
X192452380Y-102928571D01*
X192452380Y-103071428D01*
X191785714Y-101880952D02*
X192452380Y-101880952D01*
X191785714Y-102309523D02*
X192309523Y-102309523D01*
X192404761Y-102261904D01*
X192452380Y-102166666D01*
X192452380Y-102023809D01*
X192404761Y-101928571D01*
X192357142Y-101880952D01*
X192452380Y-101404761D02*
X191785714Y-101404761D01*
X191452380Y-101404761D02*
X191500000Y-101452380D01*
X191547619Y-101404761D01*
X191500000Y-101357142D01*
X191452380Y-101404761D01*
X191547619Y-101404761D01*
X192452380Y-100785714D02*
X192404761Y-100880952D01*
X192309523Y-100928571D01*
X191452380Y-100928571D01*
X192452380Y-100261904D02*
X192404761Y-100357142D01*
X192309523Y-100404761D01*
X191452380Y-100404761D01*
X192452380Y-99452380D02*
X191928571Y-99452380D01*
X191833333Y-99500000D01*
X191785714Y-99595238D01*
X191785714Y-99785714D01*
X191833333Y-99880952D01*
X192404761Y-99452380D02*
X192452380Y-99547619D01*
X192452380Y-99785714D01*
X192404761Y-99880952D01*
X192309523Y-99928571D01*
X192214285Y-99928571D01*
X192119047Y-99880952D01*
X192071428Y-99785714D01*
X192071428Y-99547619D01*
X192023809Y-99452380D01*
X192452380Y-98976190D02*
X191785714Y-98976190D01*
X191976190Y-98976190D02*
X191880952Y-98928571D01*
X191833333Y-98880952D01*
X191785714Y-98785714D01*
X191785714Y-98690476D01*
X192452380Y-97928571D02*
X191452380Y-97928571D01*
X192404761Y-97928571D02*
X192452380Y-98023809D01*
X192452380Y-98214285D01*
X192404761Y-98309523D01*
X192357142Y-98357142D01*
X192261904Y-98404761D01*
X191976190Y-98404761D01*
X191880952Y-98357142D01*
X191833333Y-98309523D01*
X191785714Y-98214285D01*
X191785714Y-98023809D01*
X191833333Y-97928571D01*
X192404761Y-97500000D02*
X192452380Y-97404761D01*
X192452380Y-97214285D01*
X192404761Y-97119047D01*
X192309523Y-97071428D01*
X192261904Y-97071428D01*
X192166666Y-97119047D01*
X192119047Y-97214285D01*
X192119047Y-97357142D01*
X192071428Y-97452380D01*
X191976190Y-97500000D01*
X191928571Y-97500000D01*
X191833333Y-97452380D01*
X191785714Y-97357142D01*
X191785714Y-97214285D01*
X191833333Y-97119047D01*
D11*
X159854636Y-85055283D02*
X159657335Y-85050868D01*
X159657335Y-85050868D02*
X159469632Y-85037113D01*
X159469632Y-85037113D02*
X159290188Y-85012753D01*
X159290188Y-85012753D02*
X159124198Y-84977257D01*
X159124198Y-84977257D02*
X158971563Y-84929389D01*
X158971563Y-84929389D02*
X158832484Y-84867234D01*
X158832484Y-84867234D02*
X158709984Y-84789494D01*
X158709984Y-84789494D02*
X158639193Y-84728681D01*
X159069141Y-81016260D02*
X159069141Y-83529801D01*
X175737891Y-82744306D02*
X175732420Y-82545515D01*
X175732420Y-82545515D02*
X175716313Y-82359802D01*
X175716313Y-82359802D02*
X175689699Y-82185039D01*
X175689699Y-82185039D02*
X175652870Y-82021740D01*
X175652870Y-82021740D02*
X175605445Y-81867864D01*
X175605445Y-81867864D02*
X175548060Y-81725208D01*
X175548060Y-81725208D02*
X175480374Y-81592497D01*
X175480374Y-81592497D02*
X175402135Y-81469368D01*
X175402135Y-81469368D02*
X175382371Y-81442054D01*
X175382371Y-84050686D02*
X175462493Y-83930720D01*
X175462493Y-83930720D02*
X175532929Y-83799678D01*
X175532929Y-83799678D02*
X175592647Y-83659381D01*
X175592647Y-83659381D02*
X175642198Y-83508746D01*
X175642198Y-83508746D02*
X175681586Y-83347375D01*
X175681586Y-83347375D02*
X175710637Y-83175505D01*
X175710637Y-83175505D02*
X175729235Y-82993831D01*
X175729235Y-82993831D02*
X175737462Y-82801214D01*
X175737462Y-82801214D02*
X175737891Y-82744306D01*
X155918959Y-81429671D02*
X155830019Y-81318296D01*
X155830019Y-81318296D02*
X155729313Y-81218282D01*
X155729313Y-81218282D02*
X155615258Y-81130909D01*
X155615258Y-81130909D02*
X155487435Y-81058577D01*
X155487435Y-81058577D02*
X155342816Y-81002513D01*
X155342816Y-81002513D02*
X155179370Y-80965383D01*
X155179370Y-80965383D02*
X154992778Y-80950252D01*
X154992778Y-80950252D02*
X154972227Y-80950114D01*
X156266225Y-82744306D02*
X156261191Y-82547550D01*
X156261191Y-82547550D02*
X156246016Y-82360608D01*
X156246016Y-82360608D02*
X156220575Y-82183598D01*
X156220575Y-82183598D02*
X156185239Y-82018602D01*
X156185239Y-82018602D02*
X156139530Y-81863234D01*
X156139530Y-81863234D02*
X156083640Y-81718540D01*
X156083640Y-81718540D02*
X156017565Y-81584516D01*
X156017565Y-81584516D02*
X155940894Y-81460568D01*
X155940894Y-81460568D02*
X155918959Y-81429671D01*
X167684636Y-79569306D02*
X167684636Y-81429671D01*
X169830248Y-79800817D02*
X169707926Y-79722320D01*
X169707926Y-79722320D02*
X169567272Y-79661297D01*
X169567272Y-79661297D02*
X169409799Y-79616632D01*
X169409799Y-79616632D02*
X169237492Y-79587299D01*
X169237492Y-79587299D02*
X169051950Y-79572122D01*
X169051950Y-79572122D02*
X168920743Y-79569306D01*
X174419102Y-80313447D02*
X174615318Y-80320031D01*
X174615318Y-80320031D02*
X174798409Y-80339163D01*
X174798409Y-80339163D02*
X174969837Y-80370095D01*
X174969837Y-80370095D02*
X175128468Y-80411606D01*
X175128468Y-80411606D02*
X175277116Y-80463460D01*
X175277116Y-80463460D02*
X175415975Y-80525005D01*
X175415975Y-80525005D02*
X175548388Y-80597420D01*
X175548388Y-80597420D02*
X175669348Y-80677275D01*
X175669348Y-80677275D02*
X175782234Y-80765689D01*
X175782234Y-80765689D02*
X175887168Y-80862114D01*
X175887168Y-80862114D02*
X175977683Y-80958369D01*
X166849558Y-85055283D02*
X166849558Y-78883049D01*
X150614884Y-82727770D02*
X149858334Y-82727770D01*
X150614884Y-82897262D02*
X150614884Y-82727770D01*
X162463243Y-81437926D02*
X162382807Y-81557518D01*
X162382807Y-81557518D02*
X162312544Y-81687689D01*
X162312544Y-81687689D02*
X162252180Y-81829382D01*
X162252180Y-81829382D02*
X162202687Y-81980324D01*
X162202687Y-81980324D02*
X162163260Y-82142954D01*
X162163260Y-82142954D02*
X162134536Y-82314664D01*
X162134536Y-82314664D02*
X162115942Y-82499750D01*
X162115942Y-82499750D02*
X162108062Y-82693116D01*
X162108062Y-82693116D02*
X162107722Y-82744306D01*
X163430639Y-80958369D02*
X163241784Y-80970591D01*
X163241784Y-80970591D02*
X163074817Y-81004759D01*
X163074817Y-81004759D02*
X162927319Y-81057467D01*
X162927319Y-81057467D02*
X162795767Y-81126595D01*
X162795767Y-81126595D02*
X162678921Y-81209821D01*
X162678921Y-81209821D02*
X162574342Y-81306220D01*
X162574342Y-81306220D02*
X162478988Y-81417079D01*
X162478988Y-81417079D02*
X162463243Y-81437926D01*
X149965834Y-84976728D02*
X149826704Y-85039236D01*
X149826704Y-85039236D02*
X149677261Y-85089956D01*
X149677261Y-85089956D02*
X149516103Y-85129167D01*
X149516103Y-85129167D02*
X149342462Y-85156621D01*
X149342462Y-85156621D02*
X149155984Y-85171915D01*
X149155984Y-85171915D02*
X149014975Y-85175166D01*
X150614884Y-84352470D02*
X150534188Y-84473588D01*
X150534188Y-84473588D02*
X150446023Y-84587010D01*
X150446023Y-84587010D02*
X150349419Y-84692777D01*
X150349419Y-84692777D02*
X150244901Y-84789244D01*
X150244901Y-84789244D02*
X150129005Y-84878106D01*
X150129005Y-84878106D02*
X150005712Y-84955168D01*
X150005712Y-84955168D02*
X149965834Y-84976728D01*
X146497306Y-79358460D02*
X146497306Y-80239046D01*
X145596055Y-84294606D02*
X145741743Y-84230353D01*
X145741743Y-84230353D02*
X145874785Y-84162234D01*
X145874785Y-84162234D02*
X146001483Y-84088518D01*
X146001483Y-84088518D02*
X146126840Y-84006619D01*
X146126840Y-84006619D02*
X146243963Y-83921615D01*
X146243963Y-83921615D02*
X146356534Y-83831777D01*
X146356534Y-83831777D02*
X146463855Y-83738302D01*
X146463855Y-83738302D02*
X146497306Y-83707548D01*
X152913451Y-86816402D02*
X152913451Y-80425075D01*
X153678256Y-86816402D02*
X152913451Y-86816402D01*
X153678256Y-84360752D02*
X153678256Y-86816402D01*
X154281850Y-84976728D02*
X154158277Y-84899345D01*
X154158277Y-84899345D02*
X154043094Y-84809719D01*
X154043094Y-84809719D02*
X153939061Y-84711164D01*
X153939061Y-84711164D02*
X153845138Y-84604631D01*
X153845138Y-84604631D02*
X153757735Y-84487017D01*
X153757735Y-84487017D02*
X153679894Y-84363573D01*
X153679894Y-84363573D02*
X153678256Y-84360752D01*
X164393881Y-81442054D02*
X164301813Y-81329515D01*
X164301813Y-81329515D02*
X164199538Y-81229731D01*
X164199538Y-81229731D02*
X164084280Y-81142319D01*
X164084280Y-81142319D02*
X163955446Y-81069571D01*
X163955446Y-81069571D02*
X163810996Y-81013109D01*
X163810996Y-81013109D02*
X163648704Y-80975214D01*
X163648704Y-80975214D02*
X163464855Y-80958754D01*
X163464855Y-80958754D02*
X163430639Y-80958369D01*
X164749428Y-82744306D02*
X164743957Y-82545515D01*
X164743957Y-82545515D02*
X164727848Y-82359802D01*
X164727848Y-82359802D02*
X164701232Y-82185039D01*
X164701232Y-82185039D02*
X164664401Y-82021740D01*
X164664401Y-82021740D02*
X164616016Y-81865169D01*
X164616016Y-81865169D02*
X164558186Y-81722140D01*
X164558186Y-81722140D02*
X164489668Y-81588614D01*
X164489668Y-81588614D02*
X164411026Y-81465671D01*
X164411026Y-81465671D02*
X164393881Y-81442054D01*
X146497306Y-84579853D02*
X146376035Y-84658728D01*
X146376035Y-84658728D02*
X146248321Y-84734510D01*
X146248321Y-84734510D02*
X146116185Y-84805425D01*
X146116185Y-84805425D02*
X145980892Y-84870542D01*
X145980892Y-84870542D02*
X145839136Y-84931033D01*
X145839136Y-84931033D02*
X145692122Y-84985821D01*
X145692122Y-84985821D02*
X145567137Y-85026338D01*
X162459115Y-84054814D02*
X162550175Y-84164205D01*
X162550175Y-84164205D02*
X162653267Y-84262899D01*
X162653267Y-84262899D02*
X162768160Y-84348278D01*
X162768160Y-84348278D02*
X162897883Y-84420040D01*
X162897883Y-84420040D02*
X163043071Y-84475646D01*
X163043071Y-84475646D02*
X163207140Y-84513264D01*
X163207140Y-84513264D02*
X163391799Y-84529764D01*
X163391799Y-84529764D02*
X163430639Y-84530244D01*
X162107722Y-82744306D02*
X162112914Y-82941164D01*
X162112914Y-82941164D02*
X162128496Y-83127640D01*
X162128496Y-83127640D02*
X162154216Y-83302351D01*
X162154216Y-83302351D02*
X162190245Y-83467166D01*
X162190245Y-83467166D02*
X162236327Y-83621109D01*
X162236327Y-83621109D02*
X162292842Y-83765435D01*
X162292842Y-83765435D02*
X162359328Y-83898975D01*
X162359328Y-83898975D02*
X162436247Y-84022698D01*
X162436247Y-84022698D02*
X162459115Y-84054814D01*
X159069141Y-80425075D02*
X160635977Y-80425075D01*
X159069141Y-79110426D02*
X159069141Y-80425075D01*
X155158282Y-80313447D02*
X155350189Y-80322507D01*
X155350189Y-80322507D02*
X155525213Y-80348043D01*
X155525213Y-80348043D02*
X155685386Y-80387928D01*
X155685386Y-80387928D02*
X155835974Y-80441923D01*
X155835974Y-80441923D02*
X155972720Y-80506828D01*
X155972720Y-80506828D02*
X156098799Y-80582056D01*
X156098799Y-80582056D02*
X156216330Y-80667468D01*
X156216330Y-80667468D02*
X156324280Y-80760905D01*
X156324280Y-80760905D02*
X156424056Y-80862013D01*
X156424056Y-80862013D02*
X156516883Y-80970815D01*
X156516883Y-80970815D02*
X156526654Y-80983187D01*
X154281850Y-80516012D02*
X154416690Y-80450563D01*
X154416690Y-80450563D02*
X154565268Y-80396323D01*
X154565268Y-80396323D02*
X154725007Y-80355304D01*
X154725007Y-80355304D02*
X154898975Y-80327633D01*
X154898975Y-80327633D02*
X155086125Y-80314483D01*
X155086125Y-80314483D02*
X155158282Y-80313447D01*
X149300222Y-80958369D02*
X149102693Y-80964334D01*
X149102693Y-80964334D02*
X148917860Y-80981002D01*
X148917860Y-80981002D02*
X148741891Y-81007224D01*
X148741891Y-81007224D02*
X148575740Y-81041594D01*
X148575740Y-81041594D02*
X148527163Y-81053460D01*
X150267618Y-81247770D02*
X150151249Y-81162965D01*
X150151249Y-81162965D02*
X150020850Y-81092926D01*
X150020850Y-81092926D02*
X149875784Y-81037361D01*
X149875784Y-81037361D02*
X149714129Y-80996047D01*
X149714129Y-80996047D02*
X149536678Y-80969739D01*
X149536678Y-80969739D02*
X149346762Y-80958775D01*
X149346762Y-80958775D02*
X149300222Y-80958369D01*
X176990535Y-85055283D02*
X178788881Y-82632679D01*
X177887631Y-85055283D02*
X176990535Y-85055283D01*
X157055821Y-82744306D02*
X157051238Y-82943694D01*
X157051238Y-82943694D02*
X157037886Y-83131831D01*
X157037886Y-83131831D02*
X157015826Y-83312496D01*
X157015826Y-83312496D02*
X156985415Y-83484374D01*
X156985415Y-83484374D02*
X156946932Y-83647690D01*
X156946932Y-83647690D02*
X156900649Y-83802659D01*
X156900649Y-83802659D02*
X156846844Y-83949500D01*
X156846844Y-83949500D02*
X156784486Y-84091126D01*
X156784486Y-84091126D02*
X156715244Y-84224070D01*
X156715244Y-84224070D02*
X156639291Y-84348999D01*
X156639291Y-84348999D02*
X156556700Y-84466511D01*
X156556700Y-84466511D02*
X156526654Y-84505452D01*
X156526654Y-80983187D02*
X156613220Y-81100716D01*
X156613220Y-81100716D02*
X156691633Y-81223681D01*
X156691633Y-81223681D02*
X156763178Y-81354253D01*
X156763178Y-81354253D02*
X156826905Y-81491054D01*
X156826905Y-81491054D02*
X156884584Y-81639071D01*
X156884584Y-81639071D02*
X156933410Y-81792010D01*
X156933410Y-81792010D02*
X156974159Y-81951916D01*
X156974159Y-81951916D02*
X157006886Y-82119548D01*
X157006886Y-82119548D02*
X157031420Y-82295048D01*
X157031420Y-82295048D02*
X157047615Y-82479057D01*
X157047615Y-82479057D02*
X157055251Y-82673345D01*
X157055251Y-82673345D02*
X157055821Y-82744306D01*
X164393881Y-84050686D02*
X164474009Y-83930720D01*
X164474009Y-83930720D02*
X164544450Y-83799678D01*
X164544450Y-83799678D02*
X164604174Y-83659381D01*
X164604174Y-83659381D02*
X164653819Y-83508431D01*
X164653819Y-83508431D02*
X164693119Y-83347375D01*
X164693119Y-83347375D02*
X164722172Y-83175505D01*
X164722172Y-83175505D02*
X164740772Y-82993831D01*
X164740772Y-82993831D02*
X164748999Y-82801214D01*
X164748999Y-82801214D02*
X164749428Y-82744306D01*
X163430639Y-84530244D02*
X163619933Y-84517789D01*
X163619933Y-84517789D02*
X163785962Y-84483372D01*
X163785962Y-84483372D02*
X163934892Y-84429426D01*
X163934892Y-84429426D02*
X164068304Y-84358103D01*
X164068304Y-84358103D02*
X164184733Y-84273670D01*
X164184733Y-84273670D02*
X164288136Y-84176879D01*
X164288136Y-84176879D02*
X164380598Y-84068314D01*
X164380598Y-84068314D02*
X164393881Y-84050686D01*
X177143490Y-80425075D02*
X178040586Y-80425075D01*
X178788881Y-82632679D02*
X177143490Y-80425075D01*
X157746225Y-80425075D02*
X158304337Y-80425075D01*
X157746225Y-81016260D02*
X157746225Y-80425075D01*
X153678256Y-81127861D02*
X153757735Y-81001692D01*
X153757735Y-81001692D02*
X153843227Y-80886753D01*
X153843227Y-80886753D02*
X153937891Y-80779615D01*
X153937891Y-80779615D02*
X154042938Y-80680767D01*
X154042938Y-80680767D02*
X154156107Y-80593569D01*
X154156107Y-80593569D02*
X154280072Y-80516980D01*
X154280072Y-80516980D02*
X154281850Y-80516012D01*
X151375561Y-82413577D02*
X151375561Y-82413577D01*
X155918959Y-84063095D02*
X155998710Y-83940397D01*
X155998710Y-83940397D02*
X156067308Y-83808603D01*
X156067308Y-83808603D02*
X156125652Y-83666599D01*
X156125652Y-83666599D02*
X156174069Y-83513497D01*
X156174069Y-83513497D02*
X156212033Y-83351204D01*
X156212033Y-83351204D02*
X156240071Y-83177811D01*
X156240071Y-83177811D02*
X156257978Y-82994338D01*
X156257978Y-82994338D02*
X156265861Y-82798021D01*
X156265861Y-82798021D02*
X156266225Y-82744306D01*
X154972227Y-84538525D02*
X155162171Y-84525876D01*
X155162171Y-84525876D02*
X155329126Y-84490630D01*
X155329126Y-84490630D02*
X155475683Y-84436436D01*
X155475683Y-84436436D02*
X155605477Y-84365635D01*
X155605477Y-84365635D02*
X155720701Y-84280070D01*
X155720701Y-84280070D02*
X155822938Y-84181292D01*
X155822938Y-84181292D02*
X155913916Y-84070032D01*
X155913916Y-84070032D02*
X155918959Y-84063095D01*
X142325991Y-79631325D02*
X142426815Y-79529360D01*
X142426815Y-79529360D02*
X142532527Y-79433463D01*
X142532527Y-79433463D02*
X142644740Y-79342508D01*
X142644740Y-79342508D02*
X142763467Y-79257009D01*
X142763467Y-79257009D02*
X142886991Y-79178438D01*
X142886991Y-79178438D02*
X143017323Y-79105751D01*
X143017323Y-79105751D02*
X143152602Y-79040205D01*
X143152602Y-79040205D02*
X143294991Y-78980977D01*
X143294991Y-78980977D02*
X143443316Y-78928839D01*
X143443316Y-78928839D02*
X143599693Y-78883388D01*
X143599693Y-78883388D02*
X143767109Y-78844494D01*
X143767109Y-78844494D02*
X143937774Y-78814242D01*
X143937774Y-78814242D02*
X144115918Y-78791833D01*
X144115918Y-78791833D02*
X144306346Y-78777280D01*
X144306346Y-78777280D02*
X144502189Y-78771535D01*
X144502189Y-78771535D02*
X144533595Y-78771429D01*
X141519832Y-81975374D02*
X141523542Y-81776261D01*
X141523542Y-81776261D02*
X141534575Y-81584349D01*
X141534575Y-81584349D02*
X141552612Y-81400839D01*
X141552612Y-81400839D02*
X141577337Y-81225482D01*
X141577337Y-81225482D02*
X141608964Y-81055542D01*
X141608964Y-81055542D02*
X141646868Y-80893430D01*
X141646868Y-80893430D02*
X141692198Y-80734241D01*
X141692198Y-80734241D02*
X141743600Y-80582723D01*
X141743600Y-80582723D02*
X141800767Y-80438636D01*
X141800767Y-80438636D02*
X141863661Y-80301220D01*
X141863661Y-80301220D02*
X141932340Y-80169795D01*
X141932340Y-80169795D02*
X142011255Y-80036958D01*
X142011255Y-80036958D02*
X142093081Y-79915123D01*
X142093081Y-79915123D02*
X142179778Y-79800020D01*
X142179778Y-79800020D02*
X142271250Y-79691203D01*
X142271250Y-79691203D02*
X142325991Y-79631325D01*
X149548269Y-82132457D02*
X150614884Y-82132457D01*
X148527163Y-81053460D02*
X148365398Y-81099155D01*
X148365398Y-81099155D02*
X148216305Y-81150081D01*
X148216305Y-81150081D02*
X148072399Y-81207648D01*
X148072399Y-81207648D02*
X147934235Y-81271075D01*
X147934235Y-81271075D02*
X147803686Y-81338707D01*
X179235365Y-83236273D02*
X177887631Y-85055283D01*
X180583073Y-85055283D02*
X179235365Y-83236273D01*
X142400392Y-81975374D02*
X142404308Y-82175047D01*
X142404308Y-82175047D02*
X142416158Y-82367868D01*
X142416158Y-82367868D02*
X142435598Y-82550016D01*
X142435598Y-82550016D02*
X142462554Y-82723337D01*
X142462554Y-82723337D02*
X142497921Y-82892297D01*
X142497921Y-82892297D02*
X142540332Y-83050244D01*
X142540332Y-83050244D02*
X142590532Y-83200878D01*
X142590532Y-83200878D02*
X142648689Y-83344333D01*
X142648689Y-83344333D02*
X142714593Y-83479930D01*
X142714593Y-83479930D02*
X142788244Y-83607662D01*
X142788244Y-83607662D02*
X142869642Y-83727535D01*
X142869642Y-83727535D02*
X142958518Y-83839230D01*
X142958518Y-83839230D02*
X142962631Y-83843994D01*
X181393360Y-80425075D02*
X179719050Y-82678160D01*
X174419102Y-80313447D02*
X174419102Y-80313447D01*
X170020404Y-82384632D02*
X169904207Y-82300637D01*
X169904207Y-82300637D02*
X169771385Y-82232871D01*
X169771385Y-82232871D02*
X169623411Y-82180672D01*
X169623411Y-82180672D02*
X169460632Y-82142995D01*
X169460632Y-82142995D02*
X169284226Y-82119173D01*
X169284226Y-82119173D02*
X169093539Y-82108418D01*
X169093539Y-82108418D02*
X169024089Y-82107666D01*
X170347006Y-83236273D02*
X170337229Y-83045195D01*
X170337229Y-83045195D02*
X170308190Y-82873584D01*
X170308190Y-82873584D02*
X170259840Y-82719918D01*
X170259840Y-82719918D02*
X170192796Y-82585314D01*
X170192796Y-82585314D02*
X170106618Y-82468347D01*
X170106618Y-82468347D02*
X170020404Y-82384632D01*
X164989193Y-84530244D02*
X164891642Y-84633440D01*
X164891642Y-84633440D02*
X164785041Y-84730267D01*
X164785041Y-84730267D02*
X164669515Y-84819445D01*
X164669515Y-84819445D02*
X164547407Y-84898656D01*
X164547407Y-84898656D02*
X164416887Y-84968794D01*
X164416887Y-84968794D02*
X164277292Y-85029592D01*
X164277292Y-85029592D02*
X164127068Y-85080893D01*
X164127068Y-85080893D02*
X163963141Y-85122452D01*
X163963141Y-85122452D02*
X163790407Y-85152134D01*
X163790407Y-85152134D02*
X163606413Y-85169900D01*
X163606413Y-85169900D02*
X163430639Y-85175166D01*
X165555560Y-82744306D02*
X165551035Y-82943582D01*
X165551035Y-82943582D02*
X165537567Y-83134045D01*
X165537567Y-83134045D02*
X165515705Y-83313116D01*
X165515705Y-83313116D02*
X165485361Y-83484326D01*
X165485361Y-83484326D02*
X165446908Y-83646607D01*
X165446908Y-83646607D02*
X165400523Y-83800391D01*
X165400523Y-83800391D02*
X165346252Y-83946271D01*
X165346252Y-83946271D02*
X165282893Y-84087098D01*
X165282893Y-84087098D02*
X165212890Y-84217765D01*
X165212890Y-84217765D02*
X165132990Y-84344346D01*
X165132990Y-84344346D02*
X165047872Y-84459769D01*
X165047872Y-84459769D02*
X164989193Y-84530244D01*
X174419102Y-80958369D02*
X174419102Y-80958369D01*
X172856420Y-80958369D02*
X172954874Y-80854298D01*
X172954874Y-80854298D02*
X173059745Y-80759120D01*
X173059745Y-80759120D02*
X173172734Y-80671738D01*
X173172734Y-80671738D02*
X173294506Y-80592428D01*
X173294506Y-80592428D02*
X173424721Y-80522131D01*
X173424721Y-80522131D02*
X173564813Y-80460814D01*
X173564813Y-80460814D02*
X173714026Y-80409527D01*
X173714026Y-80409527D02*
X173874772Y-80368243D01*
X173874772Y-80368243D02*
X174050771Y-80337432D01*
X174050771Y-80337432D02*
X174235134Y-80319170D01*
X174235134Y-80319170D02*
X174419102Y-80313447D01*
X147803686Y-81338707D02*
X147803686Y-80635921D01*
X150879467Y-80834359D02*
X150973807Y-80944018D01*
X150973807Y-80944018D02*
X151058403Y-81064757D01*
X151058403Y-81064757D02*
X151131315Y-81192991D01*
X151131315Y-81192991D02*
X151194570Y-81331168D01*
X151194570Y-81331168D02*
X151247873Y-81478065D01*
X151247873Y-81478065D02*
X151291900Y-81635004D01*
X151291900Y-81635004D02*
X151326540Y-81801339D01*
X151326540Y-81801339D02*
X151351925Y-81977189D01*
X151351925Y-81977189D02*
X151368107Y-82162231D01*
X151368107Y-82162231D02*
X151375200Y-82357116D01*
X151375200Y-82357116D02*
X151375561Y-82413577D01*
X170020404Y-84092041D02*
X170125391Y-83983810D01*
X170125391Y-83983810D02*
X170206555Y-83863710D01*
X170206555Y-83863710D02*
X170269911Y-83725360D01*
X170269911Y-83725360D02*
X170314507Y-83569587D01*
X170314507Y-83569587D02*
X170340292Y-83394947D01*
X170340292Y-83394947D02*
X170347006Y-83236273D01*
X169024089Y-84369007D02*
X169218215Y-84362778D01*
X169218215Y-84362778D02*
X169405416Y-84342793D01*
X169405416Y-84342793D02*
X169573639Y-84309407D01*
X169573639Y-84309407D02*
X169726925Y-84261656D01*
X169726925Y-84261656D02*
X169864460Y-84198898D01*
X169864460Y-84198898D02*
X169986081Y-84119966D01*
X169986081Y-84119966D02*
X170020404Y-84092041D01*
X144533595Y-85175166D02*
X144335469Y-85170752D01*
X144335469Y-85170752D02*
X144147341Y-85157884D01*
X144147341Y-85157884D02*
X143967589Y-85136909D01*
X143967589Y-85136909D02*
X143790849Y-85107175D01*
X143790849Y-85107175D02*
X143625256Y-85070270D01*
X143625256Y-85070270D02*
X143468021Y-85026271D01*
X143468021Y-85026271D02*
X143316680Y-84974787D01*
X143316680Y-84974787D02*
X143174055Y-84917164D01*
X143174055Y-84917164D02*
X143037501Y-84852782D01*
X143037501Y-84852782D02*
X142906418Y-84781519D01*
X142906418Y-84781519D02*
X142780284Y-84703149D01*
X142780284Y-84703149D02*
X142662693Y-84620359D01*
X142662693Y-84620359D02*
X142549754Y-84530887D01*
X142549754Y-84530887D02*
X142443122Y-84436282D01*
X142443122Y-84436282D02*
X142342186Y-84336440D01*
X142342186Y-84336440D02*
X142325991Y-84319397D01*
X145567137Y-85026338D02*
X145407446Y-85070676D01*
X145407446Y-85070676D02*
X145243728Y-85107391D01*
X145243728Y-85107391D02*
X145067857Y-85137519D01*
X145067857Y-85137519D02*
X144884451Y-85159233D01*
X144884451Y-85159233D02*
X144695370Y-85171840D01*
X144695370Y-85171840D02*
X144533595Y-85175166D01*
X164989193Y-80958369D02*
X165080832Y-81070861D01*
X165080832Y-81070861D02*
X165165771Y-81192573D01*
X165165771Y-81192573D02*
X165240698Y-81318601D01*
X165240698Y-81318601D02*
X165308364Y-81453212D01*
X165308364Y-81453212D02*
X165368331Y-81596238D01*
X165368331Y-81596238D02*
X165420253Y-81747431D01*
X165420253Y-81747431D02*
X165464094Y-81907368D01*
X165464094Y-81907368D02*
X165499030Y-82072879D01*
X165499030Y-82072879D02*
X165525853Y-82247724D01*
X165525853Y-82247724D02*
X165544239Y-82431632D01*
X165544239Y-82431632D02*
X165553893Y-82622075D01*
X165553893Y-82622075D02*
X165555560Y-82744306D01*
X163430639Y-80313447D02*
X163626855Y-80320031D01*
X163626855Y-80320031D02*
X163809945Y-80339163D01*
X163809945Y-80339163D02*
X163981372Y-80370095D01*
X163981372Y-80370095D02*
X164140001Y-80411606D01*
X164140001Y-80411606D02*
X164288648Y-80463460D01*
X164288648Y-80463460D02*
X164427503Y-80525005D01*
X164427503Y-80525005D02*
X164559913Y-80597420D01*
X164559913Y-80597420D02*
X164680870Y-80677275D01*
X164680870Y-80677275D02*
X164793751Y-80765689D01*
X164793751Y-80765689D02*
X164898682Y-80862114D01*
X164898682Y-80862114D02*
X164989193Y-80958369D01*
X149378777Y-80313447D02*
X149574793Y-80318663D01*
X149574793Y-80318663D02*
X149763267Y-80334627D01*
X149763267Y-80334627D02*
X149939590Y-80361029D01*
X149939590Y-80361029D02*
X150103669Y-80397460D01*
X150103669Y-80397460D02*
X150259906Y-80444947D01*
X150259906Y-80444947D02*
X150405627Y-80502944D01*
X150405627Y-80502944D02*
X150539459Y-80570617D01*
X150539459Y-80570617D02*
X150662493Y-80648089D01*
X150662493Y-80648089D02*
X150775720Y-80735861D01*
X150775720Y-80735861D02*
X150879467Y-80834359D01*
X148613972Y-80396129D02*
X148783290Y-80364161D01*
X148783290Y-80364161D02*
X148961154Y-80338703D01*
X148961154Y-80338703D02*
X149145696Y-80321417D01*
X149145696Y-80321417D02*
X149339476Y-80313674D01*
X149339476Y-80313674D02*
X149378777Y-80313447D01*
X174419102Y-84530244D02*
X174608398Y-84517789D01*
X174608398Y-84517789D02*
X174774429Y-84483372D01*
X174774429Y-84483372D02*
X174923361Y-84429426D01*
X174923361Y-84429426D02*
X175056776Y-84358103D01*
X175056776Y-84358103D02*
X175173211Y-84273670D01*
X175173211Y-84273670D02*
X175276619Y-84176879D01*
X175276619Y-84176879D02*
X175369086Y-84068314D01*
X175369086Y-84068314D02*
X175382371Y-84050686D01*
X173447605Y-84054814D02*
X173538658Y-84164205D01*
X173538658Y-84164205D02*
X173641745Y-84262899D01*
X173641745Y-84262899D02*
X173756633Y-84348278D01*
X173756633Y-84348278D02*
X173886352Y-84420040D01*
X173886352Y-84420040D02*
X174031538Y-84475646D01*
X174031538Y-84475646D02*
X174195604Y-84513264D01*
X174195604Y-84513264D02*
X174380262Y-84529764D01*
X174380262Y-84529764D02*
X174419102Y-84530244D01*
X144583204Y-84488916D02*
X144777425Y-84482432D01*
X144777425Y-84482432D02*
X144960471Y-84463954D01*
X144960471Y-84463954D02*
X145131800Y-84435076D01*
X145131800Y-84435076D02*
X145295764Y-84396287D01*
X145295764Y-84396287D02*
X145452602Y-84348329D01*
X145452602Y-84348329D02*
X145596055Y-84294606D01*
X160635977Y-85055283D02*
X159854636Y-85055283D01*
X160635977Y-84418616D02*
X160635977Y-85055283D01*
X181480170Y-85055283D02*
X180583073Y-85055283D01*
X179719050Y-82678160D02*
X181480170Y-85055283D01*
X151375561Y-85055283D02*
X150614884Y-85055283D01*
X151375561Y-82413577D02*
X151375561Y-85055283D01*
X174419102Y-85175166D02*
X174224645Y-85168747D01*
X174224645Y-85168747D02*
X174043196Y-85150128D01*
X174043196Y-85150128D02*
X173871796Y-85119716D01*
X173871796Y-85119716D02*
X173712000Y-85078468D01*
X173712000Y-85078468D02*
X173562882Y-85027037D01*
X173562882Y-85027037D02*
X173420320Y-84964318D01*
X173420320Y-84964318D02*
X173288763Y-84892746D01*
X173288763Y-84892746D02*
X173167132Y-84812868D01*
X173167132Y-84812868D02*
X173053205Y-84723969D01*
X173053205Y-84723969D02*
X172945778Y-84625330D01*
X172945778Y-84625330D02*
X172856420Y-84530244D01*
X175977683Y-84530244D02*
X175880128Y-84633440D01*
X175880128Y-84633440D02*
X175773522Y-84730267D01*
X175773522Y-84730267D02*
X175657993Y-84819445D01*
X175657993Y-84819445D02*
X175535881Y-84898656D01*
X175535881Y-84898656D02*
X175405358Y-84968794D01*
X175405358Y-84968794D02*
X175265760Y-85029592D01*
X175265760Y-85029592D02*
X175115535Y-85080893D01*
X175115535Y-85080893D02*
X174951606Y-85122452D01*
X174951606Y-85122452D02*
X174778871Y-85152134D01*
X174778871Y-85152134D02*
X174594876Y-85169900D01*
X174594876Y-85169900D02*
X174419102Y-85175166D01*
X161867930Y-80958369D02*
X161966388Y-80854298D01*
X161966388Y-80854298D02*
X162071264Y-80759120D01*
X162071264Y-80759120D02*
X162184255Y-80671738D01*
X162184255Y-80671738D02*
X162306031Y-80592428D01*
X162306031Y-80592428D02*
X162436247Y-80522131D01*
X162436247Y-80522131D02*
X162576345Y-80460814D01*
X162576345Y-80460814D02*
X162725559Y-80409527D01*
X162725559Y-80409527D02*
X162886306Y-80368243D01*
X162886306Y-80368243D02*
X163062306Y-80337432D01*
X163062306Y-80337432D02*
X163246671Y-80319170D01*
X163246671Y-80319170D02*
X163430639Y-80313447D01*
X161305691Y-82744306D02*
X161310080Y-82546493D01*
X161310080Y-82546493D02*
X161323155Y-82357462D01*
X161323155Y-82357462D02*
X161344667Y-82177823D01*
X161344667Y-82177823D02*
X161375418Y-82002159D01*
X161375418Y-82002159D02*
X161414026Y-81838163D01*
X161414026Y-81838163D02*
X161460596Y-81683144D01*
X161460596Y-81683144D02*
X161515304Y-81535861D01*
X161515304Y-81535861D02*
X161577699Y-81397030D01*
X161577699Y-81397030D02*
X161647567Y-81266466D01*
X161647567Y-81266466D02*
X161728975Y-81137730D01*
X161728975Y-81137730D02*
X161816975Y-81019265D01*
X161816975Y-81019265D02*
X161867930Y-80958369D01*
X170132032Y-80499475D02*
X170118395Y-80311553D01*
X170118395Y-80311553D02*
X170079060Y-80149410D01*
X170079060Y-80149410D02*
X170015886Y-80010555D01*
X170015886Y-80010555D02*
X169931365Y-79894302D01*
X169931365Y-79894302D02*
X169830248Y-79800817D01*
X169830248Y-81202288D02*
X169934238Y-81105415D01*
X169934238Y-81105415D02*
X170018161Y-80987998D01*
X170018161Y-80987998D02*
X170079920Y-80849745D01*
X170079920Y-80849745D02*
X170118661Y-80687221D01*
X170118661Y-80687221D02*
X170132031Y-80499934D01*
X170132031Y-80499934D02*
X170132032Y-80499475D01*
X167684636Y-84369007D02*
X169024089Y-84369007D01*
X167684636Y-82107666D02*
X167684636Y-84369007D01*
X144533595Y-78771429D02*
X144731071Y-78776256D01*
X144731071Y-78776256D02*
X144920113Y-78790334D01*
X144920113Y-78790334D02*
X145099977Y-78812889D01*
X145099977Y-78812889D02*
X145272975Y-78843579D01*
X145272975Y-78843579D02*
X145435911Y-78881088D01*
X145435911Y-78881088D02*
X145575391Y-78920257D01*
X142962631Y-83843994D02*
X143061153Y-83948344D01*
X143061153Y-83948344D02*
X143169920Y-84046108D01*
X143169920Y-84046108D02*
X143284833Y-84133195D01*
X143284833Y-84133195D02*
X143407430Y-84210962D01*
X143407430Y-84210962D02*
X143539668Y-84280223D01*
X143539668Y-84280223D02*
X143681532Y-84340334D01*
X143681532Y-84340334D02*
X143832497Y-84390628D01*
X143832497Y-84390628D02*
X143994092Y-84431134D01*
X143994092Y-84431134D02*
X144165314Y-84461140D01*
X144165314Y-84461140D02*
X144348809Y-84480565D01*
X144348809Y-84480565D02*
X144542561Y-84488674D01*
X144542561Y-84488674D02*
X144583204Y-84488916D01*
X144583204Y-79457679D02*
X144388135Y-79463441D01*
X144388135Y-79463441D02*
X144204709Y-79480377D01*
X144204709Y-79480377D02*
X144030270Y-79508396D01*
X144030270Y-79508396D02*
X143864114Y-79547589D01*
X143864114Y-79547589D02*
X143711736Y-79596017D01*
X143711736Y-79596017D02*
X143567108Y-79654927D01*
X143567108Y-79654927D02*
X143432978Y-79722838D01*
X143432978Y-79722838D02*
X143306513Y-79800778D01*
X143306513Y-79800778D02*
X143187711Y-79888745D01*
X143187711Y-79888745D02*
X143080454Y-79983026D01*
X143080454Y-79983026D02*
X142981711Y-80085067D01*
X142981711Y-80085067D02*
X142962631Y-80106754D01*
X170665326Y-84604671D02*
X170549489Y-84689371D01*
X170549489Y-84689371D02*
X170424360Y-84765265D01*
X170424360Y-84765265D02*
X170287531Y-84833431D01*
X170287531Y-84833431D02*
X170142549Y-84891948D01*
X170142549Y-84891948D02*
X169989696Y-84941082D01*
X169989696Y-84941082D02*
X169828827Y-84981178D01*
X169828827Y-84981178D02*
X169659717Y-85012503D01*
X169659717Y-85012503D02*
X169477463Y-85035690D01*
X169477463Y-85035690D02*
X169289383Y-85049755D01*
X169289383Y-85049755D02*
X169094732Y-85055191D01*
X169094732Y-85055191D02*
X169065444Y-85055283D01*
X171227566Y-83327210D02*
X171219452Y-83520410D01*
X171219452Y-83520410D02*
X171195836Y-83698798D01*
X171195836Y-83698798D02*
X171157973Y-83862410D01*
X171157973Y-83862410D02*
X171106837Y-84012697D01*
X171106837Y-84012697D02*
X171043748Y-84149738D01*
X171043748Y-84149738D02*
X170968938Y-84275706D01*
X170968938Y-84275706D02*
X170883110Y-84391071D01*
X170883110Y-84391071D02*
X170785977Y-84497260D01*
X170785977Y-84497260D02*
X170679914Y-84592831D01*
X170679914Y-84592831D02*
X170665326Y-84604671D01*
X147803686Y-80635921D02*
X147951321Y-80581214D01*
X147951321Y-80581214D02*
X148102183Y-80530193D01*
X148102183Y-80530193D02*
X148257685Y-80482934D01*
X148257685Y-80482934D02*
X148417605Y-80440185D01*
X148417605Y-80440185D02*
X148581710Y-80402709D01*
X148581710Y-80402709D02*
X148613972Y-80396129D01*
X150614884Y-82132457D02*
X150614884Y-82058057D01*
X148225352Y-83657939D02*
X148240744Y-83843769D01*
X148240744Y-83843769D02*
X148283728Y-84002070D01*
X148283728Y-84002070D02*
X148350761Y-84137422D01*
X148350761Y-84137422D02*
X148437642Y-84251069D01*
X148437642Y-84251069D02*
X148489936Y-84302861D01*
X148580899Y-82938616D02*
X148464813Y-83023801D01*
X148464813Y-83023801D02*
X148369932Y-83130462D01*
X148369932Y-83130462D02*
X148295545Y-83264830D01*
X148295545Y-83264830D02*
X148248358Y-83418491D01*
X148248358Y-83418491D02*
X148226610Y-83598412D01*
X148226610Y-83598412D02*
X148225352Y-83657939D01*
X172294180Y-82744306D02*
X172298569Y-82546493D01*
X172298569Y-82546493D02*
X172311644Y-82357462D01*
X172311644Y-82357462D02*
X172333156Y-82177823D01*
X172333156Y-82177823D02*
X172363907Y-82002159D01*
X172363907Y-82002159D02*
X172402515Y-81838163D01*
X172402515Y-81838163D02*
X172449086Y-81683144D01*
X172449086Y-81683144D02*
X172503794Y-81535861D01*
X172503794Y-81535861D02*
X172566189Y-81397030D01*
X172566189Y-81397030D02*
X172636057Y-81266466D01*
X172636057Y-81266466D02*
X172717465Y-81137730D01*
X172717465Y-81137730D02*
X172805465Y-81019265D01*
X172805465Y-81019265D02*
X172856420Y-80958369D01*
X172856420Y-84530244D02*
X172766445Y-84418452D01*
X172766445Y-84418452D02*
X172684087Y-84299505D01*
X172684087Y-84299505D02*
X172609204Y-84172967D01*
X172609204Y-84172967D02*
X172541202Y-84037118D01*
X172541202Y-84037118D02*
X172481776Y-83894945D01*
X172481776Y-83894945D02*
X172429569Y-83742621D01*
X172429569Y-83742621D02*
X172386300Y-83584761D01*
X172386300Y-83584761D02*
X172351073Y-83418256D01*
X172351073Y-83418256D02*
X172324259Y-83244173D01*
X172324259Y-83244173D02*
X172305684Y-83059619D01*
X172305684Y-83059619D02*
X172295830Y-82866106D01*
X172295830Y-82866106D02*
X172294180Y-82744306D01*
X161867930Y-84530244D02*
X161777955Y-84418452D01*
X161777955Y-84418452D02*
X161695597Y-84299505D01*
X161695597Y-84299505D02*
X161620714Y-84172967D01*
X161620714Y-84172967D02*
X161552712Y-84037118D01*
X161552712Y-84037118D02*
X161493286Y-83894945D01*
X161493286Y-83894945D02*
X161441079Y-83742621D01*
X161441079Y-83742621D02*
X161397811Y-83584761D01*
X161397811Y-83584761D02*
X161362584Y-83418256D01*
X161362584Y-83418256D02*
X161335770Y-83244173D01*
X161335770Y-83244173D02*
X161317195Y-83059619D01*
X161317195Y-83059619D02*
X161307341Y-82866106D01*
X161307341Y-82866106D02*
X161305691Y-82744306D01*
X163430639Y-85175166D02*
X163236182Y-85168747D01*
X163236182Y-85168747D02*
X163054731Y-85150128D01*
X163054731Y-85150128D02*
X162883330Y-85119716D01*
X162883330Y-85119716D02*
X162723533Y-85078468D01*
X162723533Y-85078468D02*
X162574414Y-85027037D01*
X162574414Y-85027037D02*
X162431846Y-84964318D01*
X162431846Y-84964318D02*
X162300288Y-84892746D01*
X162300288Y-84892746D02*
X162178653Y-84812868D01*
X162178653Y-84812868D02*
X162064724Y-84723969D01*
X162064724Y-84723969D02*
X161957292Y-84625330D01*
X161957292Y-84625330D02*
X161867930Y-84530244D01*
X150614884Y-82058057D02*
X150602528Y-81868538D01*
X150602528Y-81868538D02*
X150567310Y-81702248D01*
X150567310Y-81702248D02*
X150511670Y-81556851D01*
X150511670Y-81556851D02*
X150437184Y-81429598D01*
X150437184Y-81429598D02*
X150346328Y-81320059D01*
X150346328Y-81320059D02*
X150267618Y-81247770D01*
X150614884Y-85055283D02*
X150614884Y-84352470D01*
X158304337Y-79110426D02*
X159069141Y-79110426D01*
X158304337Y-80425075D02*
X158304337Y-79110426D01*
X168920743Y-79569306D02*
X167684636Y-79569306D01*
X167684636Y-81429671D02*
X168920743Y-81429671D01*
X168920743Y-81429671D02*
X169114957Y-81423416D01*
X169114957Y-81423416D02*
X169297355Y-81403856D01*
X169297355Y-81403856D02*
X169465536Y-81369899D01*
X169465536Y-81369899D02*
X169617383Y-81320659D01*
X169617383Y-81320659D02*
X169752893Y-81254410D01*
X169752893Y-81254410D02*
X169830248Y-81202288D01*
X169024089Y-82107666D02*
X167684636Y-82107666D01*
X163430639Y-80313447D02*
X163430639Y-80313447D01*
X163430639Y-80958369D02*
X163430639Y-80958369D01*
X158304337Y-81016260D02*
X157746225Y-81016260D01*
X158304337Y-83529801D02*
X158304337Y-81016260D01*
X145596055Y-79651989D02*
X145448814Y-79596970D01*
X145448814Y-79596970D02*
X145293590Y-79549713D01*
X145293590Y-79549713D02*
X145131676Y-79511486D01*
X145131676Y-79511486D02*
X144960471Y-79482635D01*
X144960471Y-79482635D02*
X144777938Y-79464192D01*
X144777938Y-79464192D02*
X144583204Y-79457679D01*
X169065444Y-85055283D02*
X166849558Y-85055283D01*
X175382371Y-81442054D02*
X175289164Y-81328275D01*
X175289164Y-81328275D02*
X175186378Y-81228317D01*
X175186378Y-81228317D02*
X175071870Y-81141737D01*
X175071870Y-81141737D02*
X174943915Y-81069571D01*
X174943915Y-81069571D02*
X174799463Y-81013109D01*
X174799463Y-81013109D02*
X174637169Y-80975214D01*
X174637169Y-80975214D02*
X174453318Y-80958754D01*
X174453318Y-80958754D02*
X174419102Y-80958369D01*
X146497306Y-83707548D02*
X146497306Y-84579853D01*
X145575391Y-78920257D02*
X145728084Y-78969268D01*
X145728084Y-78969268D02*
X145873579Y-79023914D01*
X145873579Y-79023914D02*
X146016646Y-79085677D01*
X146016646Y-79085677D02*
X146151055Y-79151399D01*
X146151055Y-79151399D02*
X146282800Y-79223509D01*
X146282800Y-79223509D02*
X146408689Y-79299964D01*
X146408689Y-79299964D02*
X146497306Y-79358460D01*
X147882241Y-84778291D02*
X147785085Y-84674687D01*
X147785085Y-84674687D02*
X147698637Y-84559618D01*
X147698637Y-84559618D02*
X147623479Y-84431396D01*
X147623479Y-84431396D02*
X147561361Y-84289876D01*
X147561361Y-84289876D02*
X147513942Y-84135954D01*
X147513942Y-84135954D02*
X147481816Y-83967938D01*
X147481816Y-83967938D02*
X147466000Y-83782232D01*
X147466000Y-83782232D02*
X147464675Y-83707548D01*
X149014975Y-85175166D02*
X148821362Y-85167368D01*
X148821362Y-85167368D02*
X148643426Y-85144740D01*
X148643426Y-85144740D02*
X148479780Y-85108238D01*
X148479780Y-85108238D02*
X148328926Y-85058472D01*
X148328926Y-85058472D02*
X148189987Y-84995941D01*
X148189987Y-84995941D02*
X148063134Y-84921594D01*
X148063134Y-84921594D02*
X147947179Y-84835638D01*
X147947179Y-84835638D02*
X147882241Y-84778291D01*
X170884454Y-82281285D02*
X170970117Y-82396781D01*
X170970117Y-82396781D02*
X171044786Y-82522256D01*
X171044786Y-82522256D02*
X171108680Y-82660495D01*
X171108680Y-82660495D02*
X171159821Y-82810407D01*
X171159821Y-82810407D02*
X171197423Y-82973238D01*
X171197423Y-82973238D02*
X171220491Y-83151136D01*
X171220491Y-83151136D02*
X171227566Y-83327210D01*
X169929467Y-81727327D02*
X170089891Y-81768068D01*
X170089891Y-81768068D02*
X170242449Y-81820070D01*
X170242449Y-81820070D02*
X170381896Y-81881410D01*
X170381896Y-81881410D02*
X170511711Y-81953193D01*
X170511711Y-81953193D02*
X170630894Y-82034761D01*
X170630894Y-82034761D02*
X170740305Y-82126536D01*
X170740305Y-82126536D02*
X170839949Y-82228523D01*
X170839949Y-82228523D02*
X170884454Y-82281285D01*
X142962631Y-80106754D02*
X142872908Y-80218143D01*
X142872908Y-80218143D02*
X142790985Y-80337559D01*
X142790985Y-80337559D02*
X142717267Y-80464229D01*
X142717267Y-80464229D02*
X142650882Y-80599642D01*
X142650882Y-80599642D02*
X142592453Y-80742647D01*
X142592453Y-80742647D02*
X142541774Y-80893632D01*
X142541774Y-80893632D02*
X142497921Y-81056422D01*
X142497921Y-81056422D02*
X142463194Y-81222032D01*
X142463194Y-81222032D02*
X142435632Y-81398906D01*
X142435632Y-81398906D02*
X142416296Y-81580062D01*
X142416296Y-81580062D02*
X142404495Y-81770468D01*
X142404495Y-81770468D02*
X142400396Y-81967014D01*
X142400396Y-81967014D02*
X142400392Y-81975374D01*
X149217540Y-84538525D02*
X149407889Y-84527757D01*
X149407889Y-84527757D02*
X149577947Y-84497469D01*
X149577947Y-84497469D02*
X149733416Y-84449008D01*
X149733416Y-84449008D02*
X149870786Y-84385997D01*
X149870786Y-84385997D02*
X149994318Y-84309430D01*
X149994318Y-84309430D02*
X150105812Y-84220296D01*
X150105812Y-84220296D02*
X150206019Y-84119930D01*
X150206019Y-84119930D02*
X150230418Y-84092041D01*
X148489936Y-84302861D02*
X148606050Y-84388321D01*
X148606050Y-84388321D02*
X148739998Y-84455578D01*
X148739998Y-84455578D02*
X148893324Y-84503810D01*
X148893324Y-84503810D02*
X149067916Y-84531795D01*
X149067916Y-84531795D02*
X149217540Y-84538525D01*
X170706680Y-81309762D02*
X170610196Y-81415712D01*
X170610196Y-81415712D02*
X170500239Y-81506783D01*
X170500239Y-81506783D02*
X170374758Y-81584435D01*
X170374758Y-81584435D02*
X170236219Y-81647037D01*
X170236219Y-81647037D02*
X170067802Y-81699311D01*
X170067802Y-81699311D02*
X169929467Y-81727327D01*
X170971264Y-80408538D02*
X170962809Y-80603572D01*
X170962809Y-80603572D02*
X170938011Y-80780986D01*
X170938011Y-80780986D02*
X170897408Y-80942362D01*
X170897408Y-80942362D02*
X170840089Y-81091321D01*
X170840089Y-81091321D02*
X170769366Y-81221360D01*
X170769366Y-81221360D02*
X170706680Y-81309762D01*
X149858334Y-82727770D02*
X149658402Y-82730427D01*
X149658402Y-82730427D02*
X149465788Y-82738822D01*
X149465788Y-82738822D02*
X149280466Y-82753790D01*
X149280466Y-82753790D02*
X149101913Y-82776640D01*
X149101913Y-82776640D02*
X148932186Y-82808974D01*
X148932186Y-82808974D02*
X148774733Y-82852664D01*
X148774733Y-82852664D02*
X148631763Y-82910963D01*
X148631763Y-82910963D02*
X148580899Y-82938616D01*
X147985587Y-82529332D02*
X148104866Y-82448297D01*
X148104866Y-82448297D02*
X148234226Y-82377419D01*
X148234226Y-82377419D02*
X148373856Y-82316062D01*
X148373856Y-82316062D02*
X148523439Y-82263981D01*
X148523439Y-82263981D02*
X148687329Y-82219840D01*
X148687329Y-82219840D02*
X148854530Y-82186105D01*
X148854530Y-82186105D02*
X149030545Y-82160766D01*
X149030545Y-82160766D02*
X149213680Y-82143682D01*
X149213680Y-82143682D02*
X149405860Y-82134389D01*
X149405860Y-82134389D02*
X149548269Y-82132457D01*
X147464675Y-83707548D02*
X147473526Y-83510351D01*
X147473526Y-83510351D02*
X147498513Y-83334222D01*
X147498513Y-83334222D02*
X147538450Y-83173894D01*
X147538450Y-83173894D02*
X147592495Y-83027794D01*
X147592495Y-83027794D02*
X147661219Y-82892719D01*
X147661219Y-82892719D02*
X147742994Y-82770710D01*
X147742994Y-82770710D02*
X147836376Y-82661847D01*
X147836376Y-82661847D02*
X147940320Y-82565356D01*
X147940320Y-82565356D02*
X147985587Y-82529332D01*
X170454506Y-79279932D02*
X170562932Y-79372233D01*
X170562932Y-79372233D02*
X170660763Y-79475333D01*
X170660763Y-79475333D02*
X170749537Y-79593596D01*
X170749537Y-79593596D02*
X170822993Y-79720713D01*
X170822993Y-79720713D02*
X170883286Y-79861716D01*
X170883286Y-79861716D02*
X170929132Y-80017979D01*
X170929132Y-80017979D02*
X170958880Y-80190033D01*
X170958880Y-80190033D02*
X170971053Y-80379371D01*
X170971053Y-80379371D02*
X170971264Y-80408538D01*
X168982761Y-78883049D02*
X169178432Y-78887420D01*
X169178432Y-78887420D02*
X169365292Y-78900623D01*
X169365292Y-78900623D02*
X169543996Y-78922901D01*
X169543996Y-78922901D02*
X169712774Y-78954173D01*
X169712774Y-78954173D02*
X169873033Y-78994851D01*
X169873033Y-78994851D02*
X170024495Y-79045182D01*
X170024495Y-79045182D02*
X170165663Y-79104840D01*
X170165663Y-79104840D02*
X170299644Y-79175654D01*
X170299644Y-79175654D02*
X170421259Y-79255136D01*
X170421259Y-79255136D02*
X170454506Y-79279932D01*
X153678256Y-80425075D02*
X153678256Y-81127861D01*
X152913451Y-80425075D02*
X153678256Y-80425075D01*
X159222097Y-84257405D02*
X159341961Y-84338247D01*
X159341961Y-84338247D02*
X159494978Y-84386783D01*
X159494978Y-84386783D02*
X159672218Y-84411766D01*
X159672218Y-84411766D02*
X159854636Y-84418616D01*
X159069141Y-83529801D02*
X159074348Y-83725065D01*
X159074348Y-83725065D02*
X159092128Y-83908060D01*
X159092128Y-83908060D02*
X159127218Y-84073965D01*
X159127218Y-84073965D02*
X159188083Y-84213640D01*
X159188083Y-84213640D02*
X159222097Y-84257405D01*
X154021394Y-81429671D02*
X153942436Y-81551661D01*
X153942436Y-81551661D02*
X153874041Y-81684034D01*
X153874041Y-81684034D02*
X153815873Y-81827250D01*
X153815873Y-81827250D02*
X153767933Y-81981309D01*
X153767933Y-81981309D02*
X153730546Y-82144508D01*
X153730546Y-82144508D02*
X153703270Y-82317610D01*
X153703270Y-82317610D02*
X153685962Y-82500871D01*
X153685962Y-82500871D02*
X153678545Y-82695643D01*
X153678545Y-82695643D02*
X153678256Y-82744306D01*
X154972227Y-80950114D02*
X154783820Y-80962636D01*
X154783820Y-80962636D02*
X154618489Y-80997383D01*
X154618489Y-80997383D02*
X154471214Y-81051567D01*
X154471214Y-81051567D02*
X154340123Y-81122806D01*
X154340123Y-81122806D02*
X154224365Y-81208394D01*
X154224365Y-81208394D02*
X154121883Y-81306694D01*
X154121883Y-81306694D02*
X154031277Y-81416183D01*
X154031277Y-81416183D02*
X154021394Y-81429671D01*
X180496264Y-80425075D02*
X181393360Y-80425075D01*
X159854636Y-84418616D02*
X160635977Y-84418616D01*
X158639193Y-84728681D02*
X158547574Y-84619252D01*
X158547574Y-84619252D02*
X158473115Y-84491620D01*
X158473115Y-84491620D02*
X158414556Y-84349064D01*
X158414556Y-84349064D02*
X158370045Y-84193500D01*
X158370045Y-84193500D02*
X158337624Y-84023835D01*
X158337624Y-84023835D02*
X158316478Y-83840951D01*
X158316478Y-83840951D02*
X158306047Y-83651249D01*
X158306047Y-83651249D02*
X158304337Y-83529801D01*
X146497306Y-79358460D02*
X146497306Y-79358460D01*
X150230418Y-84092041D02*
X150317560Y-83979070D01*
X150317560Y-83979070D02*
X150394659Y-83855526D01*
X150394659Y-83855526D02*
X150461395Y-83720438D01*
X150461395Y-83720438D02*
X150516878Y-83573851D01*
X150516878Y-83573851D02*
X150560392Y-83415947D01*
X150560392Y-83415947D02*
X150591827Y-83244099D01*
X150591827Y-83244099D02*
X150610032Y-83060698D01*
X150610032Y-83060698D02*
X150614884Y-82897262D01*
X179268438Y-82074593D02*
X180496264Y-80425075D01*
X178040586Y-80425075D02*
X179268438Y-82074593D01*
X173096185Y-82744306D02*
X173101377Y-82941164D01*
X173101377Y-82941164D02*
X173116961Y-83127640D01*
X173116961Y-83127640D02*
X173142684Y-83302351D01*
X173142684Y-83302351D02*
X173178715Y-83467166D01*
X173178715Y-83467166D02*
X173224801Y-83621109D01*
X173224801Y-83621109D02*
X173281320Y-83765435D01*
X173281320Y-83765435D02*
X173347811Y-83898975D01*
X173347811Y-83898975D02*
X173424735Y-84022698D01*
X173424735Y-84022698D02*
X173447605Y-84054814D01*
X173451732Y-81437926D02*
X173371290Y-81557518D01*
X173371290Y-81557518D02*
X173301022Y-81687689D01*
X173301022Y-81687689D02*
X173240654Y-81829382D01*
X173240654Y-81829382D02*
X173191157Y-81980324D01*
X173191157Y-81980324D02*
X173151727Y-82142954D01*
X173151727Y-82142954D02*
X173123001Y-82314664D01*
X173123001Y-82314664D02*
X173104406Y-82499750D01*
X173104406Y-82499750D02*
X173096525Y-82693116D01*
X173096525Y-82693116D02*
X173096185Y-82744306D01*
X142325991Y-84319397D02*
X142230584Y-84212101D01*
X142230584Y-84212101D02*
X142140838Y-84099698D01*
X142140838Y-84099698D02*
X142056507Y-83981657D01*
X142056507Y-83981657D02*
X141977733Y-83857865D01*
X141977733Y-83857865D02*
X141904662Y-83728203D01*
X141904662Y-83728203D02*
X141836213Y-83589892D01*
X141836213Y-83589892D02*
X141774682Y-83446950D01*
X141774682Y-83446950D02*
X141720092Y-83299717D01*
X141720092Y-83299717D02*
X141671644Y-83145916D01*
X141671644Y-83145916D02*
X141629970Y-82987237D01*
X141629970Y-82987237D02*
X141593472Y-82815487D01*
X141593472Y-82815487D02*
X141565040Y-82643293D01*
X141565040Y-82643293D02*
X141543238Y-82463062D01*
X141543238Y-82463062D02*
X141528505Y-82276634D01*
X141528505Y-82276634D02*
X141520867Y-82081091D01*
X141520867Y-82081091D02*
X141519832Y-81975374D01*
X176544050Y-82744306D02*
X176539525Y-82943582D01*
X176539525Y-82943582D02*
X176526057Y-83134045D01*
X176526057Y-83134045D02*
X176504195Y-83313116D01*
X176504195Y-83313116D02*
X176473851Y-83484326D01*
X176473851Y-83484326D02*
X176435398Y-83646607D01*
X176435398Y-83646607D02*
X176389013Y-83800391D01*
X176389013Y-83800391D02*
X176334742Y-83946271D01*
X176334742Y-83946271D02*
X176271383Y-84087098D01*
X176271383Y-84087098D02*
X176201380Y-84217765D01*
X176201380Y-84217765D02*
X176121480Y-84344346D01*
X176121480Y-84344346D02*
X176036362Y-84459769D01*
X176036362Y-84459769D02*
X175977683Y-84530244D01*
X175977683Y-80958369D02*
X176069322Y-81070861D01*
X176069322Y-81070861D02*
X176154261Y-81192573D01*
X176154261Y-81192573D02*
X176229188Y-81318601D01*
X176229188Y-81318601D02*
X176296854Y-81453212D01*
X176296854Y-81453212D02*
X176356821Y-81596238D01*
X176356821Y-81596238D02*
X176408743Y-81747431D01*
X176408743Y-81747431D02*
X176452584Y-81907368D01*
X176452584Y-81907368D02*
X176487520Y-82072879D01*
X176487520Y-82072879D02*
X176514343Y-82247724D01*
X176514343Y-82247724D02*
X176532729Y-82431632D01*
X176532729Y-82431632D02*
X176542383Y-82622075D01*
X176542383Y-82622075D02*
X176544050Y-82744306D01*
X174419102Y-80958369D02*
X174230247Y-80970591D01*
X174230247Y-80970591D02*
X174063283Y-81004759D01*
X174063283Y-81004759D02*
X173915787Y-81057467D01*
X173915787Y-81057467D02*
X173784241Y-81126595D01*
X173784241Y-81126595D02*
X173667398Y-81209821D01*
X173667398Y-81209821D02*
X173562825Y-81306220D01*
X173562825Y-81306220D02*
X173467476Y-81417079D01*
X173467476Y-81417079D02*
X173451732Y-81437926D01*
X166849558Y-78883049D02*
X168982761Y-78883049D01*
X156266225Y-82744306D02*
X156266225Y-82744306D01*
X153678256Y-84360752D02*
X153678256Y-84360752D01*
X146497306Y-80239046D02*
X146390138Y-80143239D01*
X146390138Y-80143239D02*
X146278578Y-80051726D01*
X146278578Y-80051726D02*
X146163361Y-79965572D01*
X146163361Y-79965572D02*
X146042636Y-79883947D01*
X146042636Y-79883947D02*
X145916215Y-79807485D01*
X145916215Y-79807485D02*
X145785741Y-79737739D01*
X145785741Y-79737739D02*
X145647399Y-79673431D01*
X145647399Y-79673431D02*
X145596055Y-79651989D01*
X154021394Y-84063095D02*
X154111472Y-84173708D01*
X154111472Y-84173708D02*
X154213657Y-84273351D01*
X154213657Y-84273351D02*
X154328526Y-84359848D01*
X154328526Y-84359848D02*
X154457982Y-84431869D01*
X154457982Y-84431869D02*
X154605248Y-84487789D01*
X154605248Y-84487789D02*
X154769588Y-84524075D01*
X154769588Y-84524075D02*
X154955327Y-84538427D01*
X154955327Y-84538427D02*
X154972227Y-84538525D01*
X153678256Y-82744306D02*
X153683163Y-82939948D01*
X153683163Y-82939948D02*
X153697934Y-83125665D01*
X153697934Y-83125665D02*
X153722689Y-83301742D01*
X153722689Y-83301742D02*
X153757383Y-83467395D01*
X153757383Y-83467395D02*
X153802223Y-83623237D01*
X153802223Y-83623237D02*
X153857568Y-83769703D01*
X153857568Y-83769703D02*
X153923103Y-83905495D01*
X153923103Y-83905495D02*
X153998658Y-84030370D01*
X153998658Y-84030370D02*
X154021394Y-84063095D01*
X155158282Y-85175166D02*
X154964066Y-85167516D01*
X154964066Y-85167516D02*
X154785119Y-85145335D01*
X154785119Y-85145335D02*
X154619810Y-85109508D01*
X154619810Y-85109508D02*
X154467915Y-85061055D01*
X154467915Y-85061055D02*
X154327652Y-85000391D01*
X154327652Y-85000391D02*
X154281850Y-84976728D01*
X156526654Y-84505452D02*
X156431364Y-84618592D01*
X156431364Y-84618592D02*
X156330535Y-84721816D01*
X156330535Y-84721816D02*
X156223489Y-84815421D01*
X156223489Y-84815421D02*
X156107558Y-84900730D01*
X156107558Y-84900730D02*
X155982224Y-84976652D01*
X155982224Y-84976652D02*
X155845924Y-85042502D01*
X155845924Y-85042502D02*
X155698320Y-85096699D01*
X155698320Y-85096699D02*
X155538744Y-85137835D01*
X155538744Y-85137835D02*
X155364930Y-85164617D01*
X155364930Y-85164617D02*
X155173901Y-85175106D01*
X155173901Y-85175106D02*
X155158282Y-85175166D01*
X160635977Y-81016260D02*
X159069141Y-81016260D01*
X160635977Y-80425075D02*
X160635977Y-81016260D01*
D12*
X186945001Y-91660000D02*
G75*
G02X189075001Y-93790000I0J-2130000D01*
G01*
X163215001Y-93790000D02*
G75*
G02X165345001Y-91660000I2130000J0D01*
G01*
X165755001Y-119220000D02*
X165755001Y-126120000D01*
X163215001Y-119220000D02*
X165755001Y-119220000D01*
D10*
G36*
X162175001Y-99365000D02*
G01*
X162175001Y-100635000D01*
X162810001Y-100000000D01*
X162175001Y-99365000D01*
G37*
X162175001Y-99365000D02*
X162175001Y-100635000D01*
X162810001Y-100000000D01*
X162175001Y-99365000D01*
D12*
X186955001Y-91660000D02*
X165345001Y-91660000D01*
X189075001Y-126120000D02*
X189075001Y-93790000D01*
X163215001Y-119220000D02*
X163215001Y-93790000D01*
X165755001Y-126120000D02*
X189075001Y-126120000D01*
X135755001Y-126120000D02*
X159075001Y-126120000D01*
X133215001Y-119220000D02*
X133215001Y-93790000D01*
X159075001Y-126120000D02*
X159075001Y-93790000D01*
X156955001Y-91660000D02*
X135345001Y-91660000D01*
D10*
G36*
X132175001Y-99365000D02*
G01*
X132175001Y-100635000D01*
X132810001Y-100000000D01*
X132175001Y-99365000D01*
G37*
X132175001Y-99365000D02*
X132175001Y-100635000D01*
X132810001Y-100000000D01*
X132175001Y-99365000D01*
D12*
X133215001Y-119220000D02*
X135755001Y-119220000D01*
X135755001Y-119220000D02*
X135755001Y-126120000D01*
X133215001Y-93790000D02*
G75*
G02X135345001Y-91660000I2130000J0D01*
G01*
X156945001Y-91660000D02*
G75*
G02X159075001Y-93790000I0J-2130000D01*
G01*
D13*
X135999080Y-68500000D02*
X138200000Y-68500000D01*
X138200000Y-68500000D02*
X138200000Y-69501100D01*
X138200920Y-69500000D02*
X143799080Y-69500000D01*
X143799080Y-69501100D02*
X143799080Y-68500000D01*
X143799080Y-68500000D02*
X146000000Y-68500000D01*
X146000000Y-78300000D02*
X136000000Y-78300000D01*
X146000000Y-68500000D02*
X146000000Y-78300000D01*
X136000000Y-68500000D02*
X136000000Y-78300000D01*
X136001280Y-75901900D02*
X136001280Y-77898340D01*
X157390000Y-86530000D02*
X165010000Y-86530000D01*
X157390000Y-89070000D02*
X157390000Y-86530000D01*
X165010000Y-89070000D02*
X157390000Y-89070000D01*
X165010000Y-86530000D02*
X165010000Y-89070000D01*
X175851540Y-75901900D02*
X175851540Y-77898340D01*
X175850260Y-68500000D02*
X175850260Y-78300000D01*
X185850260Y-68500000D02*
X185850260Y-78300000D01*
X185850260Y-78300000D02*
X175850260Y-78300000D01*
X183649340Y-68500000D02*
X185850260Y-68500000D01*
X183649340Y-69501100D02*
X183649340Y-68500000D01*
X178051180Y-69500000D02*
X183649340Y-69500000D01*
X178050260Y-68500000D02*
X178050260Y-69501100D01*
X175849340Y-68500000D02*
X178050260Y-68500000D01*
D14*
X193659000Y-83516000D02*
X197596000Y-83516000D01*
X197596000Y-83516000D02*
X197596000Y-81484000D01*
X193659000Y-81484000D02*
X197596000Y-81484000D01*
X193659000Y-83516000D02*
X193659000Y-81484000D01*
X193659000Y-86640200D02*
X193659000Y-78359800D01*
X189341000Y-86640200D02*
X189341000Y-78359800D01*
D13*
X193659000Y-78334400D02*
X193659000Y-86665600D01*
X189341000Y-86665600D02*
X189341000Y-78334400D01*
X189341000Y-86698620D02*
X190001400Y-86698620D01*
X193659000Y-86698620D02*
X192998600Y-86698620D01*
X189341000Y-78400440D02*
X190001400Y-78400440D01*
X193659000Y-78400440D02*
X192998600Y-78400440D01*
X142968200Y-112689800D02*
X142968200Y-106492200D01*
X149165800Y-112689800D02*
X142968200Y-112689800D01*
X149165800Y-106492200D02*
X149165800Y-112689800D01*
X142968200Y-106492200D02*
X149165800Y-106492200D01*
D14*
X142968200Y-112689800D02*
X142968200Y-106492200D01*
X142968200Y-106492200D02*
X149165800Y-106492200D01*
X149165800Y-112689800D02*
X149165800Y-106492200D01*
X142968200Y-112689800D02*
X149165800Y-112689800D01*
D10*
X185500715Y-126928571D02*
X185643572Y-126976190D01*
X185691191Y-127023809D01*
X185738810Y-127119047D01*
X185738810Y-127261904D01*
X185691191Y-127357142D01*
X185643572Y-127404761D01*
X185548334Y-127452380D01*
X185167381Y-127452380D01*
X185167381Y-126452380D01*
X185500715Y-126452380D01*
X185595953Y-126500000D01*
X185643572Y-126547619D01*
X185691191Y-126642857D01*
X185691191Y-126738095D01*
X185643572Y-126833333D01*
X185595953Y-126880952D01*
X185500715Y-126928571D01*
X185167381Y-126928571D01*
X186119762Y-127166666D02*
X186595953Y-127166666D01*
X186024524Y-127452380D02*
X186357858Y-126452380D01*
X186691191Y-127452380D01*
X186881667Y-126452380D02*
X187453096Y-126452380D01*
X187167381Y-127452380D02*
X187167381Y-126452380D01*
X188310239Y-127452380D02*
X187738810Y-127452380D01*
X188024524Y-127452380D02*
X188024524Y-126452380D01*
X187929286Y-126595238D01*
X187834048Y-126690476D01*
X187738810Y-126738095D01*
X153857858Y-126452380D02*
X154095953Y-127452380D01*
X154286429Y-126738095D01*
X154476905Y-127452380D01*
X154715001Y-126452380D01*
X155476905Y-127404761D02*
X155381667Y-127452380D01*
X155191191Y-127452380D01*
X155095953Y-127404761D01*
X155048334Y-127309523D01*
X155048334Y-126928571D01*
X155095953Y-126833333D01*
X155191191Y-126785714D01*
X155381667Y-126785714D01*
X155476905Y-126833333D01*
X155524524Y-126928571D01*
X155524524Y-127023809D01*
X155048334Y-127119047D01*
X155953096Y-127452380D02*
X155953096Y-126785714D01*
X155953096Y-126880952D02*
X156000715Y-126833333D01*
X156095953Y-126785714D01*
X156238810Y-126785714D01*
X156334048Y-126833333D01*
X156381667Y-126928571D01*
X156381667Y-127452380D01*
X156381667Y-126928571D02*
X156429286Y-126833333D01*
X156524524Y-126785714D01*
X156667381Y-126785714D01*
X156762620Y-126833333D01*
X156810239Y-126928571D01*
X156810239Y-127452380D01*
X157429286Y-127452380D02*
X157334048Y-127404761D01*
X157286429Y-127357142D01*
X157238810Y-127261904D01*
X157238810Y-126976190D01*
X157286429Y-126880952D01*
X157334048Y-126833333D01*
X157429286Y-126785714D01*
X157572143Y-126785714D01*
X157667381Y-126833333D01*
X157715001Y-126880952D01*
X157762620Y-126976190D01*
X157762620Y-127261904D01*
X157715001Y-127357142D01*
X157667381Y-127404761D01*
X157572143Y-127452380D01*
X157429286Y-127452380D01*
X158143572Y-127404761D02*
X158238810Y-127452380D01*
X158429286Y-127452380D01*
X158524524Y-127404761D01*
X158572143Y-127309523D01*
X158572143Y-127261904D01*
X158524524Y-127166666D01*
X158429286Y-127119047D01*
X158286429Y-127119047D01*
X158191191Y-127071428D01*
X158143572Y-126976190D01*
X158143572Y-126928571D01*
X158191191Y-126833333D01*
X158286429Y-126785714D01*
X158429286Y-126785714D01*
X158524524Y-126833333D01*
X159524524Y-127452380D02*
X158953096Y-127452380D01*
X159238810Y-127452380D02*
X159238810Y-126452380D01*
X159143572Y-126595238D01*
X159048334Y-126690476D01*
X158953096Y-126738095D01*
X140666666Y-66902380D02*
X140666666Y-67616666D01*
X140619047Y-67759523D01*
X140523809Y-67854761D01*
X140380952Y-67902380D01*
X140285714Y-67902380D01*
X141666666Y-67902380D02*
X141095238Y-67902380D01*
X141380952Y-67902380D02*
X141380952Y-66902380D01*
X141285714Y-67045238D01*
X141190476Y-67140476D01*
X141095238Y-67188095D01*
X158357142Y-90452380D02*
X157880952Y-90452380D01*
X157880952Y-89452380D01*
X158690476Y-89928571D02*
X159023809Y-89928571D01*
X159166666Y-90452380D02*
X158690476Y-90452380D01*
X158690476Y-89452380D01*
X159166666Y-89452380D01*
X159595238Y-90452380D02*
X159595238Y-89452380D01*
X159833333Y-89452380D01*
X159976190Y-89500000D01*
X160071428Y-89595238D01*
X160119047Y-89690476D01*
X160166666Y-89880952D01*
X160166666Y-90023809D01*
X160119047Y-90214285D01*
X160071428Y-90309523D01*
X159976190Y-90404761D01*
X159833333Y-90452380D01*
X159595238Y-90452380D01*
X180516926Y-66902380D02*
X180516926Y-67616666D01*
X180469307Y-67759523D01*
X180374069Y-67854761D01*
X180231212Y-67902380D01*
X180135974Y-67902380D01*
X180945498Y-66997619D02*
X180993117Y-66950000D01*
X181088355Y-66902380D01*
X181326450Y-66902380D01*
X181421688Y-66950000D01*
X181469307Y-66997619D01*
X181516926Y-67092857D01*
X181516926Y-67188095D01*
X181469307Y-67330952D01*
X180897879Y-67902380D01*
X181516926Y-67902380D01*
D15*
X190314666Y-77017833D02*
X190441666Y-77060166D01*
X190653333Y-77060166D01*
X190738000Y-77017833D01*
X190780333Y-76975500D01*
X190822666Y-76890833D01*
X190822666Y-76806166D01*
X190780333Y-76721500D01*
X190738000Y-76679166D01*
X190653333Y-76636833D01*
X190484000Y-76594500D01*
X190399333Y-76552166D01*
X190357000Y-76509833D01*
X190314666Y-76425166D01*
X190314666Y-76340500D01*
X190357000Y-76255833D01*
X190399333Y-76213500D01*
X190484000Y-76171166D01*
X190695666Y-76171166D01*
X190822666Y-76213500D01*
X191119000Y-76171166D02*
X191330666Y-77060166D01*
X191500000Y-76425166D01*
X191669333Y-77060166D01*
X191881000Y-76171166D01*
X192685333Y-77060166D02*
X192177333Y-77060166D01*
X192431333Y-77060166D02*
X192431333Y-76171166D01*
X192346666Y-76298166D01*
X192262000Y-76382833D01*
X192177333Y-76425166D01*
D16*
X190220928Y-88599023D02*
X190311642Y-88629261D01*
X190462833Y-88629261D01*
X190523309Y-88599023D01*
X190553547Y-88568785D01*
X190583785Y-88508309D01*
X190583785Y-88447833D01*
X190553547Y-88387357D01*
X190523309Y-88357119D01*
X190462833Y-88326880D01*
X190341880Y-88296642D01*
X190281404Y-88266404D01*
X190251166Y-88236166D01*
X190220928Y-88175690D01*
X190220928Y-88115214D01*
X190251166Y-88054738D01*
X190281404Y-88024500D01*
X190341880Y-87994261D01*
X190493071Y-87994261D01*
X190583785Y-88024500D01*
X190795452Y-88205928D02*
X190916404Y-88629261D01*
X191037357Y-88326880D01*
X191158309Y-88629261D01*
X191279261Y-88205928D01*
X191521166Y-88629261D02*
X191521166Y-88205928D01*
X191521166Y-87994261D02*
X191490928Y-88024500D01*
X191521166Y-88054738D01*
X191551404Y-88024500D01*
X191521166Y-87994261D01*
X191521166Y-88054738D01*
X191732833Y-88205928D02*
X191974738Y-88205928D01*
X191823547Y-87994261D02*
X191823547Y-88538547D01*
X191853785Y-88599023D01*
X191914261Y-88629261D01*
X191974738Y-88629261D01*
X192458547Y-88599023D02*
X192398071Y-88629261D01*
X192277119Y-88629261D01*
X192216642Y-88599023D01*
X192186404Y-88568785D01*
X192156166Y-88508309D01*
X192156166Y-88326880D01*
X192186404Y-88266404D01*
X192216642Y-88236166D01*
X192277119Y-88205928D01*
X192398071Y-88205928D01*
X192458547Y-88236166D01*
X192730690Y-88629261D02*
X192730690Y-87994261D01*
X193002833Y-88629261D02*
X193002833Y-88296642D01*
X192972595Y-88236166D01*
X192912119Y-88205928D01*
X192821404Y-88205928D01*
X192760928Y-88236166D01*
X192730690Y-88266404D01*
D15*
X145410833Y-105929166D02*
X145410833Y-105040166D01*
X145918833Y-105929166D02*
X145537833Y-105421166D01*
X145918833Y-105040166D02*
X145410833Y-105548166D01*
X146765500Y-105929166D02*
X146257500Y-105929166D01*
X146511500Y-105929166D02*
X146511500Y-105040166D01*
X146426833Y-105167166D01*
X146342166Y-105251833D01*
X146257500Y-105294166D01*
D16*
X144781880Y-113609642D02*
X144872595Y-113639880D01*
X144902833Y-113670119D01*
X144933071Y-113730595D01*
X144933071Y-113821309D01*
X144902833Y-113881785D01*
X144872595Y-113912023D01*
X144812119Y-113942261D01*
X144570214Y-113942261D01*
X144570214Y-113307261D01*
X144781880Y-113307261D01*
X144842357Y-113337500D01*
X144872595Y-113367738D01*
X144902833Y-113428214D01*
X144902833Y-113488690D01*
X144872595Y-113549166D01*
X144842357Y-113579404D01*
X144781880Y-113609642D01*
X144570214Y-113609642D01*
X145295928Y-113942261D02*
X145235452Y-113912023D01*
X145205214Y-113881785D01*
X145174976Y-113821309D01*
X145174976Y-113639880D01*
X145205214Y-113579404D01*
X145235452Y-113549166D01*
X145295928Y-113518928D01*
X145386642Y-113518928D01*
X145447119Y-113549166D01*
X145477357Y-113579404D01*
X145507595Y-113639880D01*
X145507595Y-113821309D01*
X145477357Y-113881785D01*
X145447119Y-113912023D01*
X145386642Y-113942261D01*
X145295928Y-113942261D01*
X146051880Y-113518928D02*
X146051880Y-113942261D01*
X145779738Y-113518928D02*
X145779738Y-113851547D01*
X145809976Y-113912023D01*
X145870452Y-113942261D01*
X145961166Y-113942261D01*
X146021642Y-113912023D01*
X146051880Y-113881785D01*
X146263547Y-113518928D02*
X146505452Y-113518928D01*
X146354261Y-113307261D02*
X146354261Y-113851547D01*
X146384500Y-113912023D01*
X146444976Y-113942261D01*
X146505452Y-113942261D01*
X146807833Y-113942261D02*
X146747357Y-113912023D01*
X146717119Y-113881785D01*
X146686880Y-113821309D01*
X146686880Y-113639880D01*
X146717119Y-113579404D01*
X146747357Y-113549166D01*
X146807833Y-113518928D01*
X146898547Y-113518928D01*
X146959023Y-113549166D01*
X146989261Y-113579404D01*
X147019500Y-113639880D01*
X147019500Y-113821309D01*
X146989261Y-113881785D01*
X146959023Y-113912023D01*
X146898547Y-113942261D01*
X146807833Y-113942261D01*
X147291642Y-113518928D02*
X147291642Y-113942261D01*
X147291642Y-113579404D02*
X147321880Y-113549166D01*
X147382357Y-113518928D01*
X147473071Y-113518928D01*
X147533547Y-113549166D01*
X147563785Y-113609642D01*
X147563785Y-113942261D01*
M02*
