<?xml version="1.0" encoding="UTF-8" standalone="no"?>
<svg
   xmlns:dc="http://purl.org/dc/elements/1.1/"
   xmlns:cc="http://creativecommons.org/ns#"
   xmlns:rdf="http://www.w3.org/1999/02/22-rdf-syntax-ns#"
   xmlns:svg="http://www.w3.org/2000/svg"
   xmlns="http://www.w3.org/2000/svg"
   id="svg1126"
   viewBox="0 0 23573.914 17019.919"
   height="4.3230553cm"
   width="5.9877701cm"
   version="1.1">
  <metadata
     id="metadata1132">
    <rdf:RDF>
      <cc:Work
         rdf:about="">
        <dc:format>image/svg+xml</dc:format>
        <dc:type
           rdf:resource="http://purl.org/dc/dcmitype/StillImage" />
        <dc:title>SVG Picture created as captobox-F_SilkS.svg date 2019/07/12 15:38:35 </dc:title>
      </cc:Work>
    </rdf:RDF>
  </metadata>
  <defs
     id="defs1130" />
  <title
     id="title2">SVG Picture created as captobox-F_SilkS.svg date 2019/07/12 15:38:35 </title>
  <desc
     id="desc4">Picture generated by PCBNEW </desc>
  <g
     transform="matrix(13.217267,0,0,13.217267,-476434.62,-514181.65)"
     id="g948"
     style="fill:#000000;fill-opacity:1;stroke:#008484;stroke-width:3.93701005;stroke-linecap:round;stroke-linejoin:round;stroke-opacity:1">
    <path
       id="path892"
       d="M 37741,40188 H 14258 V 29507 h 14534 v 87 l 1,69 v 53 l 1,40 1,27 3,18 3,10 4,5 5,2 h 2 l 11,-2 6,-8 2,-19 1,-33 v -14 l 2,-51 6,-34 12,-20 18,-9 11,-1 23,3 15,10 9,22 4,35 v 38 l 1,40 1,25 4,12 8,5 13,1 h 26 l -3,-67 h 41 l 7,35 23,23 37,8 7,1 29,-3 21,-7 4,-2 10,-7 2,7 8,9 12,3 9,-2 6,-6 3,-16 1,-28 1,-44 v -3 l -1,-16 h 71 v 49 l 1,33 2,19 5,10 7,3 5,1 10,-2 6,-7 3,-18 1,-31 v -26 l 1,-32 h 118 l 4,42 11,35 7,12 28,21 36,6 36,-11 16,-5 3,5 9,8 16,3 h 25 v -215 h 40 l 5,20 9,33 14,47 16,49 12,33 9,20 9,9 9,2 h 1 l 12,-6 11,-17 12,-30 9,-29 12,-35 11,-25 7,-10 h 2 l 7,13 10,27 11,36 2,5 12,39 11,22 10,10 7,2 8,-3 8,-8 9,-17 11,-28 4,-11 h 71 l 7,35 23,23 37,8 7,1 29,-3 21,-7 4,-2 10,-7 2,7 8,9 12,3 9,-2 6,-6 3,-16 1,-28 1,-44 v -3 l -2,-55 -5,-38 -12,-24 -19,-13 -12,-2 h 110 v 231 h 25 l 12,-1 7,-5 4,-14 2,-25 v -39 l 1,-47 3,-20 h 117 v 33 l 1,10 9,50 18,33 30,19 41,6 32,-3 27,-8 6,-3 13,-13 -4,-14 -2,-2 -12,-10 -14,2 -15,7 -33,8 -30,-8 -21,-20 -7,-27 9,-5 24,-3 35,-1 h 7 75 v -31 l -8,-44 -22,-34 -33,-21 -42,-5 -36,14 -29,27 -13,21 -6,22 h -117 l 1,-10 10,-18 18,-9 27,-4 v 0 l 27,-7 11,-13 -5,-15 -19,-7 -25,1 -21,7 -19,7 -9,-2 v 0 l -9,-7 -16,-3 h -25 -110 l -18,-3 h -23 l -36,3 -25,8 -13,12 3,12 10,7 20,6 7,-5 14,-8 25,-1 23,5 11,6 9,20 3,15 -2,14 -9,7 -21,2 h -20 l -45,6 -29,15 -13,27 -1,16 h -71 l 10,-29 18,-56 17,-57 3,-17 -10,-4 -8,1 -13,5 -10,12 -9,23 -11,39 v 2 l -10,36 -9,27 -6,14 -2,1 -5,-9 -10,-24 -12,-33 -4,-12 -16,-46 -15,-27 -13,-7 -13,13 -15,32 -12,33 -13,35 -11,26 -8,12 h -2 l -6,-13 -9,-28 -10,-35 -1,-5 -11,-38 -8,-22 -10,-10 -11,-3 -9,1 -5,4 -1,11 h -40 v -116 h -25 l -14,2 -7,7 -3,17 -1,33 v 60 l -28,-14 -35,-8 -34,8 -26,21 -6,10 -9,36 -3,43 h -118 v -15 l 4,-30 10,-18 18,-9 27,-4 v 0 l 28,-8 10,-12 -5,-16 -18,-8 -26,2 -19,7 -20,8 -10,-1 v -1 l -9,-8 -11,-2 -9,2 -6,6 -3,14 -2,25 v 40 29 h -71 l -1,-39 -5,-38 -12,-24 -19,-13 -30,-5 h -23 l -36,3 -25,8 -13,12 3,12 10,7 20,6 7,-5 14,-7 25,-2 27,5 h 3 l 12,15 4,21 -1,16 -7,9 -18,3 h -26 l -45,6 -29,15 -13,27 -1,16 h -41 l -1,-27 -4,-53 -6,-36 -11,-24 -16,-16 -19,-9 -32,-2 -26,8 -35,14 v -95 l 1,-44 1,-28 3,-14 5,-4 8,2 36,10 h 35 l 25,-8 18,-25 10,-36 4,-43 -1,-2 h 46 l 1,36 5,23 12,19 11,11 35,23 41,7 40,-9 13,-8 15,-14 -1,-12 -3,-3 -16,-9 -14,4 -32,11 -31,-3 -24,-13 -12,-21 v -6 l 2,-9 10,-6 21,-2 37,-1 h 5 38 l 22,-2 11,-5 3,-9 1,-4 h 50 v 51 l 1,34 2,20 4,11 7,4 h 6 l 10,-1 5,-8 4,-17 1,-31 v -28 -41 l 2,-27 5,-16 9,-10 9,-7 19,-10 16,1 15,9 12,10 8,11 3,19 2,31 v 30 42 l 2,25 4,13 7,5 h 7 l 9,-1 6,-7 3,-16 1,-16 h 151 l 9,13 23,13 31,10 33,4 v 0 l 45,-8 23,-13 22,-27 4,-21 -5,-32 -12,-14 h 57 l 2,37 4,24 11,18 10,10 34,22 40,4 39,-12 16,-11 20,-28 12,-40 2,-45 -2,-7 h 53 v 0 46 l 2,31 5,20 7,15 7,8 27,17 32,6 29,-6 10,-6 12,-8 6,8 12,10 12,2 8,-1 5,-6 3,-15 2,-26 1,-41 v -26 h 60 v 115 h 25 12 l 7,-5 4,-13 2,-24 v -40 -7 -24 h 116 l 1,34 7,22 14,19 10,10 37,22 41,7 38,-9 16,-10 15,-14 -1,-9 -8,-8 -17,-9 -11,7 -22,10 h -29 l -25,-10 -5,-4 -17,-29 -4,-23 h 165 l 7,40 21,37 6,6 30,17 38,8 38,-4 25,-11 12,-12 -3,-13 -4,-5 -15,-11 -9,5 -23,10 -29,-1 -27,-10 -12,-11 -12,-19 -4,-11 9,-4 25,-3 34,-1 h 7 75 v -39 l -8,-43 -25,-33 -37,-19 -10,-2 -37,2 -31,19 -23,29 -15,38 -3,41 h -165 l -2,-14 5,-32 20,-30 29,-12 35,4 25,6 16,-5 4,-3 6,-10 -7,-10 -23,-12 -45,-12 -39,5 -32,22 -23,36 -9,49 v 12 h -116 v -20 l 2,-28 5,-16 7,-10 6,-3 25,-6 17,1 23,-2 12,-12 6,-14 -7,-8 -17,-4 -36,1 -17,7 -17,10 -10,-4 -5,-7 -17,-11 -10,2 -8,5 -5,12 -2,22 -2,34 v 49 h -60 v -5 -51 l -1,-34 -3,-20 -4,-11 -6,-4 h -6 l -10,2 -6,7 -3,16 -1,30 v 33 l -2,50 -4,33 -9,19 -16,9 -16,1 -23,-4 -16,-14 -10,-27 -4,-42 v -29 l -1,-41 -2,-25 -4,-13 -7,-4 -6,-1 -10,1 -6,7 -3,16 -1,28 v 45 h -53 l -6,-34 -2,-3 -22,-32 -33,-19 -38,-6 -37,10 -29,24 -13,22 -6,30 -2,36 h -57 l -6,-7 -34,-12 -23,-4 -33,-5 -17,-7 -7,-12 -1,-5 6,-19 19,-11 29,-2 25,6 26,4 19,-8 4,-14 -9,-9 -22,-9 -28,-6 -29,-2 -15,1 -35,14 -23,23 -10,28 4,28 17,23 32,14 6,1 40,7 25,6 12,6 4,9 -1,10 -5,15 -15,7 -26,3 h -30 l -23,-6 -4,-2 -19,-7 -18,4 -8,12 v 1 h -151 l 1,-12 v -43 -46 l -2,-30 -5,-19 -7,-14 -11,-11 -32,-21 -34,-1 -27,13 -16,10 -6,-3 v -7 l -9,-13 -11,-3 -9,1 -5,6 -4,14 -2,24 v 40 35 h -50 v -3 l -8,-47 -21,-37 -32,-23 -40,-7 -15,1 -37,15 -24,30 -12,44 -1,29 h -46 l -3,-41 -12,-37 -17,-24 -28,-17 h -28 l -29,11 -19,9 -8,-1 -1,-8 -8,-11 -12,-3 -5,1 -5,3 -3,7 -3,15 -1,23 -2,34 v 47 l -1,61 v 79 40 H 14258 v -188 h 14294 l 1,36 6,23 12,19 10,11 30,22 32,7 h 4 l 34,-6 29,-20 3,-3 19,-22 8,-24 2,-33 -3,-50 -12,-35 -22,-24 -14,-8 -40,-12 -40,6 -33,22 -5,6 -14,23 -6,32 -1,30 H 14258 v -885 h 7153 l 1,60 15,57 30,50 43,38 50,26 55,11 53,-3 48,-19 3,-2 22,-15 11,-4 3,7 v 7 l 2,12 9,5 21,1 26,-1 57,-3 v -200 h 55 l 9,63 26,54 38,45 48,32 56,19 59,3 61,-15 2,-1 47,-28 41,-39 20,-30 14,-28 h -57 l -58,7 -40,13 -31,12 -26,2 -20,-4 -27,-13 -24,-20 -15,-22 -2,-9 9,-2 26,-2 39,-1 49,-1 h 31 61 l 44,-1 29,-3 17,-3 8,-6 v 0 l 3,-29 -7,-40 -14,-43 -19,-37 -39,-49 -48,-32 -59,-15 -32,-2 -67,9 -56,25 -45,40 -32,53 -17,64 -2,34 h -55 v -335 h 176 l 17,35 12,23 10,11 2,1 11,-4 26,-10 35,-15 18,-8 37,-17 30,-13 18,-8 3,-2 v -8 h 146 v 550 l 58,3 35,1 20,-4 8,-8 6,-9 13,3 18,10 41,15 49,4 51,-7 24,-8 54,-32 39,-45 24,-58 7,-69 -1,-39 -5,-36 -5,-21 -26,-43 -39,-39 -38,-24 -27,-9 h 189 v 204 l 1,61 1,55 1,45 2,32 2,16 v 1 l 13,3 26,3 h 26 59 v -125 -50 l 1,-9 h 110 l 14,55 27,50 39,42 50,30 59,16 26,1 38,-2 35,-6 12,-3 58,-29 44,-42 29,-55 12,-66 v -17 l -8,-69 -24,-58 -39,-45 -52,-31 -31,-7 h 210 v 163 l 1,70 2,54 6,40 9,29 14,22 19,18 22,15 38,15 45,5 43,-5 10,-5 h 442 l 125,-6 v -550 l -63,-3 -42,-2 h 180 v 560 h 120 v -216 h 53 l 6,59 19,55 34,49 48,38 9,6 44,14 49,5 49,-5 36,-14 22,-12 h 11 l 4,7 11,9 26,5 h 29 61 v -420 h 70 v 421 l 125,-6 3,-129 2,-60 1,-16 h 109 l 8,71 23,57 36,45 50,30 60,14 40,1 40,-4 27,-8 21,-15 v 0 l 25,-24 v 22 l 2,12 9,6 19,3 h 30 60 v -119 h 45 v 14 l 9,24 4,9 29,37 42,26 51,16 54,3 52,-10 8,-3 41,-26 30,-36 15,-41 1,-14 -3,-37 -12,-29 -21,-24 -36,-22 -51,-22 -30,-11 -30,-12 -13,-11 -3,-14 1,-1 10,-19 20,-6 21,7 6,6 17,8 28,6 32,2 28,-3 19,-6 2,-2 v -18 l -11,-25 -18,-27 -23,-22 -14,-10 -46,-15 -52,-3 -51,9 -44,21 -33,30 -6,8 -17,46 2,42 21,38 40,34 56,27 46,19 29,17 12,15 -3,15 -3,4 -23,14 -26,-1 -22,-15 -2,-3 -11,-12 -19,-6 -33,-2 h -6 l -32,2 -24,4 -8,5 h -45 v -379 h 2933 l 3,121 2,122 108,20 44,9 38,9 25,8 9,4 9,15 13,27 14,35 15,38 12,33 7,24 2,7 -6,14 -14,26 -22,34 -20,32 -63,91 85,85 33,33 27,27 18,18 8,7 v 0 l 8,-5 22,-15 31,-21 34,-23 94,-64 95,48 19,-43 10,-23 16,-39 20,-48 22,-54 13,-32 64,-153 -53,-45 -49,-52 -32,-56 -16,-62 -1,-9 2,-68 20,-63 35,-54 47,-44 58,-30 67,-15 23,-1 72,9 63,27 52,44 42,59 9,20 13,49 3,57 -9,57 -14,40 -22,35 -33,38 -37,35 -17,13 -6,6 -3,8 1,12 6,21 11,30 17,44 24,59 3,8 24,57 21,51 17,43 13,31 6,15 9,23 48,-24 48,-25 95,65 94,64 83,-82 33,-33 26,-29 18,-20 6,-9 -5,-12 -15,-23 -21,-33 -19,-27 -25,-37 -20,-31 -12,-21 -3,-8 3,-14 10,-27 13,-35 14,-37 15,-34 11,-25 5,-10 13,-6 28,-8 39,-9 31,-5 44,-9 38,-8 25,-7 9,-4 6,-14 4,-31 2,-49 v -25 -46 l -1,-32 -5,-21 -13,-14 -22,-10 -36,-9 -51,-9 -12,-3 -104,-20 -39,-89 -38,-90 65,-98 26,-39 21,-33 14,-23 5,-11 -7,-9 -18,-21 -27,-28 -30,-31 -82,-82 -103,70 -104,71 -87,-35 -88,-35 -25,-124 -8,-41 h 4233 v 163 l 443,-3 442,-3 3,-77 3,-77 -330,-3 -331,-3 251,-260 85,-88 71,-76 60,-65 48,-57 39,-49 30,-45 22,-40 17,-39 12,-38 7,-39 4,-26 v -87 l -19,-83 -38,-76 -45,-58 -64,-54 -77,-40 -91,-26 -102,-11 -27,-1 -64,2 -60,6 -61,12 -70,18 -51,16 -97,31 v 95 46 l 2,28 5,14 5,1 15,-6 27,-13 36,-15 15,-7 103,-39 96,-23 88,-8 79,7 68,22 58,38 45,53 11,19 13,32 7,36 1,42 -2,34 -4,32 -9,32 -14,33 -21,36 -27,40 -36,46 -46,54 -56,61 -68,72 -80,84 -54,55 -267,275 h -4233 l -17,-83 h -240 l -23,120 -9,47 -9,39 -7,28 -5,12 v 0 l -12,6 -26,12 -35,15 -16,6 -81,33 -104,-71 -103,-71 -83,82 -32,33 -27,28 -18,20 -6,10 6,11 15,23 21,33 24,34 25,38 22,33 13,22 5,10 -4,13 -10,25 -14,33 -15,35 -14,32 -12,24 -4,7 -13,8 -26,8 -31,7 -44,8 -47,9 -24,5 -53,11 h -2933 v -63 l -62,3 -63,3 -3,77 -2,37 -3,27 -4,13 -1,1 -13,-5 -19,-10 -34,-11 -45,-3 -46,4 -40,13 -3,1 -51,36 -36,47 -20,60 -5,58 h -109 l 2,-27 7,-30 10,-18 16,-11 23,-7 7,-1 34,-7 v -59 l -1,-33 -2,-18 -8,-8 -14,-1 h -4 l -28,6 -27,15 -18,12 h -7 l -1,-7 -4,-9 -15,-5 -30,-2 h -11 -60 -70 -61 l -38,2 -21,5 -7,7 -6,8 -13,-3 -18,-10 -41,-15 -49,-4 -51,7 -35,13 -51,36 -36,46 -23,54 -8,58 h -53 v -344 h -120 -180 l -20,-1 v 562 h -442 l 23,-10 1,-1 23,-15 11,-3 3,11 v 3 l 4,9 14,4 h 29 l 11,-1 58,-3 v -99 h 66 l 1,44 1,32 1,15 v 1 l 14,8 32,4 h 19 61 v -421 l -63,3 -62,3 -3,195 -1,61 v 55 h -66 v -311 l -63,-3 -63,-3 v 128 l -1,64 -2,47 -6,32 -10,20 -15,11 -22,4 h -14 l -25,-1 -18,-7 -13,-15 -8,-26 -4,-39 -1,-55 -1,-34 v -128 h -120 -210 l -34,-8 -33,-2 -68,9 -58,25 -44,40 -34,55 -17,58 -1,59 h -110 l 1,-35 4,-33 3,-18 h 1 l 15,-15 27,-13 8,-3 40,-12 v -58 l -1,-33 -3,-18 -8,-7 -11,-1 -23,5 -28,13 -4,2 -21,12 h -10 l -1,-7 -5,-9 -17,-4 -32,-2 h -7 -60 -189 l -12,-4 -46,-5 -45,2 -36,11 -2,1 -21,11 -11,4 -4,-9 -3,-25 -1,-35 v -11 -10 h 1562 l 7,18 18,9 33,3 h 11 61 v -101 l -63,3 -62,3 -4,33 -1,32 h -1562 v -71 l -63,3 -62,3 h -146 v -3 l -8,-20 -13,-23 -13,-20 -11,-9 v 0 l -17,4 -25,12 -4,2 -29,17 -35,20 -17,9 -47,26 h -176 v -15 l -62,-3 -63,-3 v 171 l -32,-20 -38,-14 -48,-6 -49,4 -36,10 -47,30 -37,43 -25,53 -12,58 h -7153 v -2017 h 2774 l 2,30 3,17 1,1 h 11 l 27,-3 38,-6 46,-7 49,-9 49,-10 44,-9 35,-8 16,-5 h 4 l 3,3 3,7 2,13 2,22 1,30 1,41 1,53 v 68 l 1,83 v 99 112 536 h -310 v 161 l 402,-3 403,-3 3,-77 3,-78 h -311 v -60 h 3834 v 572 l 62,-3 63,-3 2,-218 h 50 l 4,55 18,53 32,47 46,39 26,14 63,21 60,1 61,-18 12,-5 28,-18 28,-24 25,-26 18,-24 7,-19 -1,-3 h 44 l 6,32 18,41 33,32 45,22 52,11 58,-2 33,-8 32,-15 31,-24 5,-6 20,-27 8,-28 2,-28 -6,-45 -20,-35 -35,-28 -53,-22 -47,-17 -29,-15 -14,-13 -2,-15 1,-3 14,-13 21,-4 19,6 7,8 9,9 22,5 38,1 h 2 65 l -7,-27 -20,-46 -35,-33 -36,-14 h 336 v 571 h 130 v -85 l 1,-39 v -29 l 2,-16 v -1 l 10,4 21,10 11,6 56,18 h 57 l 54,-17 49,-31 39,-45 21,-40 10,-43 2,-53 -3,-22 h 38 l 1,60 16,56 29,48 40,40 48,29 55,16 h 59 l 61,-17 12,-5 36,-23 31,-28 24,-30 11,-26 v -5 l -9,-9 -22,-4 h -31 l -33,4 -29,7 -19,10 -29,14 -31,6 -33,-7 -29,-15 -20,-22 -5,-17 1,-7 5,-6 13,-3 22,-2 35,-1 h 51 28 155 v -48 l -9,-62 -23,-52 -34,-39 h 86 l 1,30 4,15 10,5 h 15 30 v 159 l 1,54 1,48 2,36 2,23 1,5 13,3 27,1 h 23 l 55,-3 6,-326 h 30 l 17,-1 9,-6 3,-18 v -25 -29 l -4,-15 -11,-5 -15,-1 h 60 v 209 l 1,63 1,55 1,46 2,33 1,17 1,1 13,4 26,2 26,1 h 58 v -381 h 41 v 30 l 4,15 11,5 h 15 30 v 159 54 l 1,48 2,36 2,23 2,5 13,3 26,1 h 23 l 56,-3 2,-125 h 70 l 7,32 10,29 13,22 37,28 49,19 54,9 53,-3 33,-10 26,-16 h 421 621 v -271 h 290 v 281 h 251 v -281 h 290 v -259 l -143,-3 -142,-3 -3,-137 -3,-138 h -250 v 280 h -289 l -3,-132 -3,-133 h -611 v 260 l 311,5 310,5 v 250 l -621,11 -2,132 -3,133 h -421 l 19,-12 29,-40 13,-49 v -9 l -6,-45 -20,-35 -36,-28 -52,-22 -47,-17 -30,-15 -14,-13 v -13 l 4,-6 20,-14 21,-1 15,11 1,2 10,9 21,5 38,1 h 2 65 l -6,-27 -21,-46 -35,-33 -49,-19 -53,-5 -61,8 -49,24 -35,37 -21,44 -1,40 18,37 38,33 58,31 14,6 46,20 27,17 12,15 -3,14 -7,9 -25,14 -25,-3 -16,-15 -11,-12 -17,-6 -29,-2 h -20 -64 -70 l 3,-201 h 30 l 18,-1 8,-6 3,-18 1,-25 -1,-29 -4,-15 -10,-5 -15,-1 h -30 v -140 h -130 v 140 h -30 l -18,1 -9,7 -3,18 v 24 h -41 v -50 h -130 -60 -30 v -70 h 91 l 7,19 18,9 33,2 h 11 60 v -101 l -125,6 -3,34 -1,31 h -91 v -70 h -130 v 140 h -30 l -18,1 -9,7 -3,18 v 24 h -86 l -2,-2 -44,-31 -51,-19 -54,-7 -55,5 -51,18 -47,31 -38,46 -18,34 -17,63 h -38 l -3,-31 -13,-45 -1,-2 -26,-44 -37,-38 -41,-26 -24,-7 -51,-4 -52,5 -44,14 -16,9 -21,14 -9,3 -2,-9 v -6 l -2,-11 -9,-7 -21,-2 -28,-1 h -60 -336 l -13,-5 -53,-5 -61,8 -49,24 -36,37 -20,44 -1,40 18,37 38,33 58,31 14,6 45,20 28,17 12,15 -3,14 -7,9 -25,14 -25,-3 -17,-15 -10,-12 -17,-6 -29,-2 h -20 -64 -44 l -1,-4 -12,-3 -26,-3 h -24 l -43,3 -30,11 -8,6 -38,18 h -41 l -39,-17 -14,-12 -19,-21 -4,-12 6,-7 15,-3 30,-3 43,-2 51,-1 h 23 148 l -1,-48 -9,-64 -26,-54 -41,-45 -53,-31 -63,-17 -33,-2 -62,9 -53,23 -42,36 -32,45 -21,51 -8,54 h -50 l 1,-65 2,-283 h -130 -3834 v -240 h 7067 v 250 h 260 v -250 h -260 -7067 v -501 h 6844 283 v -27 l 8,-45 20,-36 30,-26 34,-13 37,2 35,18 7,7 22,28 9,30 -4,34 -19,40 -33,48 -48,56 -19,21 -56,63 -41,53 -26,45 -14,39 -2,22 v 32 h 256 l 14,-36 14,-25 27,-35 40,-44 39,-39 55,-57 41,-48 30,-42 19,-39 11,-41 4,-44 1,-21 -2,-45 -5,-34 -11,-32 -13,-27 -38,-57 h 2755 l 3,71 9,63 8,31 46,107 60,94 72,80 83,66 93,50 100,33 107,15 h 74 l 51,-5 53,-9 45,-11 2,-1 102,-41 92,-58 80,-71 66,-85 51,-95 33,-105 2,-9 7,-29 6,-14 5,3 7,20 9,39 2,6 30,91 48,87 63,81 75,70 85,59 92,44 32,11 71,16 82,7 84,-2 79,-10 44,-11 97,-39 91,-57 82,-70 67,-80 3,-4 28,-47 26,-52 22,-53 14,-47 6,-36 2,-23 6,-4 7,13 9,28 4,17 27,86 45,86 61,82 25,27 79,74 82,55 88,37 95,22 105,7 110,-8 98,-23 90,-39 85,-57 64,-57 70,-84 53,-92 36,-99 18,-104 1,-107 -18,-107 -37,-105 -10,-23 -49,-79 -64,-74 -76,-66 -83,-54 -87,-38 -46,-14 -61,-10 -70,-4 h -72 l -66,7 -36,7 -98,35 -94,52 -84,66 -72,79 -26,37 -27,46 -25,52 -20,51 -14,46 -5,34 -2,22 -5,4 -8,-12 -8,-28 -4,-21 -27,-90 -44,-86 -59,-80 -71,-72 -81,-60 -88,-47 -86,-28 -62,-10 -73,-4 -76,1 -68,8 -28,5 -89,30 -85,47 -80,60 -70,71 -58,78 -44,84 -26,82 -9,43 -7,23 -5,5 -6,-13 -7,-31 -2,-9 -32,-102 -49,-95 -68,-87 -4,-4 -80,-74 -83,-55 -90,-37 -99,-22 -74,-7 h -90 l -77,10 -72,19 -72,32 -7,4 -86,56 -78,71 -67,83 -52,91 -25,63 -15,60 -8,70 -3,74 h -2755 l -5,-8 -57,-52 -67,-39 -76,-24 -82,-9 -85,6 -86,23 -34,14 -68,41 -56,56 -44,69 -28,80 -11,60 -6,58 h -6844 v -440 l -103,1 -59,2 -64,6 -74,12 -65,12 -160,33 -3,79 -1,38 h -2774 v -1806 h 6101 l 3,84 8,77 7,39 39,126 55,118 69,107 84,95 96,83 106,68 115,52 123,34 51,9 67,5 h 78 l 81,-6 78,-10 44,-9 122,-39 112,-56 101,-73 89,-89 78,-105 9,-14 17,-28 11,-22 4,-8 -10,-2 -26,-2 -39,-1 -49,-1 h -26 -149 l -59,59 -77,63 -86,47 -93,31 -98,15 -100,-1 -99,-16 -97,-33 -91,-49 -79,-60 -70,-74 -54,-82 -40,-90 -3,-10 h 1531 l 4,72 8,64 6,24 31,93 43,83 57,77 45,48 84,75 90,56 95,39 105,22 101,6 51,-1 52,-5 44,-7 7,-1 67,-21 69,-33 66,-38 44,-34 24,-21 19,-14 7,-4 3,9 2,25 1,34 v 7 75 h 230 v -1301 h 270 v 859 130 l 1,123 v 117 107 l 1,98 1,86 1,73 1,59 v 42 l 2,25 v 6 l 13,3 27,2 h 40 38 l 111,-3 5,-289 5,-289 24,26 38,33 51,35 58,32 59,26 22,8 41,12 38,7 42,5 52,1 20,1 104,-5 91,-16 82,-28 76,-44 74,-59 39,-37 43,-44 32,-37 25,-36 22,-39 10,-19 41,-101 23,-103 9,-110 v -6 l -9,-119 -27,-111 -44,-103 -59,-93 -74,-81 -88,-68 -65,-37 -92,-38 h -3 571 v 209 h 190 v 1091 h 230 v -660 h 286 l 1,58 2,45 5,37 8,36 7,24 41,107 55,94 70,87 1,1 85,77 93,60 99,43 79,21 65,6 73,1 76,-6 69,-12 46,-12 15,-7 h 666 273 l 109,-1 90,-2 71,-3 54,-4 25,-4 95,-25 81,-40 71,-55 16,-15 58,-76 45,-84 28,-92 14,-94 -4,-94 -14,-66 h 159 l 5,93 15,86 36,104 52,97 66,89 78,76 87,60 32,17 109,44 112,23 113,4 101,-13 97,-29 h 489 l 9,1 26,2 38,1 h 47 7 128 l 155,-244 48,-76 39,-59 30,-44 23,-31 15,-17 9,-7 2,1 8,12 17,26 24,38 30,49 34,55 31,52 37,60 34,55 29,48 23,37 16,24 6,9 12,6 24,3 38,2 56,-1 h 8 l 126,-3 -195,-320 -45,-73 -41,-69 -37,-61 -32,-53 -25,-42 -17,-29 -8,-14 -1,-1 -1,-7 2,-11 7,-16 12,-23 19,-32 26,-42 35,-53 45,-68 47,-70 46,-69 42,-64 37,-57 32,-48 23,-36 16,-24 5,-9 -10,-2 -25,-1 -39,-1 -47,-1 h -13 -134 l -133,216 -37,59 -33,53 -28,44 -22,35 -14,21 -5,7 -7,-7 -15,-22 -23,-35 -28,-45 -33,-52 -22,-37 -35,-58 -33,-53 -28,-46 -21,-35 -14,-22 -4,-6 -8,-7 -12,-5 -20,-3 -32,-1 -47,1 h -22 l -128,3 187,300 43,70 40,65 36,58 30,48 23,38 14,24 5,9 -4,11 -14,25 -23,39 -31,50 -37,59 -42,66 -46,72 -14,21 -48,73 -44,68 -39,60 -33,52 -26,41 -18,28 -8,13 v 2 h -489 l 4,-2 96,-49 88,-64 78,-78 66,-89 52,-98 35,-102 13,-70 6,-78 v -79 l -7,-73 -8,-38 -12,-38 -18,-48 -21,-48 -6,-12 -21,-42 -22,-35 -28,-35 -36,-39 -25,-25 -83,-74 -85,-56 -90,-38 -97,-22 -109,-8 h -12 l -53,1 -42,3 -37,7 -41,12 -18,7 -105,46 -95,62 -84,76 -70,87 -56,97 -38,104 -2,8 -15,85 -5,94 h -159 l -6,-24 -26,-63 -34,-52 -46,-50 -51,-41 -35,-21 -55,-26 40,-29 53,-48 43,-61 18,-36 15,-48 8,-61 1,-68 -6,-67 -12,-62 -6,-19 -38,-82 -53,-68 -68,-56 -84,-43 -99,-30 -65,-11 -32,-3 -47,-3 -59,-2 -66,-2 h -69 -15 -218 v 1731 h -666 l 90,-40 93,-62 82,-76 69,-88 55,-98 39,-106 22,-111 3,-116 v -8 l -17,-113 -35,-107 -52,-100 -67,-91 -81,-78 -93,-64 -22,-12 -87,-39 -87,-24 -94,-11 -33,-1 -77,3 -67,9 -65,20 -72,30 -4,2 -101,60 -89,74 -75,88 -60,101 -37,92 -12,39 -8,35 -5,38 -2,47 -1,47 h -286 v -431 h 190 v -209 l -92,-3 -93,-3 -5,-425 h -230 l -5,425 -93,3 -92,3 h -571 l -93,-22 -105,-9 h -17 l -109,8 -99,24 -91,41 -87,59 -4,3 -55,45 v -150 h -241 -270 -230 v 151 l -57,-46 -93,-63 -101,-45 -107,-27 -113,-8 -116,11 -4,1 -104,29 -98,46 -89,62 -78,77 -65,89 -52,100 -31,93 -11,57 -5,69 -1,75 h -1531 l -29,-105 -13,-114 6,-111 25,-108 43,-102 61,-94 55,-63 81,-72 84,-53 89,-35 97,-19 108,-3 7,1 106,12 94,27 85,43 78,60 26,26 58,59 h 142 50 l 43,-1 31,-2 16,-2 h 2 l -6,-16 -13,-28 -20,-34 -23,-38 -24,-34 -74,-88 -89,-77 -101,-64 -111,-49 -70,-22 -53,-10 -65,-8 -73,-4 -72,-2 -65,2 -48,6 -129,31 -120,49 -110,67 -96,80 -93,100 -74,107 -57,116 -38,113 -13,65 -7,78 -3,84 h -6101 v -1400 h 23483 z"
       style="fill:#000000;fill-opacity:1;fill-rule:evenodd;stroke:#008484;stroke-width:3.93701005;stroke-linecap:round;stroke-linejoin:round;stroke-opacity:1" />
    <path
       id="path894"
       d="m 28902,29240 18,17 10,34 2,30 -2,32 -5,24 -5,8 -23,11 -28,-2 -21,-13 -12,-24 -4,-34 4,-35 13,-27 3,-4 27,-18 z"
       style="fill:#000000;fill-opacity:1;fill-rule:evenodd;stroke:#008484;stroke-width:3.93701005;stroke-linecap:round;stroke-linejoin:round;stroke-opacity:1" />
    <path
       id="path896"
       d="m 29158,29722 4,10 1,10 -7,24 -19,12 -25,8 -15,-1 -17,-9 -2,-2 -13,-18 -1,-14 7,-13 17,-7 27,-3 29,-1 z"
       style="fill:#000000;fill-opacity:1;fill-rule:evenodd;stroke:#008484;stroke-width:3.93701005;stroke-linecap:round;stroke-linejoin:round;stroke-opacity:1" />
    <path
       id="path898"
       d="m 29549,29632 16,16 7,30 1,25 -2,31 -6,24 -4,8 -22,10 h -27 l -23,-10 -6,-8 -7,-23 -3,-30 v -2 l 5,-42 15,-25 26,-9 h 2 z"
       style="fill:#000000;fill-opacity:1;fill-rule:evenodd;stroke:#008484;stroke-width:3.93701005;stroke-linecap:round;stroke-linejoin:round;stroke-opacity:1" />
    <path
       id="path900"
       d="m 30127,29719 13,5 4,13 v 6 l -8,23 -18,12 -25,8 -17,-1 -19,-13 -5,-3 -14,-19 3,-16 20,-12 35,-4 h 4 z"
       style="fill:#000000;fill-opacity:1;fill-rule:evenodd;stroke:#008484;stroke-width:3.93701005;stroke-linecap:round;stroke-linejoin:round;stroke-opacity:1" />
    <path
       id="path902"
       d="m 30527,29624 17,13 18,23 1,16 -18,9 -36,2 -33,-1 -17,-5 -5,-9 7,-17 13,-18 20,-14 15,-6 z"
       style="fill:#000000;fill-opacity:1;fill-rule:evenodd;stroke:#008484;stroke-width:3.93701005;stroke-linecap:round;stroke-linejoin:round;stroke-opacity:1" />
    <path
       id="path904"
       d="m 28663,29242 19,15 15,28 5,36 -6,36 -9,18 -24,18 -29,3 -26,-14 v -1 l -12,-23 -4,-38 v -3 l 2,-33 8,-20 12,-11 27,-14 z"
       style="fill:#000000;fill-opacity:1;fill-rule:evenodd;stroke:#008484;stroke-width:3.93701005;stroke-linecap:round;stroke-linejoin:round;stroke-opacity:1" />
    <path
       id="path906"
       d="m 29138,29246 22,22 6,12 1,10 -9,5 -22,2 h -19 l -33,-1 -17,-5 -4,-8 8,-21 20,-18 20,-7 z"
       style="fill:#000000;fill-opacity:1;fill-rule:evenodd;stroke:#008484;stroke-width:3.93701005;stroke-linecap:round;stroke-linejoin:round;stroke-opacity:1" />
    <path
       id="path908"
       d="m 29943,29248 19,23 10,36 1,19 -7,33 -18,25 -24,12 -27,-2 -18,-13 -11,-23 -5,-39 v -2 l 2,-32 7,-19 15,-14 1,-1 30,-10 z"
       style="fill:#000000;fill-opacity:1;fill-rule:evenodd;stroke:#008484;stroke-width:3.93701005;stroke-linecap:round;stroke-linejoin:round;stroke-opacity:1" />
    <path
       id="path910"
       d="m 30796,29244 21,18 7,21 -5,9 -20,4 -30,1 -30,-1 -20,-3 -5,-4 8,-20 19,-20 23,-11 5,-1 z"
       style="fill:#000000;fill-opacity:1;fill-rule:evenodd;stroke:#008484;stroke-width:3.93701005;stroke-linecap:round;stroke-linejoin:round;stroke-opacity:1" />
    <path
       id="path912"
       d="m 21678,28361 30,15 22,29 1,3 11,41 -7,43 -22,37 -3,3 -32,20 -40,6 -39,-8 -29,-18 -25,-36 -8,-39 6,-38 19,-32 32,-22 41,-9 v 0 z"
       style="fill:#000000;fill-opacity:1;fill-rule:evenodd;stroke:#008484;stroke-width:3.93701005;stroke-linecap:round;stroke-linejoin:round;stroke-opacity:1" />
    <path
       id="path914"
       d="m 22149,28342 34,13 27,22 6,9 4,10 -3,6 -12,3 -26,1 h -42 -1 -44 l -28,-3 -14,-4 -4,-7 v -1 l 8,-17 24,-17 32,-14 7,-2 z"
       style="fill:#000000;fill-opacity:1;fill-rule:evenodd;stroke:#008484;stroke-width:3.93701005;stroke-linecap:round;stroke-linejoin:round;stroke-opacity:1" />
    <path
       id="path916"
       d="m 22665,28363 31,21 20,37 v 0 l 5,38 -6,39 -16,31 -7,7 -27,14 -34,8 -29,-1 h -1 l -39,-20 -26,-32 -11,-39 5,-41 22,-38 22,-21 24,-9 22,-1 z"
       style="fill:#000000;fill-opacity:1;fill-rule:evenodd;stroke:#008484;stroke-width:3.93701005;stroke-linecap:round;stroke-linejoin:round;stroke-opacity:1" />
    <path
       id="path918"
       d="m 23400,28365 30,22 21,33 6,36 -9,42 -23,33 -33,20 -41,5 -41,-11 -27,-24 -16,-34 -3,-39 10,-38 19,-27 34,-23 37,-5 z"
       style="fill:#000000;fill-opacity:1;fill-rule:evenodd;stroke:#008484;stroke-width:3.93701005;stroke-linecap:round;stroke-linejoin:round;stroke-opacity:1" />
    <path
       id="path920"
       d="m 24937,28363 16,13 9,10 23,40 4,42 -15,40 -13,17 -36,28 -37,8 -37,-10 -31,-23 -23,-35 -9,-39 v -1 l 6,-24 13,-28 4,-6 16,-21 18,-10 27,-5 13,-1 h 32 z"
       style="fill:#000000;fill-opacity:1;fill-rule:evenodd;stroke:#008484;stroke-width:3.93701005;stroke-linecap:round;stroke-linejoin:round;stroke-opacity:1" />
    <path
       id="path922"
       d="m 25699,28364 34,22 20,35 2,11 v 42 l -14,39 -25,29 -34,13 -39,1 -38,-10 -21,-14 -25,-37 -9,-39 7,-38 20,-31 33,-23 42,-8 z"
       style="fill:#000000;fill-opacity:1;fill-rule:evenodd;stroke:#008484;stroke-width:3.93701005;stroke-linecap:round;stroke-linejoin:round;stroke-opacity:1" />
    <path
       id="path924"
       d="m 22892,27674 31,22 19,33 8,37 -5,39 -20,35 -16,15 -36,17 -41,2 -39,-12 -10,-7 -27,-33 -12,-41 4,-43 3,-8 25,-37 36,-22 40,-6 z"
       style="fill:#000000;fill-opacity:1;fill-rule:evenodd;stroke:#008484;stroke-width:3.93701005;stroke-linecap:round;stroke-linejoin:round;stroke-opacity:1" />
    <path
       id="path926"
       d="m 21843,27663 18,13 17,18 7,13 v 0 l -9,4 -25,3 -36,1 -20,1 -39,-1 -31,-3 -18,-3 -2,-2 7,-12 16,-17 3,-3 34,-19 39,-4 z"
       style="fill:#000000;fill-opacity:1;fill-rule:evenodd;stroke:#008484;stroke-width:3.93701005;stroke-linecap:round;stroke-linejoin:round;stroke-opacity:1" />
    <path
       id="path928"
       d="m 23368,27658 29,14 22,18 8,17 -9,4 -25,3 -36,1 -20,1 -40,-1 -31,-3 -17,-3 -2,-2 9,-18 22,-18 30,-13 29,-5 z"
       style="fill:#000000;fill-opacity:1;fill-rule:evenodd;stroke:#008484;stroke-width:3.93701005;stroke-linecap:round;stroke-linejoin:round;stroke-opacity:1" />
    <path
       id="path930"
       d="m 28552,25878 94,21 89,41 82,59 28,25 64,77 47,84 29,87 13,89 -3,89 -18,87 -34,82 -48,76 -62,67 -75,57 -88,44 -47,16 -56,11 -66,4 -69,-2 -62,-9 -28,-7 -69,-26 -57,-32 -55,-43 -18,-16 -69,-75 -51,-82 -32,-89 -16,-94 1,-29 h 156 l 7,65 23,51 38,39 48,25 40,11 34,2 39,-8 4,-1 28,-12 30,-19 27,-22 18,-20 4,-11 -8,-12 -20,-13 -5,-3 -23,-9 -14,1 -14,13 -3,3 -29,19 -35,6 -34,-9 -15,-11 -20,-33 -9,-41 1,-10 h 249 l 7,58 11,30 26,44 36,30 36,17 54,12 49,-4 35,-13 34,-19 30,-25 5,-5 29,-30 -78,-40 -22,24 -28,20 -29,4 -38,-8 -28,-25 -15,-41 -1,-2 -2,-46 10,-40 19,-31 26,-19 30,-5 32,11 20,17 19,21 42,-22 43,-21 -29,-31 -45,-34 -53,-20 -55,-5 -54,11 -48,27 -8,6 -32,43 -21,53 -7,58 h -249 l 1,-33 13,-38 20,-25 30,-18 27,1 30,17 5,4 21,16 15,4 19,-6 11,-6 26,-15 8,-15 -10,-19 -16,-16 -46,-32 -54,-15 h -56 l -54,16 -46,31 -8,8 -28,37 -15,42 -5,54 v 7 h -156 l 1,-63 21,-90 36,-85 51,-79 64,-69 74,-56 82,-41 46,-15 102,-17 z"
       style="fill:#000000;fill-opacity:1;fill-rule:evenodd;stroke:#008484;stroke-width:3.93701005;stroke-linecap:round;stroke-linejoin:round;stroke-opacity:1" />
    <path
       id="path932"
       d="m 29845,25885 93,29 86,49 78,66 11,11 61,78 42,84 26,87 9,90 -7,89 -22,86 -37,82 -52,75 -64,66 -78,54 -91,41 -5,2 -49,11 -61,7 -65,2 -63,-3 -48,-7 -69,-25 -70,-41 -67,-52 -60,-61 -49,-67 -20,-36 -33,-91 -4,-28 h 336 l 32,3 33,3 6,306 h 189 v -311 h 71 l -3,-142 -3,-143 h -320 l -3,142 -2,142 h -336 l -10,-63 2,-91 19,-87 34,-83 47,-76 11,-12 h 313 l 6,41 19,27 34,13 26,2 39,-5 26,-14 v -1 l 17,-30 3,-31 -8,-42 -23,-30 -36,-15 -19,-2 -41,8 -28,22 -13,37 -2,20 h -313 l 48,-55 70,-56 81,-44 88,-29 96,-12 23,-1 z"
       style="fill:#000000;fill-opacity:1;fill-rule:evenodd;stroke:#008484;stroke-width:3.93701005;stroke-linecap:round;stroke-linejoin:round;stroke-opacity:1" />
    <path
       id="path934"
       d="m 31087,25883 91,28 86,44 76,58 64,71 49,82 22,52 23,96 4,96 -14,93 -30,89 -45,82 -61,73 -73,61 -86,48 -37,15 -41,12 -40,8 -47,2 h -34 l -46,-1 -44,-3 -33,-3 -9,-2 -77,-28 -75,-44 -69,-57 -61,-68 -48,-74 -27,-62 -23,-94 -4,-93 9,-61 h 189 l 9,14 22,24 25,26 58,57 57,-58 27,-27 20,-23 10,-13 v -2 l -8,-6 -12,-1 -15,-2 -3,-9 9,-20 9,-16 25,-31 31,-18 43,-7 17,-1 52,7 39,21 29,36 17,53 7,69 v 13 l -6,72 -18,58 -28,44 -38,27 -47,11 -52,-7 -47,-20 -29,-31 -11,-29 -6,-30 h -158 l 6,28 24,68 37,56 54,49 4,2 54,28 65,14 72,-1 75,-15 15,-5 51,-27 50,-41 42,-51 29,-56 1,-2 18,-69 4,-77 -7,-75 -15,-53 -36,-69 -49,-56 -62,-40 -72,-25 -70,-7 -44,1 -33,5 -32,11 -26,12 -59,39 -45,51 -29,59 -3,12 -10,29 -12,14 -8,1 -14,2 -3,7 h -189 l 5,-30 29,-86 43,-80 56,-71 68,-61 77,-48 87,-34 93,-17 46,-2 z"
       style="fill:#000000;fill-opacity:1;fill-rule:evenodd;stroke:#008484;stroke-width:3.93701005;stroke-linecap:round;stroke-linejoin:round;stroke-opacity:1" />
    <path
       id="path936"
       d="m 24578,24373 77,23 72,38 65,51 55,63 44,75 30,86 9,45 5,94 -13,90 -31,85 -46,77 -60,66 -74,53 -25,13 -87,34 -86,15 -86,-5 -34,-7 -86,-31 -76,-47 -64,-60 -52,-72 -39,-80 -22,-86 -6,-90 12,-93 3,-11 26,-73 40,-67 56,-65 4,-3 71,-58 76,-40 80,-22 81,-7 z"
       style="fill:#000000;fill-opacity:1;fill-rule:evenodd;stroke:#008484;stroke-width:3.93701005;stroke-linecap:round;stroke-linejoin:round;stroke-opacity:1" />
    <path
       id="path938"
       d="m 26735,24367 83,21 75,36 69,55 54,67 41,76 27,83 11,87 -3,88 -18,87 -34,82 -49,75 -22,24 -68,58 -77,41 -87,23 -94,5 -40,-4 -81,-19 -77,-37 -70,-56 -6,-6 -55,-63 -38,-67 -24,-75 -12,-86 -1,-50 9,-99 26,-89 43,-79 58,-68 74,-56 35,-19 80,-29 85,-11 z"
       style="fill:#000000;fill-opacity:1;fill-rule:evenodd;stroke:#008484;stroke-width:3.93701005;stroke-linecap:round;stroke-linejoin:round;stroke-opacity:1" />
    <path
       id="path940"
       d="m 29449,24368 36,2 28,4 26,9 27,11 59,36 57,48 51,56 37,57 3,6 33,88 16,92 -1,93 -18,90 -33,85 -49,76 -27,31 -69,57 -78,39 -87,22 -94,4 -32,-3 -84,-19 -77,-36 -67,-51 -57,-65 -43,-75 -30,-84 -13,-90 -1,-24 7,-95 21,-83 37,-75 54,-71 21,-22 49,-44 46,-32 49,-21 57,-12 70,-4 25,-1 z"
       style="fill:#000000;fill-opacity:1;fill-rule:evenodd;stroke:#008484;stroke-width:3.93701005;stroke-linecap:round;stroke-linejoin:round;stroke-opacity:1" />
    <path
       id="path942"
       d="m 22970,24374 81,28 75,43 66,57 55,69 41,81 27,89 2,13 7,93 -13,90 -33,84 -51,79 -41,46 -74,62 -79,44 -83,24 -87,4 -77,-11 -89,-30 -78,-45 -66,-60 -53,-72 -38,-83 -21,-91 -5,-70 9,-97 26,-89 43,-79 56,-67 71,-55 82,-39 72,-20 89,-8 z"
       style="fill:#000000;fill-opacity:1;fill-rule:evenodd;stroke:#008484;stroke-width:3.93701005;stroke-linecap:round;stroke-linejoin:round;stroke-opacity:1" />
    <path
       id="path944"
       d="m 27949,24675 79,4 62,7 50,10 40,13 34,19 26,20 41,42 27,47 16,56 6,55 v 68 l -8,53 -18,44 -29,39 -7,7 -28,25 -32,20 -37,14 -46,10 -59,7 -74,4 -33,1 -158,5 v -575 z"
       style="fill:#000000;fill-opacity:1;fill-rule:evenodd;stroke:#008484;stroke-width:3.93701005;stroke-linecap:round;stroke-linejoin:round;stroke-opacity:1" />
    <path
       id="path946"
       d="m 28003,23986 76,14 61,23 45,34 31,45 19,57 4,32 -2,72 -17,63 -32,53 -46,41 -31,16 -32,10 -46,9 -54,8 -56,6 -52,3 h -17 -53 v -490 h 108 z"
       style="fill:#000000;fill-opacity:1;fill-rule:evenodd;stroke:#008484;stroke-width:3.93701005;stroke-linecap:round;stroke-linejoin:round;stroke-opacity:1" />
  </g>
  <g
     transform="translate(-14256.031,-23170.052)"
     id="g6"
     style="fill:#000000;fill-opacity:1;stroke:#000000;stroke-linecap:round;stroke-linejoin:round;stroke-opacity:1" />
  <g
     transform="translate(-14256.031,-23170.052)"
     id="g8"
     style="fill:#000000;fill-opacity:0;stroke:#000000;stroke-width:-0.0003937;stroke-linecap:round;stroke-linejoin:round;stroke-opacity:1" />
  <g
     transform="translate(-14256.031,-23170.052)"
     id="g10"
     style="fill:#000000;fill-opacity:0;stroke:#000000;stroke-width:39.37009811;stroke-linecap:round;stroke-linejoin:round;stroke-opacity:1" />
  <g
     transform="translate(-14256.031,-23170.052)"
     id="g16"
     style="fill:#000000;fill-opacity:0;stroke:#000000;stroke-width:39.37009811;stroke-linecap:round;stroke-linejoin:round;stroke-opacity:1" />
  <g
     transform="translate(-14256.031,-23170.052)"
     id="g22"
     style="fill:#000000;fill-opacity:0;stroke:#000000;stroke-width:39.37009811;stroke-linecap:round;stroke-linejoin:round;stroke-opacity:1" />
  <g
     transform="translate(-14256.031,-23170.052)"
     id="g28"
     style="fill:#000000;fill-opacity:0;stroke:#000000;stroke-width:39.37009811;stroke-linecap:round;stroke-linejoin:round;stroke-opacity:1" />
  <g
     transform="translate(-14256.031,-23170.052)"
     id="g34"
     style="fill:#000000;fill-opacity:0;stroke:#000000;stroke-width:39.37009811;stroke-linecap:round;stroke-linejoin:round;stroke-opacity:1" />
  <g
     transform="translate(-14256.031,-23170.052)"
     id="g40"
     style="fill:#000000;fill-opacity:0;stroke:#000000;stroke-width:39.37009811;stroke-linecap:round;stroke-linejoin:round;stroke-opacity:1" />
  <g
     transform="translate(-14256.031,-23170.052)"
     id="g46"
     style="fill:#000000;fill-opacity:0;stroke:#000000;stroke-width:39.37009811;stroke-linecap:round;stroke-linejoin:round;stroke-opacity:1" />
  <g
     transform="translate(-14256.031,-23170.052)"
     id="g52"
     style="fill:#000000;fill-opacity:0;stroke:#000000;stroke-width:39.37009811;stroke-linecap:round;stroke-linejoin:round;stroke-opacity:1" />
  <g
     transform="translate(-14256.031,-23170.052)"
     id="g58"
     style="fill:#000000;fill-opacity:0;stroke:#000000;stroke-width:39.37009811;stroke-linecap:round;stroke-linejoin:round;stroke-opacity:1" />
  <g
     transform="translate(-14256.031,-23170.052)"
     id="g66"
     style="fill:#000000;fill-opacity:0;stroke:#000000;stroke-width:39.37009811;stroke-linecap:round;stroke-linejoin:round;stroke-opacity:1" />
  <g
     transform="translate(-14256.031,-23170.052)"
     id="g72"
     style="fill:#000000;fill-opacity:0;stroke:#000000;stroke-width:39.37009811;stroke-linecap:round;stroke-linejoin:round;stroke-opacity:1" />
  <g
     transform="translate(-14256.031,-23170.052)"
     id="g78"
     style="fill:#000000;fill-opacity:0;stroke:#000000;stroke-width:39.37009811;stroke-linecap:round;stroke-linejoin:round;stroke-opacity:1" />
  <g
     transform="translate(-14256.031,-23170.052)"
     id="g86"
     style="fill:#000000;fill-opacity:0;stroke:#000000;stroke-width:39.37009811;stroke-linecap:round;stroke-linejoin:round;stroke-opacity:1" />
  <g
     transform="translate(-14256.031,-23170.052)"
     id="g92"
     style="fill:#000000;fill-opacity:0;stroke:#000000;stroke-width:39.37009811;stroke-linecap:round;stroke-linejoin:round;stroke-opacity:1" />
  <g
     transform="translate(-14256.031,-23170.052)"
     id="g98"
     style="fill:#000000;fill-opacity:0;stroke:#000000;stroke-width:39.37009811;stroke-linecap:round;stroke-linejoin:round;stroke-opacity:1" />
  <g
     transform="translate(-14256.031,-23170.052)"
     id="g104"
     style="fill:#000000;fill-opacity:0;stroke:#000000;stroke-width:39.37009811;stroke-linecap:round;stroke-linejoin:round;stroke-opacity:1" />
  <g
     transform="translate(-14256.031,-23170.052)"
     id="g110"
     style="fill:#000000;fill-opacity:0;stroke:#000000;stroke-width:39.37009811;stroke-linecap:round;stroke-linejoin:round;stroke-opacity:1" />
  <g
     transform="translate(-14256.031,-23170.052)"
     id="g116"
     style="fill:#000000;fill-opacity:0;stroke:#000000;stroke-width:39.37009811;stroke-linecap:round;stroke-linejoin:round;stroke-opacity:1" />
  <g
     transform="translate(-14256.031,-23170.052)"
     id="g122"
     style="fill:#000000;fill-opacity:0;stroke:#000000;stroke-width:39.37009811;stroke-linecap:round;stroke-linejoin:round;stroke-opacity:1" />
  <g
     transform="translate(-14256.031,-23170.052)"
     id="g128"
     style="fill:#000000;fill-opacity:0;stroke:#000000;stroke-width:39.37009811;stroke-linecap:round;stroke-linejoin:round;stroke-opacity:1" />
  <g
     transform="translate(-14256.031,-23170.052)"
     id="g136"
     style="fill:#000000;fill-opacity:0;stroke:#000000;stroke-width:39.37009811;stroke-linecap:round;stroke-linejoin:round;stroke-opacity:1" />
  <g
     transform="translate(-14256.031,-23170.052)"
     id="g142"
     style="fill:#000000;fill-opacity:0;stroke:#000000;stroke-width:39.37009811;stroke-linecap:round;stroke-linejoin:round;stroke-opacity:1" />
  <g
     transform="translate(-14256.031,-23170.052)"
     id="g148"
     style="fill:#000000;fill-opacity:0;stroke:#000000;stroke-width:39.37009811;stroke-linecap:round;stroke-linejoin:round;stroke-opacity:1" />
  <g
     transform="translate(-14256.031,-23170.052)"
     id="g156"
     style="fill:#000000;fill-opacity:0;stroke:#000000;stroke-width:39.37009811;stroke-linecap:round;stroke-linejoin:round;stroke-opacity:1" />
  <g
     transform="translate(-14256.031,-23170.052)"
     id="g162"
     style="fill:#000000;fill-opacity:0;stroke:#000000;stroke-width:39.37009811;stroke-linecap:round;stroke-linejoin:round;stroke-opacity:1" />
  <g
     transform="translate(-14256.031,-23170.052)"
     id="g168"
     style="fill:#000000;fill-opacity:0;stroke:#000000;stroke-width:39.37009811;stroke-linecap:round;stroke-linejoin:round;stroke-opacity:1" />
  <g
     transform="translate(-14256.031,-23170.052)"
     id="g174"
     style="fill:#000000;fill-opacity:0;stroke:#000000;stroke-width:39.37009811;stroke-linecap:round;stroke-linejoin:round;stroke-opacity:1" />
  <g
     transform="translate(-14256.031,-23170.052)"
     id="g180"
     style="fill:#000000;fill-opacity:0;stroke:#000000;stroke-width:39.37009811;stroke-linecap:round;stroke-linejoin:round;stroke-opacity:1" />
  <g
     transform="translate(-14256.031,-23170.052)"
     id="g186"
     style="fill:#000000;fill-opacity:0;stroke:#000000;stroke-width:39.37009811;stroke-linecap:round;stroke-linejoin:round;stroke-opacity:1" />
  <g
     transform="translate(-14256.031,-23170.052)"
     id="g194"
     style="fill:#000000;fill-opacity:0;stroke:#000000;stroke-width:39.37009811;stroke-linecap:round;stroke-linejoin:round;stroke-opacity:1" />
  <g
     transform="translate(-14256.031,-23170.052)"
     id="g200"
     style="fill:#000000;fill-opacity:0;stroke:#000000;stroke-width:39.37009811;stroke-linecap:round;stroke-linejoin:round;stroke-opacity:1" />
  <g
     transform="translate(-14256.031,-23170.052)"
     id="g206"
     style="fill:#000000;fill-opacity:0;stroke:#000000;stroke-width:39.37009811;stroke-linecap:round;stroke-linejoin:round;stroke-opacity:1" />
  <g
     transform="translate(-14256.031,-23170.052)"
     id="g212"
     style="fill:#000000;fill-opacity:0;stroke:#000000;stroke-width:39.37009811;stroke-linecap:round;stroke-linejoin:round;stroke-opacity:1" />
  <g
     transform="translate(-14256.031,-23170.052)"
     id="g218"
     style="fill:#000000;fill-opacity:0;stroke:#000000;stroke-width:39.37009811;stroke-linecap:round;stroke-linejoin:round;stroke-opacity:1" />
  <g
     transform="translate(-14256.031,-23170.052)"
     id="g224"
     style="fill:#000000;fill-opacity:0;stroke:#000000;stroke-width:39.37009811;stroke-linecap:round;stroke-linejoin:round;stroke-opacity:1" />
  <g
     transform="translate(-14256.031,-23170.052)"
     id="g230"
     style="fill:#000000;fill-opacity:0;stroke:#000000;stroke-width:39.37009811;stroke-linecap:round;stroke-linejoin:round;stroke-opacity:1" />
  <g
     transform="translate(-14256.031,-23170.052)"
     id="g238"
     style="fill:#000000;fill-opacity:0;stroke:#000000;stroke-width:39.37009811;stroke-linecap:round;stroke-linejoin:round;stroke-opacity:1" />
  <g
     transform="translate(-14256.031,-23170.052)"
     id="g244"
     style="fill:#000000;fill-opacity:0;stroke:#000000;stroke-width:39.37009811;stroke-linecap:round;stroke-linejoin:round;stroke-opacity:1" />
  <g
     transform="translate(-14256.031,-23170.052)"
     id="g250"
     style="fill:#000000;fill-opacity:0;stroke:#000000;stroke-width:39.37009811;stroke-linecap:round;stroke-linejoin:round;stroke-opacity:1" />
  <g
     transform="translate(-14256.031,-23170.052)"
     id="g256"
     style="fill:#000000;fill-opacity:0;stroke:#000000;stroke-width:39.37009811;stroke-linecap:round;stroke-linejoin:round;stroke-opacity:1" />
  <g
     transform="translate(-14256.031,-23170.052)"
     id="g276"
     style="fill:#000000;fill-opacity:0;stroke:#000000;stroke-width:39.37009811;stroke-linecap:round;stroke-linejoin:round;stroke-opacity:1" />
  <g
     transform="translate(-14256.031,-23170.052)"
     id="g282"
     style="fill:#000000;fill-opacity:0;stroke:#000000;stroke-width:39.37009811;stroke-linecap:round;stroke-linejoin:round;stroke-opacity:1" />
  <g
     transform="translate(-14256.031,-23170.052)"
     id="g354"
     style="fill:#000000;fill-opacity:0;stroke:#000000;stroke-width:39.37009811;stroke-linecap:round;stroke-linejoin:round;stroke-opacity:1" />
  <g
     transform="translate(-14256.031,-23170.052)"
     id="g360"
     style="fill:#000000;fill-opacity:0;stroke:#000000;stroke-width:39.37009811;stroke-linecap:round;stroke-linejoin:round;stroke-opacity:1" />
  <g
     transform="translate(-14256.031,-23170.052)"
     id="g376"
     style="fill:#000000;fill-opacity:0;stroke:#000000;stroke-width:39.37009811;stroke-linecap:round;stroke-linejoin:round;stroke-opacity:1" />
  <g
     transform="translate(-14256.031,-23170.052)"
     id="g402"
     style="fill:#000000;fill-opacity:0;stroke:#000000;stroke-width:39.37009811;stroke-linecap:round;stroke-linejoin:round;stroke-opacity:1" />
  <g
     transform="translate(-14256.031,-23170.052)"
     id="g426"
     style="fill:#000000;fill-opacity:0;stroke:#000000;stroke-width:39.37009811;stroke-linecap:round;stroke-linejoin:round;stroke-opacity:1" />
  <g
     transform="translate(-14256.031,-23170.052)"
     id="g432"
     style="fill:#000000;fill-opacity:0;stroke:#000000;stroke-width:39.37009811;stroke-linecap:round;stroke-linejoin:round;stroke-opacity:1" />
  <g
     transform="translate(-14256.031,-23170.052)"
     id="g456"
     style="fill:#000000;fill-opacity:0;stroke:#000000;stroke-width:39.37009811;stroke-linecap:round;stroke-linejoin:round;stroke-opacity:1" />
  <g
     transform="translate(-14256.031,-23170.052)"
     id="g536"
     style="fill:#000000;fill-opacity:0;stroke:#000000;stroke-width:39.37009811;stroke-linecap:round;stroke-linejoin:round;stroke-opacity:1" />
  <g
     transform="translate(-14256.031,-23170.052)"
     id="g542"
     style="fill:#000000;fill-opacity:0;stroke:#000000;stroke-width:39.37009811;stroke-linecap:round;stroke-linejoin:round;stroke-opacity:1" />
  <g
     transform="translate(-14256.031,-23170.052)"
     id="g564"
     style="fill:#000000;fill-opacity:0;stroke:#000000;stroke-width:39.37009811;stroke-linecap:round;stroke-linejoin:round;stroke-opacity:1" />
  <g
     transform="translate(-14256.031,-23170.052)"
     id="g570"
     style="fill:#000000;fill-opacity:0;stroke:#000000;stroke-width:39.37009811;stroke-linecap:round;stroke-linejoin:round;stroke-opacity:1" />
  <g
     transform="matrix(13.217267,0,0,13.217267,-476434.62,-514181.65)"
     id="g678"
     style="fill:#008484;fill-opacity:0;stroke:#008484;stroke-width:26;stroke-linecap:round;stroke-linejoin:round;stroke-opacity:1">
    <path
       id="path670"
       d="M 26500,36600 H 25500" />
    <path
       id="path672"
       d="m 25500,36600 v 3000" />
    <path
       id="path674"
       d="M 26500,39600 H 25500" />
    <path
       id="path676"
       d="m 26500,36600 v 3000" />
  </g>
  <g
     transform="matrix(13.217267,0,0,13.217267,-476434.62,-514181.65)"
     id="g688"
     style="fill:#008484;fill-opacity:0;stroke:#008484;stroke-width:50;stroke-linecap:round;stroke-linejoin:round;stroke-opacity:1">
    <path
       id="path680"
       d="M 26500,39600 H 25500" />
    <path
       id="path682"
       d="M 25500,39600 V 36600" />
    <path
       id="path684"
       d="m 25500,36600 h 1000" />
    <path
       id="path686"
       d="m 26500,36600 v 3000" />
  </g>
  <g
     transform="matrix(13.217267,0,0,13.217267,-476434.62,-514181.65)"
     id="g698"
     style="fill:#008484;fill-opacity:0;stroke:#ffffff;stroke-width:39.37009811;stroke-linecap:round;stroke-linejoin:round;stroke-opacity:1">
    <path
       style="stroke:#ffffff;stroke-opacity:1"
       id="path690"
       d="M 26500,39600 H 25500" />
    <path
       style="stroke:#ffffff;stroke-opacity:1"
       id="path692"
       d="M 25500,39600 V 36600" />
    <path
       style="stroke:#ffffff;stroke-opacity:1"
       id="path694"
       d="m 25500,36600 h 1000" />
    <path
       style="stroke:#ffffff;stroke-opacity:1"
       id="path696"
       d="m 26500,36600 v 3000" />
  </g>
  <g
     transform="matrix(13.217267,0,0,13.217267,-476434.62,-514181.65)"
     id="g752"
     style="fill:#ffffff;fill-opacity:0;stroke:#ffffff;stroke-width:26;stroke-linecap:round;stroke-linejoin:round;stroke-opacity:1">
    <path
       style="fill:#ffffff;stroke:#ffffff;stroke-opacity:1"
       id="path736"
       d="m 17320,32800 v -340" />
    <path
       style="fill:#ffffff;stroke:#ffffff;stroke-opacity:1"
       id="path738"
       d="m 17320,32460 h -240" />
    <path
       style="fill:#ffffff;stroke:#ffffff;stroke-opacity:1"
       id="path740"
       d="m 17080,32800 v -340" />
    <path
       style="fill:#ffffff;stroke:#ffffff;stroke-opacity:1"
       id="path742"
       d="m 17320,32800 h -240" />
    <path
       style="fill:#ffffff;stroke:#ffffff;stroke-opacity:1"
       id="path744"
       d="m 17320,35640 v -340" />
    <path
       style="fill:#ffffff;stroke:#ffffff;stroke-opacity:1"
       id="path746"
       d="m 17320,35300 h -240" />
    <path
       style="fill:#ffffff;stroke:#ffffff;stroke-opacity:1"
       id="path748"
       d="m 17080,35640 v -340" />
    <path
       style="fill:#ffffff;stroke:#ffffff;stroke-opacity:1"
       id="path750"
       d="m 17320,35640 h -240" />
  </g>
  <g
     transform="matrix(13.217267,0,0,13.217267,-476434.62,-514181.65)"
     id="g786"
     style="fill:#ffffff;fill-opacity:0;stroke:#ffffff;stroke-width:60;stroke-linecap:round;stroke-linejoin:round;stroke-opacity:1">
    <path
       style="fill:#ffffff;stroke:#ffffff;stroke-opacity:1"
       id="path754"
       d="m 17550,35300 h -700" />
    <path
       style="fill:#ffffff;stroke:#ffffff;stroke-opacity:1"
       id="path756"
       d="m 16750,35200 v -150" />
    <path
       style="fill:#ffffff;stroke:#ffffff;stroke-opacity:1"
       id="path758"
       d="m 16800,35000 -50,50" />
    <path
       style="fill:#ffffff;stroke:#ffffff;stroke-opacity:1"
       id="path760"
       d="m 17650,35200 v -150" />
    <path
       style="fill:#ffffff;stroke:#ffffff;stroke-opacity:1"
       id="path762"
       d="m 17600,35000 50,50" />
    <path
       style="fill:#ffffff;stroke:#ffffff;stroke-opacity:1"
       id="path764"
       d="m 16800,33100 -50,-50" />
    <path
       style="fill:#ffffff;stroke:#ffffff;stroke-opacity:1"
       id="path766"
       d="m 16800,33100 v 1900" />
    <path
       style="fill:#ffffff;stroke:#ffffff;stroke-opacity:1"
       id="path768"
       d="m 17600,33100 50,-50" />
    <path
       style="fill:#ffffff;stroke:#ffffff;stroke-opacity:1"
       id="path770"
       d="m 17600,33100 v 1900" />
    <path
       style="fill:#ffffff;stroke:#ffffff;stroke-opacity:1"
       id="path772"
       d="m 16750,32900 v 150" />
    <path
       style="fill:#ffffff;stroke:#ffffff;stroke-opacity:1"
       id="path774"
       d="m 17650,32900 v 150" />
    <path
       style="fill:#ffffff;stroke:#ffffff;stroke-opacity:1"
       id="path776"
       d="m 17550,32800 h -700" />
    <path
       style="fill:#ffffff;stroke:#ffffff;stroke-opacity:1"
       id="path778"
       d="m 16750,35200 a 100,100 0 0 0 100,100" />
    <path
       style="fill:#ffffff;stroke:#ffffff;stroke-opacity:1"
       id="path780"
       d="m 17550,35300 a 100,100 0 0 0 100,-100" />
    <path
       style="fill:#ffffff;stroke:#ffffff;stroke-opacity:1"
       id="path782"
       d="m 17650,32900 a 100,100 0 0 0 -100,-100" />
    <path
       style="fill:#ffffff;stroke:#ffffff;stroke-opacity:1"
       id="path784"
       d="m 16850,32800 a 100,100 0 0 0 -100,100" />
  </g>
  <g
     transform="matrix(13.217267,0,0,13.217267,-476434.62,-514181.65)"
     id="g804"
     style="fill:#ffffff;fill-opacity:0;stroke:#ffffff;stroke-width:26;stroke-linecap:round;stroke-linejoin:round;stroke-opacity:1">
    <path
       style="fill:#ffffff;stroke:#ffffff;stroke-opacity:1"
       id="path788"
       d="m 21180,32600 v 340" />
    <path
       style="fill:#ffffff;stroke:#ffffff;stroke-opacity:1"
       id="path790"
       d="m 21180,32940 h 240" />
    <path
       style="fill:#ffffff;stroke:#ffffff;stroke-opacity:1"
       id="path792"
       d="m 21420,32600 v 340" />
    <path
       style="fill:#ffffff;stroke:#ffffff;stroke-opacity:1"
       id="path794"
       d="m 21180,32600 h 240" />
    <path
       style="fill:#ffffff;stroke:#ffffff;stroke-opacity:1"
       id="path796"
       d="m 21180,29760 v 340" />
    <path
       style="fill:#ffffff;stroke:#ffffff;stroke-opacity:1"
       id="path798"
       d="m 21180,30100 h 240" />
    <path
       style="fill:#ffffff;stroke:#ffffff;stroke-opacity:1"
       id="path800"
       d="m 21420,29760 v 340" />
    <path
       style="fill:#ffffff;stroke:#ffffff;stroke-opacity:1"
       id="path802"
       d="m 21180,29760 h 240" />
  </g>
  <g
     transform="matrix(13.217267,0,0,13.217267,-476434.62,-514181.65)"
     id="g838"
     style="fill:#ffffff;fill-opacity:0;stroke:#ffffff;stroke-width:60;stroke-linecap:round;stroke-linejoin:round;stroke-opacity:1">
    <path
       style="fill:#ffffff;stroke:#ffffff;stroke-opacity:1"
       id="path806"
       d="m 20950,30100 h 700" />
    <path
       style="fill:#ffffff;stroke:#ffffff;stroke-opacity:1"
       id="path808"
       d="m 21750,30200 v 150" />
    <path
       style="fill:#ffffff;stroke:#ffffff;stroke-opacity:1"
       id="path810"
       d="m 21700,30400 50,-50" />
    <path
       style="fill:#ffffff;stroke:#ffffff;stroke-opacity:1"
       id="path812"
       d="m 20850,30200 v 150" />
    <path
       style="fill:#ffffff;stroke:#ffffff;stroke-opacity:1"
       id="path814"
       d="m 20900,30400 -50,-50" />
    <path
       style="fill:#ffffff;stroke:#ffffff;stroke-opacity:1"
       id="path816"
       d="m 21700,32300 50,50" />
    <path
       style="fill:#ffffff;stroke:#ffffff;stroke-opacity:1"
       id="path818"
       d="M 21700,32300 V 30400" />
    <path
       style="fill:#ffffff;stroke:#ffffff;stroke-opacity:1"
       id="path820"
       d="m 20900,32300 -50,50" />
    <path
       style="fill:#ffffff;stroke:#ffffff;stroke-opacity:1"
       id="path822"
       d="M 20900,32300 V 30400" />
    <path
       style="fill:#ffffff;stroke:#ffffff;stroke-opacity:1"
       id="path824"
       d="m 21750,32500 v -150" />
    <path
       style="fill:#ffffff;stroke:#ffffff;stroke-opacity:1"
       id="path826"
       d="m 20850,32500 v -150" />
    <path
       style="fill:#ffffff;stroke:#ffffff;stroke-opacity:1"
       id="path828"
       d="m 20950,32600 h 700" />
    <path
       style="fill:#ffffff;stroke:#ffffff;stroke-opacity:1"
       id="path830"
       d="m 21750,30200 a 100,100 0 0 0 -100,-100" />
    <path
       style="fill:#ffffff;stroke:#ffffff;stroke-opacity:1"
       id="path832"
       d="m 20950,30100 a 100,100 0 0 0 -100,100" />
    <path
       style="fill:#ffffff;stroke:#ffffff;stroke-opacity:1"
       id="path834"
       d="m 20850,32500 a 100,100 0 0 0 100,100" />
    <path
       style="fill:#ffffff;stroke:#ffffff;stroke-opacity:1"
       id="path836"
       d="m 21650,32600 a 100,100 0 0 0 100,-100" />
  </g>
  <g
     transform="matrix(13.217267,0,0,13.217267,-476434.62,-514181.65)"
     id="g856"
     style="fill:#ffffff;fill-opacity:0;stroke:#ffffff;stroke-width:26;stroke-linecap:round;stroke-linejoin:round;stroke-opacity:1">
    <path
       style="fill:#ffffff;stroke:#ffffff;stroke-opacity:1"
       id="path840"
       d="m 19200,34580 h -340" />
    <path
       style="fill:#ffffff;stroke:#ffffff;stroke-opacity:1"
       id="path842"
       d="m 18860,34580 v 240" />
    <path
       style="fill:#ffffff;stroke:#ffffff;stroke-opacity:1"
       id="path844"
       d="m 19200,34820 h -340" />
    <path
       style="fill:#ffffff;stroke:#ffffff;stroke-opacity:1"
       id="path846"
       d="m 19200,34580 v 240" />
    <path
       style="fill:#ffffff;stroke:#ffffff;stroke-opacity:1"
       id="path848"
       d="m 22040,34580 h -340" />
    <path
       style="fill:#ffffff;stroke:#ffffff;stroke-opacity:1"
       id="path850"
       d="m 21700,34580 v 240" />
    <path
       style="fill:#ffffff;stroke:#ffffff;stroke-opacity:1"
       id="path852"
       d="m 22040,34820 h -340" />
    <path
       style="fill:#ffffff;stroke:#ffffff;stroke-opacity:1"
       id="path854"
       d="m 22040,34580 v 240" />
  </g>
  <g
     transform="matrix(13.217267,0,0,13.217267,-476434.62,-514181.65)"
     id="g890"
     style="fill:#ffffff;fill-opacity:0;stroke:#ffffff;stroke-width:60;stroke-linecap:round;stroke-linejoin:round;stroke-opacity:1">
    <path
       style="fill:#ffffff;stroke:#ffffff;stroke-opacity:1"
       id="path858"
       d="m 21700,34350 v 700" />
    <path
       style="fill:#ffffff;stroke:#ffffff;stroke-opacity:1"
       id="path860"
       d="m 21600,35150 h -150" />
    <path
       style="fill:#ffffff;stroke:#ffffff;stroke-opacity:1"
       id="path862"
       d="m 21400,35100 50,50" />
    <path
       style="fill:#ffffff;stroke:#ffffff;stroke-opacity:1"
       id="path864"
       d="m 21600,34250 h -150" />
    <path
       style="fill:#ffffff;stroke:#ffffff;stroke-opacity:1"
       id="path866"
       d="m 21400,34300 50,-50" />
    <path
       style="fill:#ffffff;stroke:#ffffff;stroke-opacity:1"
       id="path868"
       d="m 19500,35100 -50,50" />
    <path
       style="fill:#ffffff;stroke:#ffffff;stroke-opacity:1"
       id="path870"
       d="m 19500,35100 h 1900" />
    <path
       style="fill:#ffffff;stroke:#ffffff;stroke-opacity:1"
       id="path872"
       d="m 19500,34300 -50,-50" />
    <path
       style="fill:#ffffff;stroke:#ffffff;stroke-opacity:1"
       id="path874"
       d="m 19500,34300 h 1900" />
    <path
       style="fill:#ffffff;stroke:#ffffff;stroke-opacity:1"
       id="path876"
       d="m 19300,35150 h 150" />
    <path
       style="fill:#ffffff;stroke:#ffffff;stroke-opacity:1"
       id="path878"
       d="m 19300,34250 h 150" />
    <path
       style="fill:#ffffff;stroke:#ffffff;stroke-opacity:1"
       id="path880"
       d="m 19200,34350 v 700" />
    <path
       style="fill:#ffffff;stroke:#ffffff;stroke-opacity:1"
       id="path882"
       d="m 21600,35150 a 100,100 0 0 0 100,-100" />
    <path
       style="fill:#ffffff;stroke:#ffffff;stroke-opacity:1"
       id="path884"
       d="m 21700,34350 a 100,100 0 0 0 -100,-100" />
    <path
       style="fill:#ffffff;stroke:#ffffff;stroke-opacity:1"
       id="path886"
       d="m 19300,34250 a 100,100 0 0 0 -100,100" />
    <path
       style="fill:#ffffff;stroke:#ffffff;stroke-opacity:1"
       id="path888"
       d="m 19200,35050 a 100,100 0 0 0 100,100" />
  </g>
  <g
     transform="translate(-14256.031,-23170.052)"
     id="g950"
     style="fill:#008484;fill-opacity:1;stroke:#008484;stroke-width:26;stroke-linecap:round;stroke-linejoin:round;stroke-opacity:1" />
  <g
     transform="matrix(13.217267,0,0,13.217267,-476434.62,-514181.65)"
     id="g982"
     style="fill:#008484;fill-opacity:0;stroke:#fdffff;stroke-width:50;stroke-linecap:round;stroke-linejoin:round;stroke-opacity:1">
    <path
       style="stroke:#fdffff;stroke-opacity:1"
       id="path970"
       d="m 37750,25560 v 3280" />
    <path
       style="stroke:#fdffff;stroke-opacity:1"
       id="path972"
       d="M 36050,28840 V 25560" />
    <path
       style="stroke:#fdffff;stroke-opacity:1"
       id="path974"
       d="m 36050,28853 h 260" />
    <path
       style="stroke:#fdffff;stroke-opacity:1"
       id="path976"
       d="m 37750,28853 h -260" />
    <path
       style="stroke:#fdffff;stroke-opacity:1"
       id="path978"
       d="m 36050,25586 h 260" />
    <path
       style="stroke:#fdffff;stroke-opacity:1"
       id="path980"
       d="m 37750,25586 h -260" />
  </g>
  <g
     transform="matrix(13.217267,0,0,13.217267,-476434.62,-514181.65)"
     id="g1086"
     style="fill:#ffffff;fill-opacity:0;stroke:#ffffff;stroke-width:40;stroke-linecap:round;stroke-linejoin:round;stroke-opacity:1">
    <path
       style="fill:#ffffff;stroke:#ffffff;stroke-opacity:1"
       id="path996"
       d="m 17608,25583 v 250 l -17,50 -33,33 -50,17 h -33" />
    <path
       style="fill:#ffffff;stroke:#ffffff;stroke-opacity:1"
       id="path998"
       d="m 17958,25933 h -200" />
    <path
       style="fill:#ffffff;stroke:#ffffff;stroke-opacity:1"
       id="path1000"
       d="m 17858,25933 v -350 l -33,50 -34,33 -33,17" />
    <path
       style="fill:#ffffff;stroke:#ffffff;stroke-opacity:1"
       id="path1002"
       d="m 27050,38466 16,17 17,50 v 33 l -17,50 -33,34 -33,16 -67,17 h -50 l -67,-17 -33,-16 -33,-34 -17,-50 v -33 l 17,-50 16,-17" />
    <path
       style="fill:#ffffff;stroke:#ffffff;stroke-opacity:1"
       id="path1004"
       d="m 27083,38316 h -350 l 350,-200 h -350" />
    <path
       style="fill:#ffffff;stroke:#ffffff;stroke-opacity:1"
       id="path1006"
       d="m 27083,37766 v 200" />
    <path
       style="fill:#ffffff;stroke:#ffffff;stroke-opacity:1"
       id="path1008"
       d="m 27083,37866 h -350 l 50,34 33,33 17,33" />
    <path
       style="fill:#ffffff;stroke:#ffffff;stroke-opacity:1"
       id="path1010"
       d="m 34508,25583 v 250 l -17,50 -33,33 -50,17 h -33" />
    <path
       style="fill:#ffffff;stroke:#ffffff;stroke-opacity:1"
       id="path1012"
       d="m 34658,25616 17,-16 33,-17 h 83 l 34,17 16,16 17,34 v 33 l -17,50 -200,200 h 217" />
    <path
       style="fill:#ffffff;stroke:#ffffff;stroke-opacity:1"
       id="path1014"
       d="m 16633,34233 -167,117" />
    <path
       style="fill:#ffffff;stroke:#ffffff;stroke-opacity:1"
       id="path1016"
       d="m 16633,34433 h -350 v -133 l 17,-34 16,-16 34,-17 h 50 l 33,17 17,16 16,34 v 133" />
    <path
       style="fill:#ffffff;stroke:#ffffff;stroke-opacity:1"
       id="path1018"
       d="m 16633,33900 v 200" />
    <path
       style="fill:#ffffff;stroke:#ffffff;stroke-opacity:1"
       id="path1020"
       d="m 16633,34000 h -350 l 50,33 33,33 17,34" />
    <path
       style="fill:#ffffff;stroke:#ffffff;stroke-opacity:1"
       id="path1022"
       d="m 18333,34408 v 200" />
    <path
       style="fill:#ffffff;stroke:#ffffff;stroke-opacity:1"
       id="path1024"
       d="m 18333,34508 h -350 l 50,33 33,34 17,33" />
    <path
       style="fill:#ffffff;stroke:#ffffff;stroke-opacity:1"
       id="path1026"
       d="m 17983,34191 v -33 l 17,-33 16,-17 34,-17 66,-16 h 84 l 66,16 34,17 16,17 17,33 v 33 l -17,34 -16,16 -34,17 -66,17 h -84 l -66,-17 -34,-17 -16,-16 -17,-34" />
    <path
       style="fill:#ffffff;stroke:#ffffff;stroke-opacity:1"
       id="path1028"
       d="m 17983,33858 v -33 l 17,-34 16,-16 34,-17 66,-17 h 84 l 66,17 34,17 16,16 17,34 v 33 l -17,33 -16,17 -34,17 -66,16 h -84 l -66,-16 -34,-17 -16,-17 -17,-33" />
    <path
       style="fill:#ffffff;stroke:#ffffff;stroke-opacity:1"
       id="path1030"
       d="m 18333,33591 h -350" />
    <path
       style="fill:#ffffff;stroke:#ffffff;stroke-opacity:1"
       id="path1032"
       d="m 18333,33391 -200,150" />
    <path
       style="fill:#ffffff;stroke:#ffffff;stroke-opacity:1"
       id="path1034"
       d="m 17983,33391 200,200" />
    <path
       style="fill:#ffffff;stroke:#ffffff;stroke-opacity:1"
       id="path1036"
       d="m 22183,31283 -167,117" />
    <path
       style="fill:#ffffff;stroke:#ffffff;stroke-opacity:1"
       id="path1038"
       d="m 22183,31483 h -350 v -133 l 17,-34 16,-16 34,-17 h 50 l 33,17 17,16 16,34 v 133" />
    <path
       style="fill:#ffffff;stroke:#ffffff;stroke-opacity:1"
       id="path1040"
       d="m 21866,31150 -16,-17 -17,-33 v -84 l 17,-33 16,-17 34,-16 h 33 l 50,16 200,200 v -216" />
    <path
       style="fill:#ffffff;stroke:#ffffff;stroke-opacity:1"
       id="path1042"
       d="m 20483,31808 v 200" />
    <path
       style="fill:#ffffff;stroke:#ffffff;stroke-opacity:1"
       id="path1044"
       d="m 20483,31908 h -350 l 50,33 33,34 17,33" />
    <path
       style="fill:#ffffff;stroke:#ffffff;stroke-opacity:1"
       id="path1046"
       d="m 20133,31591 v -33 l 17,-33 16,-17 34,-17 66,-16 h 84 l 66,16 34,17 16,17 17,33 v 33 l -17,34 -16,16 -34,17 -66,17 h -84 l -66,-17 -34,-17 -16,-16 -17,-34" />
    <path
       style="fill:#ffffff;stroke:#ffffff;stroke-opacity:1"
       id="path1048"
       d="m 20133,31258 v -33 l 17,-34 16,-16 34,-17 66,-17 h 84 l 66,17 34,17 16,16 17,34 v 33 l -17,33 -16,17 -34,17 -66,16 h -84 l -66,-16 -34,-17 -16,-17 -17,-33" />
    <path
       style="fill:#ffffff;stroke:#ffffff;stroke-opacity:1"
       id="path1050"
       d="m 20483,30991 h -350" />
    <path
       style="fill:#ffffff;stroke:#ffffff;stroke-opacity:1"
       id="path1052"
       d="m 20483,30791 -200,150" />
    <path
       style="fill:#ffffff;stroke:#ffffff;stroke-opacity:1"
       id="path1054"
       d="m 20133,30791 200,200" />
    <path
       style="fill:#ffffff;stroke:#ffffff;stroke-opacity:1"
       id="path1056"
       d="m 20516,35583 -116,-167" />
    <path
       style="fill:#ffffff;stroke:#ffffff;stroke-opacity:1"
       id="path1058"
       d="m 20316,35583 v -350 h 134 l 33,17 17,16 16,34 v 50 l -16,33 -17,17 -33,16 h -134" />
    <path
       style="fill:#ffffff;stroke:#ffffff;stroke-opacity:1"
       id="path1060"
       d="m 20633,35233 h 217 l -117,133 h 50 l 33,17 17,17 17,33 v 83 l -17,34 -17,16 -33,17 h -100 l -33,-17 -17,-16" />
    <path
       style="fill:#ffffff;stroke:#ffffff;stroke-opacity:1"
       id="path1062"
       d="m 19991,33883 h -200" />
    <path
       style="fill:#ffffff;stroke:#ffffff;stroke-opacity:1"
       id="path1064"
       d="m 19891,33883 v -350 l -33,50 -33,33 -34,17" />
    <path
       style="fill:#ffffff;stroke:#ffffff;stroke-opacity:1"
       id="path1066"
       d="m 20208,33533 h 33 l 34,17 16,16 17,34 17,66 v 84 l -17,66 -17,34 -16,16 -34,17 h -33 l -33,-17 -17,-16 -17,-34 -16,-66 v -84 l 16,-66 17,-34 17,-16 33,-17" />
    <path
       style="fill:#ffffff;stroke:#ffffff;stroke-opacity:1"
       id="path1068"
       d="m 20541,33533 h 34 l 33,17 17,16 16,34 17,66 v 84 l -17,66 -16,34 -17,16 -33,17 h -34 l -33,-17 -17,-16 -16,-34 -17,-66 v -84 l 17,-66 16,-34 17,-16 33,-17" />
    <path
       style="fill:#ffffff;stroke:#ffffff;stroke-opacity:1"
       id="path1070"
       d="m 20808,33883 v -350" />
    <path
       style="fill:#ffffff;stroke:#ffffff;stroke-opacity:1"
       id="path1072"
       d="m 21008,33883 -150,-200" />
    <path
       style="fill:#ffffff;stroke:#ffffff;stroke-opacity:1"
       id="path1074"
       d="m 21008,33533 -200,200" />
    <path
       style="fill:#ffffff;stroke:#ffffff;stroke-opacity:1"
       id="path1076"
       d="m 36669.287,25264.533 50,17 h 83 l 34,-17 16,-16 17,-34 v -33 l -17,-33 -16,-17 -34,-17 -66,-16 -34,-17 -16,-17 -17,-33 v -33 l 17,-34 16,-16 34,-17 h 83 l 50,17" />
    <path
       style="fill:#ffffff;stroke:#ffffff;stroke-opacity:1"
       id="path1078"
       d="m 36986.287,24931.533 83,350 67,-250 66,250 84,-350" />
    <path
       style="fill:#ffffff;stroke:#ffffff;stroke-opacity:1"
       id="path1080"
       d="m 37241,25183 h -200" />
    <path
       style="fill:#ffffff;stroke:#ffffff;stroke-opacity:1"
       id="path1082"
       d="m 37502.287,25281.533 v -350 l -33,50 -33,33 -34,17" />
    <g
       style="fill:#ffffff;stroke:#ffffff;stroke-opacity:1"
       id="g1084" />
  </g>
  <g
     transform="translate(-14256.031,-23170.052)"
     id="g1088"
     style="fill:#000000;fill-opacity:0;stroke:#000000;stroke-width:40;stroke-linecap:round;stroke-linejoin:round;stroke-opacity:1" />
  <g
     transform="translate(-14256.031,-23170.052)"
     id="g1090"
     style="fill:#c2c200;fill-opacity:0;stroke:#c2c200;stroke-width:40;stroke-linecap:round;stroke-linejoin:round;stroke-opacity:1" />
  <g
     transform="matrix(13.217267,0,0,13.217267,-476434.62,-514181.65)"
     id="g1124"
     style="fill:#c2c200;fill-opacity:0;stroke:#c2c200;stroke-width:59.05509949;stroke-linecap:round;stroke-linejoin:round;stroke-opacity:1">
    <path
       id="path1092"
       d="M 14300,40100 V 23200" />
    <path
       id="path1094"
       d="M 37800,40100 H 14300" />
    <path
       id="path1096"
       d="M 37800,23200 V 40100" />
    <path
       id="path1098"
       d="M 14300,23200 H 37800" />
    <g
       id="g1100" />
    <g
       id="g1102" />
    <g
       id="g1104" />
    <g
       id="g1106" />
    <g
       id="g1108" />
    <g
       id="g1110" />
    <g
       id="g1112" />
    <g
       id="g1114" />
    <g
       id="g1116" />
    <g
       id="g1118" />
    <g
       id="g1120" />
    <g
       id="g1122" />
  </g>
</svg>
